<?xml version="1.0" encoding="utf-8"?>
<!-- Generator: Adobe Illustrator 19.2.1, SVG Export Plug-In . SVG Version: 6.00 Build 0)  -->
<svg version="1.1" id="Layer_1" xmlns="http://www.w3.org/2000/svg" xmlns:xlink="http://www.w3.org/1999/xlink" x="0px" y="0px"
	 viewBox="0 0 48 48" style="enable-background:new 0 0 48 48;" xml:space="preserve">
<style type="text/css">
	.st0{fill:#263239;stroke:#40C4FF;stroke-width:2;stroke-miterlimit:10;}
</style>
<g>
	<path class="st0" d="M4,37.4v-9.2c0-0.4,0.5-0.7,0.8-0.5l7.9,4.6c0.2,0.1,0.3,0.3,0.3,0.5l0,9.2c0,0.4-0.5,0.7-0.8,0.5l-7.9-4.6
		C4.1,37.8,4,37.6,4,37.4z"/>
	<path class="st0" d="M13.3,32.3l7.9-4.6c0.4-0.2,0.8,0.1,0.8,0.5l0,9.2c0,0.2-0.1,0.4-0.3,0.5l-7.9,4.6C13.5,42.7,13,42.4,13,42
		l0-9.2C13,32.6,13.1,32.4,13.3,32.3z"/>
	<path class="st0" d="M4.8,26.8l8-4.6c0.2-0.1,0.4-0.1,0.6,0l7.9,4.6c0.4,0.2,0.4,0.8,0,1l-7.9,4.6c-0.2,0.1-0.4,0.1-0.6,0l-7.9-4.6
		C4.4,27.5,4.4,27,4.8,26.8z"/>
</g>
<g>
	<path class="st0" d="M25,20.8v-9.2c0-0.4,0.5-0.7,0.8-0.5l7.9,4.6c0.2,0.1,0.3,0.3,0.3,0.5l0,9.2c0,0.4-0.5,0.7-0.8,0.5l-7.9-4.6
		C25.1,21.2,25,21,25,20.8z"/>
	<path class="st0" d="M34.4,15.8l7.9-4.6c0.4-0.2,0.8,0.1,0.8,0.5l0,9.2c0,0.2-0.1,0.4-0.3,0.5l-7.9,4.6c-0.4,0.2-0.8-0.1-0.8-0.5
		l0-9.2C34.1,16.1,34.2,15.9,34.4,15.8z"/>
	<path class="st0" d="M25.8,10.2l8-4.6c0.2-0.1,0.4-0.1,0.6,0l7.9,4.6c0.4,0.2,0.4,0.8,0,1l-7.9,4.6c-0.2,0.1-0.4,0.1-0.6,0
		l-7.9-4.6C25.5,11,25.5,10.4,25.8,10.2z"/>
</g>
</svg>
