<?xml version="1.0" encoding="utf-8"?>
<!-- Generator: Adobe Illustrator 19.2.1, SVG Export Plug-In . SVG Version: 6.00 Build 0)  -->
<svg version="1.1" id="Layer_1" xmlns="http://www.w3.org/2000/svg" xmlns:xlink="http://www.w3.org/1999/xlink" x="0px" y="0px"
	 viewBox="0 0 48 48" style="enable-background:new 0 0 48 48;" xml:space="preserve">
<style type="text/css">
	.st0{fill:#263239;stroke:#40C4FF;stroke-width:2;stroke-miterlimit:10;}
</style>
<g>
	<path class="st0" d="M9.8,31.3V16.4c0-0.7,0.8-1.1,1.4-0.8l12.9,7.4c0.3,0.2,0.5,0.5,0.5,0.8l0,14.9c0,0.7-0.8,1.1-1.4,0.8
		l-12.9-7.4C10,31.9,9.8,31.6,9.8,31.3z"/>
	<path class="st0" d="M25,23.1l12.9-7.4c0.6-0.4,1.4,0.1,1.4,0.8l0,14.9c0,0.3-0.2,0.6-0.5,0.8l-12.9,7.4c-0.6,0.4-1.4-0.1-1.4-0.8
		l0-14.9C24.5,23.5,24.7,23.2,25,23.1z"/>
	<path class="st0" d="M11.2,14l12.9-7.4c0.3-0.2,0.6-0.2,0.9,0L37.9,14c0.6,0.4,0.6,1.2,0,1.6L25,23.1c-0.3,0.2-0.6,0.2-0.9,0
		l-12.9-7.4C10.6,15.3,10.6,14.4,11.2,14z"/>
</g>
</svg>
