<?xml version="1.0" encoding="utf-8"?>
<!-- Generator: Adobe Illustrator 19.2.1, SVG Export Plug-In . SVG Version: 6.00 Build 0)  -->
<svg version="1.1" id="Layer_1" xmlns="http://www.w3.org/2000/svg" xmlns:xlink="http://www.w3.org/1999/xlink" x="0px" y="0px"
	 viewBox="0 0 48 48" style="enable-background:new 0 0 48 48;" xml:space="preserve">
<style type="text/css">
	.st0{enable-background:new    ;}
	.st1{fill:#2196F3;}
</style>
<g class="st0">
	<path class="st1" d="M15.6,33.8l-4.1-6.2c0.3-0.3,1.1-1.1,1.1-1.1c0.7-0.7,1.8-1.1,2.5-1.1s4.3,0,6.4,0c0,0,2.1,0,3.6-1.4
		c3.1-2.2,6-4.2,6-4.2L19.7,31.2c-1.3,0.4-2.6,1.2-3.8,2.3L15.6,33.8z M21.1,38.7l-1.4,1.4L19,39.4l-0.7,0.7c-0.2,0.2-0.8,0-1.2-0.5
		c-0.2-0.2-0.4-0.4-0.5-0.6c-0.9,0.8-1.7,1.3-1.8,1.2c-0.2-0.2,0.3-1,1.2-1.8c-0.2-0.1-0.4-0.3-0.6-0.5c-0.5-0.5-0.7-1-0.5-1.2
		l0.7-0.7l-0.7-0.7l1.4-1.4c1.2-1.2,2.5-1.9,3.7-2.3L32.2,19c1-0.7,1.8-1.3,2.4-1.7c2.5-1.8,3.9-1.8,4.3-1.4
		c0.4,0.4,0.4,1.8-1.4,4.3c-0.4,0.6-1,1.5-1.7,2.4L23.4,35C23.1,36.2,22.3,37.5,21.1,38.7z M34.9,23.8c0,0-2,2.8-4.2,6
		c-1.4,1.4-1.4,3.6-1.4,3.6c0,2.1,0,5.7,0,6.4s-0.4,1.8-1.1,2.5c0,0-0.7,0.7-1.1,1.1L21,39.2l0.3-0.3c1.1-1.1,2-2.5,2.3-3.8
		L34.9,23.8z M34.7,20.2c0.4,0.4,0.5,1,0.4,1.6l1.2-0.6c0.1-0.8-0.1-1.6-0.6-2.1c-0.5-0.5-1.3-0.7-2.1-0.6l-0.6,1.2
		C33.7,19.6,34.3,19.8,34.7,20.2z"/>
</g>
<g class="st0">
	<path class="st1" d="M8.9,16.1l-1.7-2.6c0.1-0.1,0.4-0.4,0.4-0.4c0.3-0.3,0.7-0.4,1-0.4c0.3,0,1.8,0,2.7,0c0,0,0.9,0,1.5-0.6
		c1.3-0.9,2.5-1.7,2.5-1.7L10.6,15c-0.5,0.2-1.1,0.5-1.6,1L8.9,16.1z M11.2,18.2l-0.6,0.6l-0.3-0.3L10,18.8c-0.1,0.1-0.3,0-0.5-0.2
		c-0.1-0.1-0.1-0.2-0.2-0.3c-0.4,0.3-0.7,0.6-0.8,0.5C8.5,18.7,8.7,18.4,9,18c-0.1,0-0.2-0.1-0.3-0.2c-0.2-0.2-0.3-0.4-0.2-0.5
		L8.8,17l-0.3-0.3l0.6-0.6c0.5-0.5,1-0.8,1.5-0.9l5.2-5.2c0.4-0.3,0.8-0.5,1-0.7c1-0.7,1.6-0.7,1.8-0.6s0.1,0.7-0.6,1.8
		c-0.2,0.3-0.4,0.6-0.7,1l-5.2,5.2C12,17.1,11.7,17.7,11.2,18.2z M17,12c0,0-0.8,1.2-1.7,2.5c-0.6,0.6-0.6,1.5-0.6,1.5
		c0,0.9,0,2.4,0,2.7c0,0.3-0.2,0.7-0.4,1c0,0-0.3,0.3-0.4,0.4l-2.6-1.7l0.1-0.1c0.5-0.5,0.8-1,1-1.6L17,12z M16.9,10.4
		c0.2,0.2,0.2,0.4,0.2,0.7l0.5-0.2c0.1-0.3,0-0.7-0.3-0.9c-0.2-0.2-0.6-0.3-0.9-0.3l-0.2,0.5C16.4,10.2,16.7,10.3,16.9,10.4z"/>
</g>
</svg>
