<?xml version="1.0" encoding="utf-8"?>
<!-- Generator: Adobe Illustrator 19.2.1, SVG Export Plug-In . SVG Version: 6.00 Build 0)  -->
<svg version="1.1" id="Layer_1" xmlns="http://www.w3.org/2000/svg" xmlns:xlink="http://www.w3.org/1999/xlink" x="0px" y="0px"
	 viewBox="0 0 48 48" style="enable-background:new 0 0 48 48;" xml:space="preserve">
<style type="text/css">
	.st0{enable-background:new    ;}
	.st1{fill:#2196F3;}
</style>
<g class="st0">
	<path class="st1" d="M9.7,32.3l-3.7-5.5C6.4,26.5,7,25.8,7,25.8c0.6-0.6,1.6-0.9,2.2-0.9c0.6,0,3.8,0,5.7,0c0,0,1.9,0,3.2-1.3
		c2.8-1.9,5.3-3.7,5.3-3.7l-10,10C12.2,30.2,11,31,10,32L9.7,32.3z M14.6,36.5l-1.3,1.3l-0.6-0.6l-0.6,0.6c-0.2,0.2-0.7,0-1.1-0.5
		c-0.2-0.2-0.3-0.4-0.4-0.6c-0.8,0.7-1.5,1.2-1.6,1c-0.2-0.2,0.3-0.9,1-1.6c-0.2-0.1-0.4-0.2-0.6-0.4c-0.4-0.4-0.7-0.9-0.5-1.1
		L9.6,34l-0.6-0.6l1.3-1.3c1-1,2.2-1.7,3.3-2l11-11c0.9-0.6,1.6-1.2,2.2-1.5c2.2-1.6,3.5-1.6,3.8-1.3c0.3,0.3,0.3,1.6-1.3,3.8
		c-0.4,0.5-0.9,1.3-1.5,2.2l-11,11C16.3,34.3,15.6,35.5,14.6,36.5z M26.8,23.4c0,0-1.8,2.5-3.7,5.3c-1.3,1.3-1.3,3.2-1.3,3.2
		c0,1.9,0,5,0,5.7c0,0.6-0.3,1.6-0.9,2.2c0,0-0.6,0.6-0.9,0.9L14.5,37l0.3-0.3c1-1,1.7-2.2,2.1-3.3L26.8,23.4z M26.6,20.1
		c0.4,0.4,0.5,0.9,0.4,1.4l1.1-0.5c0.1-0.7,0-1.4-0.5-1.9c-0.5-0.5-1.2-0.6-1.9-0.5l-0.5,1.1C25.7,19.7,26.2,19.8,26.6,20.1z"/>
</g>
<g class="st0">
	<path class="st1" d="M12.6,13L11,10.7c0.1-0.1,0.4-0.4,0.4-0.4c0.3-0.3,0.7-0.4,0.9-0.4c0.3,0,1.6,0,2.4,0c0,0,0.8,0,1.3-0.5
		c1.2-0.8,2.2-1.5,2.2-1.5L14.1,12c-0.5,0.1-1,0.4-1.4,0.9L12.6,13z M14.6,14.8l-0.5,0.5L13.8,15l-0.3,0.3c-0.1,0.1-0.3,0-0.5-0.2
		C13,15,13,15,12.9,14.9c-0.3,0.3-0.6,0.5-0.7,0.4c-0.1-0.1,0.1-0.4,0.4-0.7c-0.1,0-0.2-0.1-0.2-0.2c-0.2-0.2-0.3-0.4-0.2-0.5
		l0.3-0.3l-0.3-0.3l0.5-0.5c0.4-0.4,0.9-0.7,1.4-0.8l4.6-4.6c0.4-0.2,0.7-0.5,0.9-0.6c0.9-0.7,1.4-0.7,1.6-0.5s0.1,0.7-0.5,1.6
		c-0.2,0.2-0.4,0.5-0.6,0.9l-4.6,4.6C15.3,13.9,15,14.3,14.6,14.8z M19.7,9.3c0,0-0.7,1-1.5,2.2c-0.5,0.5-0.5,1.3-0.5,1.3
		c0,0.8,0,2.1,0,2.4c0,0.3-0.1,0.7-0.4,0.9c0,0-0.3,0.3-0.4,0.4L14.5,15l0.1-0.1c0.4-0.4,0.7-0.9,0.9-1.4L19.7,9.3z M19.6,7.9
		c0.2,0.2,0.2,0.4,0.2,0.6l0.5-0.2c0-0.3,0-0.6-0.2-0.8s-0.5-0.3-0.8-0.2L19,7.8C19.2,7.7,19.4,7.8,19.6,7.9z"/>
</g>
<g class="st0">
	<path class="st1" d="M30.6,36.2l-1.9-2.9c0.2-0.2,0.5-0.5,0.5-0.5c0.3-0.3,0.8-0.5,1.2-0.5c0.3,0,2,0,3,0c0,0,1,0,1.7-0.7
		c1.5-1,2.8-2,2.8-2l-5.3,5.3c-0.6,0.2-1.2,0.6-1.8,1.1L30.6,36.2z M33.2,38.4l-0.7,0.7l-0.3-0.3l-0.3,0.3c-0.1,0.1-0.4,0-0.6-0.2
		c-0.1-0.1-0.2-0.2-0.2-0.3c-0.4,0.4-0.8,0.6-0.9,0.5c-0.1-0.1,0.2-0.5,0.5-0.9c-0.1-0.1-0.2-0.1-0.3-0.2c-0.2-0.2-0.3-0.5-0.2-0.6
		l0.3-0.3l-0.3-0.3l0.7-0.7c0.5-0.5,1.2-0.9,1.7-1.1l5.8-5.8c0.5-0.3,0.9-0.6,1.1-0.8c1.2-0.8,1.8-0.8,2-0.7c0.2,0.2,0.2,0.8-0.7,2
		c-0.2,0.3-0.5,0.7-0.8,1.1l-5.8,5.8C34.1,37.3,33.7,37.9,33.2,38.4z M39.7,31.5c0,0-0.9,1.3-2,2.8C37,34.9,37,35.9,37,35.9
		c0,1,0,2.7,0,3c0,0.3-0.2,0.8-0.5,1.2c0,0-0.3,0.3-0.5,0.5l-2.9-1.9l0.2-0.2c0.5-0.5,0.9-1.2,1.1-1.8L39.7,31.5z M39.5,29.8
		c0.2,0.2,0.3,0.5,0.2,0.8l0.6-0.3c0.1-0.4,0-0.7-0.3-1c-0.3-0.3-0.6-0.3-1-0.3l-0.3,0.6C39.1,29.5,39.3,29.6,39.5,29.8z"/>
</g>
</svg>
