<?xml version="1.0" encoding="utf-8"?>
<!-- Generator: Adobe Illustrator 19.2.1, SVG Export Plug-In . SVG Version: 6.00 Build 0)  -->
<svg version="1.1" id="Layer_1" xmlns="http://www.w3.org/2000/svg" xmlns:xlink="http://www.w3.org/1999/xlink" x="0px" y="0px"
	 viewBox="0 0 48 48" style="enable-background:new 0 0 48 48;" xml:space="preserve">
<style type="text/css">
	.st0{fill:#263239;stroke:#40C4FF;stroke-width:2;stroke-miterlimit:10;}
</style>
<path class="st0" d="M9.2,33.9l13.4,7.7c0.8,0.5,1.9,0.5,2.7,0l13.4-7.7c1.8-1,1.8-3.6,0-4.7l-13.4-7.7c-0.8-0.5-1.9-0.5-2.7,0
	L9.2,29.2C7.4,30.3,7.4,32.9,9.2,33.9z"/>
<path class="st0" d="M9.2,26.5l13.4,7.7c0.8,0.5,1.9,0.5,2.7,0l13.4-7.7c1.8-1,1.8-3.6,0-4.7l-13.4-7.7c-0.8-0.5-1.9-0.5-2.7,0
	L9.2,21.9C7.4,22.9,7.4,25.5,9.2,26.5z"/>
<path class="st0" d="M9.2,18.8l13.4,7.7c0.8,0.5,1.9,0.5,2.7,0l13.4-7.7c1.8-1,1.8-3.6,0-4.7L25.4,6.4c-0.8-0.5-1.9-0.5-2.7,0
	L9.2,14.1C7.4,15.1,7.4,17.7,9.2,18.8z"/>
</svg>
