<?xml version="1.0" encoding="utf-8"?>
<!-- Generator: Adobe Illustrator 19.2.1, SVG Export Plug-In . SVG Version: 6.00 Build 0)  -->
<svg version="1.1" id="Layer_1" xmlns="http://www.w3.org/2000/svg" xmlns:xlink="http://www.w3.org/1999/xlink" x="0px" y="0px"
	 viewBox="0 0 48 48" style="enable-background:new 0 0 48 48;" xml:space="preserve">
<style type="text/css">
	.st0{fill:#263239;stroke:#40C4FF;stroke-width:2;stroke-miterlimit:10;}
</style>
<g>
	<path class="st0" d="M2.6,38.2v-8.9c0-0.4,0.5-0.7,0.8-0.5l7.7,4.5c0.2,0.1,0.3,0.3,0.3,0.5l0,8.9c0,0.4-0.5,0.7-0.8,0.5l-7.7-4.5
		C2.7,38.6,2.6,38.4,2.6,38.2z"/>
	<path class="st0" d="M11.7,33.3l7.7-4.5c0.4-0.2,0.8,0.1,0.8,0.5l0,8.9c0,0.2-0.1,0.4-0.3,0.5l-7.7,4.5c-0.4,0.2-0.8-0.1-0.8-0.5
		l0-8.9C11.4,33.6,11.5,33.4,11.7,33.3z"/>
	<path class="st0" d="M3.4,27.9l7.8-4.5c0.2-0.1,0.4-0.1,0.5,0l7.7,4.4c0.4,0.2,0.4,0.7,0,1l-7.7,4.5c-0.2,0.1-0.4,0.1-0.5,0
		l-7.7-4.5C3.1,28.6,3.1,28.1,3.4,27.9z"/>
</g>
<g>
	<path class="st0" d="M27.5,38.3v-8.9c0-0.4,0.5-0.7,0.8-0.5l7.7,4.5c0.2,0.1,0.3,0.3,0.3,0.5l0,8.9c0,0.4-0.5,0.7-0.8,0.5l-7.7-4.5
		C27.6,38.7,27.5,38.5,27.5,38.3z"/>
	<path class="st0" d="M36.6,33.4l7.7-4.5c0.4-0.2,0.8,0.1,0.8,0.5l0,8.9c0,0.2-0.1,0.4-0.3,0.5l-7.7,4.5c-0.4,0.2-0.8-0.1-0.8-0.5
		l0-8.9C36.3,33.6,36.5,33.5,36.6,33.4z"/>
	<path class="st0" d="M28.3,27.9l7.8-4.5c0.2-0.1,0.4-0.1,0.5,0l7.7,4.4c0.4,0.2,0.4,0.7,0,1l-7.7,4.5c-0.2,0.1-0.4,0.1-0.5,0
		l-7.7-4.5C28,28.7,28,28.1,28.3,27.9z"/>
</g>
<g>
	<path class="st0" d="M15.3,18.8V9.9c0-0.4,0.5-0.7,0.8-0.5l7.7,4.5c0.2,0.1,0.3,0.3,0.3,0.5l0,8.9c0,0.4-0.5,0.7-0.8,0.5l-7.7-4.5
		C15.4,19.2,15.3,19,15.3,18.8z"/>
	<path class="st0" d="M24.4,13.9l7.7-4.5c0.4-0.2,0.8,0.1,0.8,0.5l0,8.9c0,0.2-0.1,0.4-0.3,0.5l-7.7,4.5c-0.4,0.2-0.8-0.1-0.8-0.5
		l0-8.9C24.1,14.2,24.2,14,24.4,13.9z"/>
	<path class="st0" d="M16.1,8.5L23.8,4c0.2-0.1,0.4-0.1,0.5,0l7.7,4.4c0.4,0.2,0.4,0.7,0,1l-7.7,4.5c-0.2,0.1-0.4,0.1-0.5,0
		l-7.7-4.5C15.7,9.2,15.7,8.7,16.1,8.5z"/>
</g>
</svg>
