<?xml version="1.0" encoding="utf-8"?>
<!-- Generator: Adobe Illustrator 19.2.1, SVG Export Plug-In . SVG Version: 6.00 Build 0)  -->
<svg version="1.1" id="Layer_1" xmlns="http://www.w3.org/2000/svg" xmlns:xlink="http://www.w3.org/1999/xlink" x="0px" y="0px"
	 viewBox="0 0 48 48" style="enable-background:new 0 0 48 48;" xml:space="preserve">
<style type="text/css">
	.st0{fill:#263239;stroke:#40C4FF;stroke-width:2;stroke-miterlimit:10;}
	.st1{fill:#40C4FF;stroke:#40C4FF;stroke-width:2;stroke-miterlimit:10;}
	.st2{fill:#2498D1;stroke:#2498D1;stroke-width:2;stroke-miterlimit:10;}
	.st3{fill:#73DBFF;stroke:#73DBFF;stroke-width:2;stroke-miterlimit:10;}
</style>
<g>
	<path class="st0" d="M5,38.3v-9.2c0-0.4,0.5-0.7,0.8-0.5l7.9,4.6c0.2,0.1,0.3,0.3,0.3,0.5l0,9.2c0,0.4-0.5,0.7-0.8,0.5l-7.9-4.6
		C5.1,38.7,5,38.5,5,38.3z"/>
	<path class="st0" d="M14.4,33.2l7.9-4.6c0.4-0.2,0.8,0.1,0.8,0.5l0,9.2c0,0.2-0.1,0.4-0.3,0.5l-7.9,4.6c-0.4,0.2-0.8-0.1-0.8-0.5
		l0-9.2C14.1,33.5,14.2,33.3,14.4,33.2z"/>
	<path class="st0" d="M5.9,27.6l8-4.6c0.2-0.1,0.4-0.1,0.6,0l7.9,4.6c0.4,0.2,0.4,0.8,0,1l-7.9,4.6c-0.2,0.1-0.4,0.1-0.6,0l-7.9-4.6
		C5.5,28.4,5.5,27.9,5.9,27.6z"/>
</g>
<g>
	<path class="st1" d="M21.5,20.8V10.3c0-0.5,0.5-0.8,1-0.6l9.1,5.2c0.2,0.1,0.3,0.3,0.3,0.6l0,10.4c0,0.5-0.5,0.8-1,0.6l-9.1-5.2
		C21.6,21.2,21.5,21,21.5,20.8z"/>
	<path class="st2" d="M32.1,15l9.1-5.2c0.4-0.2,1,0.1,1,0.6l0,10.5c0,0.2-0.1,0.4-0.3,0.6l-9.1,5.2c-0.4,0.2-1-0.1-1-0.6l0-10.4
		C31.8,15.3,32,15.1,32.1,15z"/>
	<path class="st3" d="M22.5,8.7l9.1-5.2c0.2-0.1,0.4-0.1,0.6,0l9,5.2c0.4,0.2,0.4,0.9,0,1.1L32.1,15c-0.2,0.1-0.4,0.1-0.6,0l-9-5.2
		C22,9.5,22,8.9,22.5,8.7z"/>
</g>
</svg>
