<?xml version="1.0" encoding="utf-8"?>
<!-- Generator: Adobe Illustrator 19.2.1, SVG Export Plug-In . SVG Version: 6.00 Build 0)  -->
<svg version="1.1" id="Layer_1" xmlns="http://www.w3.org/2000/svg" xmlns:xlink="http://www.w3.org/1999/xlink" x="0px" y="0px"
	 viewBox="0 0 48 48" style="enable-background:new 0 0 48 48;" xml:space="preserve">
<style type="text/css">
	.st0{fill:#263239;stroke:#40C4FF;stroke-width:2;stroke-miterlimit:10;}
</style>
<g>
	<path class="st0" d="M3,38.4v-9.2c0-0.4,0.5-0.7,0.8-0.5l7.9,4.6c0.2,0.1,0.3,0.3,0.3,0.5l0,9.2c0,0.4-0.5,0.7-0.8,0.5l-7.9-4.6
		C3.1,38.8,3,38.6,3,38.4z"/>
	<path class="st0" d="M12.3,33.3l7.9-4.6c0.4-0.2,0.8,0.1,0.8,0.5l0,9.2c0,0.2-0.1,0.4-0.3,0.5l-7.9,4.6C12.5,43.7,12,43.4,12,43
		l0-9.2C12,33.6,12.1,33.4,12.3,33.3z"/>
	<path class="st0" d="M3.8,27.8l8-4.6c0.2-0.1,0.4-0.1,0.6,0l7.9,4.6c0.4,0.2,0.4,0.8,0,1l-7.9,4.6c-0.2,0.1-0.4,0.1-0.6,0l-7.9-4.6
		C3.4,28.5,3.4,28,3.8,27.8z"/>
</g>
<g>
	<path class="st0" d="M20.6,23.3V10.7c0-0.3,0.3-0.4,0.5-0.3l11,6.3c0.1,0.1,0.2,0.2,0.2,0.3l0,12.7c0,0.3-0.3,0.4-0.5,0.3l-11-6.3
		C20.7,23.6,20.6,23.4,20.6,23.3z"/>
	<path class="st0" d="M32.5,16.7l11-6.3c0.2-0.1,0.5,0,0.5,0.3l0,12.7c0,0.1-0.1,0.2-0.2,0.3l-11,6.3c-0.2,0.1-0.5,0-0.5-0.3l0-12.7
		C32.3,16.9,32.3,16.7,32.5,16.7z"/>
	<path class="st0" d="M21.1,9.7l11-6.3c0.1-0.1,0.2-0.1,0.4,0l10.9,6.3c0.2,0.1,0.2,0.5,0,0.6l-11,6.3c-0.1,0.1-0.2,0.1-0.4,0
		l-11-6.3C20.9,10.2,20.9,9.9,21.1,9.7z"/>
</g>
</svg>
