<?xml version="1.0" encoding="utf-8"?>
<!-- Generator: Adobe Illustrator 19.2.1, SVG Export Plug-In . SVG Version: 6.00 Build 0)  -->
<svg version="1.1" id="Layer_1" xmlns="http://www.w3.org/2000/svg" xmlns:xlink="http://www.w3.org/1999/xlink" x="0px" y="0px"
	 viewBox="0 0 128 128" style="enable-background:new 0 0 128 128;" xml:space="preserve">
<style type="text/css">
	.st0{fill:#40C4FF;}
	.st1{fill:#43A8DF;}
	.st2{fill:#57D4FF;}
	.st3{fill:#FFD740;}
	.st4{fill:#FF9100;}
	.st5{fill:#FFE57F;}
</style>
<g>
	<polygon class="st0" points="31.2,63.1 31.2,37.9 9.4,25.3 9.4,50.5 	"/>
	<polygon class="st1" points="31.2,37.9 53.1,25.4 53.1,50.5 31.2,63.1 	"/>
	<polygon class="st2" points="9.4,25.3 31.2,12.7 53.1,25.4 31.2,37.9 	"/>
</g>
<g>
	<polygon class="st3" points="96.8,63.1 96.8,37.9 75,25.3 75,50.5 	"/>
	<polygon class="st4" points="96.8,37.9 118.7,25.4 118.7,50.5 96.8,63.1 	"/>
	<polygon class="st5" points="75,25.3 96.8,12.7 118.7,25.4 96.8,37.9 	"/>
</g>
<g>
	<polygon class="st0" points="63.9,114.9 63.9,89.7 42,77.1 42,102.3 	"/>
	<polygon class="st1" points="63.9,89.7 85.8,77.2 85.8,102.2 63.9,114.9 	"/>
	<polygon class="st2" points="42,77.1 63.9,64.5 85.8,77.2 63.9,89.7 	"/>
</g>
</svg>
