<?xml version="1.0" encoding="utf-8"?>
<!-- Generator: Adobe Illustrator 19.2.1, SVG Export Plug-In . SVG Version: 6.00 Build 0)  -->
<svg version="1.1" id="Layer_1" xmlns="http://www.w3.org/2000/svg" xmlns:xlink="http://www.w3.org/1999/xlink" x="0px" y="0px"
	 viewBox="0 0 190.3 144.7" style="enable-background:new 0 0 190.3 144.7;" xml:space="preserve">
<style type="text/css">
	.st0{fill:#29B6F6;}
	.st1{font-family:'Roboto-Bold';}
	.st2{font-size:32px;}
</style>
<g>
	<g>
		<path class="st0" d="M51.2,57.8v29h15.6c1.3,0,2.3,1.3,2.3,2.6v0c0,1.3-1,2.3-2.3,2.3H45.4V57.8c0-1.6,1.3-2.9,2.9-2.9h0.1
			C49.9,54.9,51.2,56.2,51.2,57.8z"/>
		<path class="st0" d="M72.2,54.9H87c1.7,0,3.2,0.2,4.6,0.7c1.3,0.5,2.5,1.1,3.4,1.9c0.9,0.8,1.7,1.8,2.1,2.8
			c0.5,1.1,0.7,2.2,0.7,3.5c0,1.6-0.4,3.1-1.1,4.5c-0.8,1.4-1.9,2.6-3.5,3.7c1.2,0.5,2.3,1,3.1,1.7c0.9,0.6,1.6,1.4,2.1,2.1
			c0.5,0.8,0.9,1.6,1.2,2.5c0.2,0.9,0.4,1.8,0.4,2.7c0,1.5-0.3,2.8-0.9,4.1c-0.6,1.3-1.5,2.4-2.5,3.4c-1,1-2.3,1.7-3.6,2.3
			c-1.4,0.6-2.8,0.8-4.3,0.8H72.2V54.9z M78,69.9h8.2c0.9,0,1.7-0.1,2.5-0.4c0.8-0.3,1.4-0.7,2-1.2c0.5-0.5,1-1.1,1.3-1.7
			c0.3-0.7,0.5-1.4,0.5-2.1c0-0.7-0.1-1.3-0.3-1.9c-0.2-0.6-0.6-1.1-1-1.5c-0.5-0.4-1-0.8-1.7-1c-0.7-0.2-1.5-0.4-2.5-0.4H78V69.9z
			 M78,87.1h9.1c0.8,0,1.7-0.1,2.5-0.4c0.8-0.2,1.6-0.6,2.3-1.1c0.7-0.5,1.2-1.1,1.6-1.9c0.4-0.8,0.6-1.7,0.6-2.7
			c0-0.9-0.2-1.7-0.6-2.5c-0.4-0.8-0.9-1.5-1.7-2.1c-0.7-0.6-1.6-1.1-2.7-1.4c-1-0.3-2.2-0.5-3.5-0.5H78V87.1z"/>
	</g>
	<path class="st0" d="M115,41.1L76.3,18.8c-3.2-1.9-7.2-1.9-10.4,0L27.3,41.1c-3.2,1.9-5.2,5.3-5.2,9v44.6c0,3.7,2,7.1,5.2,9
		L65.9,126c3.2,1.9,7.2,1.9,10.4,0l38.6-22.3c3.2-1.9,5.2-5.3,5.2-9V50.1C120.1,46.4,118.2,42.9,115,41.1z M114.5,91.4
		c0,3.7-2,7.1-5.2,9l-33,19c-3.2,1.9-7.2,1.9-10.4,0l-33-19c-3.2-1.9-5.2-5.3-5.2-9v-38c0-3.7,2-7.1,5.2-9l33-19
		c3.2-1.9,7.2-1.9,10.4,0l33,19c3.2,1.9,5.2,5.3,5.2,9V91.4z"/>
</g>
<g>
	<path class="st0" d="M131.3,106.6c2.8,0,5.1,0.7,6.7,2.1c1.7,1.4,2.5,3.3,2.5,5.7c0,1.3-0.3,2.5-1,3.6c-0.7,1.1-1.6,1.9-2.8,2.5
		c1.6,0.6,2.9,1.5,3.7,2.7c0.9,1.2,1.3,2.7,1.3,4.4c0,2.7-0.8,4.8-2.4,6.3c-1.6,1.5-3.7,2.2-6.5,2.2c-2.1,0-3.9-0.5-5.5-1.5
		l-0.1,9.1l-5.7,0l0.2-28.4c0-1.6,0.4-3.1,1.3-4.5c0.8-1.3,2-2.4,3.5-3.1C127.9,107,129.5,106.6,131.3,106.6z M134.8,114.9
		c0-1.1-0.3-2-1-2.6c-0.6-0.7-1.5-1-2.6-1c-1.1,0-2,0.4-2.8,1.1c-0.7,0.7-1.1,1.8-1.1,3.1l-0.1,15c1.1,0.8,2.5,1.2,4.3,1.2
		c1.3,0,2.4-0.4,3.2-1.1c0.8-0.8,1.2-1.7,1.2-2.9c0-1.4-0.3-2.5-1.1-3.3c-0.7-0.8-1.8-1.2-3.2-1.2l-1.9,0l0-4.2l1.5,0
		C133.6,118.8,134.8,117.5,134.8,114.9z"/>
</g>
<text transform="matrix(1 6.427138e-003 -6.427138e-003 1 142.7267 135.7028)" class="st0 st1 st2">eta</text>
</svg>
