<?xml version="1.0" encoding="utf-8"?>
<!-- Generator: Adobe Illustrator 18.1.1, SVG Export Plug-In . SVG Version: 6.00 Build 0)  -->
<svg version="1.1" id="Слой_1" xmlns="http://www.w3.org/2000/svg" xmlns:xlink="http://www.w3.org/1999/xlink" x="0px" y="0px"
	 viewBox="0 0 36 36" enable-background="new 0 0 36 36" xml:space="preserve">
<g>
	<path fill="#80A3AF" d="M1,10.9c0.3-0.4,0.7-0.6,1.2-0.8c4.7-1.8,9.5-3.7,14.2-5.5c0.8-0.3,1.7-0.6,2.6-0.5c0.7,0,1.3,0.3,1.9,0.5
		c4,1.6,8,3.1,12,4.7c0.6,0.2,1.1,0.4,1.7,0.7c0.3,0.2,0.5,0.3,0.5,0.7c-0.3,0.4-0.7,0.7-1.1,0.9c-1.5,0.8-3.1,1.4-4.6,2.1
		c-1.6,0.7-3.3,1.4-5,2.1c-1.6,0.7-3.2,1.5-4.8,2.2c-0.8,0.4-1.6,0.5-2.5,0.3c-0.6-0.1-1.1-0.4-1.6-0.6c-2.1-0.9-4.2-1.8-6.3-2.7
		c-2-0.8-4-1.6-5.9-2.5C2.4,12.2,1.6,12,1,11.3C1,11.1,1,11,1,10.9z M26,8.9c-0.1,0-0.2,0-0.3,0.1c-1.4,0.5-2.8,1.1-4.1,1.6
		c-0.2,0.1-0.5,0.2-0.7,0.3C20.9,11,21,11,21.1,11c1.3,0.5,2.6,1,3.9,1.5c0.4,0.2,0.7,0.2,1,0c1.5-0.6,3.1-1.2,4.6-1.8
		c0,0,0,0-0.1,0C29,10.1,27.5,9.5,26,8.9z M11,12.6c0.9,0,1.7-0.1,2.5-0.3c0.6-0.2,1.1-0.3,1.5-0.8c0.4-0.4,0.4-0.8,0-1.1
		c-0.2-0.2-0.5-0.4-0.8-0.5c-1.9-0.7-3.9-0.7-5.8-0.2C7.9,9.8,7.5,10,7.2,10.3c-0.5,0.4-0.5,0.9,0,1.3C7.4,11.8,7.7,12,8,12.1
		C9,12.5,10,12.6,11,12.6z M13.2,13.9c0.1,0,0.1,0.1,0.1,0.1c1.7,0.7,3.5,1.4,5.2,2.2c0.1,0.1,0.2,0,0.3-0.1
		c0.7-1.1,1.4-2.1,2.2-3.2c0,0,0.1-0.1,0-0.2C18.4,13,15.8,13.4,13.2,13.9z M20.8,6.1c-0.6,0.2-1.2,0.3-1.7,0.6
		c-0.4,0.2-0.7,0.1-1.1,0c-0.6-0.3-1.2-0.5-1.8-0.7c0.2,0.4,0.4,0.8,0.7,1.2c0.1,0.2,0.1,0.2-0.1,0.3c-0.7,0.2-1.3,0.5-2,0.7
		c-0.1,0-0.2,0-0.3,0.1c1,0.1,1.9,0.2,2.9,0.3c0.3,0,0.5,0.1,0.7,0.4c0.2,0.5,0.5,0.9,0.8,1.4c0.2-0.4,0.3-0.7,0.4-1
		c0.1-0.5,0.4-0.7,0.9-0.7c0.7,0,1.4-0.1,2.2-0.2c-0.1-0.1-0.2-0.1-0.2-0.1c-0.6-0.2-1.1-0.4-1.7-0.6c-0.2-0.1-0.3-0.1-0.2-0.4
		C20.5,7,20.6,6.6,20.8,6.1z"/>
	<path opacity="0.79" fill="#80A3AF" d="M35,22.1c0,1.1,0,2.2,0,3.3c0,0.2-0.2,0.4-0.3,0.5c-0.4,0.4-1,0.6-1.5,0.9
		c-2.7,1.2-5.4,2.4-8.1,3.6c-1.7,0.7-3.4,1.5-5,2.3c-0.7,0.4-1.5,0.6-2.3,0.6c-0.6,0-1.1-0.2-1.7-0.4c-3.8-1.7-7.6-3.2-11.4-4.8
		c-0.9-0.4-1.8-0.8-2.7-1.2c-0.4-0.2-0.7-0.4-0.9-0.7c0-1.2,0-2.3,0-3.5c0.3,0.5,0.8,0.7,1.3,1c1.4,0.6,2.8,1.2,4.1,1.8
		c1.9,0.8,3.8,1.6,5.7,2.4c1.3,0.5,2.5,1,3.7,1.6c1.3,0.6,2.5,0.6,3.8,0c0.6-0.3,1.1-0.6,1.7-0.8c1.5-0.7,3.1-1.4,4.6-2
		c1.3-0.6,2.6-1.1,3.9-1.7c1.3-0.6,2.6-1.1,3.9-1.8C34.2,22.9,34.7,22.6,35,22.1z"/>
	<path opacity="0.79" fill="#80A3AF" d="M35,16.6c0,1.1,0,2.2,0,3.2c0,0.2-0.1,0.3-0.2,0.4c-0.3,0.3-0.6,0.5-0.9,0.6
		c-0.1,0-0.2,0.1-0.2,0.2c-0.1,0-0.1,0-0.2,0c-1,0.5-2.1,1-3.2,1.4c-1.3,0.6-2.6,1.1-3.9,1.7c-1.4,0.6-2.8,1.2-4.2,1.9
		c-0.9,0.4-1.7,0.8-2.5,1.2c-0.9,0.4-1.8,0.6-2.7,0.3c-0.8-0.2-1.4-0.6-2.2-0.9c-1.8-0.7-3.5-1.5-5.3-2.2c-1.3-0.5-2.6-1.1-3.8-1.6
		c-1.1-0.5-2.2-0.9-3.3-1.4c-0.1-0.1-0.2-0.1-0.3-0.2c-0.4-0.2-0.8-0.4-1-0.8c0-1.1,0-2.2,0-3.4c0.5,0.5,1.2,0.8,1.8,1.1
		c1,0.4,2,0.8,3,1.3c1.9,0.8,3.8,1.6,5.7,2.4c1.5,0.6,3,1.2,4.4,1.9c1.2,0.5,2.3,0.6,3.5,0.1c0.4-0.2,0.9-0.4,1.3-0.6
		c1.6-0.8,3.3-1.5,4.9-2.2c1.3-0.6,2.6-1.1,3.9-1.7c1.3-0.6,2.7-1.1,4-1.8C34.1,17.3,34.6,17.1,35,16.6z"/>
	<path opacity="0.79" fill="#80A3AF" d="M1,11.3c0.6,0.7,1.4,1,2.1,1.3c2,0.8,4,1.7,5.9,2.5c2.1,0.9,4.2,1.8,6.3,2.7
		c0.5,0.2,1,0.5,1.6,0.6c0.9,0.2,1.7,0.1,2.5-0.3c1.6-0.7,3.2-1.5,4.8-2.2c1.7-0.7,3.3-1.4,5-2.1c1.5-0.7,3.1-1.3,4.6-2.1
		c0.4-0.2,0.8-0.5,1.1-0.9c0,1.1,0,2.2,0,3.3c0,0.2-0.1,0.4-0.3,0.5c-0.3,0.3-0.7,0.5-1,0.7c-0.1,0-0.2,0.1-0.3,0.2
		c-1.1,0.5-2.2,1-3.4,1.5c-1.3,0.6-2.6,1.1-4,1.7c-1.4,0.6-2.9,1.3-4.3,1.9c-0.8,0.3-1.5,0.8-2.4,1.1c-0.9,0.4-1.9,0.5-2.9,0.1
		c-1-0.4-1.9-0.8-2.9-1.3c-1.8-0.7-3.6-1.5-5.4-2.3c-1.4-0.6-2.9-1.2-4.3-1.8c-0.4-0.2-0.8-0.4-1.3-0.5c-0.1-0.1-0.2-0.1-0.4-0.2
		c-0.4-0.2-0.9-0.4-1.2-0.9C1,13.5,1,12.4,1,11.3z"/>
	<path opacity="0.35" fill="#80A3AF" d="M2.6,15.8c0.5,0.1,0.9,0.3,1.3,0.5c1.4,0.6,2.9,1.2,4.3,1.8c1.8,0.8,3.6,1.5,5.4,2.3
		c1,0.4,1.9,0.9,2.9,1.3c1,0.4,1.9,0.3,2.9-0.1c0.8-0.3,1.6-0.8,2.4-1.1c1.4-0.6,2.9-1.3,4.3-1.9c1.3-0.6,2.6-1.1,4-1.7
		c1.1-0.5,2.2-1,3.4-1.5c0.4,0.2,0.8,0.3,1.2,0.6c0.2,0.2,0.4,0.4,0.3,0.7c-0.4,0.5-0.9,0.8-1.4,1c-1.3,0.6-2.7,1.2-4,1.8
		c-1.3,0.6-2.6,1.1-3.9,1.7c-1.6,0.7-3.3,1.4-4.9,2.2c-0.4,0.2-0.9,0.4-1.3,0.6c-1.2,0.5-2.4,0.5-3.5-0.1c-1.5-0.7-3-1.3-4.4-1.9
		c-1.9-0.8-3.8-1.6-5.7-2.4c-1-0.4-2-0.8-3-1.3C2.2,18,1.5,17.7,1,17.1c0-0.1,0-0.3,0-0.4c0.1-0.1,0.2-0.3,0.4-0.4
		C1.7,16.1,2.1,15.9,2.6,15.8z"/>
	<path opacity="0.35" fill="#80A3AF" d="M2.3,21.5c1.1,0.5,2.2,0.9,3.3,1.4c1.3,0.5,2.6,1.1,3.8,1.6c1.8,0.7,3.5,1.5,5.3,2.2
		c0.7,0.3,1.4,0.7,2.2,0.9c0.9,0.2,1.9,0.1,2.7-0.3c0.9-0.4,1.7-0.8,2.5-1.2c1.4-0.6,2.8-1.2,4.2-1.9c1.3-0.6,2.6-1.1,3.9-1.7
		c1.1-0.5,2.1-0.9,3.2-1.4c0.1,0,0.1,0,0.2,0c0.4,0.1,0.7,0.3,1.1,0.5c0.2,0.1,0.3,0.3,0.3,0.6c-0.3,0.5-0.8,0.7-1.2,1
		c-1.3,0.6-2.6,1.2-3.9,1.8c-1.3,0.6-2.6,1.1-3.9,1.7c-1.5,0.7-3.1,1.3-4.6,2c-0.6,0.3-1.1,0.6-1.7,0.8c-1.3,0.6-2.5,0.6-3.8,0
		c-1.2-0.6-2.5-1.1-3.7-1.6c-1.9-0.8-3.8-1.6-5.7-2.4c-1.4-0.6-2.8-1.1-4.1-1.8c-0.5-0.2-1-0.5-1.3-1c0-0.1,0-0.2,0-0.3
		c0.1-0.2,0.3-0.4,0.5-0.5C1.8,21.7,2,21.6,2.3,21.5z"/>
	<path opacity="0.5" fill="#80A3AF" d="M11,12.6c-1,0-2-0.1-3-0.5c-0.3-0.1-0.6-0.3-0.8-0.5c-0.5-0.4-0.5-0.9,0-1.3
		C7.5,10,7.9,9.8,8.3,9.7c2-0.5,3.9-0.6,5.8,0.2c0.3,0.1,0.6,0.3,0.8,0.5c0.3,0.4,0.3,0.8,0,1.1c-0.4,0.4-1,0.6-1.5,0.8
		C12.7,12.5,11.9,12.6,11,12.6z"/>
	<path opacity="0.5" fill="#80A3AF" d="M13.2,13.9c2.6-0.4,5.2-0.8,7.8-1.2c0.1,0.1,0,0.1,0,0.2c-0.7,1.1-1.4,2.1-2.2,3.2
		c-0.1,0.1-0.1,0.2-0.3,0.1c-1.7-0.7-3.5-1.4-5.2-2.2C13.3,13.9,13.2,13.9,13.2,13.9z"/>
	<path opacity="0.5" fill="#80A3AF" d="M20.8,6.1c-0.2,0.4-0.3,0.8-0.5,1.2c-0.1,0.2,0,0.3,0.2,0.4c0.6,0.2,1.1,0.4,1.7,0.6
		c0.1,0,0.2,0,0.2,0.1c-0.7,0.1-1.5,0.2-2.2,0.2c-0.5,0-0.8,0.2-0.9,0.7c-0.1,0.3-0.3,0.6-0.4,1c-0.3-0.5-0.6-0.9-0.8-1.4
		c-0.2-0.3-0.4-0.4-0.7-0.4c-1-0.1-1.9-0.2-2.9-0.3c0.1-0.1,0.2-0.1,0.3-0.1c0.7-0.2,1.3-0.5,2-0.7c0.2-0.1,0.2-0.1,0.1-0.3
		c-0.2-0.4-0.4-0.8-0.7-1.2c0.6,0.3,1.2,0.5,1.8,0.7c0.4,0.2,0.7,0.2,1.1,0C19.6,6.5,20.2,6.3,20.8,6.1z"/>
	<path opacity="0.5" fill="#80A3AF" d="M26,12.5c-0.3,0.2-0.7,0.2-1,0c-1.3-0.5-2.6-1-3.9-1.5c-0.1,0-0.2-0.1-0.3-0.1
		c0.2-0.2,0.5-0.2,0.7-0.3c1.4-0.6,2.8-1.1,4.1-1.6c0.1,0,0.2-0.1,0.3-0.1C26,10.1,26,11.3,26,12.5z"/>
	<path opacity="0.7" fill="#80A3AF" d="M26,12.5c0-1.2,0-2.4,0-3.7c1.5,0.6,3,1.2,4.6,1.8c0,0,0,0,0.1,0C29,11.3,27.5,11.9,26,12.5z
		"/>
</g>
<g>
</g>
<g>
</g>
<g>
</g>
<g>
</g>
<g>
</g>
<g>
</g>
</svg>
