<?xml version="1.0" encoding="utf-8"?>
<!-- Generator: Adobe Illustrator 18.1.1, SVG Export Plug-In . SVG Version: 6.00 Build 0)  -->
<svg version="1.1" id="Слой_1" xmlns="http://www.w3.org/2000/svg" xmlns:xlink="http://www.w3.org/1999/xlink" x="0px" y="0px"
	 viewBox="0 0 36 36" enable-background="new 0 0 36 36" xml:space="preserve">
<g>
	<path fill="#18FFFF" d="M25.6,17c2.9,0,5.8,0,8.6,0c0.8,0,0.9,0.2,0.5,0.9c-2.6,4.8-5.2,9.5-7.8,14.3c-0.3,0.5-0.6,0.7-1.2,0.7
		c-5.2,0-10.5,0-15.7,0c-0.7,0-1-0.2-1.3-0.8c-2.5-4.5-5-9-7.5-13.5c-0.3-0.5-0.3-0.9,0-1.5c2.3-4.2,4.6-8.5,6.9-12.8
		c0.5-0.9,1-1.2,2-1.2c5.2,0.1,10.4,0.1,15.6,0c0.8,0,1.2,0.2,1.6,0.9c1.8,3.1,3.7,6.2,5.5,9.2c0.4,0.7,0.5,1.1-0.5,1.1
		c-1.7-0.1-3.4,0-5.1,0c-0.6,0-1-0.2-1.3-0.8c-0.7-1.2-1.5-2.3-2.2-3.5c-0.3-0.6-0.7-0.8-1.4-0.8c-2.8,0-5.7,0-8.5,0
		c-0.8,0-1.1,0.3-1.4,0.9c-1.3,2.4-2.6,4.8-3.9,7.2c-0.4,0.7-0.4,1.2,0,1.9c1.4,2.5,2.9,5.1,4.2,7.6c0.3,0.6,0.7,0.9,1.5,0.9
		c2.5-0.1,5,0,7.6,0c0.7,0,1.1-0.2,1.4-0.8c0.5-1,1.1-1.9,1.7-2.8c0.6-0.9,0.3-1-0.6-1c-2.5,0-5,0-7.6,0c-0.9,0-1.6-0.2-2.3-0.7
		c-1.7-1.2-1.6-3.5,0.1-4.7c0.9-0.6,1.9-0.7,2.9-0.7c2.8,0,5.5,0,8.3,0C25.6,16.9,25.6,16.9,25.6,17z"/>
</g>
<g>
</g>
<g>
</g>
<g>
</g>
<g>
</g>
<g>
</g>
<g>
</g>
</svg>
