<?xml version="1.0" encoding="utf-8"?>
<!-- Generator: Adobe Illustrator 18.1.1, SVG Export Plug-In . SVG Version: 6.00 Build 0)  -->
<svg version="1.1" id="Слой_1" xmlns="http://www.w3.org/2000/svg" xmlns:xlink="http://www.w3.org/1999/xlink" x="0px" y="0px"
	 viewBox="0 0 48 48" enable-background="new 0 0 48 48" xml:space="preserve">
<g>
	<path fill="#263238" d="M30.6,24c2.4,0.7,4.1-0.5,6-1.4c0.3-0.2,0.7-0.6,1,0c0.2,0.5-0.4,0.5-0.6,0.7c-0.4,0.3-0.9,0.5-1.7,0.9
		c1.7,0.3,2.9,0.6,3.9-0.8c1-1.3,2.4-2.4,3.9-3.3c0.7-0.5,1.5-0.8,2.4-0.9c1.3-0.2,1.9,0.5,1.3,1.6c-1.4,2.7-1.4,5.3,0,8
		c0.6,1.1,0,1.8-1.4,1.6c-1.7-0.2-2.9-1.3-4.2-2.3c-0.6-0.5-1.3-1-1.8-1.6c-1-1.4-2.2-1.7-3.8-1.2c0.1,0.6,0.7,0.5,1.1,0.8
		c0.3,0.3,1.1,0.3,0.8,0.8c-0.3,0.7-0.8-0.1-1.2-0.2c-0.3-0.1-0.6-0.3-0.9-0.5c-1.4-1-3-1.2-4.8-0.9c0.7,1.1,1.7,1.8,2.5,2.7
		c0.2,0.2,0.8,0.4,0.3,0.9c-0.4,0.4-0.6-0.2-0.8-0.4c-0.6-0.5-1.2-1-1.7-1.7c-1.2-1.5-2.6-1.9-4.5-1.3c1,1.4,2,2.7,3,4.1
		c0.2,0.2,0.7,0.5,0.3,0.9c-0.5,0.4-0.7-0.2-0.9-0.5c-0.7-0.9-1.5-1.7-2-2.7c-1-1.9-2.4-2.3-4.5-1.7c1,1.8,2.1,3.7,3.2,5.5
		c0.2,0.3,0.8,0.8,0.1,1.1c-0.5,0.2-0.6-0.4-0.8-0.7c-1-1.7-1.9-3.4-2.9-5.1c-0.5-0.8-3-1.3-3.7-0.7c-0.3,0.2-0.1,0.6-0.1,0.8
		c0.1,1.1,0.3,2.3,0.3,3.4c0.1,2.2-0.8,3.1-3.1,2.9c-1.6-0.2-3.1-0.7-4.6-1.3c-3-1.3-5.7-3.1-8.5-4.7c-1.4-0.8-1.2-1.7-0.6-2.8
		c1-1.8,2.5-3.1,4.2-4.2c2.7-1.8,5.6-3.2,8.8-3.7c2.9-0.4,3.9,0.4,3.7,3.3c-0.1,1-0.2,2-0.3,3c-0.1,0.7,0.1,0.8,0.8,0.9
		c2.5,0.3,2.5,0.3,3.7-1.9c0.8-1.3,1.5-2.7,2.3-4c0.2-0.3,0.3-1,0.8-0.7c0.7,0.3,0,0.8-0.1,1.1c-1,1.8-2.1,3.6-3.1,5.5
		c2,0.6,3.4,0.2,4.4-1.6c0.6-1.1,1.5-2,2.2-3c0.1-0.2,0.3-0.4,0.6-0.3c0.4,0.2,0.2,0.5,0,0.7c-1,1.4-2.1,2.8-3.1,4.3
		c1.8,0.5,3.2,0.4,4.3-1.1c0.4-0.6,1-1.1,1.6-1.6c0.3-0.3,0.6-1.1,1.1-0.6c0.6,0.6-0.3,0.8-0.6,1.2C32.1,22.5,31.3,23.2,30.6,24z
		 M8.7,23.5c0.8-0.1,1.3-0.6,1.3-1.4c0-0.8-0.5-1.3-1.4-1.3c-0.8,0-1.3,0.5-1.3,1.3C7.4,23,8,23.4,8.7,23.5z"/>
</g>
</svg>
