<?xml version="1.0" encoding="utf-8"?>
<!-- Generator: Adobe Illustrator 18.1.1, SVG Export Plug-In . SVG Version: 6.00 Build 0)  -->
<svg version="1.1" id="Слой_1" xmlns="http://www.w3.org/2000/svg" xmlns:xlink="http://www.w3.org/1999/xlink" x="0px" y="0px"
	 viewBox="0 0 36 36" enable-background="new 0 0 36 36" xml:space="preserve">
<path fill="#18FFFF" d="M1,17.4c0.5-0.8,1.1-1.6,2.2-1.6c1,0,2,0.6,2.2,1.6c0.3,1-0.2,2.2-1.1,2.6c-1,0.5-2.2,0.3-2.9-0.6
	c-0.2-0.3-0.4-0.6-0.5-0.8C1,18.2,1,17.8,1,17.4z"/>
<path fill="#18FFFF" d="M14.5,10.3c0.5,0.3,0.9,0.7,1.4,1c5.5,3.4,9.5,8.1,12.2,13.9c0.2,0.4,0.6,0.8,1,1c1.3,0.7,1.8,2,1.2,3.2
	c-0.6,1.1-2,1.5-3.1,0.9c-1.1-0.7-1.4-2.2-0.6-3.4c0.2-0.3,0.3-0.8,0.2-1.1C24,19.3,19.2,14.5,12.6,11c0.3,0.5,0.4,0.8,0.6,1
	c3.7,5.3,5.5,11.3,5.9,17.7c0,0.5,0.3,1,0.6,1.4c0.9,1.1,0.8,2.6-0.3,3.4c-1,0.7-2.5,0.4-3.2-0.6c-0.7-1.2-0.3-2.5,0.9-3.3
	c0.3-0.2,0.7-0.7,0.7-1.1c-0.5-6.2-2.2-12-5.9-17.1c-0.5-0.7-1.1-1.3-1.6-1.9C9.6,9.9,9,9.2,7.8,9.7c-0.9,0.4-2-0.6-2.3-1.7
	C5.3,7.2,5.8,6.1,6.7,5.7c1-0.5,2.3-0.2,2.8,0.8c0.4,1,1.1,1.2,2,1.4c6.7,1.5,12.9,4.2,18.9,7.6c0.7,0.4,1.3,0.7,2.2,0.5
	c1.2-0.3,2.1,0.4,2.4,1.5c0.3,1-0.1,2.1-1.1,2.6c-0.9,0.5-2.1,0.3-2.8-0.5c-0.2-0.3-0.5-0.8-0.5-1.1c0.1-1.1-0.5-1.5-1.3-2
	c-4.3-2.3-8.7-4.5-13.5-5.9c-0.4-0.1-0.8-0.2-1.3-0.4C14.5,10.2,14.5,10.3,14.5,10.3z"/>
<path fill="#18FFFF" d="M28.4,9.9c-1.3,0-2.2-0.9-2.2-2.2c0-1.3,0.8-2.2,2.1-2.2c1.3,0,2.3,1,2.3,2.2C30.7,8.9,29.7,9.9,28.4,9.9z"
	/>
<path fill="#18FFFF" d="M18,1.1c1.3,0,2.2,0.9,2.3,2.1c0,1.3-1,2.3-2.2,2.4c-1.2,0-2.2-1-2.2-2.3C15.8,2,16.8,1.1,18,1.1z"/>
<path fill="#18FFFF" d="M7.6,30.7c-1.3,0-2.2-0.9-2.3-2.2c0-1.2,0.9-2.2,2.2-2.3c1.4,0,2.3,0.9,2.3,2.2C9.8,29.8,8.9,30.7,7.6,30.7z
	"/>
<g>
</g>
<g>
</g>
<g>
</g>
<g>
</g>
<g>
</g>
<g>
</g>
</svg>
