<?xml version="1.0" encoding="utf-8"?>
<!-- Generator: Adobe Illustrator 18.1.1, SVG Export Plug-In . SVG Version: 6.00 Build 0)  -->
<svg version="1.1" id="Слой_1" xmlns="http://www.w3.org/2000/svg" xmlns:xlink="http://www.w3.org/1999/xlink" x="0px" y="0px"
	 viewBox="0 0 36 36" enable-background="new 0 0 36 36" xml:space="preserve">
<g>
	<path fill="#80A3AF" d="M18,11c-3.3,0-4.7,2.9-5,4.9h9.4C22.5,14.1,21.6,11,18,11z"/>
	<path fill="#80A3AF" d="M18,1C8.6,1,1,8.6,1,18c0,9.4,7.6,17,17,17c9.4,0,17-7.6,17-17C35,8.6,27.4,1,18,1z M27.3,19.5H13
		c0.1,3.7,3.2,5.2,6.6,5.2c2.5,0,4.3-0.3,5.9-0.9l0.8,3.5c-1.8,0.7-4.4,1.2-7.5,1.2c-6.9,0-11-4-11-10.2c0-5.6,3.6-10.9,10.4-10.9
		c6.9,0,9.2,5.4,9.2,9.8C27.5,18.3,27.4,19.1,27.3,19.5z"/>
</g>
<g>
</g>
<g>
</g>
<g>
</g>
<g>
</g>
<g>
</g>
<g>
</g>
</svg>
