<?xml version="1.0" encoding="utf-8"?>
<!-- Generator: Adobe Illustrator 18.1.1, SVG Export Plug-In . SVG Version: 6.00 Build 0)  -->
<svg version="1.1" id="Слой_1" xmlns="http://www.w3.org/2000/svg" xmlns:xlink="http://www.w3.org/1999/xlink" x="0px" y="0px"
	 viewBox="0 0 48 48" enable-background="new 0 0 48 48" xml:space="preserve">
<g>
	<path fill="#80A3AF" d="M34.3,32.3c-0.4-0.7,0-1.4-0.7-2c-1.4,3.9-3.5,7-8.1,8c1.8-2.7,3.3-5.2,3.2-8.5c-1,0.6-1.1,1.5-1.4,2.3
		c-0.4,1.1-1,1.6-2.2,1.5c-2.4-0.2-4.9-0.3-7.3-0.6c-2.1-0.2-4,0.3-5.8,1.4c-2,1.2-4,2.6-6.4,2.9c-1.1,0.2-2.1,0.3-3.2-0.1
		c0.3-0.8,1.7-0.9,1.4-1.7c-0.2-0.5-1.4-0.1-2.1-0.5c0.4-0.7,1.2-0.8,1.9-0.9c1.1-0.1,2.2-0.2,3.3-0.3c1.5,0,2.7-0.5,3.5-1.8
		c2.6-4.5,6.9-6.2,11.7-7.2c1.2-0.2,2.3-0.5,3.5-0.9c3.4-1.2,6-3.2,7.8-6.4c1-1.9,2.1-3.8,3.6-5.3c1.3-1.2,2.7-1.9,4.5-1.9
		c0.6,0,1.4,0.1,1.9-0.2c1-0.4,1.7,0.3,2.4,0.6c0.5,0.2,0.2,0.8,0,1.1c-0.5,1.1-1.5,1.7-2.4,2.3c-1.7,1.1-2.6,2.5-3,4.5
		c-0.7,3.4-1.4,6.9-3,10.1C36.8,30.2,35.8,31.4,34.3,32.3z M40.1,13c0.7,0,1.3-0.3,1.3-1.1c0-0.4-0.2-0.5-0.6-0.5
		c-0.7,0.1-1.4,0.3-1.5,1.1C39.3,13,39.8,12.9,40.1,13z M44.2,11.8c0.5,0.1,0.6-0.3,0.7-0.6c0.1-0.5-0.4-0.7-0.7-0.7
		c-0.3,0-0.6,0.4-0.6,0.8C43.5,12,44.1,11.5,44.2,11.8z"/>
	<path opacity="0.79" fill="#80A3AF" d="M37.6,30.6c0.3,1.1,0.4,2.1,0.9,3c0.2,0.5,0,0.6-0.4,0.6c-0.1,0-0.2,0-0.3,0
		c-0.8-0.2-1.9-0.1-2.2-1c-0.3-0.8,0.6-1.4,1.1-1.9C36.9,31.1,37.1,30.7,37.6,30.6z"/>
	<g opacity="0.5">
		<path fill="#80A3AF" d="M40.1,34.4c-1.8,1.1-4,1.1-5.4-0.2c-0.8-0.7-1.3-0.4-1.8,0.1c-0.5,0.5-0.9,1.1-1.3,1.7
			c-1.8,2.6-4.7,2.8-7.7,3.4c0.9-1.8,2.3-2.9,2.8-4.7c-3.4-0.4-6.8-1.2-10.3-1c-1.9,0.1-3.5,0.7-5,1.8c-1.8,1.3-3.6,2.3-5.8,2.6
			c-1,0.1-2,0.2-2.9-0.1c-0.4-0.1-0.9-0.2-1-0.7c-0.1-0.5,0.4-0.6,0.6-0.9c0.2-0.1,0.3-0.3,0.6-0.5c-0.6-0.4-1.5-0.2-1.8-1
			c0.6-0.9,1.6-1.2,2.7-1.4c1.1-0.2,2.3-0.3,3.5-0.4c1.3-0.1,2.4-0.7,3.1-1.8c2.5-4.3,6.6-6.1,11.2-7.1c0.8-0.2,1.7-0.4,2.5-0.6
			c4.1-0.8,7.1-3.2,9.1-6.8c0.8-1.4,1.7-2.7,2.6-4c1.5-1.9,3.4-3.1,5.9-3.4c1.4-0.1,2.8-0.4,4.2-0.8c1.2-0.4,1.7,0,1.6,1.3
			c0,1.6-0.8,2.8-2,3.6c-2.6,1.7-4,4.1-4.4,7.2c-0.3,2.4-1.1,4.8-1.8,7.1C38.2,30.3,38.2,32.5,40.1,34.4z M34.3,32.4
			c1.5-0.9,2.4-2.2,3.2-3.6c1.6-3.2,2.3-6.7,3.1-10.1c0.4-1.9,1.3-3.4,3-4.4c0.9-0.6,1.9-1.2,2.4-2.3c0.2-0.4,0.5-0.9,0-1.1
			c-0.8-0.3-1.4-1.1-2.4-0.6c-0.6,0.2-1.3,0.2-1.9,0.2c-1.8,0-3.2,0.7-4.5,1.9c-1.6,1.5-2.6,3.4-3.7,5.3c-1.8,3.2-4.5,5.2-7.8,6.3
			c-1.1,0.4-2.3,0.7-3.5,0.9c-4.8,1-9.1,2.7-11.7,7.1c-0.8,1.3-2,1.8-3.5,1.8c-1.1,0-2.2,0.1-3.3,0.3c-0.7,0.1-1.4,0.2-1.9,0.9
			c0.7,0.5,1.8,0,2,0.5c0.3,0.8-1.1,0.9-1.4,1.7c1.1,0.4,2.1,0.3,3.2,0.1c2.4-0.4,4.4-1.7,6.4-2.9c1.8-1.1,3.7-1.6,5.8-1.4
			c2.4,0.2,4.9,0.4,7.3,0.6c1.2,0.1,1.8-0.4,2.2-1.5c0.3-0.8,0.4-1.8,1.4-2.3c0.1,3.3-1.4,5.8-3.2,8.5c4.6-0.9,6.7-4.1,8.2-7.9
			C34.4,30.9,33.9,31.7,34.3,32.4z M37.6,30.7c-0.5,0.1-0.7,0.5-1,0.7c-0.5,0.6-1.4,1.1-1.1,1.9c0.3,0.9,1.4,0.8,2.2,1
			c0.1,0,0.2,0,0.3,0c0.4,0,0.7-0.2,0.4-0.6C38,32.8,37.8,31.8,37.6,30.7z"/>
		<path fill="#80A3AF" d="M40.1,13c-0.3,0-0.8,0-0.7-0.4c0.1-0.8,0.8-1,1.5-1.1c0.3,0,0.6,0.1,0.6,0.5C41.4,12.7,40.9,13,40.1,13z"
			/>
		<path fill="#80A3AF" d="M44.2,11.9c-0.1-0.3-0.7,0.2-0.7-0.4c0-0.4,0.3-0.8,0.6-0.8c0.3,0,0.8,0.2,0.7,0.7
			C44.9,11.6,44.7,12,44.2,11.9z"/>
	</g>
</g>
</svg>
