<?xml version="1.0" encoding="utf-8"?>
<!-- Generator: Adobe Illustrator 18.1.1, SVG Export Plug-In . SVG Version: 6.00 Build 0)  -->
<svg version="1.1" id="Слой_1" xmlns="http://www.w3.org/2000/svg" xmlns:xlink="http://www.w3.org/1999/xlink" x="0px" y="0px"
	 viewBox="0 0 36 36" enable-background="new 0 0 36 36" xml:space="preserve">
<g>
	<path fill="#80A3AF" d="M18,1C8.6,1,1,8.6,1,18c0,9.4,7.6,17,17,17s17-7.6,17-17C35,8.6,27.4,1,18,1z M18,30.5
		c-6.9,0-12.5-5.6-12.5-12.5S11.1,5.5,18,5.5S30.5,11.1,30.5,18S24.9,30.5,18,30.5z"/>
	<circle opacity="0.21" fill="#80A3AF" cx="18" cy="18" r="12.5"/>
	<g>
		<path fill="#80A3AF" d="M9.4,15.4c0.5-0.1,1.1-0.1,2-0.1c0.9,0,1.6,0.2,2.1,0.5c0.4,0.3,0.7,0.9,0.7,1.5c0,0.6-0.2,1.2-0.6,1.5
			c-0.5,0.5-1.3,0.7-2.2,0.7c-0.2,0-0.5,0-0.6,0v2.5H9.4V15.4z M10.7,18.6c0.2,0,0.4,0,0.6,0c1,0,1.6-0.4,1.6-1.2
			c0-0.7-0.5-1.1-1.4-1.1c-0.4,0-0.6,0-0.7,0.1V18.6z"/>
		<path fill="#80A3AF" d="M16.6,15.3V18h3v-2.7h1.3v6.7h-1.3v-3h-3v3h-1.3v-6.7H16.6z"/>
		<path fill="#80A3AF" d="M22.4,15.4c0.5-0.1,1.1-0.1,2-0.1c0.9,0,1.6,0.2,2.1,0.5c0.4,0.3,0.7,0.9,0.7,1.5c0,0.6-0.2,1.2-0.6,1.5
			c-0.5,0.5-1.3,0.7-2.2,0.7c-0.2,0-0.5,0-0.6,0v2.5h-1.3V15.4z M23.7,18.6c0.2,0,0.4,0,0.6,0c1,0,1.6-0.4,1.6-1.2
			c0-0.7-0.5-1.1-1.4-1.1c-0.4,0-0.6,0-0.7,0.1V18.6z"/>
	</g>
</g>
<g>
</g>
<g>
</g>
<g>
</g>
<g>
</g>
<g>
</g>
<g>
</g>
</svg>
