<?xml version="1.0" encoding="utf-8"?>
<!-- Generator: Adobe Illustrator 18.1.1, SVG Export Plug-In . SVG Version: 6.00 Build 0)  -->
<svg version="1.1" id="Слой_1" xmlns="http://www.w3.org/2000/svg" xmlns:xlink="http://www.w3.org/1999/xlink" x="0px" y="0px"
	 viewBox="0 0 48 48" enable-background="new 0 0 48 48" xml:space="preserve">
<g>
	<g>
		<path fill="#80A3AF" d="M20.1,31.5c2-0.2,4.1-0.5,6.1-0.7c1.6-0.2,3.1-0.3,4.7-0.5c2-0.2,4.1-0.5,6.1-0.7c0.9-0.1,1.8-0.2,2.7-0.3
			c0.5-0.1,0.4,0.3,0.4,0.5c0,1.5,0,3,0,4.5c0,0.6,0.2,0.8,0.8,0.8c1.2,0,2.5,0,3.7,0c0.5,0,0.7-0.1,0.7-0.6c0-4.3,0-8.7,0-13
			c0-0.5-0.1-0.6-0.6-0.6c-0.6,0-1.2,0-1.7,0c-0.5,0-0.7-0.1-0.7-0.7c0-2.2,0-4.4,0-6.5c0-0.7-0.2-0.8-0.8-0.8c-4.3,0-8.5,0-12.8,0
			c-0.2-0.5-0.4-1-0.6-1.6c0.3,0,0.5,0,0.7,0c4.8,0,9.7,0,14.5,0c0.7,0,0.8,0.2,0.8,0.8c0,2.2,0,4.3,0,6.5c0,0.6,0.2,0.8,0.8,0.7
			c0.5,0,1.1,0,1.7,0c0.3,0,0.5,0.1,0.5,0.5c0,5.5,0,11.1,0,16.6c0,0.4-0.2,0.4-0.5,0.4c-2,0-4,0-6,0c-6.3,0-12.6,0-18.9,0
			c-0.6,0-0.8-0.1-0.8-0.7C20.5,34.5,20.3,33,20.1,31.5z"/>
		<path fill="#80A3AF" d="M2.7,23.5c0,3.7,0,7.3,0,11c0,0.5,0.1,0.7,0.7,0.7c1.2,0,2.4,0,3.6,0c0.5,0,0.7-0.1,0.7-0.6
			c-0.1-1.5,0.1-3-0.1-4.4c-0.1-0.5,0.3-0.4,0.6-0.4c1.3,0.3,2.6,0.6,4,0.9c0.6,0.1,1.3,0.3,1.9,0.4c0.3,1.2,0.6,2.4,0.9,3.5
			c0.1,0.3,0.2,0.7,0.6,0.7c0.5,0.1,0.6,0.4,0.7,0.9c0.1,0.5,0,0.7-0.5,0.7c-1.3,0-2.7,0-4,0c-3.2,0-6.5,0-9.7,0
			c-0.5,0-0.7-0.1-0.7-0.6c0-5.4,0-10.8,0-16.2c0-0.7,0.3-0.6,0.8-0.6c0.5,0,0.7,0,0.7,0.6c-0.1,1,0,2,0,2.9
			C2.6,23,2.5,23.3,2.7,23.5z"/>
		<path fill="#80A3AF" d="M32.6,26.5c-2.5,0.3-4.9,0.4-7.4,0.7c-1.8,0.2-3.7,0.4-5.6,0.5c-0.2-0.3,0-0.4,0.2-0.6
			c2.3-1.5,4.6-3,6.9-4.5c0.3-0.2,0.5-0.1,0.7,0.1c1.1,0.9,2.2,1.9,3.3,2.8c0.2,0.2,0.4,0.4,0.8,0.2c0.5-0.3,0.8-0.2,0.9,0.4
			C32.5,26.3,32.6,26.4,32.6,26.5z"/>
		<path fill="#80A3AF" d="M5.8,16.9c-0.5,0.2-1,0.4-1.6,0.6c0-2,0-4,0-5.9c0-0.2,0.1-0.3,0.3-0.3c0.3,0,0.5,0,0.8,0
			c1.6,0,1.6,0,1.5,1.6c-0.9,0-0.9,0-0.9,0.9C5.7,14.8,5.8,15.8,5.8,16.9z"/>
		<path fill="#80A3AF" d="M11.4,26.5c-1.2,0-2.3-0.6-3.4-0.8c-0.3-0.1-0.2-0.3-0.2-0.5c0-1.4,0-2.7,0-4.1
			C9.1,22.8,10.3,24.6,11.4,26.5z"/>
		<path fill="#80A3AF" d="M36.5,23.4c1.1-0.9,2.3-1.6,3.6-2.5c0,1.7,0,3.2,0,4.7c-0.3-1.3-1.2-1.8-2.5-1.9
			C37.2,23.7,36.9,23.5,36.5,23.4z"/>
		<path fill="#80A3AF" d="M12.1,12.9c-0.1-1.6-0.1-1.6,1.5-1.6c1.2,0,2.5,0,3.7,0c0,0,0,0.1,0,0.1c-0.8,0.5-1.6,1-2.4,1.5
			C14,12.9,13.1,12.9,12.1,12.9z"/>
	</g>
	<g>
		<path opacity="0.7" fill="#80A3AF" d="M32.6,26.5c2.3-0.2,4.7-0.4,7-0.6c0.2,0,0.4,0,0.5-0.2c0-1.5,0-3.1,0-4.7
			c-1.3,0.9-2.5,1.5-3.6,2.5c-0.7-0.1-1.3-0.3-1.8-0.7c-2.1-1.8-4.3-3.5-6.4-5.3c-0.4-0.3-0.7-0.4-1.2-0.2c-2.3,0.9-4.6,1.8-7,2.7
			c-0.5,0.2-0.7,0.2-1.1-0.3c-0.6-0.8-1.2-1.6-1.8-2.4c-0.2-0.3-0.2-0.4,0-0.7c1.1-1,2.1-2.1,3.1-3.2c0.3-0.3,0.5-0.4,0.9-0.4
			c0,0,0,0,0.1,0c0.8,0,1.6,0.1,2.4,0c0.9-0.1,1.3,0.8,2,1.1c0.2-1.1,0.2-1.1,1.3-1.1c0.5,0,1.1,0.1,1.6-0.1c4.3,0,8.5,0,12.8,0
			c0.7,0,0.9,0.2,0.8,0.8c0,2.2,0,4.4,0,6.5c0,0.5,0.2,0.7,0.7,0.7c0.6,0,1.2,0,1.7,0c0.5,0,0.6,0.2,0.6,0.6c0,4.3,0,8.7,0,13
			c0,0.5-0.2,0.6-0.7,0.6c-1.2,0-2.5,0-3.7,0c-0.6,0-0.8-0.1-0.8-0.8c0-1.5,0-3,0-4.5c0-0.2,0.1-0.6-0.4-0.5
			c-0.9,0.1-1.8,0.2-2.7,0.3c-2,0.2-4.1,0.5-6.1,0.7c-1.6,0.2-3.1,0.3-4.7,0.5c-2,0.2-4.1,0.4-6.1,0.7c-0.2-1.3-0.4-2.6-0.5-3.9
			c1.9-0.1,3.7-0.3,5.6-0.5C27.7,26.9,30.2,26.7,32.6,26.5z"/>
		<path opacity="0.7" fill="#80A3AF" d="M11.5,26.6c1.4,0.1,1.8,1.1,1.9,2.3c0.1,0.7,0.3,1.4,0.5,2.1c-0.6-0.1-1.3-0.2-1.9-0.4
			c-1.3-0.3-2.6-0.6-4-0.9c-0.3-0.1-0.6-0.1-0.6,0.4c0.2,1.5,0,3,0.1,4.4c0,0.5-0.2,0.7-0.7,0.6c-1.2,0-2.4,0-3.6,0
			c-0.5,0-0.7-0.2-0.7-0.7c0-3.7,0-7.3,0-11c0.5,0.2,1,0.5,1.6,0.7c0.3,0.1,0.5,0.1,0.5-0.3c0-0.6,0-1.2,0-1.9c0,0,0,0,0,0l0,0
			c0.3,0.1,0.4,0.4,0.8,0.4c0-0.1,0-0.1,0-0.2c0.1-0.5-0.2-1.2,0.1-1.3c0.6-0.2,1.3-0.2,1.9,0.1c0,1.4,0,2.7,0,4.1
			c0,0.2-0.1,0.5,0.2,0.5c1.1,0.3,2.2,0.8,3.4,0.8c0,0,0,0,0,0C11.4,26.5,11.4,26.6,11.5,26.6z"/>
		<path fill="#80A3AF" d="M5.8,16.9c0-1,0-2.1,0-3.1c0-0.9,0-0.9,0.9-0.9c-0.1,1.2,0.2,2.1,1,2.9C8,16.1,8,16.2,7.6,16.3
			C7,16.5,6.4,16.7,5.8,16.9z"/>
		<path fill="#80A3AF" d="M12.1,12.9c0.9,0,1.9,0,2.8,0c-0.9,0.6-1.8,1.2-2.8,1.9C12.1,14,12.1,13.4,12.1,12.9z"/>
	</g>
	<path fill="#80A3AF" d="M4.9,22L4.9,22C4.8,22,4.8,22,4.9,22C4.8,21.9,4.8,21.9,4.9,22z"/>
	<path fill="#80A3AF" d="M11.5,26.6c-0.1,0-0.1-0.1-0.1-0.2C11.4,26.5,11.5,26.6,11.5,26.6z"/>
</g>
</svg>
