<?xml version="1.0" encoding="utf-8"?>
<!-- Generator: Adobe Illustrator 18.1.1, SVG Export Plug-In . SVG Version: 6.00 Build 0)  -->
<svg version="1.1" id="Слой_1" xmlns="http://www.w3.org/2000/svg" xmlns:xlink="http://www.w3.org/1999/xlink" x="0px" y="0px"
	 viewBox="0 0 36 36" enable-background="new 0 0 36 36" xml:space="preserve">
<g>
	<g>
		<path fill="#263238" d="M31.7,7.6c-0.1,2.1,1,4.3-0.7,6.2c1.6,0.6-0.4,1-0.2,1.7c0.5,1.7-1.4,0.5-1.8,1.4c0.4,0.1,0.8,0.2,1.6,0.4
			c-0.7,0.2-1,0.3-1.1,0.3c-0.2,2-1.7,2.8-3,3.7c-0.3,0.3-1.1,0.3-1.5,0.1c-1.1-0.8-2.1-1.7-3-2.6c-0.2-0.2-0.1-0.7-0.2-1.1
			c-0.1,0-0.4-0.1-1-0.3c0.6-0.2,0.9-0.3,1.1-0.4c-0.6-0.4-1.2-0.8-1.6-1.3c-0.3-0.5-0.3-1.2-0.5-2c0.2,0,0.5-0.1,0.8-0.2
			c0-0.1-0.1-0.3-0.1-0.3c-1.1-0.3-1.3-1.1-1.3-2.1c0-1.2,0-2.4,0.2-3.6c0.2,0.4,0.4,0.8,0.6,1.2c0.5,0.9,1.2,1.2,2.3,1
			c2.3-0.6,2.3-0.5,3.5,1.7c0.3-0.7,0.5-1.4,0.8-2C28.4,9.1,30.8,11,31.7,7.6z M24.1,18.2c0,0.2,0.1,0.4,0.1,0.6
			c1-1.5,2-0.7,3.1-0.6c-0.3-0.3-0.7-0.6-1.1-0.9c0.7-0.5,1.3-0.9,1.9-1.3c-0.1-0.6-0.3-1.1-0.4-1.7c0.7-0.1,1.3-0.2,1.8-0.2
			c0-0.1,0-0.2,0-0.3c-0.4-0.1-0.9-0.2-1.7-0.3c1-0.6,1.7-1,2.3-1.3c-0.8,0-1.7,0.1-2,0.5c-1,1.5-2.3,0.9-3.5,0.9
			c-0.1-1.1,0.5-2.4-1-2.7c-0.9-0.2-1.6,0.3-1.8,1.3c0.7-0.2,1.3-0.4,2-0.6c0.1,0.7,0.2,1.4,0.3,2c-0.8,0.1-1.3,0.2-1.8,0.2
			c0,0.1,0,0.2,0,0.3c0.5,0.1,0.9,0.2,1.6,0.3c-1.6,1.8,0.1,2.3,1.1,3C24.6,17.7,24.3,17.9,24.1,18.2z"/>
		<path fill="#263238" d="M26.1,25.8c-0.4,0-0.9,0.2-1.3,0c-2.5-0.8-5-1.7-7.5-2.4c-1.2-0.4-2.5-0.5-3.9-0.8
			c0.1-0.9,0.2-1.8,0.2-2.8c-1,0.2-1,0.2-1.4,2.9c-0.5,0-1.1,0-1.6,0c-2.2,0-2.5-0.5-1.7-2.5c0.3-0.9,1.3-1,2.6-0.3
			c0.4-0.6-0.8-1.9,0.6-2c0.7-0.1,1.5,0.4,2.5,0.6c-0.3-0.6-0.6-1-0.9-1.6c1.6-0.4,2.1,1.2,3.5,1.4c-0.3-0.9-0.5-1.7-0.8-2.6
			c0.9-0.3,1.7-0.5,2.5-0.8c0.2,0.6,0.4,1,0.5,1.5c-0.4,0.1-0.7,0.3-1.1,0.4c0,0.1,0,0.2,0,0.3c0.5,0.1,1,0.2,1.8,0.4
			c-0.8,0.1-1.2,0.2-1.8,0.3c0.1,0.2,0.1,0.4,0.2,0.4c1.6-0.1,2.5,0.9,3.4,2c0.7,0.9,1.6,1.7,2.6,2.4c0.4,0.3,1.1,0.4,1.7,0.6
			c-0.1,0.2-0.3,0.7-0.5,1.2c0.7-0.1,1.3-0.2,1.9-0.2c0,0.2,0.1,0.3,0.1,0.5C27.3,24.9,26.7,25.3,26.1,25.8
			C26.1,25.8,26.1,25.8,26.1,25.8z"/>
		<path fill="#263238" d="M26.1,25.8C26.1,25.8,26.1,25.8,26.1,25.8c2.1-0.8,3.5,0,4.7,1.6c0.4,0.5,1.2,0.7,2,1.1
			c-0.1,0.7-0.9,0.7-1.4,0.5c-1.8-0.8-3.5-1.6-5.2-2.5C26.1,26.4,26.1,26,26.1,25.8z"/>
		<path fill="#263238" d="M2.1,28.4c0.9-1.2,1.6-2.1,2.3-3.1C4.2,28.2,4.1,28.5,2.1,28.4z"/>
	</g>
	<g opacity="0.5">
		<path fill="#263238" d="M19.2,5.5c1.1,1,2,1.9,2.9,2.7c0.3,0.2,0.7,0.5,1,0.5c1.6,0,3.1,0,4.7,0c0.4,0,0.8-0.3,1.1-0.6
			c0.9-0.8,1.8-1.6,3-2.6c1,3.9,0.9,7.4-0.5,10.8c0.4,0.1,0.7,0.3,1.4,0.5c-0.8,0.1-1.3,0.2-1.8,0.3c0,0.1,0,0.2,0,0.2
			c0.5,0.1,1,0.2,1.5,0.3c-0.1,0.2-0.1,0.3-0.1,0.3c-1.4-0.2-2.2,0.5-3,1.6c-0.7,0.9-1.6,1.7-2.5,2.6c1.5,1.6,3,3.3,4.6,4.9
			c0.3,0.3,0.9,0.3,1.3,0.4c1.5,0.3,2.1,0.9,2.2,2.3c-1.9,0.1-3.6,0.2-5.4-0.8c-4.6-2.5-9.4-4.4-14.6-5.3c-0.6-0.1-1.2-0.1-1.8-0.2
			c0,1.8,0.3,2.1,1.8,2.5c0.5,0.1,0.9,0.5,1.3,1c-1.4,0.3-2.6,0.7-3.8-0.4c-1-0.9-2.1-1.6-3-2.5c-0.6-0.6-1.1-0.6-1.7-0.2
			c-2.1,1.1-3.1,2.8-2.9,5.2c-1.2,0-2.4,0-3.8,0c1.3-3.1,3.5-5.5,5.4-7.8c-0.6-1.4-1.3-2.6-1.7-3.9c-1-3.7,1.4-6.5,5.2-6.3
			c0.5,0,1-0.1,1.5-0.3c1.1-0.4,2.9,0.5,3.9,1.9c-1.8,0.9-3.2,0.6-4.6-0.7c-0.2-0.2-0.5-0.3-0.8-0.3c-2.7-0.4-4.9,1.6-4.8,4.4
			c0.1,1.7,0.8,3.1,1.9,4.6c3.4-3.1,7.2-5.3,11.7-6.6C18.4,11.3,18,8.6,19.2,5.5z M7.5,22.8c-0.1-0.2-0.2-0.5-0.3-0.7
			c-0.1,0-0.2,0-0.3,0c0.1,0.3,0.2,0.5,0.2,0.8C7.3,22.8,7.4,22.8,7.5,22.8z M26.1,25.8c0,0.2,0,0.6,0.1,0.6
			c1.7,0.9,3.4,1.7,5.2,2.5c0.5,0.2,1.3,0.3,1.4-0.5c-0.8-0.4-1.6-0.6-2-1.1C29.6,25.8,28.2,24.9,26.1,25.8c0.6-0.5,1.2-0.9,1.8-1.3
			c0-0.2-0.1-0.3-0.1-0.5c-0.6,0.1-1.2,0.1-1.9,0.2c0.2-0.5,0.4-1,0.5-1.2c-0.7-0.2-1.3-0.3-1.7-0.6c-0.9-0.7-1.9-1.5-2.6-2.4
			c-0.9-1.2-1.8-2.1-3.4-2c0,0-0.1-0.1-0.2-0.4c0.5-0.1,1-0.2,1.8-0.3c-0.8-0.2-1.3-0.3-1.8-0.4c0-0.1,0-0.2,0-0.3
			c0.3-0.1,0.7-0.3,1.1-0.4c-0.2-0.4-0.3-0.9-0.5-1.5c-0.9,0.3-1.7,0.5-2.5,0.8c0.3,0.9,0.5,1.7,0.8,2.6c-1.4-0.1-1.9-1.8-3.5-1.4
			c0.3,0.6,0.6,1,0.9,1.6c-0.9-0.2-1.7-0.7-2.5-0.6c-1.4,0.1-0.2,1.4-0.6,2c-1.3-0.7-2.3-0.6-2.6,0.3c-0.8,2-0.4,2.5,1.7,2.5
			c0.6,0,1.1,0,1.6,0c0.4-2.6,0.4-2.6,1.4-2.9c-0.1,1-0.2,1.9-0.2,2.8c1.4,0.3,2.7,0.4,3.9,0.8c2.5,0.8,5,1.6,7.5,2.4
			C25.2,25.9,25.6,25.8,26.1,25.8z M31.7,7.6c-0.8,3.4-3.3,1.5-5.1,1.7c-0.3,0.6-0.5,1.3-0.8,2c-1.2-2.2-1.2-2.3-3.5-1.7
			c-1.1,0.3-1.8-0.1-2.3-1c-0.2-0.4-0.4-0.8-0.6-1.2c-0.2,1.2-0.2,2.4-0.2,3.6c0,1,0.3,1.8,1.3,2.1c0,0,0.1,0.1,0.1,0.3
			c-0.3,0.1-0.6,0.2-0.8,0.2c0.2,0.7,0.2,1.4,0.5,2c0.4,0.5,1,0.9,1.6,1.3c-0.2,0.1-0.5,0.2-1.1,0.4c0.6,0.2,0.9,0.3,1,0.3
			c0.1,0.5,0,0.9,0.2,1.1c1,0.9,1.9,1.9,3,2.6c0.3,0.2,1.1,0.1,1.5-0.1c1.3-0.9,2.8-1.7,3-3.7c0.1,0,0.4-0.1,1.1-0.3
			c-0.8-0.2-1.2-0.3-1.6-0.4c0.4-0.8,2.2,0.3,1.8-1.4c-0.2-0.7,1.9-1.2,0.2-1.7C32.6,11.9,31.5,9.7,31.7,7.6z M2.1,28.4
			c2,0.1,2.2-0.1,2.3-3.1C3.6,26.2,2.9,27.2,2.1,28.4z"/>
		<path fill="#263238" d="M7.2,22c0.1,0.2,0.2,0.5,0.3,0.7l0,0c-0.1,0-0.2,0-0.3,0l0,0C7.1,22.5,7,22.3,6.9,22C7,22,7.1,22,7.2,22z"
			/>
		<path fill="#263238" d="M7.5,22.8c-0.1,0-0.2,0-0.3,0c0,0,0,0,0,0C7.3,22.8,7.4,22.8,7.5,22.8L7.5,22.8z"/>
		<path fill="#263238" d="M7.2,22c-0.1,0-0.2,0-0.3,0C7,22,7.1,22,7.2,22z"/>
		<path fill="#263238" d="M24.1,18.2c0.3-0.3,0.5-0.5,0.9-0.9c-1.1-0.7-2.7-1.2-1.1-3c-0.7-0.1-1.1-0.2-1.6-0.3c0-0.1,0-0.2,0-0.3
			c0.5-0.1,1-0.1,1.8-0.2c-0.1-0.7-0.2-1.4-0.3-2c-0.7,0.2-1.3,0.4-2,0.6c0.2-0.9,0.9-1.4,1.8-1.3c1.5,0.3,0.9,1.6,1,2.7
			c1.2-0.1,2.5,0.6,3.5-0.9c0.3-0.5,1.2-0.6,2-0.5c-0.7,0.4-1.4,0.8-2.3,1.3c0.9,0.2,1.3,0.2,1.7,0.3c0,0.1,0,0.2,0,0.3
			c-0.5,0.1-1.1,0.1-1.8,0.2c0.2,0.6,0.3,1.1,0.4,1.7c-0.6,0.4-1.2,0.8-1.9,1.3c0.4,0.3,0.7,0.6,1.1,0.9c-1.1-0.1-2.1-1-3.1,0.6
			C24.2,18.6,24.1,18.4,24.1,18.2z M27.3,15.6c-0.1-0.5-0.1-0.9-0.2-1.3c-2.8-0.2-2.8-0.2-3.1,1.3C25,15.6,26.1,15.6,27.3,15.6z"/>
		<path fill="#263238" d="M7.5,22.8c-0.1,0-0.2,0-0.3,0C7.3,22.8,7.4,22.8,7.5,22.8z"/>
		<path fill="#263238" d="M27.3,15.6c-1.2,0-2.2,0-3.3,0c0.3-1.5,0.3-1.5,3.1-1.3C27.1,14.7,27.2,15.1,27.3,15.6z"/>
	</g>
</g>
<g>
</g>
<g>
</g>
<g>
</g>
<g>
</g>
<g>
</g>
<g>
</g>
</svg>
