<?xml version="1.0" encoding="utf-8"?>
<!-- Generator: Adobe Illustrator 18.1.1, SVG Export Plug-In . SVG Version: 6.00 Build 0)  -->
<svg version="1.1" id="Слой_1" xmlns="http://www.w3.org/2000/svg" xmlns:xlink="http://www.w3.org/1999/xlink" x="0px" y="0px"
	 viewBox="0 0 36 36" enable-background="new 0 0 36 36" xml:space="preserve">
<g>
	<path opacity="0.7" fill="#80A3AF" d="M32.2,15.5c0.5-0.3,0.8-0.8,0.8-1.4v-3.7c0-0.6-0.3-1.1-0.8-1.4L18.9,1.2
		c-0.5-0.3-1.1-0.3-1.6,0L3.8,8.9C3.3,9.2,3,9.8,3,10.3v15.5c0,0.6,0.3,1.1,0.8,1.4l13.3,7.6c0.5,0.3,1.1,0.3,1.6,0l8-4.5
		c0.3-0.1,0.4-0.4,0.4-0.7c0-0.3-0.2-0.6-0.4-0.7l-13.5-7.7c-0.2-0.1-0.4-0.4-0.4-0.7v-4.8c0-0.3,0.2-0.6,0.4-0.7l4.2-2.4
		c0.2-0.1,0.6-0.1,0.8,0l4.2,2.4c0.2,0.1,0.4,0.4,0.4,0.7v3.8c0,0.3,0.2,0.6,0.4,0.7s0.6,0.1,0.8,0L32.2,15.5z"/>
	<path fill="#80A3AF" d="M17.8,14.8c0.1-0.1,0.2-0.1,0.3,0l2.6,1.5c0.1,0.1,0.2,0.2,0.2,0.3v3c0,0.1-0.1,0.2-0.2,0.3l-2.6,1.5
		c-0.1,0.1-0.2,0.1-0.3,0l-2.6-1.5c-0.1-0.1-0.2-0.2-0.2-0.3v-3c0-0.1,0.1-0.2,0.2-0.3L17.8,14.8z"/>
</g>
<g>
</g>
<g>
</g>
<g>
</g>
<g>
</g>
<g>
</g>
<g>
</g>
</svg>
