<?xml version="1.0" encoding="utf-8"?>
<!-- Generator: Adobe Illustrator 18.1.1, SVG Export Plug-In . SVG Version: 6.00 Build 0)  -->
<svg version="1.1" id="Слой_1" xmlns="http://www.w3.org/2000/svg" xmlns:xlink="http://www.w3.org/1999/xlink" x="0px" y="0px"
	 viewBox="0 0 36 36" enable-background="new 0 0 36 36" xml:space="preserve">
<g>
	<path fill="#263238" d="M17.7,1c0,0.1-0.1,0.1-0.1,0.2c0.1,0,0.1,0,0.2,0c0.3,0,0.5,0.1,0.8,0.1c0.1,0,0.1,0.1,0.2,0.1
		c0,0.1,0.1,0.1,0.2,0.1c0.2,0,0.5,0,0.7-0.1c0.2,0,0.4-0.1,0.6-0.1c0.2,0,0.3,0,0.5,0.1c0.1,0,0.2,0,0.3-0.1c0,0,0.1-0.1,0.2-0.1
		c0.3,0.1,0.7,0.2,1,0.3c0.7,0.2,1.4,0.5,2,0.8c0.2,0.1,0.5,0.1,0.7,0.1c0.3-0.1,0.6-0.1,0.9,0c0.1,0.1,0.2,0.1,0.3,0.3
		c0.1,0.2,0.5,0.5,0.7,0.6c0-0.2,0.1-0.2,0.3-0.1c0.3,0.2,0.6,0.4,1,0.7c1.2,0.9,2.2,2,2.9,3.3c0.2,0.4,0.4,0.8,0.6,1.3
		c0,0.1,0.1,0.2,0.1,0.3c-0.2,0.3-0.1,0.5-0.1,0.8c0,0.1,0,0.2,0,0.4c0,0,0,0,0,0c-0.1-0.1-0.1-0.2-0.2-0.3
		c-0.1-0.2-0.2-0.4-0.3-0.6c-0.1-0.1-0.1-0.1-0.3-0.1c-0.1,0-0.2,0-0.3,0c-0.2,0-0.2,0.1-0.2,0.2c0,0.2,0.1,0.4,0.1,0.6
		c0,0.1,0.1,0.1,0.2,0.1c0.1,0,0.2,0.1,0.3,0.2c0,0.1,0.1,0.2,0.1,0.3c0.1,0.4,0.1,0.7,0.2,1.1c0,0.1,0,0.1,0,0.2
		c-0.1-0.1-0.2-0.1-0.3-0.2c0,0.1,0,0.2,0,0.2c0.1,0.2,0.2,0.5,0.3,0.7c0.1,0.1,0.1,0.2,0,0.3c-0.1,0.3,0,0.6,0.1,1
		c0,0,0.1,0.1,0.1,0.1c0.2,0.1,0.2,0.1,0.1,0.3c-0.1,0.2-0.2,0.5-0.3,0.7c-0.1,0.2-0.1,0.4-0.1,0.6c0,0.1-0.1,0.2-0.2,0.1
		c-0.1,0.1-0.2,0.2-0.2,0.4c0,0.1,0,0.3-0.1,0.4c-0.1,0.3-0.1,0.5-0.2,0.8c-0.2,0.4-0.4,0.8-0.6,1.2c-0.1,0.1-0.1,0.3-0.1,0.5
		c-0.1,0.2-0.1,0.2-0.2,0.1c-0.1-0.1-0.2-0.1-0.3,0c-0.1,0.2-0.2,0.3-0.2,0.5c0,0.2,0,0.3-0.1,0.5c0,0.1,0,0.1-0.1,0.2
		c-0.2-0.2-0.3-0.1-0.4,0c-0.2,0.2-0.3,0.3-0.5,0.5c-0.6,0.6-1.3,1.1-2.1,1.5c-0.6,0.3-1.2,0.5-1.9,0.7c-0.3,0.1-0.6,0.1-1,0.1
		c-0.2,0-0.5,0.1-0.7,0.1c-0.8,0-1.5-0.1-2.3-0.3c-0.3-0.1-0.5-0.1-0.8-0.2c-0.1,0-0.1,0-0.2,0c0,0,0,0,0,0c0.1,0.1,0.1,0.1,0.2,0.2
		c0.4,0.3,0.8,0.5,1.3,0.6c0.6,0.1,1.2,0.2,1.7,0.2c0.2,0,0.4,0.1,0.6,0.1c-0.2,0.1-0.3,0.1-0.5,0.1c-0.1,0-0.2,0-0.2,0
		c0,0-0.1,0-0.1,0c-1.4-0.1-2.7-0.5-3.9-1.3c-0.4-0.3-0.7-0.6-1.1-0.9c-0.4-0.3-0.6-0.6-0.9-1c0,0,0-0.1-0.1-0.2c0,0,0,0,0,0
		c0.1,0.1,0.2,0.2,0.4,0.3c0.2,0.2,0.3,0.4,0.5,0.5c0,0,0.1,0.1,0.1,0.1c0.1,0.1,0.1,0.1,0.3,0.2c0.1-0.2,0.1-0.2,0.2-0.1
		c0.4,0.2,0.7,0.5,1.1,0.7c0.1,0.1,0.3,0.2,0.4,0.1c0-0.1,0-0.2-0.1-0.3c-0.4-0.3-0.8-0.6-1.2-1c-0.7-0.6-1.3-1.3-1.8-2.1
		c-0.3-0.5-0.4-1-0.5-1.6c0-0.2,0-0.5-0.1-0.7c0-0.2,0-0.4,0-0.6c0-0.4,0.1-0.7,0.1-1.1c0-0.1,0.1-0.2,0.1-0.3
		c0.1-0.3,0.3-0.7,0.4-1c0.1-0.3,0.3-0.6,0.5-0.9c0-0.1,0.1-0.1,0.2-0.2c0.1-0.1,0.2-0.2,0.2-0.3c0.5-0.8,1.2-1.4,2-1.7
		c0.4-0.2,0.8-0.3,1.3-0.4c1.3-0.2,2.5,0.2,3.5,1c0.1,0.1,0.2,0.2,0.3,0.3c0,0,0,0,0,0c-0.1,0-0.1,0-0.2,0c-0.6-0.4-1.3-0.6-2-0.7
		c-0.3,0-0.6,0-0.9,0c-1,0.1-1.8,0.4-2.6,1c-1.1,0.9-1.8,2-2,3.4c0,0.2,0,0.5-0.1,0.7c0,0.1,0,0.2,0.1,0.2c0.1,0.1,0.1,0.3,0.1,0.4
		c0,0.5,0.2,1.1,0.4,1.6c0.3,0.7,0.6,1.3,1.1,1.8c0.5,0.6,1.1,1,1.8,1.4c0.7,0.3,1.4,0.5,2.1,0.6c0.1,0,0.2,0.1,0.3,0
		c0.4-0.1,0.8-0.1,1.1-0.2c0.1,0,0.3-0.1,0.4-0.1c0.1,0,0.2,0,0.3-0.1c0.5-0.1,1-0.3,1.4-0.7c0.1-0.1,0.2-0.2,0.4-0.1
		c0,0,0.1,0,0.2,0c0.3-0.2,0.6-0.4,0.8-0.6c0.4-0.3,0.7-0.7,1.1-1c0.2-0.2,0.3-0.4,0.2-0.6c0-0.4,0.1-0.6,0.4-0.8
		c0.1-0.1,0.2-0.2,0.3-0.3c0.1-0.4,0.3-0.8,0.4-1.3c0-0.1,0-0.3,0-0.4c0-0.1-0.1-0.2,0-0.3c0-0.3,0.1-0.6,0.1-0.8c0-0.1,0-0.3,0-0.4
		c0-0.6,0-1.1,0-1.7c0-0.1-0.1-0.3-0.1-0.4c-0.1-0.4-0.1-0.7-0.2-1.1c-0.2-0.9-0.6-1.8-1.1-2.6c-0.5-0.7-1-1.4-1.6-2
		c-1.2-1.1-2.5-1.9-4.1-2.1c-0.4-0.1-0.7-0.1-1.1-0.2c-0.3,0-0.7,0-1-0.1c-0.4,0-0.9,0-1.3,0.1c-0.1,0-0.2,0-0.3,0
		c-0.5-0.1-0.9,0.1-1.4,0.2c-0.2,0.1-0.4,0.2-0.7,0.3c-0.4,0.2-0.8,0.4-1.2,0.6c0,0-0.1,0-0.2,0.1c0.1,0.1,0.3-0.1,0.4,0.1
		c-0.1,0-0.2,0.1-0.3,0.1c-0.2,0-0.4,0.1-0.6,0.1C13.5,5.8,13,6,12.7,6.3c-0.1,0.1-0.2,0.2-0.3,0.2c0,0-0.1,0.1-0.1,0.1
		c0,0.1,0.1,0.1,0.1,0.2c0,0.1-0.1,0.1-0.2,0.1c-0.7,0.1-1.3,0.6-1.9,1c-0.9,0.8-1.7,1.6-2.4,2.6c-0.1,0.2-0.1,0.2,0,0.4
		c0,0.1,0,0.1,0,0.2c-0.2,0.5-0.5,1-0.8,1.5c-0.2,0.3-0.3,0.7-0.4,1c0,0.3-0.1,0.6-0.1,0.9c0,0.4-0.1,0.8-0.1,1.2
		c0,0.2,0,0.5-0.1,0.7c0,0.3,0,0.6-0.1,0.9c0,0.3-0.1,0.6,0,0.9c0.1,0.5,0.1,1.1,0.4,1.6c0.1,0.2,0.1,0.4,0.1,0.6
		c0,0.2,0,0.5,0.1,0.7c0.1,0.2,0.2,0.4,0.1,0.6c0,0.1,0,0.2,0,0.2c0.1,0.3,0.2,0.5,0.4,0.8c0.1,0.2,0.3,0.4,0.6,0.4
		c0.2,0,0.4,0.2,0.6,0.4c0.2,0.3,0.4,0.6,0.5,1c0,0,0,0.1,0,0.2c0,0-0.1,0-0.1,0c0,0-0.1,0-0.1,0c0,0-0.1,0-0.1,0c0,0,0,0.1,0,0.1
		C8.8,25,8.9,25.2,9,25.3c0.1,0.2,0.2,0.4,0.4,0.6c0.1,0.1,0.1,0.2,0,0.4c-0.1,0.1,0,0.2,0,0.3c0.1,0.1,0.2,0.2,0.3,0.3
		c0.1,0.1,0.1,0.2,0.1,0.3c0,0.1,0,0.2,0.1,0.3c0.2,0.3,0.3,0.5,0.5,0.8c0.2,0.3,0.4,0.5,0.6,0.8c0.1,0.1,0.1,0.1,0.2,0.1
		c0.1,0.1,0.1,0.1,0.2,0.2c0.2,0.4,0.4,0.8,0.7,1.2c0.1,0.1,0.2,0.2,0.3,0.1c0.2,0,0.3,0.1,0.4,0.2c0.3,0.4,0.6,0.7,1,0.9
		c0.1,0.1,0.1,0.1,0.1,0.3c-0.1,0.2-0.1,0.2,0.1,0.3c0.3,0.1,0.5,0.3,0.8,0.4c0.2,0.1,0.4,0.2,0.5,0.3c0.1,0,0.2,0.1,0.2,0
		c0,0,0.1,0,0.2,0c0.1,0.1,0.3,0.2,0.4,0.3c0.4,0.5,0.9,0.8,1.5,1c0.5,0.1,1,0.2,1.5,0.3c0.2,0,0.4,0.1,0.6,0.2c0,0,0.1,0,0.1,0.1
		C19.6,35,19.3,35,19.1,35c0,0-0.1,0-0.1,0c-0.3,0-0.5,0-0.8,0c-0.3,0-0.6,0-0.9-0.1c-0.6-0.2-1.3-0.4-1.9-0.6c-1-0.4-2-0.9-2.9-1.5
		c-0.7-0.5-1.3-1-1.9-1.6c-1-0.9-1.9-1.9-2.6-3c-0.7-1-1.3-2-1.7-3.1c-0.2-0.3-0.3-0.7-0.4-1c-0.2-0.6-0.4-1.2-0.6-1.8
		c-0.1-0.5-0.2-1-0.3-1.5c-0.1-0.4-0.1-0.8-0.1-1.2c0-0.4,0-0.8,0-1.2c0-0.4,0-0.8,0-1.2c0-0.5,0-0.9,0-1.4c0-0.1,0-0.2,0-0.4
		c0-0.1,0-0.2,0-0.3c0-0.2,0-0.4,0-0.7c0-0.2,0-0.5-0.1-0.7c0-0.3,0.1-0.5,0.1-0.8c0.1-0.4,0.2-0.7,0.4-1.1c0.3-0.8,0.6-1.6,1-2.4
		c0.1-0.2,0.2-0.3,0.4-0.3C6.7,9,6.8,8.9,6.9,8.7C7,8.4,7.2,8.1,7.3,7.8c0.1-0.3,0.2-0.5,0.4-0.8c0,0,0-0.1,0.1-0.1
		C7.9,6.9,7.9,6.7,8,6.6c0.1-0.2,0.3-0.4,0.4-0.6c0.4-0.4,0.9-0.9,1.3-1.3c0.3-0.3,0.6-0.6,0.9-0.9c0.1-0.1,0.2-0.1,0.3-0.1
		c0.1,0,0.2,0,0.2,0c0.6-0.5,1.3-0.9,2-1.3c0.5-0.2,1-0.5,1.5-0.7c0.4-0.2,0.8-0.4,1.2-0.5c0.1,0,0.2,0,0.4,0c0.1,0,0.2,0,0.3,0
		c0.3,0,0.5-0.1,0.8-0.1C17.4,1,17.5,1,17.7,1C17.6,1,17.7,1,17.7,1z"/>
	<path fill="#263238" d="M21.6,19.2c-0.2-0.1-0.4-0.1-0.6-0.2c0,0-0.1-0.1-0.1-0.2c0.1,0,0.1,0,0.2,0c0.1,0,0.2,0,0.2,0
		c0.2,0,0.5,0,0.7,0c0.1,0,0.1,0,0.2,0.1c0,0.1-0.1,0.1-0.1,0.2C21.9,19.2,21.8,19.2,21.6,19.2z"/>
	<path fill="#263238" d="M15.6,21.2c-0.1-0.1-0.2-0.2-0.2-0.3c-0.2-0.2-0.4-0.5-0.5-0.7c0-0.1-0.1-0.2-0.1-0.3c0,0,0-0.1,0.1-0.1
		c0,0,0.1,0,0.1,0.1c0.2,0.4,0.5,0.8,0.7,1.2C15.6,21.1,15.6,21.1,15.6,21.2C15.6,21.2,15.6,21.2,15.6,21.2z"/>
	<path fill="#263238" d="M5.7,8.3C5.6,8.5,5.6,8.6,5.5,8.7c0,0-0.1,0-0.1,0c0,0,0-0.1,0-0.1c0-0.1,0.1-0.3,0.1-0.4
		c0,0,0.1-0.1,0.1-0.1C5.6,8.2,5.7,8.2,5.7,8.3z"/>
	<path fill="#263238" d="M24.9,14.8c0-0.1,0-0.1,0.1-0.2c0,0,0.1-0.1,0.1-0.1c0,0,0.1,0.1,0.1,0.1c0,0.1,0,0.3,0,0.4
		c0,0,0,0.1-0.1,0.1c0,0-0.1,0-0.1-0.1C24.9,15,24.9,14.9,24.9,14.8z"/>
	<path fill="#263238" d="M4.6,11.5c-0.1-0.2-0.1-0.4,0.1-0.5C4.7,11,4.7,11.4,4.6,11.5z"/>
	<path fill="#263238" d="M23.9,18c0,0,0-0.1,0-0.1c0,0,0-0.1,0-0.1c0,0,0.1,0,0.1-0.1c0.1,0,0.1,0,0.2,0c0,0.1,0,0.1-0.1,0.2
		C24.1,17.9,24,17.9,23.9,18C24,18,24,18,23.9,18z"/>
</g>
<g>
</g>
<g>
</g>
<g>
</g>
<g>
</g>
<g>
</g>
<g>
</g>
</svg>
