<?xml version="1.0" encoding="utf-8"?>
<!-- Generator: Adobe Illustrator 18.1.1, SVG Export Plug-In . SVG Version: 6.00 Build 0)  -->
<svg version="1.1" id="Слой_1" xmlns="http://www.w3.org/2000/svg" xmlns:xlink="http://www.w3.org/1999/xlink" x="0px" y="0px"
	 viewBox="0 0 48 48" enable-background="new 0 0 48 48" xml:space="preserve">
<g>
	<path fill="#80A3AF" d="M7.2,23.8c0-5.1,0-10.2,0-15.3c0-1.2,0.4-1.6,1.5-1.5c1.2,0.1,2.4,0.1,3.5,0C13.6,6.9,14,7.4,14,8.7
		c-0.1,3.4,0,6.9,0,10.3c0,1.2,0.3,1.7,1.6,1.6c1.2-0.1,2.4-0.1,3.7,0c1.2,0.1,1.5-0.5,1.5-1.6c-0.1-3.4,0-6.9,0-10.3
		c0-1.3,0.4-1.8,1.7-1.7c1.3,0.1,2.5,0,3.8,0c1,0,1.4,0.4,1.4,1.4c0,3.6,0,7.1,0,10.7c0,1.2,0.4,1.6,1.6,1.5c3.5-0.1,7,0,10.4,0
		c1.2,0,1.6,0.4,1.6,1.6c0,5.8,0,11.6,0,17.4c0,1.1-0.4,1.5-1.5,1.5c-10.4,0-20.7,0-31.1,0c-1.1,0-1.3-0.4-1.3-1.4
		C7.3,34.3,7.2,29.1,7.2,23.8z M30.8,34.2c3.5,0,3.5,0,3.5-3.5c0,0,0-0.1,0-0.1c0-3.5,0.5-3.1-3.2-3.2c-3.6,0-3.6,0-3.6,3.6
		C27.5,34.2,27.5,34.2,30.8,34.2z"/>
</g>
</svg>
