<?xml version="1.0" encoding="utf-8"?>
<!-- Generator: Adobe Illustrator 18.1.1, SVG Export Plug-In . SVG Version: 6.00 Build 0)  -->
<svg version="1.1" id="Слой_1" xmlns="http://www.w3.org/2000/svg" xmlns:xlink="http://www.w3.org/1999/xlink" x="0px" y="0px"
	 viewBox="0 0 36 36" enable-background="new 0 0 36 36" xml:space="preserve">
<g>
	<path fill="#80A3AF" d="M18,35C8.5,34.9,1,27.4,1,18C1,8.5,8.5,1,18,1c9.5,0,17,7.5,17,17C35,27.5,27.4,34.9,18,35z M12.6,9.7
		c-0.1,0-0.1,0-0.2,0.1c0,0-0.1,0-0.1,0.1c-1.9,1.4-3.1,3.1-3.8,5.4c-0.1,0.2,0,0.4,0.2,0.5c1.3,1.3,1.3,3.2,0,4.4
		c-0.2,0.2-0.2,0.4-0.1,0.6c0.6,1.9,1.6,3.5,3.1,4.8c0.3,0.2,0.6,0.4,0.9,0.7c0.1-0.2,0.2-0.3,0.3-0.4c0.4-0.7,0.8-1.4,1.2-2
		c0.2-0.3,0.2-0.5-0.1-0.7c-2.1-1.7-2.8-3.9-2.3-6.6c0.3-1.6,1.2-2.8,2.4-3.8c0.1-0.1,0.2-0.3,0.2-0.4C13.6,11.5,13.1,10.6,12.6,9.7
		z M13.6,26.8c0.1,0.1,0.1,0.1,0.2,0.1c2.1,1,4.4,1.2,6.7,0.6c0.1,0,0.3-0.2,0.3-0.4c0.5-1.7,2.1-2.7,3.8-2.3c0.3,0.1,0.5,0,0.7-0.2
		c1.2-1.2,2-2.7,2.4-4.3c0.2-0.6,0.2-1.2,0.3-1.9c-1.1,0-2.2,0-3.2,0c-0.1,0-0.2,0.2-0.2,0.3c-0.2,0.5-0.2,1.1-0.5,1.6
		c-1.1,2.5-3,3.9-5.7,4.1c-1,0.1-2-0.1-3-0.5c-0.1,0-0.3,0-0.4,0.1C14.6,25,14.1,25.9,13.6,26.8z M13.5,9.1c0.5,0.9,1,1.7,1.4,2.6
		c0.2,0.3,0.3,0.4,0.6,0.2c2.3-0.8,4.5-0.6,6.5,0.9c1.4,1.1,2.2,2.6,2.5,4.3c0,0.3,0.2,0.4,0.5,0.3c0.8,0,1.6,0,2.5,0
		c0.1,0,0.3,0,0.4,0c0-0.1,0-0.2,0-0.3c0-0.1,0-0.3,0-0.4c-0.3-2.1-1.2-4-2.6-5.6C25,11,24.9,10.9,24.6,11c-1.7,0.4-3.4-0.5-3.8-2.2
		c-0.1-0.2-0.2-0.3-0.4-0.4c-1.7-0.4-3.4-0.4-5.1,0.1C14.7,8.6,14.1,8.8,13.5,9.1z M23.8,5.6c-1.3,0-2.3,1.1-2.3,2.3
		c0,1.3,1.1,2.3,2.3,2.3c1.2,0,2.3-1.1,2.3-2.3C26.2,6.7,25.1,5.6,23.8,5.6z M26.1,28c0-1.3-1.1-2.3-2.3-2.3c-1.3,0-2.3,1.1-2.3,2.3
		c0,1.2,1.1,2.3,2.3,2.3C25,30.4,26.1,29.3,26.1,28z M6.4,15.7c-1.3,0-2.3,1-2.3,2.3c0,1.3,1,2.3,2.3,2.3c1.3,0,2.3-1,2.3-2.3
		C8.7,16.7,7.7,15.7,6.4,15.7z"/>
</g>
<g>
</g>
<g>
</g>
<g>
</g>
<g>
</g>
<g>
</g>
<g>
</g>
</svg>
