<?xml version="1.0" encoding="utf-8"?>
<!-- Generator: Adobe Illustrator 18.1.1, SVG Export Plug-In . SVG Version: 6.00 Build 0)  -->
<svg version="1.1" id="Слой_1" xmlns="http://www.w3.org/2000/svg" xmlns:xlink="http://www.w3.org/1999/xlink" x="0px" y="0px"
	 viewBox="0 0 48 48" enable-background="new 0 0 48 48" xml:space="preserve">
<g>
	<path fill="#546E7A" d="M7,42.8c0.6-0.2,13.7,7.4,32.1,0L7.6,42.6"/>
	<path fill="#546E7A" d="M10.9,27.9c0,7.3,5.3,13.2,11.9,13.2s11.9-5.9,11.9-13.2H10.9z"/>
	<path fill="#546E7A" d="M34.6,29.6c0,0,3.3-1.9,4,0.9c0,0-0.4,2.9-3.3,4l-2.7,0.8L34.6,29.6z"/>
	<path fill="#546E7A" d="M20.9,27c0,0-0.4-0.3-0.9-0.9c-0.5-0.6-1.2-1.5-1.8-2.8c-0.3-0.6-0.6-1.4-0.7-2.2c-0.2-0.8-0.2-1.7-0.1-2.7
		c0.1-0.9,0.4-1.9,0.8-2.8c0.4-0.9,1.1-1.7,1.8-2.4l0.5-0.5c0.2-0.2,0.3-0.3,0.4-0.5c0.2-0.3,0.5-0.6,0.7-0.9c0.4-0.6,0.8-1.3,1-2
		c0.2-0.7,0.3-1.4,0.3-2.1c0-0.7-0.1-1.4-0.2-2c-0.3-1.2-0.7-2.3-1.1-3c-0.3-0.7-0.6-1.1-0.6-1.1s0.4,0.3,0.9,0.9
		c0.6,0.6,1.3,1.5,1.9,2.8c0.3,0.7,0.6,1.4,0.7,2.3c0.1,0.8,0.1,1.8-0.1,2.7c-0.2,0.9-0.6,1.9-1.1,2.7c-0.3,0.4-0.6,0.8-0.9,1.2
		c-0.2,0.2-0.3,0.3-0.5,0.5l-0.5,0.5c-0.6,0.6-1.1,1.2-1.4,1.9c-0.4,0.7-0.6,1.4-0.8,2.1c-0.3,1.5-0.1,2.9,0.2,4.2
		c0.3,1.3,0.7,2.3,1,3C20.6,26.6,20.9,27,20.9,27z"/>
	<path opacity="0.5" fill="#546E7A" d="M26.3,26.9c0,0-0.1,0-0.2-0.1c-0.2-0.1-0.4-0.2-0.7-0.4c-0.5-0.4-1.3-0.9-2-1.9
		c-0.3-0.5-0.7-1.1-0.9-1.8c-0.2-0.7-0.3-1.6-0.2-2.4c0.1-0.9,0.5-1.7,1-2.4c0.5-0.7,1.1-1.3,1.8-1.8c0.3-0.2,0.6-0.4,0.8-0.6
		c0.1-0.1,0.2-0.2,0.3-0.2l0.3-0.3c0.4-0.4,0.7-0.8,0.9-1.2c0.2-0.4,0.3-0.8,0.3-1.3c0-0.4,0-0.9-0.2-1.4c-0.2-0.9-0.6-1.7-0.9-2.2
		c-0.3-0.6-0.5-0.9-0.5-0.9s0.4,0.1,0.9,0.4c0.6,0.3,1.4,0.9,2.1,1.9c0.3,0.5,0.7,1.1,0.9,1.9c0.2,0.8,0.2,1.6-0.1,2.5
		c-0.2,0.8-0.7,1.6-1.3,2.2l-0.4,0.5c-0.2,0.2-0.3,0.3-0.5,0.4c-0.3,0.3-0.6,0.4-0.9,0.7c-0.5,0.3-0.9,0.7-1.3,1.1
		c-0.3,0.4-0.6,0.8-0.7,1.2c-0.2,0.4-0.2,0.9-0.2,1.4c0,0.5,0.1,1,0.2,1.4c0.2,0.9,0.6,1.7,0.9,2.3C26.2,26.6,26.3,26.9,26.3,26.9z"
		/>
	<path opacity="0.5" fill="#546E7A" d="M15.1,27.9c0,0-1.9,9.5,7.8,13.2c0,0-7.4,0.6-11.2-9c0,0-0.6-2.8-0.6-4.3H15.1z"/>
</g>
</svg>
