<?xml version="1.0" encoding="utf-8"?>
<!-- Generator: Adobe Illustrator 18.1.1, SVG Export Plug-In . SVG Version: 6.00 Build 0)  -->
<svg version="1.1" id="Слой_1" xmlns="http://www.w3.org/2000/svg" xmlns:xlink="http://www.w3.org/1999/xlink" x="0px" y="0px"
	 viewBox="0 0 36 36" enable-background="new 0 0 36 36" xml:space="preserve">
<g>
	<path fill="#18FFFF" d="M24.2,21.3c-0.9,0-1.8-0.2-2.7-0.7c-0.1,0-0.2-0.1-0.3-0.2c-0.1-0.1-0.2-0.2-0.2-0.3
		c-0.2-0.4-0.5-0.7-0.9-0.8c0,0-0.1,0-0.1,0c-0.2-0.1-0.3-0.1-0.3-0.3c0-0.2-0.2-0.3-0.4-0.4c-0.7-0.3-1.4-0.3-2,0
		c-0.1,0-0.2,0.1-0.2,0.2c-0.1,0.1-0.2,0.2-0.1,0.4c0,0.1,0,0.1-0.1,0.2c-0.3,0.1-0.6,0.3-0.9,0.6c-0.1,0.1-0.1,0.1-0.2,0.2
		c-0.1,0.3-0.3,0.4-0.5,0.6c-0.6,0.4-1.3,0.7-2.1,0.8c-0.3,0-0.5,0.1-0.8,0.1c-0.6,0-1.1-0.1-1.7-0.4c-0.9-0.5-1.5-1.2-2-2
		c-0.2-0.3-0.2-0.6-0.2-1c-0.1-0.9,0-1.8,0.4-2.6c0.4-1.2,1.3-2.1,2.4-2.6c0.8-0.4,1.6-0.6,2.5-0.7c0.6-0.1,1.2-0.2,1.8-0.3
		c0.5-0.1,1-0.1,1.6-0.1c0.8,0,1.6-0.1,2.3,0c0.6,0,1.2,0,1.8,0.1c0.6,0.1,1.2,0.1,1.8,0.2c0.9,0.2,1.8,0.4,2.6,0.8
		c0.9,0.5,1.6,1.3,2,2.3c0.2,0.6,0.4,1.2,0.4,1.9c0,0.4,0,0.9-0.1,1.3c-0.1,0.5-0.4,0.9-0.7,1.3c-0.5,0.6-1.1,1-1.8,1.3
		C25.1,21.2,24.6,21.3,24.2,21.3z M26.8,16.8c0-0.3,0-0.6-0.1-0.9c-0.2-1.1-0.8-2-1.8-2.5c-0.5-0.3-1.1-0.4-1.6-0.5
		c-0.5-0.1-0.9-0.1-1.4-0.1c-0.7,0.1-1.4,0.3-2,0.8c-1.3,1-1.6,2.9-0.8,4.3c0.4,0.6,0.8,1,1.4,1.3c0.8,0.4,1.6,0.7,2.4,0.7
		c0.6,0,1.3-0.1,1.8-0.3c0.7-0.3,1.2-0.7,1.6-1.3C26.7,17.9,26.8,17.3,26.8,16.8z M9.4,17.2c0,0.1,0,0.2,0,0.2c0,0.1,0,0.2,0,0.3
		c0.1,0.8,0.5,1.4,1.1,1.9c0.6,0.5,1.4,0.7,2.2,0.8c0.6,0,1.3-0.1,1.9-0.3c0.7-0.2,1.2-0.7,1.7-1.1c0.8-0.8,1.2-1.8,1-3
		c-0.2-1.1-0.8-1.9-1.7-2.4c-0.9-0.5-2-0.6-3-0.3c-0.8,0.3-1.5,0.6-2.1,1.2C9.8,15.2,9.4,16.1,9.4,17.2z"/>
	<path fill="#18FFFF" d="M18.2,6.9c0.6,0,1.2,0,1.8,0.1c0.3,0,0.7,0.1,1,0.2c0.3,0.1,0.5,0.2,0.8,0.3c0.8,0.3,1.5,0.5,2.3,0.8
		c0.3,0.1,0.5,0.3,0.7,0.5c0.5,0.4,1,0.8,1.4,1.3c0,0,0.1,0.1,0,0.1c-0.4,0.7-0.7,1.5-1,2.2c0,0.1-0.1,0.1-0.1,0.1
		c-0.7-0.3-1.5-0.5-2.3-0.6c-0.6-0.1-1.2-0.2-1.8-0.2c-0.8-0.1-1.6-0.1-2.4-0.1c-0.2,0-0.4,0-0.6,0c-0.1,0-0.1,0-0.1-0.1
		c0-0.5-0.1-1.1,0-1.6c0-0.5,0-1.1-0.1-1.6c0-0.4-0.1-0.8-0.1-1.3c0-0.1,0-0.1,0.1-0.1C17.9,6.9,18,6.9,18.2,6.9z"/>
	<path fill="#18FFFF" d="M17.7,9.5c0,0.3,0,0.7,0,1c0,0.3,0,0.7,0,1c0,0.1,0,0.1-0.1,0.1c-0.5,0-1,0-1.5,0.1
		c-1.4,0.1-2.9,0.3-4.3,0.8c-0.4,0.1-0.8,0.3-1.2,0.5c-0.1,0-0.1,0-0.1,0c-0.1-0.3-0.2-0.6-0.3-1c-0.1-0.4-0.1-0.8-0.1-1.2
		c0-0.1,0-0.1,0.1-0.2c0.2-0.2,0.4-0.4,0.7-0.5c0.5-0.3,1-0.7,1.3-1.2c0.2-0.2,0.5-0.4,0.7-0.5c0.6-0.3,1.2-0.6,1.8-0.9
		c0.3-0.1,0.6-0.2,1-0.2c0.5-0.1,1-0.2,1.6-0.3c0.2,0,0.2-0.1,0.3,0.2c0.1,0.4,0.1,0.8,0.1,1.2C17.7,8.8,17.7,9.1,17.7,9.5z"/>
	<path opacity="0.7" fill="#18FFFF" d="M1.6,24.2c0.2,0.2,0.3,0.3,0.4,0.6c0.1,0.4,0.1,0.8,0.3,1.1c0.1,0.3,0.2,0.4,0.6,0.4
		c0.3,0,0.6,0,0.9-0.2C4,26.1,4.3,26,4.6,26.1c0.4,0,0.8,0,1.2-0.1c0.4-0.1,0.8-0.2,0.9-0.7c0.3-0.7,0.6-1.3,0.7-2
		c0.1-0.4,0-0.7,0-1.1c-0.1-0.5-0.2-1-0.2-1.4c0-0.2-0.1-0.5-0.1-0.7c0-0.2,0-0.5,0.1-0.7c0-0.2,0.1-0.3,0.1-0.5
		c0-0.1,0-0.1,0.1-0.1C7.6,19,7.9,19.1,8.2,19c0.1,0,0.2,0,0.2,0.1c0.2,0.5,0.5,0.9,0.8,1.2c0.2,0.3,0.5,0.5,0.8,0.7
		c0.1,0,0.1,0.1,0.1,0.2c-0.1,0.4-0.2,0.8-0.3,1.3c-0.1,0.3,0,0.7,0.1,1c0,0.1,0,0.2,0.1,0.3c0,0.1,0,0.3-0.1,0.4
		c-0.2,0.4-0.4,0.7-0.7,0.9c-0.3,0.2-0.6,0.5-0.9,0.7C8,26,7.7,26.1,7.5,26.1c-0.4,0-0.7,0.1-1.1,0.3c-0.2,0.1-0.4,0.1-0.6,0.1
		c-0.6,0-1.1,0-1.7,0c-0.1,0-0.2,0.1-0.3,0.1c-0.2,0.1-0.4,0.2-0.7,0.2c-0.5,0-0.9-0.1-1.2-0.5c-0.3-0.4-0.6-0.8-0.8-1.2
		c-0.1-0.3-0.1-0.2,0.1-0.3C1.4,24.7,1.6,24.5,1.6,24.2z"/>
	<path opacity="0.7" fill="#18FFFF" d="M29.5,18.7c0,0.2,0,0.4-0.1,0.7c0,0.2-0.1,0.3-0.1,0.5c0,0.1,0,0.2,0.1,0.4
		c0.1,0.1,0.1,0.2,0.2,0.2c0.2,0.2,0.2,0.4,0.3,0.7c0,0.4,0,0.9,0,1.3c0,0.4-0.2,0.7-0.3,1c-0.1,0.3-0.3,0.6-0.4,0.9
		C29,24.7,29,25,29.5,25.4c0.3,0.3,0.7,0.5,1,0.7c0.2,0.1,0.3,0.3,0.5,0.4c0.2,0.2,0.4,0.3,0.7,0.3c0.3,0,0.6-0.1,0.7-0.4
		c0-0.1,0.1-0.1,0.1-0.2c0.2-0.4,0.5-0.7,0.8-1c0.1-0.1,0.1-0.1,0.1,0c0,0.1,0.1,0.3,0.1,0.4c0,0.1,0,0.1-0.1,0.1
		c-0.3,0.1-0.5,0.4-0.7,0.6c-0.1,0.1-0.1,0.2-0.2,0.4c-0.1,0.4-0.3,0.7-0.7,0.9c-0.1,0-0.1,0.1-0.2,0c-0.4-0.2-0.8-0.2-1.2-0.3
		c-0.2,0-0.5-0.1-0.7-0.3c-0.4-0.2-0.8-0.5-1.2-0.7c-0.3-0.2-0.7-0.3-1-0.6c-0.1-0.1-0.2-0.2-0.3-0.3c-0.2-0.2-0.2-0.4-0.2-0.6
		c0.1-0.5,0.2-0.9,0.3-1.4c0.1-0.6,0.1-1.2-0.2-1.8c-0.1-0.3-0.2-0.5-0.2-0.8c0-0.3-0.1-0.6-0.1-0.9c0-0.1,0-0.1,0-0.2
		c0.3-0.3,0.5-0.7,0.7-1.1c0,0,0-0.1,0.1-0.1C28.6,18.8,29,18.8,29.5,18.7z"/>
	<path fill="#18FFFF" d="M28.6,16.7c0,0-0.1,0-0.1,0c-0.3,0-0.3,0-0.4-0.3c-0.2-0.9-0.5-1.7-1-2.4c-0.5-0.6-1-1-1.7-1.4
		c-0.1,0-0.1-0.1-0.1-0.1c0.3-0.7,0.6-1.4,1-2.1c0-0.1,0.1-0.1,0.1,0c0.2,0.2,0.5,0.3,0.7,0.5c0.3,0.2,0.6,0.5,0.7,0.9
		c0.1,0.4,0.2,0.8,0.4,1.2c0,0.1,0,0.1-0.1,0.1c-0.1,0-0.3,0.1-0.4,0.1c-0.1,0-0.1,0.1-0.1,0.1c0.3,0.5,0.5,1.1,0.7,1.6
		c0.3,0.6,0.4,1.2,0.4,1.8C28.8,16.8,28.8,16.7,28.6,16.7z"/>
	<path fill="#18FFFF" d="M19.9,21.4c-0.3,0-0.6-0.1-0.9-0.1c-0.6-0.1-1.2-0.1-1.8,0.1c-0.3,0.1-0.5,0.1-0.8,0.1
		c-0.6-0.1-0.7-0.6-0.6-0.9c0.1-0.3,0.3-0.5,0.6-0.7c0.1-0.1,0.2-0.1,0.3-0.2c0.2-0.1,0.4-0.1,0.6,0c0.7,0.3,1.4,0.3,2,0
		c0.1,0,0.1-0.1,0.1-0.1c0.1-0.1,0.2-0.1,0.3,0c0.3,0.1,0.5,0.2,0.7,0.5c0.3,0.3,0.3,0.6,0.2,1C20.5,21.3,20.2,21.4,19.9,21.4z"/>
	<path fill="#18FFFF" d="M10,10.8c0,0.2,0,0.4,0,0.6c0.1,0.5,0.1,1,0.3,1.5c0,0,0,0.1,0,0.1c0.1,0.1,0,0.1,0,0.1
		c-0.5,0.3-0.9,0.7-1.2,1.2c-0.4,0.6-0.7,1.3-0.8,2c0,0.2-0.1,0.3-0.1,0.5c0,0,0,0.1-0.1,0.1c-0.2,0-0.4,0-0.6,0
		c-0.1,0-0.1,0-0.1-0.1c0.2-1,0.5-2.1,1.1-3c0.2-0.2,0.3-0.5,0.4-0.7c0-0.1,0-0.1,0-0.1c-0.1,0-0.3-0.1-0.5-0.1
		c-0.1,0-0.1,0-0.1-0.1c0.1-0.4,0.2-0.7,0.3-1.1c0.2-0.4,0.5-0.7,0.9-0.9C9.8,10.9,9.9,10.9,10,10.8z"/>
	<path fill="#18FFFF" d="M8.6,13.4c-0.2,0.4-0.5,0.7-0.7,1.1c0,0,0,0.1-0.1,0c-0.1,0-0.3,0-0.4,0c-0.4,0.1-0.6,0.4-0.5,0.8
		c0.1,0.2,0.2,0.3,0.4,0.5c0,0,0.1,0.1,0.1,0.1c-0.1,0.3-0.1,0.6-0.2,0.9c0,0,0,0.1-0.1,0.1c-0.6-0.2-1-0.5-1.2-1.1
		c-0.2-0.6,0-1.8,0.8-2.2c0.4-0.2,0.9-0.3,1.3-0.3C8.2,13.3,8.4,13.3,8.6,13.4z"/>
	<path fill="#18FFFF" d="M30.5,15.1c0,0.7-0.4,1.3-1.2,1.4c-0.2,0.1-0.2,0.1-0.2-0.2c0-0.2,0-0.4-0.1-0.6c0-0.1,0-0.1,0.1-0.1
		c0.2-0.1,0.4-0.3,0.5-0.5c0.1-0.4-0.2-0.8-0.6-0.8c-0.1,0-0.3,0-0.4,0c-0.1,0-0.1,0-0.1-0.1c-0.1-0.3-0.3-0.6-0.4-0.9
		c0,0,0-0.1,0-0.1c0.5-0.1,1-0.1,1.4,0.1c0.5,0.2,0.7,0.7,0.9,1.2C30.5,14.7,30.5,14.9,30.5,15.1z"/>
	<path fill="#18FFFF" d="M18,22.4c0,0.3,0,0.5,0,0.8c0,0.1,0,0.1-0.1,0.2c-0.2,0.2-0.4,0.3-0.6,0.4c-0.2,0-0.4,0-0.5-0.1
		c-0.1-0.1-0.2-0.2-0.1-0.3c0-0.5,0-1,0.1-1.5c0,0,0-0.1,0.1-0.1c0.3,0,0.5-0.1,0.8-0.2c0.1,0,0.2,0,0.3-0.1c0.1,0,0.1,0,0.1,0.1
		C18.1,21.9,18.1,22.2,18,22.4C18.1,22.4,18,22.4,18,22.4z"/>
	<path fill="#18FFFF" d="M18.4,22.5c0-0.3,0-0.6,0-0.9c0-0.1,0-0.1,0.1-0.1c0.4,0,0.8,0.1,1.1,0.2c0.1,0,0.1,0,0.1,0.1
		c0.1,0.5,0.1,1,0.1,1.5c-0.1,0.4-0.4,0.6-0.8,0.5c-0.2-0.1-0.4-0.1-0.6-0.3c0,0-0.1-0.1-0.1-0.1C18.4,23,18.4,22.7,18.4,22.5z"/>
	<path fill="#18FFFF" d="M29.8,17.3c0,0.2,0,0.4,0,0.7c-0.1,0.4-0.2,0.6-0.7,0.6c-0.3,0-0.6,0-0.8,0c-0.1,0-0.1,0-0.1-0.1
		c0.1-0.5,0.1-1,0.1-1.5c0,0,0-0.1,0-0.1c0.5,0.1,1,0,1.4-0.1c0.1,0,0.1,0,0.1,0.1C29.8,17,29.8,17.2,29.8,17.3z"/>
	<path fill="#18FFFF" d="M8.1,18.8c-0.2,0-0.4,0-0.6-0.1c-0.4-0.2-0.7-0.5-0.7-1c0-0.2,0-0.3,0-0.5c0-0.1,0-0.1,0.1-0.1
		c0.3,0,0.6,0.1,1,0.1c0.1,0,0.2,0,0.3,0c0.1,0,0.1,0,0.1,0.1c0,0.5,0,1,0.1,1.5C8.3,18.8,8.2,18.8,8.1,18.8
		C8.1,18.8,8.1,18.8,8.1,18.8z"/>
	<path opacity="0.7" fill="#18FFFF" d="M34.6,24.6c0.1,0,0.2,0,0.3,0.1c0.1,0.1,0.1,0.2,0,0.2c-0.1,0.1-0.2,0.2-0.3,0.2
		c-0.2,0.1-0.4,0.2-0.6,0.2c0,0-0.1,0-0.1,0c0-0.1-0.1-0.1,0-0.2c0.1,0,0.2-0.1,0.4-0.2c0,0,0.1,0,0.1-0.1c0,0,0.1-0.1,0.1-0.1
		c0-0.1-0.1-0.1-0.1,0c-0.1,0-0.3,0.1-0.4,0.1c-0.1,0.1-0.1,0.1-0.2-0.1c0,0,0-0.1,0-0.1C34.1,24.7,34.3,24.6,34.6,24.6z"/>
	<path opacity="0.7" fill="#18FFFF" d="M26.8,16.8c0,0.6-0.1,1.1-0.4,1.6c-0.4,0.6-0.9,1-1.6,1.3c-0.6,0.2-1.2,0.3-1.8,0.3
		c-0.9,0-1.7-0.3-2.4-0.7c-0.6-0.3-1.1-0.7-1.4-1.3c-0.9-1.4-0.5-3.3,0.8-4.3c0.6-0.5,1.2-0.7,2-0.8c0.5,0,0.9,0,1.4,0.1
		c0.6,0.1,1.1,0.3,1.6,0.5c1,0.5,1.6,1.4,1.8,2.5C26.8,16.2,26.8,16.5,26.8,16.8z M22.2,19.3c0.7,0,1.3-0.2,1.9-0.6
		c1.3-0.9,1.7-2.6,1-4c-0.9-1.7-3.1-2.2-4.7-1.2c-1.3,0.8-1.8,2.3-1.3,3.7C19.6,18.5,20.9,19.3,22.2,19.3z M22.3,19.6
		c0.1,0,0.1,0,0.1,0c0.8,0.1,1.5,0.1,2.3-0.2c0.8-0.3,1.4-0.8,1.7-1.7c0.2-0.5,0.2-1,0.1-1.5c-0.1-1.2-0.7-2.1-1.8-2.7
		c-0.2-0.1-0.3-0.2-0.5-0.2c1.5,1,1.8,2.7,1.4,3.8C25.1,18.7,24,19.5,22.3,19.6z"/>
	<path opacity="0.7" fill="#18FFFF" d="M9.4,17.2c0-1.1,0.4-2,1.2-2.7c0.6-0.6,1.3-0.9,2.1-1.2c1-0.3,2-0.3,3,0.3
		c0.9,0.5,1.5,1.3,1.7,2.4c0.2,1.2-0.2,2.2-1,3c-0.5,0.5-1.1,0.9-1.7,1.1c-0.6,0.2-1.2,0.3-1.9,0.3c-0.8,0-1.6-0.3-2.2-0.8
		c-0.6-0.5-1-1.1-1.1-1.9c0-0.1,0-0.2,0-0.3C9.4,17.3,9.4,17.3,9.4,17.2z M13.9,19.6c0.4,0,0.9-0.1,1.3-0.3c2-0.9,2.5-3.3,1.1-4.9
		c-1.2-1.4-3.4-1.5-4.7-0.2c-0.9,0.9-1.2,2.1-0.8,3.3C11.3,18.8,12.5,19.6,13.9,19.6z M11.1,14.4c-0.1,0-0.1,0-0.1,0.1
		c-0.9,0.8-1.4,1.7-1.3,2.9c0.1,1.1,0.6,1.9,1.6,2.4c0.9,0.5,1.9,0.5,2.9,0.2c0.1,0,0.3-0.1,0.4-0.1c-1.5,0.2-2.8-0.2-3.7-1.5
		C10,17,10.2,15.7,11.1,14.4z"/>
	<path fill="#18FFFF" d="M24,17.4c-0.6,0-1.1-0.5-1.1-1.1c0-0.6,0.5-1.1,1.1-1.1c0.6,0,1.1,0.5,1.1,1.1C25.1,16.9,24.7,17.4,24,17.4
		z M24.6,16.5c0-0.1-0.1-0.3-0.2-0.3c-0.1,0-0.3,0.1-0.3,0.3c0,0.1,0.1,0.2,0.3,0.3C24.5,16.8,24.6,16.6,24.6,16.5z"/>
	<path fill="#18FFFF" d="M14.6,16.6c0-0.6,0.5-1.1,1.2-1.1c0.6,0,1.1,0.5,1.1,1.1c0,0.6-0.5,1.1-1.1,1.1
		C15.1,17.7,14.6,17.2,14.6,16.6z M16,16.6c-0.1,0-0.3,0.1-0.3,0.3c0,0.1,0.1,0.3,0.3,0.3c0.1,0,0.3-0.1,0.3-0.3
		C16.3,16.7,16.2,16.6,16,16.6z"/>
</g>
<g>
</g>
<g>
</g>
<g>
</g>
<g>
</g>
<g>
</g>
<g>
</g>
</svg>
