<?xml version="1.0" encoding="utf-8"?>
<!-- Generator: Adobe Illustrator 18.1.1, SVG Export Plug-In . SVG Version: 6.00 Build 0)  -->
<svg version="1.1" id="Слой_1" xmlns="http://www.w3.org/2000/svg" xmlns:xlink="http://www.w3.org/1999/xlink" x="0px" y="0px"
	 viewBox="0 0 36 36" enable-background="new 0 0 36 36" xml:space="preserve">
<g>
	<path opacity="0.7" fill="#18FFFF" d="M18.9,32.5c-0.8,1.2-1.3,0.7-1.7-0.2c-0.1-0.7-0.3-1.4-1.2-1.4l0.1,0.1
		c0.3-3.9-2.2-6.9-3.6-10.2c-2.9-6.8-3-6.7,4.3-7.1c0.2,0,0.3-0.3,0.6-0.6c-0.9-1.2-1.9-2.4-2.8-3.6c0.9-1.9,1.7-3.8,2.6-5.7
		c0.6,0,1.2,0,1.7-0.1c0.3,0.2,0.6,0.4,0.8,0.7c0.9,1.4,1.7,2.9,2.6,4.3c0.1,2.3-3.8,3.3-2.7,5.1c1.1,1.9,4.2,0.1,6.4,1.1
		c-0.3,0.9-0.6,1.7-0.9,2.7c-1.4,4.8-4.8,8.9-5.3,14l0,0C19.4,31.8,19.2,32.2,18.9,32.5z"/>
	<path opacity="0.5" fill="#18FFFF" d="M19.7,31.5c0.5-5.1,3.9-9.2,5.3-14c0.3-0.9,0.6-1.8,0.9-2.7c-2.2-1.1-5.3,0.8-6.4-1.1
		c-1-1.8,2.8-2.8,2.7-5.1c2-1.2,3.3-3,4.7-4.8c2.9,2.2,4.7,5.5,7.2,8.1c1.1,1.1,1.1,2.1,0,3.3C29.3,20.6,24.5,26.1,19.7,31.5z"/>
	<path fill="#18FFFF" d="M14.6,9.4c1,1.2,1.9,2.4,2.8,3.6c-0.3,0.3-0.4,0.6-0.6,0.6c-7.3,0.4-7.2,0.3-4.3,7.1
		c1.4,3.3,3.8,6.3,3.6,10.2c-4.7-5.2-9.4-10.5-14.1-15.7c-0.7-0.7-1.5-1.5-0.4-2.5c3.1-2.8,5-6.8,8.7-8.9C11,6.1,13.3,7.4,14.6,9.4z
		"/>
	<path fill="#18FFFF" d="M14.6,9.4c-1.3-2-3.5-3.2-4.3-5.6c2.3,0,4.6,0,6.8-0.1C16.3,5.6,15.4,7.5,14.6,9.4z"/>
	<path opacity="0.5" fill="#18FFFF" d="M27,3.8c-1.4,1.7-2.8,3.6-4.7,4.8c-0.9-1.4-1.7-2.9-2.6-4.3c0.1-0.2,0.1-0.4,0-0.7
		c2,0,4,0,5.9,0c0.3,0.4,0.7,0.5,1,0L27,3.8z"/>
	<path fill="#18FFFF" d="M16,30.8c0.9,0,1.1,0.7,1.2,1.4C16.5,32,16.1,31.5,16,30.8z"/>
	<path fill="#18FFFF" d="M19.7,3.6c0.1,0.2,0,0.4,0,0.7c-0.3-0.2-0.6-0.4-0.8-0.7C19.1,3.6,19.4,3.6,19.7,3.6z"/>
	<path fill="#18FFFF" d="M26.7,3.7c-0.4,0.5-0.7,0.4-1,0C26,3.7,26.3,3.7,26.7,3.7z"/>
	<path fill="#18FFFF" d="M18.9,32.5c0.3-0.3,0.5-0.7,0.8-1C19.4,31.8,19.2,32.2,18.9,32.5z"/>
</g>
<g>
</g>
<g>
</g>
<g>
</g>
<g>
</g>
<g>
</g>
<g>
</g>
</svg>
