<?xml version="1.0" encoding="utf-8"?>
<!-- Generator: Adobe Illustrator 18.1.1, SVG Export Plug-In . SVG Version: 6.00 Build 0)  -->
<svg version="1.1" id="Слой_1" xmlns="http://www.w3.org/2000/svg" xmlns:xlink="http://www.w3.org/1999/xlink" x="0px" y="0px"
	 viewBox="0 0 48 48" enable-background="new 0 0 48 48" xml:space="preserve">
<g>
	<path opacity="0.79" fill="#18FFFF" d="M43.7,24.7c-2-2.2-4.5-2.4-7.2-1.5c-0.4,0.2-0.8,0.4-1.2,0.7c-0.6-0.3-1.3-0.1-2-0.1
		c-0.3,0-0.7-0.2-1,0.2c-0.1-0.1-0.2-0.1-0.2-0.2c0-2.4,0-4.7,0-7.1c0.7-0.2,1.4-0.1,2.1-0.1c1.9,0,3.7,0,5.6,0
		c1.2,0,2.5-0.1,3.7,0.1c0.2,1.4,0.5,2.8,0.4,4.3c0,1,0,2.1,0,3.1C43.9,24.3,44,24.6,43.7,24.7z"/>
	<path opacity="0.79" fill="#18FFFF" d="M23.7,24.7c0-1.6,0-1.6-1.6-1.6c-0.6,0-1.2,0-1.7,0c-0.6-0.1-0.9,0.1-0.8,0.8
		c0,0.1,0,0.3-0.1,0.4c-0.3-0.1-0.5,0.1-0.7,0.1c0-2.5,0-5.1,0-7.6c0.4-0.1,0.8-0.1,1.2-0.1c3.4,0,6.7,0,10.1,0c0,2,0,4.1,0,6.1
		c-0.9,0-1.7-0.1-2.6,0.1c-1.4,0.2-2.4,1-3.4,1.9C23.8,24.7,23.8,24.7,23.7,24.7z"/>
	<path fill="#18FFFF" d="M23.7,39.1c0-2.7-0.1-5.4,0.1-8c2.1,0,4.2,0,6.3,0c0,2.7,0,5.4,0,8C27.9,39.1,25.8,39.1,23.7,39.1z"/>
	<path fill="#18FFFF" d="M40.6,31.9c0,2.4,0,4.8,0,7.2c-2.1,0-4.2,0-6.3,0c0-2.4,0-4.8,0-7.2C36.4,31.9,38.5,31.9,40.6,31.9z"/>
	<path fill="#18FFFF" d="M18.7,16.8c0,2.5,0,5.1,0,7.6c0,1.6,0,3.3,0,4.9c0,0.6,0.2,0.8,0.7,0.7c0.1,3,0.1,6,0,9
		c-1.2,0-1.2,0-1.2-1.2c0-9.4,0-18.8,0-28.2c0-0.7,0.2-0.9,0.9-0.9c3.4,0,6.8,0,10.2,0c1,0,1,0,1,1.1c0,4.3,0,8.7,0,13
		c-0.1,0-0.3-0.1-0.4-0.1c0-2,0-4.1,0-6.1c0-2.2,0-4.4,0-6.6c0-0.5-0.1-0.6-0.6-0.6c-3.4,0-6.8,0-10.1,0c-0.5,0-0.6,0.1-0.6,0.6
		C18.7,12.3,18.7,14.6,18.7,16.8z"/>
	<path fill="#18FFFF" d="M16.6,24c0,4.9,0,9.8,0,14.7c0,0.6-0.2,0.8-0.8,0.8c-3.9,0-7.8,0-11.8,0c-0.4,0-0.7,0-0.7-0.6
		c0-6.2,0-12.5,0.1-18.7c0-3.2,0.9-6.2,3.2-8.6c1.5-1.6,3.4-2.3,5.5-2.7c1.3-0.2,2.6-0.3,3.9-0.3c0.6,0,0.7,0.2,0.7,0.8
		c0,4.9,0,9.8,0,14.7C16.7,24,16.6,24,16.6,24z M16.3,22C16.3,22,16.3,22,16.3,22c0-4.1,0-8.3,0-12.4c0-0.7-0.2-0.9-0.9-0.8
		c-0.6,0.1-1.1,0-1.7,0.1c-2,0.2-3.9,0.6-5.6,1.7c-2.9,2.1-4.3,5.1-4.4,8.6c-0.1,6.4,0,12.8,0,19.2c0,0.4,0.1,0.6,0.6,0.6
		c3.8,0,7.6,0,11.3,0c0.4,0,0.5-0.1,0.5-0.5c0-1.6,0.1-3.3,0.1-4.9C16.3,29.8,16.3,25.9,16.3,22z"/>
	<path fill="#18FFFF" d="M40.6,31.9c-2.1,0-4.2,0-6.3,0c0-1.2,0-2.5,0.6-3.6c0.7-1.3,1.8-1.9,3.3-1.8c1.1,0.1,1.8,0.7,2.1,1.7
		C40.6,29.5,40.7,30.7,40.6,31.9z"/>
	<path fill="#18FFFF" d="M30.1,31.1c-2.1,0-4.2,0-6.3,0c0-1.1,0.2-2.1,0.8-3.1c0.7-1.1,2.1-1.7,3.2-1.4c1.3,0.3,1.9,1.2,2.1,2.5
		C30,29.7,30.1,30.4,30.1,31.1z"/>
	<path fill="#18FFFF" d="M30.4,22.9c0-4.3,0-8.7,0-13c0-1.1,0-1.1-1-1.1c-3.4,0-6.8,0-10.2,0c-0.7,0-0.9,0.1-0.9,0.9
		c0,9.4,0,18.8,0,28.2c0,1.2,0,1.2,1.2,1.2c0.1,0.2,0,0.3-0.2,0.3c-1.2,0.2-1.4,0-1.4-1.1c0-9.7,0-19.3,0-29c0-0.6,0.1-0.8,0.8-0.8
		c3.8,0,7.5,0,11.3,0c0.6,0,0.8,0.1,0.8,0.7c0,4.4,0,8.7,0,13.1C30.7,22.5,30.9,22.9,30.4,22.9z"/>
	<path fill="#18FFFF" d="M32.1,16.7c0,2.4,0,4.7,0,7.1c-0.1-0.1-0.3-0.2-0.4-0.3c0-4.6,0-9.3,0-13.9c0-0.5,0.1-0.8,0.7-0.7
		c1,0.1,2,0.2,2.9,0.3c4.5,0.5,7.3,3,8.5,7.3c0.9,3.1,0.6,6.2,0.5,9.4c-0.2-0.3-0.4-0.7-0.6-1c0.3-0.2,0.2-0.5,0.2-0.7
		c0-1,0-2.1,0-3.1c0-1.4-0.2-2.9-0.4-4.3c-0.6-2.3-1.8-4.2-3.7-5.5c-2.2-1.5-4.7-1.7-7.3-1.7c-0.5,0-0.4,0.3-0.4,0.6
		C32.1,12.3,32.1,14.5,32.1,16.7z"/>
	<path fill="#18FFFF" d="M44.3,25.8c0-3.1,0.3-6.3-0.5-9.4c-1.2-4.3-4-6.8-8.5-7.3c-1-0.1-2-0.2-2.9-0.3c-0.6-0.1-0.7,0.2-0.7,0.7
		c0,4.6,0,9.3,0,13.9c-0.3-0.1-0.3-0.3-0.3-0.6c0-4.6,0-9.2,0-13.8c0-0.3,0-0.6,0.4-0.6c2.9-0.1,5.7,0.2,8.2,1.8
		c2.5,1.7,3.9,4.1,4.4,7.1c0.6,3.1,0.2,6.2,0.2,9.3C44.5,26.4,44.4,26.1,44.3,25.8z"/>
	<path fill="#18FFFF" d="M19.4,30.1c-0.6,0.1-0.8-0.1-0.7-0.7c0-1.6,0-3.3,0-4.9c0.3,0,0.5-0.2,0.7-0.1
		C19.5,26.2,19.6,28.2,19.4,30.1z"/>
	<path fill="#18FFFF" d="M32.3,23.9c0.3-0.3,0.7-0.2,1-0.2c0.7,0,1.3-0.2,2,0.1c-0.5,0.4-1,0.9-1.4,1.4c-0.2,0.3-0.3,0.3-0.5,0
		C33.1,24.8,32.7,24.3,32.3,23.9z"/>
	<path fill="#18FFFF" d="M23.7,39.1c2.1,0,4.2,0,6.4,0c0.1,0.3-0.2,0.3-0.4,0.3c-1.9,0-3.8,0-5.6,0C23.8,39.4,23.6,39.4,23.7,39.1z"
		/>
	<path fill="#18FFFF" d="M34.3,39.1c2.1,0,4.2,0,6.3,0c0.1,0.3-0.1,0.3-0.4,0.3c-1.8,0-3.7,0-5.5,0C34.4,39.4,34.2,39.4,34.3,39.1z"
		/>
	<path opacity="0.5" fill="#18FFFF" d="M32.1,16.7c0-2.2,0-4.4,0-6.6c0-0.3-0.1-0.6,0.4-0.6c2.6,0,5.1,0.2,7.3,1.7
		c2,1.3,3.2,3.2,3.7,5.5c-1.2-0.3-2.5-0.1-3.7-0.1c-1.9,0-3.7,0-5.6,0C33.5,16.5,32.8,16.5,32.1,16.7z"/>
	<path opacity="0.5" fill="#18FFFF" d="M18.7,16.8c0-2.3,0-4.5,0-6.8c0-0.5,0.1-0.6,0.6-0.6c3.4,0,6.8,0,10.1,0
		c0.5,0,0.6,0.1,0.6,0.6c0,2.2,0,4.4,0,6.6c-3.4,0-6.7,0-10.1,0C19.5,16.7,19.1,16.7,18.7,16.8z"/>
	<path fill="#18FFFF" d="M16.3,22c0,3.9,0,7.7,0,11.6c0,1.6-0.1,3.3-0.1,4.9c0,0.4-0.1,0.5-0.5,0.5c-3.8,0-7.6,0-11.3,0
		c-0.4,0-0.6-0.2-0.6-0.6c0-6.4-0.1-12.8,0-19.2c0.1-3.5,1.5-6.5,4.4-8.6c1.6-1.2,3.6-1.5,5.6-1.7c0.6-0.1,1.1,0,1.7-0.1
		c0.6-0.1,0.9,0.1,0.9,0.8C16.3,13.8,16.3,17.9,16.3,22C16.3,22,16.3,22,16.3,22z M4.5,17.5c0,0.1-0.1,0.1-0.1,0.2
		c-0.3,1.8-0.1,3.7-0.2,5.5c0,2.3,0,4.6,0,7c0,0.6,0,0.8,0.8,0.8c3.5-0.1,7,0,10.5,0c0.4,0,0.4-0.1,0.4-0.4c-0.1-2.5,0.2-5,0.1-7.4
		c0-2,0.2-3.9-0.1-5.9c0-0.6,0.1-1.2,0.1-1.8c0.1-1.8,0-3.6,0-5.4c0-0.4-0.1-0.5-0.5-0.5c-1,0-1.9,0-2.9,0.2
		c-1.6,0.3-3.2,0.6-4.5,1.6c-2,1.5-3.1,3.5-3.6,5.8C4.5,17.2,4.5,17.4,4.5,17.5z"/>
	<path fill="#18FFFF" d="M16,23.1c0.1,2.5-0.2,5-0.1,7.4c0,0.3,0,0.4-0.4,0.4c-3.5,0-7-0.1-10.5,0c-0.8,0-0.8-0.2-0.8-0.8
		c0-2.3,0-4.6,0-7c0.3-0.1,0.6-0.2,1-0.2C8.8,23.1,12.4,22.9,16,23.1z"/>
	<path opacity="0.5" fill="#18FFFF" d="M4.5,17.1c0.5-2.4,1.7-4.4,3.6-5.8c1.3-1,2.9-1.4,4.5-1.6c1-0.1,1.9-0.1,2.9-0.2
		c0.4,0,0.5,0.1,0.5,0.5c0,1.8,0,3.6,0,5.4c0,0.6-0.1,1.2-0.1,1.8c-0.4-0.1-0.7-0.1-1.1-0.1C11.3,17.1,7.9,17.1,4.5,17.1z"/>
	<path opacity="0.79" fill="#18FFFF" d="M4.5,17.1c3.4,0,6.8,0,10.3,0c0.4,0,0.7,0,1.1,0.1c0.3,2,0.1,3.9,0.1,5.9
		c-3.6-0.3-7.2,0-10.9-0.1c-0.3,0-0.6,0.1-1,0.2c0-1.8-0.1-3.7,0.2-5.5c0-0.1,0.1-0.1,0.1-0.2C4.5,17.4,4.5,17.2,4.5,17.1z"/>
	<path fill="#18FFFF" d="M4.5,17.5c0,0.1-0.1,0.1-0.1,0.2C4.4,17.6,4.4,17.5,4.5,17.5z"/>
</g>
</svg>
