<?xml version="1.0" encoding="utf-8"?>
<!-- Generator: Adobe Illustrator 18.1.1, SVG Export Plug-In . SVG Version: 6.00 Build 0)  -->
<svg version="1.1" id="Слой_1" xmlns="http://www.w3.org/2000/svg" xmlns:xlink="http://www.w3.org/1999/xlink" x="0px" y="0px"
	 viewBox="0 0 36 36" enable-background="new 0 0 36 36" xml:space="preserve">
<g>
	<g>
		<path fill="#80A3AF" d="M15.8,35c-0.3-0.4-0.7-0.2-1-0.3c-0.8-0.2-1.6-0.3-2.3-0.6c0,0,0,0,0-0.1c0.1-0.4-0.6-0.3-0.5-0.6
			c0.1-0.3,0.6-0.1,0.7-0.4c0.2-0.6,0.8-0.9,1.2-1.4c0.4-0.4,0.7-0.9,1.2-1.2c0.5-0.3,0.6-1,1.3-1.2c0.1,0,0.1-0.1,0.1-0.2
			c0.1-0.9,1.1-1,1.5-1.7c2.6,0,5.1,0,7.7,0c0.5,0,0.6,0.1,0.6,0.6c0,0.9,0,1.8,0,2.7c0,0.9-0.1,1.7-0.7,2.4
			c-0.3,0.2-0.5,0.4-0.8,0.6c-1.2,0.5-2.4,0.9-3.7,1.1c-0.3,0-0.7-0.1-0.9,0.3C18.8,35,17.3,35,15.8,35z M22.7,29.5
			c-0.9,0-1.5,0.6-1.5,1.4c0,0.8,0.7,1.4,1.5,1.4c0.9,0,1.5-0.6,1.5-1.5C24.2,30.1,23.6,29.5,22.7,29.5z"/>
		<path fill="#80A3AF" d="M18.1,27.4c-0.4,0.6-1.4,0.7-1.5,1.7c0,0.1-0.1,0.2-0.1,0.2c-0.6,0.2-0.8,0.9-1.3,1.2
			c-0.5,0.3-0.8,0.8-1.2,1.2c-0.4,0.4-1,0.8-1.2,1.4c-0.1,0.3-0.7,0.1-0.7,0.4c-0.1,0.2,0.6,0.2,0.5,0.6c0,0,0,0,0,0.1
			c-0.5-0.1-0.9-0.4-1.4-0.7c-0.8-0.7-1.4-1.5-1.4-2.6c0-2.6,0-5.3,0-7.9c0-1.8,0.8-3.2,2.5-3.9c0.8-0.3,1.6-0.5,2.4-0.5
			c2.8,0,5.7,0,8.5,0c1.8,0,3.1-1,3.8-2.7c0.3-0.7,0.4-1.4,0.4-2.1c0-1.2,0-2.4,0-3.6c0-0.3,0.1-0.5,0.4-0.4c0.9,0,1.8,0,2.8,0
			c0.7,0,1.3,0.3,1.9,0.8c0.7,0.5,1.2,1.2,1.7,1.9c0.1,0.2,0.1,0.4,0.2,0.7c-0.6-0.2-0.9,0-0.9,0.7c0,0.3-0.2,0.5-0.5,0.5
			c-0.3,0-0.5,0.2-0.6,0.5c-0.1,0.4-0.3,0.8-0.8,0.8c-0.3,0-0.3,0.3-0.4,0.5c-0.1,0.3-0.1,0.7-0.4,0.8c-0.9,0.2-0.9,1.5-1.9,1.6
			c-0.1,0-0.2,0.4-0.3,0.6c-0.1,0.2-0.2,0.5-0.4,0.5c-0.5,0-0.6,0.3-0.6,0.7c0,0.3-0.1,0.4-0.5,0.4c-0.5,0-0.8,0.1-0.7,0.7
			c0,0.1,0,0.3-0.1,0.3c-0.8,0.2-1.1,0.9-1.6,1.4c-0.1,0.1-0.2,0.1-0.3,0.1c-0.2,0.1-0.4,0.2-0.4,0.5c0,0.4-0.3,0.7-0.7,0.7
			c-0.4,0.1-0.6,0.3-0.7,0.7c-0.1,0.4-0.4,0.6-0.8,0.7c-0.3,0.1-0.4,0.3-0.4,0.6c-0.8,0-1.5,0-2.3,0C17.9,26.2,17.9,26.2,18.1,27.4z
			"/>
		<path fill="#80A3AF" d="M21.3,26.2c0-0.3,0.1-0.5,0.4-0.6c0.4-0.1,0.7-0.3,0.8-0.7c0.1-0.4,0.3-0.6,0.7-0.7
			c0.4-0.1,0.7-0.3,0.7-0.7c0-0.3,0.2-0.4,0.4-0.5c0.1,0,0.2,0,0.3-0.1c0.5-0.5,0.8-1.2,1.6-1.4c0.1,0,0.1-0.2,0.1-0.3
			c-0.1-0.6,0.3-0.7,0.7-0.7c0.3,0,0.5-0.1,0.5-0.4c0-0.4,0.1-0.7,0.6-0.7c0.3,0,0.4-0.2,0.4-0.5c0.1-0.2,0.1-0.6,0.3-0.6
			c1-0.1,1-1.3,1.9-1.6c0.3-0.1,0.3-0.5,0.4-0.8c0.1-0.2,0.2-0.5,0.4-0.5c0.5,0,0.7-0.4,0.8-0.8c0.1-0.3,0.3-0.5,0.6-0.5
			c0.3,0,0.5-0.2,0.5-0.5c0-0.7,0.3-0.8,0.9-0.7c0,0.1,0,0.2,0.1,0.2c0.1,0.5,0.2,1,0.5,1.5c0,0.1,0,0.2,0,0.2
			c0,0.1-0.1,0.3,0.1,0.3c0,0.2,0,0.3,0.1,0.5c-0.1,0.2-0.2,0.4,0,0.6c0,0.2,0,0.3,0,0.5c0,0.8,0,1.7,0,2.5c0,0.2,0,0.3,0,0.5
			c-0.2,0.2-0.1,0.4,0,0.6c0,0.1,0,0.2,0,0.2c-0.3,0.5-0.3,1.1-0.4,1.7c-0.1,0.3-0.2,0.6-0.3,0.9c-0.1,0.2-0.2,0.3-0.3,0.5
			c-0.9,1.5-2.2,2.5-4,2.5C27.1,26.2,24.2,26.2,21.3,26.2z"/>
	</g>
	<path fill="#80A3AF" d="M3.2,23.7C3.2,23.8,3.3,23.8,3.2,23.7C3.3,23.8,3.2,23.8,3.2,23.7z"/>
	<path fill="#80A3AF" d="M3.3,23.9c0,0,0.1,0.1,0.1,0.1C3.4,24,3.4,24,3.3,23.9z"/>
	<g opacity="0.5">
		<path fill="#80A3AF" d="M2.5,24.7c0-0.1,0-0.2-0.1-0.2c0,0-0.1-0.1-0.1-0.1c0,0,0-0.1-0.1-0.1c0,0,0-0.1-0.1-0.1
			C0.5,20.2,0.4,16.3,2,12.4c1.2-1.9,2.8-2.6,5.1-2.6c3.5,0.1,6.9,0,10.4,0c0.5,0,0.6-0.1,0.6-0.6c0-0.5-0.1-0.6-0.6-0.6
			c-2.4,0-4.8,0-7.2,0c-0.4,0-0.5-0.1-0.5-0.5c0-0.9,0-1.8,0-2.8c0-0.8,0.1-1.5,0.5-2.2c0.9-0.9,2.1-1.2,3.2-1.5
			C15.2,1.1,17.1,0.9,19,1c2,0.2,4.1,0.4,5.9,1.6c0.3,0.5,0.9,0.9,1.1,1.5c-0.5,0-0.9-0.1-1.2,0.6c-0.1,0.4-0.8,0.6-1,1.1
			c0,0-0.1,0-0.2,0c-0.6,0.2-0.8,1.1-1.5,1.2c0,0,0,0,0,0c0,0.5-0.3,0.6-0.7,0.7C21.2,7.8,21,8,21,8.1c0,0.3-0.2,0.3-0.4,0.4
			c-0.5,0.5-0.8,1.1-1.4,1.5c-0.2,0.2-0.3,0.5-0.6,0.5c-0.2,0-0.3,0.2-0.4,0.4c-0.5,0.6-1,1-1.6,1.5c-0.4,0.3-0.7,1-1.2,1.4
			c-0.1,0.1-0.1,0.3-0.3,0.4c-0.8,0.2-0.9,1.1-1.5,1.5c-0.5,0.3-1,0.9-1.5,1.4c-0.2,0.2-0.3,0.4-0.3,0.7c-0.5,0.2-1,0.4-1.5,0.7
			c-0.8,0.6-1.3,1.5-1.6,2.5c-0.3,0-0.5-0.1-0.8,0.2c-0.6,0.5-0.8,1.5-1.7,1.7c-0.1,0-0.1,0.1-0.1,0.2c-0.3,0.6-0.7,1-1.4,0.9
			c-0.2,0-0.1,0.1-0.2,0.2c-0.1,0.6-0.4,1.1-1,1.5C3.2,25.3,2.9,25,2.5,24.7z M13.3,6.5c0.9,0.1,1.5-0.8,1.5-1.4
			c0-0.8-0.6-1.5-1.5-1.5c-0.8,0-1.5,0.6-1.5,1.5C11.8,6,12.4,6.5,13.3,6.5z"/>
		<path fill="#80A3AF" d="M26,4.1c0.2,0.3,0.3,0.7,0.3,1.1c0,2.7,0,5.4,0,8.1c-0.1,2.3-1.7,3.9-4,4.1c-2.8,0-5.6,0-8.4,0
			c-0.2,0-0.4-0.1-0.6,0.1c-0.4,0.1-0.9,0.1-1.3,0.2c0-0.3,0.1-0.5,0.3-0.7c0.5-0.4,0.9-1.1,1.5-1.4c0.7-0.4,0.8-1.2,1.5-1.5
			c0.1,0,0.1-0.3,0.3-0.4c0.5-0.4,0.7-1,1.2-1.4c0.6-0.5,1.1-0.9,1.6-1.5c0.1-0.1,0.3-0.3,0.4-0.4c0.3,0,0.4-0.4,0.6-0.5
			c0.5-0.4,0.9-1,1.4-1.5C20.8,8.4,21,8.4,21,8.1c0-0.2,0.2-0.3,0.4-0.3C21.7,7.7,22,7.5,22,7.1c0,0,0,0,0,0c0.8-0.1,0.9-1,1.5-1.2
			c0.1,0,0.1,0,0.2,0c0.2-0.5,0.9-0.8,1-1.1C25.1,4,25.5,4.2,26,4.1z"/>
		<path fill="#80A3AF" d="M8.8,20.9c-0.3,1.7-0.1,3.4-0.1,5c0,0.4-0.1,0.5-0.5,0.5c-0.8,0-1.6,0-2.5,0c-0.8,0-1.5-0.3-2.1-0.8
			c0.5-0.4,0.8-0.9,1-1.5c0-0.1,0-0.3,0.2-0.2C5.5,24,5.9,23.6,6.1,23c0-0.1,0.1-0.2,0.1-0.2c0.9-0.3,1.1-1.2,1.7-1.7
			C8.3,20.8,8.5,20.9,8.8,20.9z"/>
	</g>
	<path fill="#80A3AF" d="M13.5,17.6c0.2-0.1,0.4-0.1,0.6-0.1c2.6,0,5.2,0,7.9,0c-0.2,0-0.3,0.1-0.5,0.1
		C18.8,17.6,16.2,17.6,13.5,17.6z"/>
</g>
<g>
</g>
<g>
</g>
<g>
</g>
<g>
</g>
<g>
</g>
<g>
</g>
</svg>
