<?xml version="1.0" encoding="utf-8"?>
<!-- Generator: Adobe Illustrator 18.1.1, SVG Export Plug-In . SVG Version: 6.00 Build 0)  -->
<svg version="1.1" id="Слой_1" xmlns="http://www.w3.org/2000/svg" xmlns:xlink="http://www.w3.org/1999/xlink" x="0px" y="0px"
	 viewBox="0 0 36 36" enable-background="new 0 0 36 36" xml:space="preserve">
<path fill="#80A3AF" d="M27.4,25.3c0,0-0.4,0.6-1.1-0.9c-0.6-1.5-3-6.1-4.6-9c-1.5-2.9-5-5.6-6.9-7.1c-2-1.5-5-2.1-5-2.1
	s-0.9,0.2-2-0.4C6.8,5.1,6.6,4.7,4.5,4.1c-2-0.6-2.1-0.6-3.3,0.4s0.4,3.7,1,4.3s1.6,2.5,2,3.5c0.4,1,1.5,4.3,2.2,4.6
	C7,17.2,6.6,18,6.6,18c-2.2,9.5,1.8,10.9,1.8,10.9c3.1,1.5,2-4.4,2.9-2.3c0.8,2.1,5.7,5.8,5.7,5.8l2.8-0.6l-2.1-2.5
	c1.3-0.6,4.9,0.5,7.5,1.6c3.1-0.5,6.4-0.6,9.6-0.5C32.9,27.6,27.4,25.3,27.4,25.3z M13,11.9L11.1,11l-0.8-2.2L13,11V11.9z"/>
<g>
</g>
<g>
</g>
<g>
</g>
<g>
</g>
<g>
</g>
<g>
</g>
</svg>
