<?xml version="1.0" encoding="utf-8"?>
<!-- Generator: Adobe Illustrator 18.1.1, SVG Export Plug-In . SVG Version: 6.00 Build 0)  -->
<svg version="1.1" id="Слой_1" xmlns="http://www.w3.org/2000/svg" xmlns:xlink="http://www.w3.org/1999/xlink" x="0px" y="0px"
	 viewBox="0 0 36 36" enable-background="new 0 0 36 36" xml:space="preserve">
<g>
	<path opacity="0.59" fill="#80A3AF" d="M18.1,1.4c0,0.1,0.1,0.1,0.1,0.2c0.4,1,1,1.8,1.8,2.5c3,3,4.7,6.7,5.5,10.8
		c0.2,1,0.2,2,0.2,3c-0.1,4.1-1.4,7.7-4.3,10.8c-0.6,0.7-1.3,1.4-2.1,1.9c-0.4,0-0.5-0.3-0.6-0.6c-0.5-0.9-0.6-1.8-0.6-2.8
		c0-0.1-0.1-0.2,0-0.3c0.1-1.7,0.3-3.4,0.2-5c0.1-1,0.1-2.1,0-3.1c0-1.2,0-2.5,0-3.7c0-0.1,0-0.2-0.1-0.3c0-0.3,0.1-0.6,0.1-0.9
		c0-1.6,0-3.2,0-4.8C18.3,6.5,18.2,3.9,18.1,1.4z"/>
	<path fill="#80A3AF" d="M18.4,21.9c0,1.7-0.1,3.4-0.2,5c0,0.1,0,0.2,0,0.3c-0.1,0.9-0.3,1.9-0.4,2.8c-0.1,0.3,0,0.7-0.3,0.9
		c-1.5-1.2-2.9-2.6-4.1-4.3c-1.8-2.6-2.9-5.5-2.9-8.7c-0.1-3.6,0.7-6.9,2.4-10.1c0.1-0.2,0.2-0.5,0.4-0.7c0.1,0.2,0.2,0.3,0.2,0.5
		c0.7,1.9,1.3,3.9,2,5.8c0.9,2.6,1.8,5.3,2.6,7.9C18.1,21.6,18.1,21.8,18.4,21.9z"/>
	<path fill="#80A3AF" d="M18.4,21.9c-0.3,0-0.3-0.3-0.3-0.5c-0.9-2.6-1.8-5.3-2.6-7.9c-0.6-1.9-1.3-3.9-2-5.8
		c-0.1-0.2-0.1-0.3-0.2-0.5c0.4-0.8,0.9-1.5,1.5-2.2C15,5.1,15,5.4,15,5.6c1,2.9,1.9,5.7,2.9,8.6c0.1,0.2,0.1,0.5,0.4,0.5
		c0,0.1,0.1,0.2,0.1,0.3c0,1.2,0,2.5,0,3.7C18.4,19.8,18.4,20.9,18.4,21.9z"/>
	<path fill="#80A3AF" d="M18.3,14.7c-0.3-0.1-0.3-0.3-0.4-0.5C17,11.3,16,8.5,15,5.6c-0.1-0.2,0-0.5-0.3-0.5
		c0.6-0.8,1.2-1.4,1.9-2.1c0.6-0.5,1.3-1.1,1.3-2c0.1,0.1,0.2,0.2,0.2,0.2c0,0,0,0,0,0c0,0,0,0,0,0c0,0,0,0.1,0,0.1
		c0.1,2.5,0.2,5.1,0.2,7.6c0,1.6,0,3.2,0,4.8C18.4,14.1,18.3,14.4,18.3,14.7z"/>
	<path opacity="0.5" fill="#80A3AF" d="M17.4,30.9c0.3-0.2,0.3-0.6,0.3-0.9c0.2-0.9,0.3-1.9,0.4-2.8c0,1,0.1,1.9,0.6,2.8
		c0.1,0.3,0.3,0.5,0.6,0.6c-0.6,0.7-0.6,1.5-0.6,2.3c0,0.5,0,1.1,0,1.6c0,0.1,0.1,0.4-0.2,0.4c-0.2,0-0.7,0.1-0.7-0.4
		c0-0.9-0.1-1.8-0.3-2.7C17.6,31.6,17.5,31.3,17.4,30.9z"/>
	<path fill="#80A3AF" d="M18.1,1.3C18.1,1.3,18.1,1.3,18.1,1.3C18.1,1.3,18.1,1.3,18.1,1.3C18.1,1.3,18.1,1.3,18.1,1.3z"/>
</g>
<g>
</g>
<g>
</g>
<g>
</g>
<g>
</g>
<g>
</g>
<g>
</g>
</svg>
