<?xml version="1.0" encoding="utf-8"?>
<!-- Generator: Adobe Illustrator 18.1.1, SVG Export Plug-In . SVG Version: 6.00 Build 0)  -->
<svg version="1.1" id="Слой_1" xmlns="http://www.w3.org/2000/svg" xmlns:xlink="http://www.w3.org/1999/xlink" x="0px" y="0px"
	 viewBox="0 0 48 48" enable-background="new 0 0 48 48" xml:space="preserve">
<g>
	<path opacity="0.79" fill="#263238" d="M43.5,24.6c-2-2.2-4.5-2.4-7.2-1.5c-0.4,0.2-0.8,0.4-1.2,0.7c-0.6-0.3-1.3-0.1-2-0.1
		c-0.3,0-0.7-0.2-1,0.2c-0.1-0.1-0.2-0.1-0.2-0.2c0-2.4,0-4.7,0-7.1c0.7-0.2,1.4-0.1,2.1-0.1c1.9,0,3.7,0,5.6,0
		c1.2,0,2.5-0.1,3.7,0.1c0.2,1.4,0.5,2.8,0.4,4.3c0,1,0,2.1,0,3.1C43.7,24.2,43.8,24.4,43.5,24.6z"/>
	<path opacity="0.79" fill="#263238" d="M23.4,24.6c0-1.6,0-1.6-1.6-1.6c-0.6,0-1.2,0-1.7,0c-0.6-0.1-0.9,0.1-0.8,0.8
		c0,0.1,0,0.3-0.1,0.4c-0.3-0.1-0.5,0.1-0.7,0.1c0-2.5,0-5.1,0-7.6c0.4-0.1,0.8-0.1,1.2-0.1c3.4,0,6.7,0,10.1,0c0,2,0,4.1,0,6.1
		c-0.9,0-1.7-0.1-2.6,0.1c-1.4,0.2-2.4,1-3.4,1.9C23.6,24.6,23.5,24.6,23.4,24.6z"/>
	<path fill="#263238" d="M23.4,39c0-2.7-0.1-5.4,0.1-8c2.1,0,4.2,0,6.3,0c0,2.7,0,5.4,0,8C27.7,39,25.6,39,23.4,39z"/>
	<path fill="#263238" d="M40.3,31.8c0,2.4,0,4.8,0,7.2c-2.1,0-4.2,0-6.3,0c0-2.4,0-4.8,0-7.2C36.2,31.8,38.2,31.8,40.3,31.8z"/>
	<path fill="#263238" d="M18.5,16.7c0,2.5,0,5.1,0,7.6c0,1.6,0,3.3,0,4.9c0,0.6,0.2,0.8,0.7,0.7c0.1,3,0.1,6,0,9
		C18,39,18,39,18,37.8c0-9.4,0-18.8,0-28.2c0-0.7,0.2-0.9,0.9-0.9c3.4,0,6.8,0,10.2,0c1,0,1,0,1,1.1c0,4.3,0,8.7,0,13
		c-0.1,0-0.3-0.1-0.4-0.1c0-2,0-4.1,0-6.1c0-2.2,0-4.4,0-6.6c0-0.5-0.1-0.6-0.6-0.6c-3.4,0-6.8,0-10.1,0c-0.5,0-0.6,0.1-0.6,0.6
		C18.5,12.2,18.5,14.5,18.5,16.7z"/>
	<path fill="#263238" d="M16.3,23.9c0,4.9,0,9.8,0,14.7c0,0.6-0.2,0.8-0.8,0.8c-3.9,0-7.8,0-11.8,0c-0.4,0-0.7,0-0.7-0.6
		c0-6.2,0-12.5,0.1-18.7c0-3.2,0.9-6.2,3.2-8.6c1.5-1.6,3.4-2.3,5.5-2.7c1.3-0.2,2.6-0.3,3.9-0.3c0.6,0,0.7,0.2,0.7,0.8
		c0,4.9,0,9.8,0,14.7C16.4,23.9,16.4,23.9,16.3,23.9z M16.1,21.9C16.1,21.9,16.1,21.9,16.1,21.9c0-4.1,0-8.3,0-12.4
		c0-0.7-0.2-0.9-0.9-0.8c-0.6,0.1-1.1,0-1.7,0.1c-2,0.2-3.9,0.6-5.6,1.7c-2.9,2.1-4.3,5.1-4.4,8.6c-0.1,6.4,0,12.8,0,19.2
		c0,0.4,0.1,0.6,0.6,0.6c3.8,0,7.6,0,11.3,0c0.4,0,0.5-0.1,0.5-0.5c0-1.6,0.1-3.3,0.1-4.9C16.1,29.7,16.1,25.8,16.1,21.9z"/>
	<path fill="#263238" d="M40.3,31.8c-2.1,0-4.2,0-6.3,0c0-1.2,0-2.5,0.6-3.6c0.7-1.3,1.8-1.9,3.3-1.8c1.1,0.1,1.8,0.7,2.1,1.7
		C40.4,29.3,40.4,30.6,40.3,31.8z"/>
	<path fill="#263238" d="M29.8,31c-2.1,0-4.2,0-6.3,0c0-1.1,0.2-2.1,0.8-3.1c0.7-1.1,2.1-1.7,3.2-1.4c1.3,0.3,1.9,1.2,2.1,2.5
		C29.8,29.6,29.9,30.3,29.8,31z"/>
	<path fill="#263238" d="M30.2,22.8c0-4.3,0-8.7,0-13c0-1.1,0-1.1-1-1.1c-3.4,0-6.8,0-10.2,0c-0.7,0-0.9,0.1-0.9,0.9
		c0,9.4,0,18.8,0,28.2c0,1.2,0,1.2,1.2,1.2c0.1,0.2,0,0.3-0.2,0.3c-1.2,0.2-1.4,0-1.4-1.1c0-9.7,0-19.3,0-29c0-0.6,0.1-0.8,0.8-0.8
		c3.8,0,7.5,0,11.3,0c0.6,0,0.8,0.1,0.8,0.7c0,4.4,0,8.7,0,13.1C30.4,22.4,30.7,22.8,30.2,22.8z"/>
	<path fill="#263238" d="M31.9,16.6c0,2.4,0,4.7,0,7.1c-0.1-0.1-0.3-0.2-0.4-0.3c0-4.6,0-9.3,0-13.9c0-0.5,0.1-0.8,0.7-0.7
		c1,0.1,2,0.2,2.9,0.3c4.5,0.5,7.3,3,8.5,7.3c0.9,3.1,0.6,6.2,0.5,9.4c-0.2-0.3-0.4-0.7-0.6-1c0.3-0.2,0.2-0.5,0.2-0.7
		c0-1,0-2.1,0-3.1c0-1.4-0.2-2.9-0.4-4.3c-0.6-2.3-1.8-4.2-3.7-5.5c-2.2-1.5-4.7-1.7-7.3-1.7c-0.5,0-0.4,0.3-0.4,0.6
		C31.8,12.2,31.9,14.4,31.9,16.6z"/>
	<path fill="#263238" d="M44.1,25.6c0-3.1,0.3-6.3-0.5-9.4C42.3,12,39.5,9.5,35,9c-1-0.1-2-0.2-2.9-0.3c-0.6-0.1-0.7,0.2-0.7,0.7
		c0,4.6,0,9.3,0,13.9c-0.3-0.1-0.3-0.3-0.3-0.6c0-4.6,0-9.2,0-13.8c0-0.3,0-0.6,0.4-0.6c2.9-0.1,5.7,0.2,8.2,1.8
		c2.5,1.7,3.9,4.1,4.4,7.1c0.6,3.1,0.2,6.2,0.2,9.3C44.2,26.2,44.2,25.9,44.1,25.6z"/>
	<path fill="#263238" d="M19.2,30c-0.6,0.1-0.8-0.1-0.7-0.7c0-1.6,0-3.3,0-4.9c0.3,0,0.5-0.2,0.7-0.1C19.3,26.1,19.3,28,19.2,30z"/>
	<path fill="#263238" d="M32.1,23.8c0.3-0.3,0.7-0.2,1-0.2c0.7,0,1.3-0.2,2,0.1c-0.5,0.4-1,0.9-1.4,1.4c-0.2,0.3-0.3,0.3-0.5,0
		C32.9,24.7,32.5,24.2,32.1,23.8z"/>
	<path fill="#263238" d="M23.4,39c2.1,0,4.2,0,6.4,0c0.1,0.3-0.2,0.3-0.4,0.3c-1.9,0-3.8,0-5.6,0C23.6,39.3,23.3,39.3,23.4,39z"/>
	<path fill="#263238" d="M34.1,39c2.1,0,4.2,0,6.3,0c0.1,0.3-0.1,0.3-0.4,0.3c-1.8,0-3.7,0-5.5,0C34.2,39.3,34,39.3,34.1,39z"/>
	<path opacity="0.5" fill="#263238" d="M31.9,16.6c0-2.2,0-4.4,0-6.6c0-0.3-0.1-0.6,0.4-0.6c2.6,0,5.1,0.2,7.3,1.7
		c2,1.3,3.2,3.2,3.7,5.5c-1.2-0.3-2.5-0.1-3.7-0.1c-1.9,0-3.7,0-5.6,0C33.3,16.4,32.6,16.4,31.9,16.6z"/>
	<path opacity="0.5" fill="#263238" d="M18.5,16.7c0-2.3,0-4.5,0-6.8c0-0.5,0.1-0.6,0.6-0.6c3.4,0,6.8,0,10.1,0
		c0.5,0,0.6,0.1,0.6,0.6c0,2.2,0,4.4,0,6.6c-3.4,0-6.7,0-10.1,0C19.2,16.6,18.8,16.6,18.5,16.7z"/>
	<path fill="#263238" d="M16.1,21.9c0,3.9,0,7.7,0,11.6c0,1.6-0.1,3.3-0.1,4.9c0,0.4-0.1,0.5-0.5,0.5c-3.8,0-7.6,0-11.3,0
		c-0.4,0-0.6-0.2-0.6-0.6c0-6.4-0.1-12.8,0-19.2c0.1-3.5,1.5-6.5,4.4-8.6c1.6-1.2,3.6-1.5,5.6-1.7c0.6-0.1,1.1,0,1.7-0.1
		c0.6-0.1,0.9,0.1,0.9,0.8C16.1,13.7,16.1,17.8,16.1,21.9C16.1,21.9,16.1,21.9,16.1,21.9z M4.2,17.4c0,0.1-0.1,0.1-0.1,0.2
		c-0.3,1.8-0.1,3.7-0.2,5.5c0,2.3,0,4.6,0,7c0,0.6,0,0.8,0.8,0.8c3.5-0.1,7,0,10.5,0c0.4,0,0.4-0.1,0.4-0.4c-0.1-2.5,0.2-5,0.1-7.4
		c0-2,0.2-3.9-0.1-5.9c0-0.6,0.1-1.2,0.1-1.8c0.1-1.8,0-3.6,0-5.4c0-0.4-0.1-0.5-0.5-0.5c-1,0-1.9,0-2.9,0.2
		c-1.6,0.3-3.2,0.6-4.5,1.6c-2,1.5-3.1,3.5-3.6,5.8C4.2,17.1,4.2,17.2,4.2,17.4z"/>
	<path fill="#263238" d="M15.7,23c0.1,2.5-0.2,5-0.1,7.4c0,0.3,0,0.4-0.4,0.4c-3.5,0-7-0.1-10.5,0c-0.8,0-0.8-0.2-0.8-0.8
		c0-2.3,0-4.6,0-7c0.3-0.1,0.6-0.2,1-0.2C8.5,23,12.1,22.8,15.7,23z"/>
	<path opacity="0.5" fill="#263238" d="M4.2,17c0.5-2.4,1.7-4.4,3.6-5.8c1.3-1,2.9-1.4,4.5-1.6c1-0.1,1.9-0.1,2.9-0.2
		c0.4,0,0.5,0.1,0.5,0.5c0,1.8,0,3.6,0,5.4c0,0.6-0.1,1.2-0.1,1.8C15.2,17,14.9,17,14.5,17C11.1,17,7.7,17,4.2,17z"/>
	<path opacity="0.79" fill="#263238" d="M4.2,17c3.4,0,6.8,0,10.3,0c0.4,0,0.7,0,1.1,0.1c0.3,2,0.1,3.9,0.1,5.9
		c-3.6-0.3-7.2,0-10.9-0.1c-0.3,0-0.6,0.1-1,0.2c0-1.8-0.1-3.7,0.2-5.5c0-0.1,0.1-0.1,0.1-0.2C4.2,17.2,4.2,17.1,4.2,17z"/>
	<path fill="#263238" d="M4.2,17.4c0,0.1-0.1,0.1-0.1,0.2C4.1,17.5,4.2,17.4,4.2,17.4z"/>
</g>
</svg>
