<?xml version="1.0" encoding="utf-8"?>
<!-- Generator: Adobe Illustrator 18.1.1, SVG Export Plug-In . SVG Version: 6.00 Build 0)  -->
<svg version="1.1" id="Слой_1" xmlns="http://www.w3.org/2000/svg" xmlns:xlink="http://www.w3.org/1999/xlink" x="0px" y="0px"
	 viewBox="0 0 36 36" enable-background="new 0 0 36 36" xml:space="preserve">
<g>
	<path opacity="0.5" fill="#80A3AF" d="M15.7,4.3c0,0.3,0,0.6-0.1,0.9c-0.2,0.6,0.1,1.1,0.8,1.1c0.5,0,1,0,1.4,0.3
		C18.3,6.9,19,6.5,19,5.9c0.1-1.5,1.3-2.6,3-2.5c1.5,0.1,2.6,1.3,2.6,2.7c0,1.8-2.1,3.2-3.8,2.4c-1-0.5-1.6,0.2-2.3,0.6
		c-0.3,0.2-0.5,0.5-0.8,0.8c-0.5,0.4-0.5,1.1,0,1.6c0.9,1,1,2.4,0.3,3.4c-0.8,1.1-2.4,1.4-3.6,0.8c-1.2-0.6-1.8-1.9-1.4-3.2
		c0.3-0.8,0.9-1.4,1.7-1.7c0.5-0.2,0.9-0.8,0.6-1.3c-0.4-0.7-0.5-1.5-1.1-2c-0.4-0.3-0.7-0.5-1.2-0.5c-1.5,0-2.7-1.1-2.8-2.6
		c0-1.5,1.2-2.7,2.8-2.7C14.5,1.6,15.7,2.7,15.7,4.3z M15.6,15.1c0.9,0,1.7-0.6,2-1.4c0.2-0.8-0.1-1.6-0.8-2.1
		c-0.4-0.2-0.4-0.5-0.3-0.9c0.2-0.7,0.3-1.4,1.1-1.9c0.6-0.4,1.3-0.9,2-1.3c0.4-0.3,0.8-0.4,1.3,0c0.2,0.2,0.5,0.2,0.8,0.3
		c1.1,0.2,2.2-0.7,2.3-1.8c0.1-1-0.8-2-1.9-2C20.8,4,19.7,4.9,19.8,6c0.1,0.8-0.3,1-0.8,1.2c-0.3,0.1-0.5,0.2-0.8,0.4
		c-0.2,0.1-0.4,0.1-0.6-0.1c-0.3-0.4-0.8-0.6-1.3-0.4c-0.6,0.3-0.8,0-1.1-0.4c-0.2-0.3-0.4-0.5-0.6-0.7c-0.2-0.2-0.2-0.4,0-0.6
		c0.5-0.8,0.4-1.8-0.2-2.4c-0.7-0.7-1.8-0.8-2.6-0.3C11,3.2,10.7,4.1,11,4.9c0.3,0.8,1.3,1.4,2.3,1.2c0.5-0.1,0.8,0,1.1,0.4
		c0.5,0.7,1,1.3,1.4,2.1c0.4,0.7,0.3,1.3,0.1,1.9c0,0,0,0,0,0.1c0,0.5-0.2,0.7-0.7,0.8c-1,0.2-1.6,1.1-1.5,2.1
		C13.7,14.4,14.6,15.1,15.6,15.1z"/>
	<path opacity="0.5" fill="#80A3AF" d="M32.2,27.7c-1.2,0-2.4-0.8-2.7-1.9c-0.2-0.6-0.8-0.9-1.4-0.5c-0.4,0.3-0.8,0.5-1.3,0.6
		c-0.7,0.1-1,0.7-0.6,1.3c0.6,1,0.6,2.1-0.1,3c-0.7,0.9-2,1.3-3.2,0.9c-1-0.3-1.8-1.4-1.8-2.4c0-1.3,1-2.5,2.4-2.7
		c0.4-0.1,0.6-0.3,0.8-0.6c0.5-0.7,0.5-1.5,0.7-2.3c0.1-0.5-0.4-1.1-0.8-1.2c-1.6-0.2-2.6-1.6-2.4-3.1c0.2-1.5,1.7-2.5,3.2-2.2
		c2,0.4,2.9,2.4,1.8,4.1c-0.2,0.4-0.1,1.2,0.4,1.3c0.7,0.3,1.2,0.9,2,1c0.3,0,0.5,0.1,0.7-0.1c0.7-0.3,1.4-0.7,2.3-0.7
		c1.6,0,2.8,1.2,2.8,2.6C35,26.5,33.8,27.7,32.2,27.7z M21.9,28.7c0,0.1,0,0.3,0.1,0.5c0.3,0.7,1,1.3,1.8,1.3c0.8,0,1.6-0.4,1.9-1.1
		c0.4-0.8,0.2-1.5-0.4-2.2c-0.2-0.2-0.3-0.4-0.1-0.7c0.4-0.5,0.3-1.2,1-1.5c0.1,0,0.2,0.1,0.3,0.1c0.4,0.1,0.9,0,1.1-0.4
		c0.3-0.6,0.7-0.5,1.1-0.4c0.3,0.1,0.5,0.1,0.8,0.2c0.4,0.1,0.7,0.2,0.7,0.7c0,0.3,0.1,0.5,0.3,0.8c0.4,0.7,1.1,0.9,1.8,0.9
		c0.9,0,1.5-0.5,1.8-1.3c0.3-0.7,0.1-1.3-0.4-1.9c-0.8-0.9-2.1-0.9-3,0c-0.2,0.2-0.3,0.4-0.6,0.3c-0.9-0.3-2-0.2-2.7-1
		c-0.1-0.1-0.3-0.2-0.5-0.2c-0.3,0-0.5-0.2-0.6-0.4c-0.2-0.4-0.4-0.8-0.6-1.2c-0.1-0.3-0.1-0.5,0.1-0.7c0.6-0.6,0.8-1.3,0.5-2
		C26,17.6,25,17.1,24,17.4c-0.9,0.2-1.6,1.2-1.5,2c0.1,1,0.9,1.7,2,1.8c0.2,0,0.5-0.1,0.6,0.1c0.4,0.6,0.9,1.3,0.8,1.8
		c-0.2,0.7-0.1,1.4-0.5,2c-0.2,0.3-0.4,0.7-0.6,1.1c-0.2,0.4-0.3,0.5-0.8,0.5C22.8,26.6,21.9,27.4,21.9,28.7z"/>
	<path opacity="0.5" fill="#80A3AF" d="M16.5,28.3c-0.1,0.6,0.1,1,0.7,1.4c0.9,0.6,1.2,1.7,0.9,2.8c-0.3,1-1.2,1.8-2.3,1.9
		c-1.4,0.1-2.6-0.6-3-1.7c-0.4-1.2,0-2.3,1.2-3.2c0.4-0.3,0.4-1-0.1-1.3c-0.4-0.2-0.8-0.6-1-1c-0.3-0.6-0.9-0.7-1.4-0.2
		C10.2,28.5,8,28.3,7,26.8c-0.6-0.9-0.6-1.8,0-2.7c0.6-1,1.6-1.4,2.7-1.3c1,0.1,1.8,0.6,2.2,1.5c0.1,0.2,0.3,0.3,0.5,0.4
		c1,0.3,1.9,0.1,2.9,0c0.5-0.1,0.9-0.7,0.8-1.4c-0.1-1.6,1-2.8,2.6-2.9c1.5-0.1,2.8,1.1,2.9,2.5c0.1,1.7-1.5,3.1-3.2,2.8
		c-1.1-0.2-1.5,0.1-1.7,1.2C16.6,27.3,16.4,27.8,16.5,28.3z M9.4,23.5c-0.8,0-1.6,0.5-1.9,1.3c-0.3,0.8,0,1.6,0.6,2.2
		c1,0.8,2.4,0.5,3-0.6c0.3-0.6,0.7-0.4,1.1-0.3c0.4,0.1,0.9,0,1.3,0.4c0.1,0.1,0,0.3,0.1,0.4c0.1,0.4,0.4,0.8,0.8,0.8
		c0.6,0.1,0.7,0.4,0.7,0.9c0,0.2,0,0.4,0,0.7c0.1,0.5-0.1,0.7-0.6,0.9c-0.9,0.3-1.4,1.5-1,2.4c0.4,0.8,1.2,1.3,2.1,1.2
		c0.9-0.1,1.7-0.8,1.8-1.6c0.1-0.9-0.3-1.7-1.3-2.1c-0.2-0.1-0.4-0.2-0.4-0.5c0-0.9-0.3-1.8,0.2-2.7c0.1-0.1,0.1-0.3,0-0.4
		c-0.1-0.4,0.1-0.6,0.4-0.8c0.2-0.2,0.5-0.4,0.7-0.6c0.3-0.3,0.6-0.4,1.1-0.2c1.1,0.5,2.4-0.1,2.7-1.2c0.2-0.8-0.1-1.6-0.7-2.1
		c-0.8-0.6-1.7-0.6-2.5,0C17,22,16.7,22.8,17,23.6c0.1,0.2,0.3,0.5,0,0.7c-0.7,0.5-1.2,1.4-2.3,1.1c0,0,0,0-0.1,0
		c-0.9,0.4-1.8-0.1-2.8-0.1c-0.3,0-0.4-0.2-0.5-0.4C11.1,24,10.3,23.4,9.4,23.5z"/>
	<path opacity="0.5" fill="#80A3AF" d="M4,16.2c0.6-0.1,1.2,0.2,1.7,0.6c0.4,0.3,1.1,0.1,1.3-0.4c0.1-0.5,0.4-0.9,0.8-1.3
		c0.4-0.4,0.3-1.1-0.3-1.3c-1.4-0.5-2.1-1.7-1.8-3c0.2-1.2,1.5-2.2,2.8-2.2c1.3,0,2.5,1,2.7,2.3c0.1,0.7-0.1,1.4-0.6,2
		c-0.2,0.2-0.5,0.3-0.5,0.7c0,0.5,0,1.1,0.3,1.6c0.2,0.4,0.4,0.7,0.5,1.1c0.2,0.5,1,0.7,1.4,0.5c1.8-0.8,3.8,0.2,4.1,2
		c0.2,1.4-0.9,2.8-2.3,3c-1.7,0.2-3.1-0.9-3.2-2.4c0-0.6-0.6-1.2-1.1-1.1c-0.9,0.1-1.8,0-2.6,0.5c-0.3,0.2-0.5,0.3-0.6,0.7
		c-0.3,1.1-1.3,1.9-2.4,2C2.9,21.6,1.8,21,1.3,20C0.4,18.2,1.7,16.2,4,16.2z M11.6,19c-0.1,0.9,0.4,1.7,1.2,2c0.9,0.3,1.9,0,2.4-0.6
		c0.6-0.8,0.6-1.6,0-2.3c-0.7-0.8-1.9-1-2.9-0.3c-0.1,0.1-0.3,0.4-0.4,0.2c-0.6-0.5-1.8-0.4-1.9-1.6c0-0.2-0.1-0.4-0.3-0.5
		c-0.2-0.1-0.2-0.3-0.3-0.5c-0.1-0.5-0.2-1.1-0.3-1.6c-0.1-0.3,0-0.5,0.3-0.7c0.7-0.4,1-1,0.9-1.8c-0.1-0.9-0.9-1.7-1.9-1.7
		C7.4,9.4,6.6,10,6.3,10.9c-0.2,0.9,0.2,2,1.2,2.2c0.9,0.2,1.1,0.7,1.1,1.4c0,0.1,0,0.3,0.1,0.4c0.1,0.3,0,0.5-0.4,0.6
		c-0.4,0.2-0.8,0.5-0.7,0.9c0.1,0.7-0.3,0.8-0.8,1c-0.2,0.1-0.5,0.1-0.7,0.2c-0.4,0.2-0.7,0.1-1-0.2c-0.6-0.7-1.8-0.8-2.6-0.3
		c-0.7,0.4-1.1,1.4-0.8,2.2c0.2,0.8,1.1,1.3,2,1.3c1,0,1.8-0.7,1.9-1.6c0-0.5,0.3-0.7,0.7-0.9c0.9-0.4,1.8-0.6,2.8-0.6
		c0.4,0,0.8,0,1.2,0.2c0.2,0.1,0.5,0.3,0.7,0.4C11.5,18.4,11.8,18.6,11.6,19z"/>
	<path opacity="0.5" fill="#80A3AF" d="M33.2,8c0,1.6-1.4,2.8-3.2,2.7c-0.3,0-0.7-0.1-0.9,0.2c-0.2,0.3-0.3,0.6,0,0.9
		c0.4,0.3,0.5,0.8,0.4,1.3c-0.1,0.7,0.4,1.1,1,0.9c1.2-0.3,2.5,0.2,3.1,1.1c0.6,1,0.6,2,0,2.9c-0.6,0.9-1.6,1.3-2.7,1.2
		c-1.6-0.2-2.6-1.4-2.4-3.1c0-0.4-0.1-0.6-0.3-0.9c-0.5-0.7-1.4-0.9-2.1-1.4c-0.4-0.3-1.2,0.1-1.5,0.6c-0.7,1.1-2,1.6-3.3,1.2
		c-1.2-0.4-2-1.5-1.9-2.8c0.1-1.1,0.7-1.8,1.7-2.2c1-0.4,2-0.3,2.9,0.4c1.2,0.9,1.2,0.9,2.4,0c0.6-0.4,1-0.9,1.4-1.5
		C28,9.5,28,9.4,27.9,9.1c-0.5-1-0.3-2.1,0.5-2.8c0.8-0.9,2-1.2,3.1-0.7C32.6,6,33.2,6.9,33.2,8z M31.7,18.5c0.5,0,1.2-0.3,1.6-1.1
		c0.3-0.7,0.3-1.4-0.2-2c-0.5-0.7-1.3-1-2.1-0.7c-0.8,0.3-1.3,0.1-1.7-0.5c-0.1-0.2-0.3-0.3-0.5-0.5c-0.2-0.2-0.2-0.3-0.1-0.5
		c0.3-0.4,0.4-0.9,0-1.2c-0.5-0.5-0.3-0.9,0-1.3c0.1-0.2,0.3-0.4,0.4-0.6c0.2-0.3,0.4-0.4,0.8-0.3c1,0.3,2.2-0.5,2.4-1.4
		c0.2-0.9-0.2-1.7-1-2.1c-0.8-0.4-1.9-0.2-2.5,0.4c-0.6,0.6-0.7,1.5-0.1,2.4c0.1,0.2,0.2,0.3,0,0.5c-0.6,0.7-0.9,1.7-1.8,2.1
		c-0.2,0.1-0.3,0.2-0.4,0.4c0,0.1-0.1,0.3-0.3,0.3c-0.9-0.1-1.9,0.7-2.6-0.6c-0.4-0.8-1.6-0.8-2.5-0.4c-0.7,0.4-1.1,1.2-0.9,2.1
		c0.2,0.8,0.9,1.4,1.8,1.5c0.9,0.1,1.8-0.4,2.1-1.2c0.2-0.5,0.4-0.7,0.9-0.7c0.7,0,1.4-0.2,2.2,0.4c0.7,0.5,1.3,1,2,1.5
		c0.3,0.3,0.4,0.5,0.3,1C29.2,17.4,30.1,18.5,31.7,18.5z"/>
	<path fill="#80A3AF" d="M15.6,15.1c-1,0-1.9-0.7-2-1.7c-0.1-1,0.5-1.8,1.5-2.1c0.5-0.1,0.7-0.3,0.7-0.8c0,0,0,0,0-0.1
		c0.2-0.7,0.3-1.2-0.1-1.9c-0.4-0.7-0.9-1.4-1.4-2.1c-0.3-0.4-0.6-0.5-1.1-0.4c-1,0.2-1.9-0.3-2.3-1.2c-0.3-0.8,0-1.8,0.8-2.3
		c0.7-0.5,1.9-0.4,2.6,0.3c0.6,0.6,0.7,1.6,0.2,2.4c-0.2,0.3-0.2,0.4,0,0.6c0.2,0.2,0.4,0.5,0.6,0.7c0.3,0.4,0.6,0.6,1.1,0.4
		c0.5-0.2,1,0,1.3,0.4c0.2,0.2,0.3,0.3,0.6,0.1c0.3-0.1,0.5-0.3,0.8-0.4C19.5,7,19.9,6.8,19.8,6c-0.1-1.1,0.9-2,2.1-1.9
		c1.1,0.1,2,1,1.9,2c-0.1,1.1-1.2,1.9-2.3,1.8c-0.3,0-0.6-0.1-0.8-0.3c-0.4-0.4-0.8-0.3-1.3,0c-0.7,0.4-1.3,0.8-2,1.3
		c-0.8,0.5-0.8,1.2-1.1,1.9c-0.1,0.4-0.1,0.6,0.3,0.9c0.8,0.5,1,1.3,0.8,2.1C17.3,14.6,16.5,15.1,15.6,15.1z M11.7,4.3
		c0,0.5,0.4,1,1,1.1c0.2,0,0.4,0.1,0.4-0.1C13.2,5.1,13,5,12.9,5c-0.2,0-0.5-0.1-0.6-0.3c-0.2-0.3-0.2-0.6,0-0.9
		c0.3-0.3,0.6-0.4,1-0.2c0.4,0.2,0.5,0.5,0.5,0.9c0,0.2-0.2,0.4,0.1,0.5c0.2,0,0.2-0.2,0.3-0.4c0.1-0.4-0.1-0.8-0.4-1.1
		c-0.4-0.3-0.8-0.4-1.3-0.2C12,3.4,11.8,3.7,11.7,4.3z M15.6,13.9c-0.3,0-0.5-0.2-0.7-0.4c-0.2-0.4,0-0.6,0.3-0.9
		c0.1-0.1,0.3-0.1,0.2-0.3c-0.1-0.2-0.3,0-0.4,0c-0.5,0.3-0.7,0.9-0.4,1.4c0.3,0.6,1,0.8,1.5,0.5c0.5-0.3,0.7-1,0.4-1.5
		c-0.1-0.1-0.2-0.3-0.4-0.2c-0.2,0.1-0.1,0.3,0,0.4C16.4,13.4,16.2,13.9,15.6,13.9z M22.5,6c0.1,0.6-0.4,0.8-1,0.8
		c-0.1,0-0.3-0.1-0.4,0c-0.1,0.2,0.1,0.2,0.3,0.3c0.4,0.2,0.8-0.1,1.1-0.3c0.4-0.3,0.6-0.7,0.4-1.1c-0.2-0.5-0.7-0.8-1.2-0.8
		c-0.5,0.1-0.9,0.3-1.1,0.8c0,0.2-0.1,0.4,0.1,0.5C21,6.3,20.9,6,21,5.9c0.1-0.5,0.5-0.6,1-0.6C22.4,5.3,22.6,5.6,22.5,6z"/>
	<path fill="#80A3AF" d="M21.9,28.7c0-1.2,0.9-2,2-2c0.5,0,0.6-0.2,0.8-0.5c0.2-0.4,0.3-0.8,0.6-1.1c0.4-0.6,0.3-1.3,0.5-2
		c0.2-0.5-0.4-1.2-0.8-1.8c-0.1-0.2-0.4,0-0.6-0.1c-1.1-0.1-1.9-0.8-2-1.8c-0.1-0.8,0.6-1.8,1.5-2c1-0.3,2,0.2,2.4,1.2
		c0.3,0.7,0.1,1.5-0.5,2c-0.2,0.2-0.3,0.4-0.1,0.7c0.2,0.4,0.4,0.8,0.6,1.2c0.1,0.3,0.3,0.4,0.6,0.4c0.2,0,0.4,0.1,0.5,0.2
		c0.7,0.8,1.8,0.7,2.7,1c0.3,0.1,0.4-0.2,0.6-0.3c0.9-0.8,2.2-0.8,3,0c0.5,0.6,0.7,1.2,0.4,1.9c-0.3,0.8-0.9,1.2-1.8,1.3
		c-0.8,0-1.4-0.2-1.8-0.9c-0.1-0.2-0.3-0.5-0.3-0.8c0-0.5-0.3-0.7-0.7-0.7c-0.3-0.1-0.5-0.1-0.8-0.2c-0.5-0.1-0.8-0.2-1.1,0.4
		c-0.2,0.4-0.6,0.5-1.1,0.4c-0.1,0-0.3-0.1-0.3-0.1c-0.7,0.2-0.6,1-1,1.5c-0.2,0.2-0.1,0.4,0.1,0.7c0.7,0.7,0.8,1.4,0.4,2.2
		c-0.3,0.7-1.1,1.1-1.9,1.1c-0.8,0-1.6-0.6-1.8-1.3C21.9,28.9,21.9,28.7,21.9,28.7z M33.4,25c0-0.7-0.5-1.2-1.2-1.2
		c-0.3,0-0.8,0.1-0.7,0.4c0.1,0.4,0.4,0,0.6,0c0.4,0,0.7,0,0.9,0.4c0.2,0.3,0.1,0.6-0.1,0.8c-0.2,0.3-0.6,0.3-0.9,0.2
		c-0.3-0.1-0.4-0.3-0.5-0.6c0-0.1-0.1-0.3-0.3-0.2C30.9,25,31,25.2,31,25.3c0.2,0.5,0.8,0.9,1.3,0.9C32.9,26.1,33.4,25.6,33.4,25z
		 M22.8,28.6c0,0.5,0.2,0.8,0.7,1c0.5,0.2,1,0.1,1.3-0.2c0.5-0.5,0.5-1.1,0.1-1.5c-0.1-0.1-0.1-0.2-0.2-0.1
		c-0.1,0.1-0.1,0.2-0.1,0.3c0,0.1,0.1,0.2,0.1,0.3c0.1,0.4,0,0.8-0.5,1c-0.4,0.1-0.8,0.1-1-0.4c-0.2-0.4,0-0.8,0.3-1
		c0.1,0,0.2-0.1,0.2-0.1c0.1-0.1,0.2-0.2,0.1-0.3c-0.1-0.1-0.2-0.1-0.3,0C23.1,27.6,22.7,28,22.8,28.6z M24.5,18.2
		c-0.5,0-1,0.3-1.1,0.8c-0.1,0.5,0.1,1,0.6,1.2c0.2,0.1,0.4,0.2,0.5,0c0.1-0.2-0.2-0.2-0.3-0.3c-0.4-0.3-0.5-0.6-0.3-1
		c0.2-0.3,0.7-0.4,1.1-0.2c0.3,0.2,0.3,0.6,0.2,0.9c0,0.1-0.1,0.3,0.1,0.3c0.1,0.1,0.2-0.1,0.3-0.2c0.2-0.3,0.2-0.6,0-0.9
		C25.3,18.4,25,18.1,24.5,18.2z"/>
	<path fill="#80A3AF" d="M9.4,23.5c1,0,1.7,0.5,2,1.4c0.1,0.3,0.2,0.4,0.5,0.4c0.9,0,1.8,0.5,2.8,0.1c0,0,0,0,0.1,0
		c1.1,0.3,1.6-0.6,2.3-1.1c0.3-0.3,0.1-0.5,0-0.7c-0.2-0.8,0-1.6,0.7-2.1c0.8-0.6,1.6-0.6,2.5,0c0.7,0.5,1,1.3,0.7,2.1
		c-0.3,1.1-1.6,1.7-2.7,1.2c-0.5-0.2-0.7-0.1-1.1,0.2c-0.2,0.2-0.4,0.4-0.7,0.6c-0.3,0.2-0.4,0.4-0.4,0.8c0,0.1,0,0.3,0,0.4
		c-0.5,0.9-0.2,1.8-0.2,2.7c0,0.3,0.2,0.4,0.4,0.5c0.9,0.4,1.4,1.1,1.3,2.1c-0.1,0.8-0.9,1.5-1.8,1.6c-0.9,0.1-1.8-0.4-2.1-1.2
		c-0.4-0.9,0.1-2,1-2.4c0.5-0.2,0.6-0.4,0.6-0.9c0-0.2,0-0.4,0-0.7c0-0.5-0.1-0.9-0.7-0.9c-0.4,0-0.7-0.4-0.8-0.8
		c0-0.1,0-0.3-0.1-0.4c-0.3-0.4-0.9-0.2-1.3-0.4c-0.4-0.1-0.8-0.3-1.1,0.3c-0.7,1.1-2.1,1.4-3,0.6c-0.7-0.5-0.9-1.3-0.6-2.2
		C7.8,24,8.5,23.5,9.4,23.5z M9.4,24.2c-0.6,0-1.1,0.3-1.2,0.9c-0.1,0.5,0.1,0.9,0.5,1.2c0.5,0.3,1.2,0.2,1.5-0.2
		c0.1-0.1,0.2-0.2,0.1-0.4c-0.1-0.1-0.3,0-0.4,0.1c0,0-0.1,0.1-0.1,0.1c-0.4,0.3-0.8,0.2-1.2-0.1c-0.3-0.3-0.2-0.6,0-0.9
		c0.3-0.4,0.8-0.4,1.2-0.1c0.2,0.1,0.3,0.5,0.5,0.2c0.1-0.2-0.2-0.4-0.3-0.5C9.9,24.3,9.7,24.3,9.4,24.2z M16.7,31.7
		c0-0.3-0.1-0.6-0.4-0.8c-0.1-0.1-0.2-0.2-0.3-0.1c-0.1,0.1,0,0.2,0.1,0.3c0.2,0.2,0.4,0.4,0.3,0.7c0,0.3-0.2,0.6-0.6,0.7
		c-0.4,0.1-0.7,0-0.9-0.3c-0.2-0.4-0.2-0.7,0.2-1c0.1-0.1,0.3-0.2,0.2-0.4c-0.1-0.2-0.3,0-0.4,0.1c-0.5,0.3-0.6,0.9-0.4,1.4
		c0.2,0.5,0.8,0.8,1.4,0.6C16.3,32.8,16.7,32.3,16.7,31.7z M18.9,22.3c0.4,0,0.7,0.2,0.7,0.6c0,0.5-0.3,0.7-0.7,0.8
		c-0.2,0-0.4,0-0.4,0.2c0,0.2,0.3,0.2,0.4,0.2c0.6,0,1.1-0.5,1.1-1.1c0-0.6-0.5-1-1.2-1c-0.6,0-1.1,0.5-1.1,1.1c0,0.1,0,0.3,0.2,0.3
		c0.2,0,0.2-0.2,0.2-0.3C18.2,22.6,18.4,22.3,18.9,22.3z"/>
	<path fill="#80A3AF" d="M11.6,19c0.2-0.4-0.1-0.6-0.5-0.8c-0.2-0.1-0.5-0.2-0.7-0.4c-0.4-0.2-0.7-0.2-1.2-0.2
		c-1,0.1-1.9,0.3-2.8,0.6c-0.4,0.2-0.7,0.3-0.7,0.9c-0.1,0.9-0.9,1.6-1.9,1.6c-0.9,0-1.8-0.5-2-1.3c-0.3-0.8,0.1-1.8,0.8-2.2
		c0.8-0.5,2-0.4,2.6,0.3c0.3,0.3,0.6,0.5,1,0.2c0.2-0.1,0.4-0.2,0.7-0.2c0.5-0.2,0.9-0.3,0.8-1c-0.1-0.4,0.3-0.8,0.7-0.9
		c0.3-0.1,0.4-0.3,0.4-0.6c0-0.1-0.1-0.3-0.1-0.4c0-0.8-0.2-1.2-1.1-1.4c-1-0.2-1.4-1.3-1.2-2.2C6.6,10,7.4,9.4,8.5,9.5
		c1,0.1,1.8,0.8,1.9,1.7c0.1,0.8-0.3,1.4-0.9,1.8c-0.3,0.2-0.4,0.4-0.3,0.7c0.1,0.5,0.2,1.1,0.3,1.6c0,0.2,0.1,0.4,0.3,0.5
		c0.2,0.1,0.3,0.3,0.3,0.5c0.1,1.2,1.3,1.1,1.9,1.6c0.2,0.1,0.3-0.1,0.4-0.2c0.9-0.7,2.2-0.5,2.9,0.3c0.6,0.7,0.6,1.6,0,2.3
		c-0.5,0.7-1.5,0.9-2.4,0.6C12,20.7,11.5,19.9,11.6,19z M3.8,19.6c-0.4,0-0.6-0.2-0.8-0.5c-0.1-0.3,0-0.5,0.2-0.8
		c0.3-0.3,0.6-0.3,1-0.1c0.2,0.1,0.3,0.2,0.4,0c0.1-0.2-0.1-0.3-0.3-0.4c-0.6-0.3-1.3-0.1-1.6,0.5c-0.3,0.6,0,1.3,0.6,1.5
		c0.6,0.3,1.3,0,1.6-0.6c0-0.1,0.1-0.2,0-0.3c-0.2-0.1-0.3,0-0.3,0.1C4.4,19.4,4.2,19.7,3.8,19.6z M9,12.3C9.5,12,9.6,11.5,9.4,11
		c-0.2-0.5-0.7-0.8-1.3-0.7c-0.5,0.1-0.9,0.3-1.1,0.9c-0.1,0.6,0.1,1,0.6,1.2c0.1,0.1,0.4,0.2,0.5,0c0.1-0.2-0.1-0.3-0.3-0.3
		c-0.5-0.2-0.6-0.6-0.4-1c0.2-0.4,0.6-0.6,1-0.4c0.5,0.2,0.6,0.6,0.5,1C9,11.9,8.8,12,9,12.3z M14.7,19.3c0-0.8-0.9-1.4-1.6-1
		c-0.1,0.1-0.2,0.1-0.2,0.3c0,0.1,0.2,0.1,0.3,0.1c0.1,0,0.3-0.1,0.4-0.1c0.3,0,0.6,0.2,0.7,0.6c0.1,0.3-0.1,0.6-0.4,0.7
		c-0.4,0.2-0.8,0.1-1.1-0.5c-0.1-0.2-0.1-0.3-0.3-0.2c-0.1,0.1-0.1,0.3-0.1,0.4c0.1,0.5,0.7,0.9,1.3,0.8
		C14.3,20.2,14.7,19.8,14.7,19.3z"/>
	<path fill="#80A3AF" d="M31.7,18.5c-1.6,0-2.5-1.2-2.1-2.5c0.1-0.4,0-0.7-0.3-1c-0.6-0.5-1.3-1-2-1.5c-0.8-0.6-1.4-0.4-2.2-0.4
		c-0.5,0-0.8,0.1-0.9,0.7c-0.2,0.8-1.2,1.3-2.1,1.2c-0.8-0.1-1.6-0.7-1.8-1.5c-0.2-0.9,0.2-1.7,0.9-2.1c0.9-0.5,2-0.4,2.5,0.4
		c0.7,1.3,1.7,0.5,2.6,0.6c0.2,0,0.2-0.1,0.3-0.3c0.1-0.2,0.2-0.4,0.4-0.4c0.9-0.4,1.2-1.4,1.8-2.1c0.2-0.2,0.1-0.3,0-0.5
		c-0.5-0.9-0.5-1.7,0.1-2.4c0.6-0.7,1.7-0.8,2.5-0.4c0.8,0.4,1.2,1.2,1,2.1c-0.2,1-1.4,1.8-2.4,1.4c-0.4-0.1-0.6,0-0.8,0.3
		c-0.1,0.2-0.2,0.4-0.4,0.6c-0.3,0.4-0.5,0.8,0,1.3c0.3,0.3,0.3,0.8,0,1.2c-0.2,0.2-0.2,0.4,0.1,0.5c0.2,0.1,0.3,0.3,0.5,0.5
		c0.5,0.6,0.9,0.8,1.7,0.5c0.8-0.3,1.5,0,2.1,0.7c0.5,0.6,0.5,1.3,0.2,2C32.9,18.2,32.2,18.5,31.7,18.5z M31.4,17.7
		c0.7,0,1.2-0.5,1.2-1.1c0-0.6-0.5-1.2-1.1-1.2c-0.2,0-0.6,0-0.6,0.2c0,0.3,0.3,0.1,0.5,0.1c0.4,0,0.7,0.3,0.8,0.7
		c0.1,0.4-0.1,0.7-0.5,0.8c-0.4,0.1-0.8,0-1-0.4c-0.1-0.1-0.1-0.2-0.1-0.3c0-0.1,0-0.3-0.2-0.3c-0.2,0-0.2,0.2-0.2,0.4
		C30.2,17.2,30.8,17.7,31.4,17.7z M30.5,6.9c-0.6,0-1,0.3-1.2,0.9c-0.1,0.3-0.1,0.7,0.2,0.7c0.3,0,0.1-0.3,0.2-0.5
		c0.1-0.4,0.4-0.7,0.8-0.7c0.4,0,0.7,0.3,0.8,0.7c0.1,0.4-0.2,0.7-0.6,0.8c-0.1,0-0.2,0-0.4,0c-0.1,0-0.2,0.1-0.2,0.2
		c0,0.1,0.2,0.1,0.2,0.1c0.7,0.1,1.3-0.4,1.3-1C31.7,7.5,31.2,6.9,30.5,6.9z M22.2,13.9c-0.2,0-0.5-0.2-0.6-0.4
		c-0.1-0.3-0.1-0.6,0.2-0.8c0.3-0.3,0.7-0.3,1,0c0.1,0.1,0.2,0.2,0.4,0c0.1-0.1,0-0.2-0.1-0.3c-0.4-0.5-1.2-0.4-1.7,0.1
		C21,13,21.1,13.6,21.6,14c0.5,0.4,1.3,0.3,1.6-0.3c0.1-0.1,0.2-0.2,0-0.3c-0.1-0.1-0.3,0-0.4,0.1C22.8,13.8,22.6,13.9,22.2,13.9z"
		/>
	<g opacity="0.5">
		<path fill="#80A3AF" d="M11.7,4.3c0-0.5,0.3-0.9,0.7-1.1c0.5-0.2,0.9-0.1,1.3,0.2c0.3,0.3,0.5,0.6,0.4,1.1c0,0.2-0.1,0.4-0.3,0.4
			c-0.2,0-0.1-0.3-0.1-0.5c0.1-0.4-0.1-0.7-0.5-0.9c-0.4-0.2-0.7-0.1-1,0.2c-0.2,0.3-0.2,0.6,0,0.9C12.4,4.9,12.6,5,12.9,5
			c0.1,0,0.3,0.1,0.3,0.2c0,0.2-0.2,0.1-0.4,0.1C12.2,5.3,11.7,4.8,11.7,4.3z"/>
		<path fill="#80A3AF" d="M15.6,13.9c0.6,0,0.9-0.5,0.6-1.1c-0.1-0.1-0.2-0.3,0-0.4c0.2-0.1,0.3,0.1,0.4,0.2
			c0.3,0.5,0.1,1.2-0.4,1.5c-0.5,0.3-1.2,0.1-1.5-0.5c-0.3-0.5-0.1-1.1,0.4-1.4c0.1-0.1,0.3-0.2,0.4,0c0.1,0.2-0.1,0.2-0.2,0.3
			c-0.3,0.2-0.5,0.5-0.3,0.9C15,13.8,15.3,13.9,15.6,13.9z"/>
		<path fill="#80A3AF" d="M22.5,6c0-0.4-0.1-0.7-0.6-0.7c-0.5,0-0.8,0.1-1,0.6c0,0.2,0.1,0.4-0.2,0.4c-0.2-0.1-0.2-0.3-0.1-0.5
			c0.1-0.6,0.5-0.8,1.1-0.8c0.5-0.1,1.1,0.3,1.2,0.8c0.2,0.5,0,0.9-0.4,1.1c-0.3,0.2-0.6,0.5-1.1,0.3c-0.1-0.1-0.4-0.1-0.3-0.3
			c0.1-0.1,0.2,0,0.4,0C22.1,6.8,22.6,6.6,22.5,6z"/>
		<path fill="#80A3AF" d="M33.4,25c0,0.6-0.5,1-1,1.1c-0.5,0.1-1.2-0.3-1.3-0.9c0-0.1-0.1-0.3,0.1-0.4c0.2-0.1,0.3,0.1,0.3,0.2
			c0.1,0.3,0.2,0.5,0.5,0.6c0.3,0.1,0.7,0.1,0.9-0.2c0.2-0.3,0.2-0.5,0.1-0.8c-0.2-0.4-0.5-0.4-0.9-0.4c-0.2,0-0.6,0.4-0.6,0
			c0-0.3,0.4-0.4,0.7-0.4C32.8,23.8,33.4,24.4,33.4,25z"/>
		<path fill="#80A3AF" d="M22.8,28.6c0-0.6,0.3-1,0.9-1.1c0.1,0,0.2-0.1,0.3,0c0.1,0.1,0,0.2-0.1,0.3c-0.1,0-0.2,0.1-0.2,0.1
			c-0.4,0.2-0.6,0.6-0.3,1c0.2,0.5,0.6,0.5,1,0.4c0.5-0.1,0.6-0.5,0.5-1c0-0.1-0.1-0.2-0.1-0.3c0-0.1,0-0.2,0.1-0.3
			c0.1-0.1,0.2,0,0.2,0.1c0.4,0.4,0.4,1-0.1,1.5c-0.4,0.4-0.9,0.4-1.3,0.2C23,29.4,22.8,29.1,22.8,28.6z"/>
		<path fill="#80A3AF" d="M24.5,18.2c0.5,0,0.8,0.3,1,0.6c0.2,0.3,0.2,0.6,0,0.9c-0.1,0.1-0.1,0.2-0.3,0.2c-0.1-0.1-0.1-0.2-0.1-0.3
			c0.1-0.3,0.1-0.7-0.2-0.9c-0.3-0.2-0.9-0.2-1.1,0.2c-0.2,0.4-0.1,0.8,0.3,1c0.1,0.1,0.4,0.1,0.3,0.3c-0.1,0.2-0.4,0.1-0.5,0
			c-0.5-0.2-0.7-0.7-0.6-1.2C23.5,18.5,24,18.2,24.5,18.2z"/>
		<path fill="#80A3AF" d="M9.4,24.2c0.2,0,0.5,0,0.7,0.2c0.2,0.1,0.5,0.3,0.3,0.5c-0.2,0.3-0.3-0.1-0.5-0.2
			c-0.4-0.3-0.9-0.3-1.2,0.1c-0.2,0.3-0.3,0.6,0,0.9c0.3,0.4,0.7,0.5,1.2,0.1c0,0,0.1-0.1,0.1-0.1c0.1-0.1,0.3-0.2,0.4-0.1
			c0.1,0.1,0,0.3-0.1,0.4c-0.4,0.4-1,0.5-1.5,0.2c-0.5-0.3-0.7-0.7-0.5-1.2C8.4,24.6,8.8,24.2,9.4,24.2z"/>
		<path fill="#80A3AF" d="M16.7,31.7c0,0.6-0.3,1.1-0.9,1.2c-0.5,0.1-1.1-0.2-1.4-0.6c-0.2-0.5-0.1-1,0.4-1.4
			c0.1-0.1,0.3-0.3,0.4-0.1c0.1,0.2-0.1,0.3-0.2,0.4c-0.3,0.3-0.4,0.7-0.2,1c0.2,0.4,0.5,0.4,0.9,0.3c0.4-0.1,0.5-0.3,0.6-0.7
			c0-0.3-0.1-0.5-0.3-0.7c-0.1-0.1-0.2-0.2-0.1-0.3c0.1-0.1,0.2,0,0.3,0.1C16.5,31.1,16.7,31.4,16.7,31.7z"/>
		<path fill="#80A3AF" d="M18.9,22.3c-0.5,0-0.7,0.3-0.8,0.7c0,0.1,0,0.3-0.2,0.3c-0.2,0-0.2-0.2-0.2-0.3c0-0.6,0.5-1,1.1-1.1
			c0.6,0,1.2,0.4,1.2,1c0,0.6-0.5,1.1-1.1,1.1c-0.2,0-0.4,0-0.4-0.2c0-0.2,0.2-0.1,0.4-0.2c0.5,0,0.8-0.3,0.7-0.8
			C19.6,22.5,19.3,22.4,18.9,22.3z"/>
		<path fill="#80A3AF" d="M3.8,19.6c0.4,0,0.6-0.2,0.8-0.5C4.7,19,4.8,18.9,4.9,19c0.1,0.1,0,0.2,0,0.3c-0.2,0.6-1,0.8-1.6,0.6
			c-0.6-0.3-0.9-1-0.6-1.5c0.3-0.6,1.1-0.8,1.6-0.5c0.2,0.1,0.4,0.2,0.3,0.4c-0.1,0.2-0.3,0.1-0.4,0c-0.3-0.2-0.7-0.2-1,0.1
			C3,18.5,2.9,18.8,3,19.1C3.2,19.4,3.4,19.7,3.8,19.6z"/>
		<path fill="#80A3AF" d="M9,12.3c-0.2-0.3,0-0.4,0.1-0.6c0.1-0.5,0-0.9-0.5-1c-0.4-0.2-0.8,0-1,0.4c-0.2,0.4-0.1,0.8,0.4,1
			c0.1,0.1,0.4,0.2,0.3,0.3c-0.1,0.2-0.3,0.1-0.5,0c-0.5-0.3-0.7-0.7-0.6-1.2c0.1-0.6,0.5-0.8,1.1-0.9c0.5-0.1,1.1,0.2,1.3,0.7
			C9.6,11.5,9.5,12,9,12.3z"/>
		<path fill="#80A3AF" d="M14.7,19.3c0,0.5-0.4,1-1,1c-0.6,0.1-1.1-0.3-1.3-0.8c0-0.1-0.1-0.3,0.1-0.4c0.2-0.1,0.3,0.1,0.3,0.2
			c0.3,0.6,0.6,0.7,1.1,0.5c0.3-0.2,0.4-0.4,0.4-0.7c-0.1-0.4-0.3-0.5-0.7-0.6c-0.1,0-0.3,0.1-0.4,0.1c-0.1,0-0.2,0-0.3-0.1
			c-0.1-0.2,0.1-0.2,0.2-0.3C13.8,17.9,14.7,18.5,14.7,19.3z"/>
		<path fill="#80A3AF" d="M31.4,17.7c-0.7,0-1.2-0.5-1.2-1.1c0-0.1,0-0.3,0.2-0.4c0.2,0,0.2,0.2,0.2,0.3c0,0.1,0,0.2,0.1,0.3
			c0.2,0.4,0.6,0.5,1,0.4c0.4-0.1,0.6-0.4,0.5-0.8c-0.1-0.4-0.4-0.6-0.8-0.7c-0.2,0-0.5,0.2-0.5-0.1c0-0.3,0.4-0.3,0.6-0.2
			c0.6,0,1.1,0.6,1.1,1.2C32.6,17.3,32.1,17.7,31.4,17.7z"/>
		<path fill="#80A3AF" d="M30.5,6.9c0.7,0,1.2,0.6,1.2,1.2c-0.1,0.6-0.7,1.1-1.3,1c-0.1,0-0.2,0-0.2-0.1c0-0.1,0.1-0.2,0.2-0.2
			c0.1,0,0.2,0,0.4,0c0.4-0.1,0.7-0.4,0.6-0.8c-0.1-0.4-0.3-0.7-0.8-0.7c-0.5,0-0.7,0.3-0.8,0.7c0,0.2,0.1,0.6-0.2,0.5
			c-0.3,0-0.3-0.4-0.2-0.7C29.4,7.2,29.9,6.9,30.5,6.9z"/>
		<path fill="#80A3AF" d="M22.2,13.9c0.4,0,0.6-0.1,0.7-0.3c0.1-0.1,0.2-0.2,0.4-0.1c0.1,0.1,0,0.2,0,0.3c-0.3,0.6-1.1,0.7-1.6,0.3
			c-0.5-0.4-0.6-1.1-0.2-1.5c0.4-0.5,1.2-0.5,1.7-0.1c0.1,0.1,0.2,0.2,0.1,0.3c-0.1,0.2-0.2,0.1-0.4,0c-0.3-0.3-0.7-0.3-1,0
			c-0.2,0.2-0.3,0.5-0.2,0.8C21.8,13.7,22,13.9,22.2,13.9z"/>
	</g>
</g>
<g>
</g>
<g>
</g>
<g>
</g>
<g>
</g>
<g>
</g>
<g>
</g>
</svg>
