<?xml version="1.0" encoding="utf-8"?>
<!-- Generator: Adobe Illustrator 18.1.1, SVG Export Plug-In . SVG Version: 6.00 Build 0)  -->
<svg version="1.1" id="Слой_1" xmlns="http://www.w3.org/2000/svg" xmlns:xlink="http://www.w3.org/1999/xlink" x="0px" y="0px"
	 viewBox="0 0 36 36" enable-background="new 0 0 36 36" xml:space="preserve">
<g>
	<path fill="#80A3AF" d="M20,32.5c-1,1.7-2.4,2.5-4.1,2.3c-1.9-0.3-3.7-1.8-4.1-3.5c-0.5-2.1,1.1-4.3,2.8-4c0.3,0.1,0.8,0.1,0.8,0.5
		c0,0.3-0.2,0.6-0.5,0.7c-1.2,0.4-1.1,1.3-1,2.2c0.1,0.7,0.5,1.3,1.3,1.3c1,0.1,1.7-0.4,2.2-1.3c0.6-1.1,0.8-2.3,0.4-3.4
		c-1.1-3-1.9-6-2.1-9.2c-0.1-1.3-1.2-2.3-2.4-2.1c-1.6,0.3-1-0.5-0.7-1.2c0.1-0.4,0.4-0.7,0.5-1.1c0.7-1.5,0.6-1.9-0.9-2.7
		c-1.1-0.6-1.3-1.2-0.7-2.4C11.7,8.3,12,8,11.9,7.5c-0.2-1.6,0.3-2.6,1.7-3.3c3.3-1.5,6.6-1.5,9.8,0c1.4,0.7,1.9,1.7,1.7,3.3
		c-0.1,0.4,0.1,0.7,0.3,1c0.8,1.4,0.7,2-0.8,2.8c-1,0.5-1.2,1.2-0.7,2.2c0.3,0.6,0.6,1.3,0.9,2c0.2,0.5,0.2,0.7-0.5,0.8
		c-2.3,0.1-3.1,0.9-3.1,3.2c0,1.6,0.2,3.2,0.4,4.7C21.5,27,21.5,29.9,20,32.5z M15.1,10.1c0.7,0,1-0.5,0.9-1.1
		c-0.1-0.7-0.6-0.8-1.2-0.7c-0.8,0.2-1.4,0.8-1.8,1.8C13.8,10.1,14.4,10.1,15.1,10.1z M23.8,10.1c-0.2-0.9-1-1.8-2.2-1.8
		c-0.6,0-1,0.4-0.9,0.9c0.1,1,0.9,0.9,1.7,0.9C22.8,9.9,23.8,10.1,23.8,10.1z"/>
	<path opacity="0.7" fill="#80A3AF" d="M10.2,18c-0.3-1.3-0.2-2.6,0.6-3.8c0.3-0.4,0.9-0.8,0.2-1.5c-1.8-1.6-1.9-2.4-1-4.6
		c0.1-0.3,0.2-0.6,0.2-0.9c0.1-2.3,1.4-3.6,3.3-4.5c0.6-0.3,1.3-0.5,1.9-0.7c-1-1.3-2-1.5-3.5-0.6c-1.7,1.1-3.6,1.6-5.6,2.1
		C5.4,3.7,4.3,4,3.3,4.6c-1.5,1-2.5,2.5-2,4.3C2,11.3,2.7,13.6,4,15.7c0.6,0.9,1.2,1.7,2.4,1.7c0.3,0,0.5,0.1,0.6,0.4
		c0.2,1.7,2,2.7,3.3,2.6C10.4,19.9,9.9,18.6,10.2,18z"/>
	<path opacity="0.7" fill="#80A3AF" d="M20.5,1.8c1.2-1.1,2.3-1.2,3.3-0.5c1.9,1.3,4,1.7,6.2,2.3c2,0.5,3.8,1.4,4.5,3.6
		c0.2,0.6,0.3,1.2,0.1,1.7c-0.8,2.4-1.4,4.9-2.8,7c-0.5,0.8-1.2,1.5-2.2,1.5c-0.5,0-0.6,0.2-0.7,0.6c-0.3,1.6-1.4,1.8-2.9,1.6
		c1.5-2.2,1-4.2-0.2-6.1c-0.3-0.4,0-0.6,0.3-0.9c1.6-1.4,1.8-2.3,0.9-4.2c-0.1-0.3-0.2-0.6-0.2-0.9c0-2.9-1.8-4.4-4.3-5.2
		C21.9,2.1,21.3,2,20.5,1.8z"/>
	<path fill="#80A3AF" d="M24.5,25.3c-0.2-2.3-0.8-4.4-1.8-6.4c-0.3-0.5-0.2-1.3,0.5-1.5c0.7-0.3,1.2,0.2,1.6,0.7
		C26,19.7,25.9,23.3,24.5,25.3z"/>
	<path fill="#80A3AF" d="M12.6,25.3c0.2-2.3,0.8-4.4,1.8-6.4c0.3-0.5,0.2-1.3-0.5-1.5c-0.7-0.3-1.2,0.2-1.6,0.7
		C11.1,19.7,11.2,23.3,12.6,25.3z"/>
</g>
<g>
</g>
<g>
</g>
<g>
</g>
<g>
</g>
<g>
</g>
<g>
</g>
</svg>
