<?xml version="1.0" encoding="utf-8"?>
<!-- Generator: Adobe Illustrator 18.1.1, SVG Export Plug-In . SVG Version: 6.00 Build 0)  -->
<svg version="1.1" id="Слой_1" xmlns="http://www.w3.org/2000/svg" xmlns:xlink="http://www.w3.org/1999/xlink" x="0px" y="0px"
	 viewBox="0 0 48 48" enable-background="new 0 0 48 48" xml:space="preserve">
<g>
	<path opacity="0.79" fill="#80A3AF" d="M44.4,22.5c0,1.3,0,2.6,0,3.9c-0.1,0-0.1,0.1-0.1,0.2c-0.2,2.2-0.8,4.2-1.7,6.2
		c-1.4,3.1-3.5,5.6-6.2,7.7c-2.5,1.9-5.4,3.3-8.6,3.8c-0.8,0.1-1.6,0.3-2.4,0.4c-6.7,0-13.5,0-20.2,0C4.5,44.4,4,44,3.6,43.5
		c0-7.3,0-14.6,0-21.9c0.2,0,0.1-0.2,0.2-0.3c0.6-4.2,2.3-7.8,5.2-10.9c3.2-3.5,7.2-5.6,11.8-6.3c0.6-0.1,1.3,0.1,1.9-0.3
		c1,0,2,0,3,0C25.7,4,25.9,3.9,26,3.9c1.5,0.1,3,0.4,4.5,0.9c3.6,1.2,6.7,3.3,9.1,6.3c2.2,2.6,3.7,5.6,4.3,8.9
		C44.1,20.8,44.2,21.7,44.4,22.5z M37.3,12.5c0.1-0.2,0-0.3-0.1-0.3c-0.3-0.4-0.6-0.7-0.9-1c-3-2.4-6.3-3-9.8-1.6
		c-3.5,1.5-5.4,4.2-5.7,8.1c-0.1,1.6-0.1,3.1,0,4.7c0,0.5-0.1,0.7-0.7,0.7c-0.9,0-1.8,0-2.8,0c-0.5,0-1,0-1.5,0
		C8.8,23,4.3,30.2,7.3,36.5c0.3,0.6,0.5,1.3,1.2,1.6l0,0c-0.1,0.2,0,0.3,0.2,0.3c0.2,0.2,0.3,0.5,0.5,0.6c2.7,2.5,5.9,3.3,9.5,2.2
		c3.5-1.1,5.7-3.7,6.4-7.3c0.3-1.9,0.1-3.7,0.1-5.6c0-0.7,0.2-0.8,0.8-0.8c0.9,0,1.7,0,2.6,0c0,0,0.1,0,0.1,0c3.8,0.2,7-1,9.1-4.3
		c2.1-3.2,2.1-6.6,0.2-9.9C37.9,13,37.8,12.5,37.3,12.5L37.3,12.5z"/>
	<path fill="#80A3AF" d="M12,35.5c-1.4-0.6-2.5-0.3-3.2,0.8c-0.4,0.6-0.3,1.2-0.3,1.8c-0.7-0.3-0.9-1-1.2-1.6
		c-3-6.3,1.5-13.4,8.4-13.5c0.5,0,1,0,1.5,0c-1.6,0.7-2.2,2.3-1.3,3.6c0.4,0.5,0.9,0.8,1.5,0.9c-0.6,0-1.1,0-1.7,0.1
		c-2.2,0-4.1,1.6-4.6,3.8C10.7,32.9,11.2,34.2,12,35.5z"/>
	<path fill="#80A3AF" d="M33.9,15.1c0.7,0.2,1.5,0.3,2.2,0c1.1-0.6,1.3-1.5,1.3-2.6c0.5,0.1,0.6,0.5,0.8,0.9
		c1.8,3.3,1.8,6.7-0.2,9.9c-2.1,3.3-5.3,4.5-9.1,4.3c0,0-0.1,0-0.1-0.1c1-0.3,1.6-1,1.6-2.1c0.1-1.2-0.5-2-1.6-2.4
		c0.5,0,1.1,0,1.6,0c2.3-0.1,4.4-2.1,4.5-4.4C34.9,17.3,34.5,16.2,33.9,15.1z"/>
	<path fill="#80A3AF" d="M37.3,12.5c-0.2-0.1-0.1-0.2-0.1-0.3C37.3,12.2,37.4,12.3,37.3,12.5z"/>
	<path fill="#80A3AF" d="M8.5,38.1c0.1,0.1,0.2,0.2,0.2,0.3C8.6,38.3,8.5,38.2,8.5,38.1z"/>
	<path opacity="0.79" fill="#80A3AF" d="M12,35.5c-0.8-1.3-1.3-2.6-0.9-4.1c0.5-2.2,2.4-3.8,4.6-3.8c0.6,0,1.1,0,1.7-0.1
		c0.8,0,1.7,0,2.5,0c0.5,0,0.7,0.2,0.7,0.7c0,1.5,0.1,2.9,0,4.4c-0.1,2-1.1,3.4-2.9,4.1c-1.8,0.8-3.6,0.4-5.1-0.8
		C12.4,35.8,12.2,35.6,12,35.5z"/>
	<path opacity="0.79" fill="#80A3AF" d="M33.9,15.1c0.6,1.1,1,2.2,0.9,3.5c-0.2,2.3-2.2,4.3-4.5,4.4c-0.5,0-1.1,0-1.6,0
		c-0.9,0-1.8,0-2.7,0c-0.5,0-0.8-0.2-0.8-0.7c0-1.5-0.1-2.9,0-4.4c0.1-1.9,1.1-3.3,2.8-4.1c1.8-0.8,3.5-0.6,5,0.7
		C33.3,14.6,33.6,14.9,33.9,15.1z"/>
</g>
</svg>
