<?xml version="1.0" encoding="utf-8"?>
<!-- Generator: Adobe Illustrator 18.1.1, SVG Export Plug-In . SVG Version: 6.00 Build 0)  -->
<svg version="1.1" id="Слой_1" xmlns="http://www.w3.org/2000/svg" xmlns:xlink="http://www.w3.org/1999/xlink" x="0px" y="0px"
	 viewBox="0 0 128 128" enable-background="new 0 0 128 128" xml:space="preserve">
<g>
	<g>
		<path fill="#18FFFF" d="M42.6,48.6v31.2h16.7c1.4,0,2.5,1.4,2.5,2.8v0.1c0,1.4-1.1,2.5-2.5,2.5h-23V48.6c0-1.7,1.4-3.1,3.1-3.1
			h0.1C41.2,45.5,42.6,46.9,42.6,48.6z"/>
		<path fill="#18FFFF" d="M65.2,45.5h16c1.8,0,3.5,0.3,4.9,0.8c1.4,0.5,2.7,1.2,3.7,2.1c1,0.9,1.8,1.9,2.3,3.1
			c0.5,1.2,0.8,2.4,0.8,3.7c0,1.7-0.4,3.4-1.2,4.9c-0.8,1.5-2.1,2.8-3.8,3.9c1.3,0.5,2.4,1.1,3.3,1.8c0.9,0.7,1.7,1.5,2.3,2.3
			c0.6,0.8,1,1.7,1.3,2.7c0.3,1,0.4,1.9,0.4,2.9c0,1.6-0.3,3-1,4.4c-0.7,1.4-1.6,2.6-2.7,3.6c-1.1,1-2.4,1.9-3.9,2.5
			c-1.5,0.6-3,0.9-4.6,0.9H65.2V45.5z M71.5,61.6h8.8c1,0,1.9-0.2,2.7-0.5c0.8-0.3,1.5-0.7,2.1-1.3c0.6-0.5,1-1.2,1.4-1.9
			c0.3-0.7,0.5-1.5,0.5-2.3c0-0.7-0.1-1.4-0.3-2c-0.2-0.6-0.6-1.2-1.1-1.6c-0.5-0.5-1.1-0.8-1.9-1.1c-0.8-0.3-1.6-0.4-2.7-0.4h-9.5
			V61.6z M71.5,80.1h9.8c0.9,0,1.8-0.1,2.7-0.4c0.9-0.3,1.7-0.7,2.4-1.2c0.7-0.5,1.3-1.2,1.8-2.1c0.5-0.8,0.7-1.8,0.7-3
			c0-0.9-0.2-1.8-0.6-2.7c-0.4-0.8-1-1.6-1.8-2.2c-0.8-0.6-1.7-1.1-2.9-1.5c-1.1-0.4-2.4-0.6-3.8-0.6h-8.3V80.1z"/>
	</g>
	<path fill="#18FFFF" d="M111.2,30.6l-41.6-24c-3.5-2-7.7-2-11.2,0l-41.6,24c-3.5,2-5.6,5.7-5.6,9.7v48c0,4,2.1,7.7,5.6,9.7l41.6,24
		c3.5,2,7.7,2,11.2,0l41.6-24c3.5-2,5.6-5.7,5.6-9.7v-48C116.8,36.3,114.7,32.6,111.2,30.6z M110.7,84.7c0,4-2.1,7.7-5.6,9.7
		l-35.4,20.5c-3.5,2-7.7,2-11.2,0L23,94.4c-3.5-2-5.6-5.7-5.6-9.7V43.8c0-4,2.1-7.7,5.6-9.7l35.4-20.5c3.5-2,7.7-2,11.2,0l35.4,20.5
		c3.5,2,5.6,5.7,5.6,9.7V84.7z"/>
</g>
</svg>
