<?xml version="1.0" encoding="utf-8"?>
<!-- Generator: Adobe Illustrator 18.1.1, SVG Export Plug-In . SVG Version: 6.00 Build 0)  -->
<svg version="1.1" id="Слой_1" xmlns="http://www.w3.org/2000/svg" xmlns:xlink="http://www.w3.org/1999/xlink" x="0px" y="0px"
	 viewBox="0 0 48 48" enable-background="new 0 0 48 48" xml:space="preserve">
<path fill="#18FFFF" d="M24,28.6c-2.5,0-4.6-2-4.6-4.6s2-4.6,4.6-4.6s4.6,2,4.6,4.6S26.5,28.6,24,28.6z M24,20.5
	c-2,0-3.5,1.6-3.5,3.5c0,2,1.6,3.5,3.5,3.5c2,0,3.5-1.6,3.5-3.5C27.5,22,25.9,20.5,24,20.5z"/>
<path opacity="0.35" fill="#18FFFF" d="M24,11.1c-2.5,0-4.6-2-4.6-4.6s2-4.6,4.6-4.6s4.6,2,4.6,4.6S26.5,11.1,24,11.1z M24,3
	c-2,0-3.5,1.6-3.5,3.5s1.6,3.5,3.5,3.5c2,0,3.5-1.6,3.5-3.5S25.9,3,24,3z"/>
<path fill="#18FFFF" d="M9.6,19.8c-2.5,0-4.6-2-4.6-4.6s2-4.6,4.6-4.6s4.6,2,4.6,4.6S12.2,19.8,9.6,19.8z M9.6,11.6
	c-2,0-3.5,1.6-3.5,3.5s1.6,3.5,3.5,3.5s3.5-1.6,3.5-3.5S11.6,11.6,9.6,11.6z"/>
<rect x="23.5" y="12.6" opacity="0.35" fill="#18FFFF" width="1" height="5.4"/>
<rect x="14" y="19.5" transform="matrix(0.834 0.5517 -0.5517 0.834 13.8239 -5.8466)" fill="#18FFFF" width="5.4" height="1"/>
<path fill="#18FFFF" d="M38.4,19.8c-2.5,0-4.6-2-4.6-4.6s2-4.6,4.6-4.6c2.5,0,4.6,2,4.6,4.6S40.9,19.8,38.4,19.8z M38.4,11.7
	c-2,0-3.5,1.6-3.5,3.5s1.6,3.5,3.5,3.5s3.5-1.6,3.5-3.5S40.3,11.7,38.4,11.7z"/>
<rect x="30.9" y="17.4" transform="matrix(0.5517 0.834 -0.834 0.5517 30.8097 -17.189)" fill="#18FFFF" width="1" height="5.4"/>
<path fill="#18FFFF" d="M24,46.1c-2.5,0-4.6-2-4.6-4.6c0-2.5,2-4.6,4.6-4.6c2.5,0,4.6,2,4.6,4.6C28.5,44,26.5,46.1,24,46.1z
	 M24,37.9c-2,0-3.5,1.6-3.5,3.5S22,45,24,45s3.5-1.6,3.5-3.5S25.9,37.9,24,37.9z"/>
<path opacity="0.35" fill="#18FFFF" d="M9.6,37.4c-2.5,0-4.6-2-4.6-4.6s2-4.6,4.6-4.6s4.6,2,4.6,4.6S12.1,37.4,9.6,37.4z M9.6,29.3
	c-2,0-3.5,1.6-3.5,3.5s1.6,3.5,3.5,3.5s3.5-1.6,3.5-3.5S11.6,29.3,9.6,29.3z"/>
<rect x="23.4" y="30.1" fill="#18FFFF" width="1" height="5.4"/>
<rect x="16.1" y="25.3" transform="matrix(0.5518 0.834 -0.834 0.5518 30.7506 -1.3212)" opacity="0.35" fill="#18FFFF" width="1" height="5.4"/>
<path opacity="0.35" fill="#18FFFF" d="M38.4,37.4c-2.5,0-4.6-2-4.6-4.6c0-2.5,2-4.6,4.6-4.6c2.5,0,4.6,2,4.6,4.6
	C42.9,35.3,40.9,37.4,38.4,37.4z M38.4,29.3c-2,0-3.5,1.6-3.5,3.5c0,2,1.6,3.5,3.5,3.5c2,0,3.5-1.6,3.5-3.5
	C41.9,30.8,40.3,29.3,38.4,29.3z"/>
<rect x="28.7" y="27.4" transform="matrix(0.834 0.5517 -0.5517 0.834 20.6183 -12.672)" opacity="0.35" fill="#18FFFF" width="5.4" height="1"/>
</svg>
