<?xml version="1.0" encoding="utf-8"?>
<!-- Generator: Adobe Illustrator 18.1.1, SVG Export Plug-In . SVG Version: 6.00 Build 0)  -->
<svg version="1.1" id="Слой_1" xmlns="http://www.w3.org/2000/svg" xmlns:xlink="http://www.w3.org/1999/xlink" x="0px" y="0px"
	 viewBox="0 0 164 158" enable-background="new 0 0 164 158" xml:space="preserve">
<g>
	<g>
		<path fill="#18FFFF" d="M148.1,89c-1-0.1-1.7-1-1.5-1.9c0.1-0.9,1-1.6,1.9-1.5c1,0.1,1.7,0.9,1.6,1.9
			C150,88.5,149.1,89.2,148.1,89z"/>
		<path fill="#18FFFF" d="M146.4,97.3c-0.9-0.3-1.5-1.2-1.3-2.1c0.2-0.9,1.1-1.4,2.1-1.2c1,0.2,1.5,1.1,1.3,2.1
			C148.3,97.1,147.3,97.6,146.4,97.3z"/>
		<path fill="#18FFFF" d="M143.5,105.3c-0.9-0.4-1.3-1.4-1-2.2c0.3-0.8,1.3-1.3,2.3-0.9c0.9,0.3,1.4,1.3,1,2.2
			C145.5,105.3,144.4,105.7,143.5,105.3z"/>
		<path fill="#18FFFF" d="M139.7,112.9c-0.8-0.5-1.1-1.5-0.7-2.3c0.5-0.8,1.5-1.1,2.3-0.6c0.9,0.4,1.2,1.5,0.7,2.4
			C141.6,113.1,140.5,113.4,139.7,112.9z"/>
		<path fill="#18FFFF" d="M134.9,119.9c-0.8-0.6-0.9-1.7-0.4-2.4c0.5-0.7,1.6-0.9,2.4-0.3c0.8,0.6,1,1.6,0.4,2.4
			C136.8,120.4,135.7,120.5,134.9,119.9z"/>
		<path fill="#18FFFF" d="M129.3,126.3c-0.7-0.7-0.7-1.8-0.1-2.4c0.6-0.7,1.7-0.7,2.4,0c0.7,0.7,0.8,1.7,0.1,2.4
			C131.1,127,130,127,129.3,126.3z"/>
		<path fill="#18FFFF" d="M122.9,131.8c-0.6-0.8-0.5-1.9,0.2-2.4c0.7-0.5,1.8-0.5,2.4,0.3c0.6,0.7,0.6,1.9-0.2,2.5
			C124.6,132.7,123.5,132.6,122.9,131.8z"/>
		<path fill="#18FFFF" d="M115.8,136.5c-0.5-0.9-0.2-1.9,0.5-2.4c0.8-0.5,1.8-0.2,2.4,0.6c0.5,0.8,0.3,1.9-0.5,2.4
			C117.4,137.7,116.3,137.4,115.8,136.5z"/>
	</g>
	<g>
		<path fill="#18FFFF" d="M107.1,140.7c-0.4-0.9,0-1.9,0.9-2.3c0.8-0.4,1.8,0,2.2,0.9c0.4,0.9,0,1.9-0.9,2.3
			C108.5,142.1,107.5,141.6,107.1,140.7z"/>
		<path fill="#18FFFF" d="M99.1,143.4c-0.2-0.9,0.3-1.9,1.2-2.1c0.9-0.2,1.8,0.3,2.1,1.2c0.3,0.9-0.2,1.9-1.2,2.2
			C100.3,144.9,99.3,144.3,99.1,143.4z"/>
		<path fill="#18FFFF" d="M90.7,144.9c-0.1-1,0.5-1.8,1.4-2c0.9-0.1,1.8,0.5,1.9,1.5c0.2,0.9-0.5,1.9-1.4,2
			C91.7,146.5,90.8,145.9,90.7,144.9z"/>
		<path fill="#18FFFF" d="M82.3,145.4c0-1,0.8-1.7,1.7-1.8c0.9,0,1.7,0.7,1.7,1.7c0,1-0.7,1.8-1.7,1.8
			C83,147.2,82.2,146.3,82.3,145.4z"/>
		<path fill="#18FFFF" d="M73.8,144.7c0.1-1,1-1.7,1.9-1.5c0.9,0.1,1.6,0.9,1.5,1.9c-0.1,1-0.9,1.7-1.9,1.6
			C74.3,146.6,73.7,145.7,73.8,144.7z"/>
		<path fill="#18FFFF" d="M65.5,143.1c0.3-0.9,1.2-1.5,2.1-1.3c0.9,0.2,1.4,1.1,1.2,2.1s-1.1,1.5-2.1,1.3
			C65.8,145,65.2,144,65.5,143.1z"/>
		<path fill="#18FFFF" d="M57.4,140.3c0.4-0.9,1.4-1.4,2.2-1c0.8,0.3,1.3,1.3,1,2.2c-0.3,0.9-1.3,1.4-2.2,1
			C57.5,142.2,57.1,141.2,57.4,140.3z"/>
		<path fill="#18FFFF" d="M49.9,136.5c0.5-0.8,1.5-1.2,2.3-0.7c0.8,0.4,1.1,1.5,0.7,2.3c-0.4,0.9-1.5,1.2-2.4,0.8
			C49.6,138.4,49.4,137.4,49.9,136.5z"/>
	</g>
	<g>
		<path fill="#18FFFF" d="M41.9,131.1c0.6-0.8,1.7-0.9,2.4-0.4c0.7,0.5,0.9,1.6,0.3,2.4c-0.6,0.8-1.7,1-2.4,0.4
			C41.4,132.9,41.3,131.8,41.9,131.1z"/>
		<path fill="#18FFFF" d="M35.6,125.4c0.7-0.7,1.8-0.7,2.4-0.1c0.7,0.6,0.7,1.7,0,2.4s-1.8,0.8-2.5,0.1
			C34.8,127.2,34.9,126.1,35.6,125.4z"/>
		<path fill="#18FFFF" d="M30,119c0.8-0.6,1.9-0.5,2.4,0.2c0.6,0.7,0.4,1.8-0.3,2.4c-0.8,0.6-1.9,0.5-2.4-0.2
			C29.1,120.6,29.3,119.5,30,119z"/>
		<path fill="#18FFFF" d="M25.4,111.9c0.8-0.5,1.9-0.2,2.4,0.6c0.5,0.8,0.2,1.8-0.6,2.3c-0.8,0.5-1.9,0.3-2.4-0.5
			C24.3,113.4,24.6,112.3,25.4,111.9z"/>
		<path fill="#18FFFF" d="M21.7,104.2c0.9-0.4,1.9,0,2.3,0.9c0.4,0.8,0,1.8-0.9,2.3s-1.9,0-2.3-0.8
			C20.3,105.6,20.8,104.6,21.7,104.2z"/>
		<path fill="#18FFFF" d="M19,96.2c0.9-0.2,1.9,0.3,2.2,1.1c0.2,0.9-0.3,1.8-1.2,2.1c-0.9,0.3-1.9-0.2-2.2-1.1
			C17.5,97.4,18.1,96.4,19,96.2z"/>
		<path fill="#18FFFF" d="M17.4,87.8c1-0.1,1.8,0.5,2,1.4c0.2,0.9-0.5,1.8-1.4,1.9c-1,0.2-1.9-0.5-2-1.4
			C15.8,88.8,16.4,88,17.4,87.8z"/>
		<path fill="#18FFFF" d="M16.8,79.4c1,0,1.8,0.7,1.8,1.7c0,0.9-0.7,1.7-1.7,1.7s-1.8-0.7-1.8-1.7C15.1,80.2,15.9,79.4,16.8,79.4z"
			/>
	</g>
	<g>
		<path fill="#18FFFF" d="M17.6,69.7c1,0.1,1.7,1,1.5,1.9c-0.1,0.9-1,1.6-1.9,1.5c-1-0.1-1.7-0.9-1.6-1.9
			C15.7,70.2,16.6,69.6,17.6,69.7z"/>
		<path fill="#18FFFF" d="M19.3,61.4c0.9,0.3,1.5,1.2,1.3,2.1c-0.2,0.9-1.1,1.4-2.1,1.2s-1.5-1.1-1.3-2.1
			C17.4,61.7,18.4,61.2,19.3,61.4z"/>
		<path fill="#18FFFF" d="M22.1,53.4c0.9,0.4,1.3,1.4,1,2.2c-0.3,0.8-1.3,1.3-2.3,0.9s-1.4-1.3-1-2.2C20.2,53.5,21.2,53,22.1,53.4z"
			/>
		<path fill="#18FFFF" d="M26,45.9c0.8,0.5,1.1,1.5,0.7,2.3c-0.5,0.8-1.5,1.1-2.3,0.6c-0.9-0.4-1.2-1.5-0.7-2.4
			C24.1,45.6,25.2,45.4,26,45.9z"/>
		<path fill="#18FFFF" d="M30.8,38.9c0.8,0.6,0.9,1.7,0.4,2.4c-0.5,0.7-1.6,0.9-2.4,0.3c-0.8-0.6-1-1.6-0.4-2.4
			C28.9,38.4,30,38.3,30.8,38.9z"/>
		<path fill="#18FFFF" d="M36.4,32.5c0.7,0.7,0.7,1.8,0.1,2.4c-0.6,0.7-1.7,0.7-2.4,0c-0.7-0.7-0.8-1.7-0.1-2.4
			C34.6,31.8,35.7,31.8,36.4,32.5z"/>
		<path fill="#18FFFF" d="M42.8,26.9c0.6,0.8,0.5,1.9-0.2,2.4c-0.7,0.5-1.8,0.5-2.4-0.3c-0.6-0.7-0.6-1.9,0.2-2.5
			C41.1,26,42.2,26.2,42.8,26.9z"/>
		<path fill="#18FFFF" d="M49.9,22.2c0.5,0.9,0.2,1.9-0.5,2.4c-0.8,0.5-1.8,0.2-2.4-0.6c-0.5-0.8-0.3-1.9,0.5-2.4
			C48.3,21.1,49.4,21.4,49.9,22.2z"/>
	</g>
	<g>
		<path fill="#18FFFF" d="M58.6,18c0.4,0.9,0,1.9-0.9,2.3c-0.8,0.4-1.8,0-2.2-0.9c-0.4-0.9,0-1.9,0.9-2.3
			C57.2,16.6,58.2,17.1,58.6,18z"/>
		<path fill="#18FFFF" d="M66.6,15.4c0.2,0.9-0.3,1.9-1.2,2.1c-0.9,0.2-1.8-0.3-2.1-1.2c-0.3-0.9,0.2-1.9,1.2-2.2
			C65.4,13.9,66.4,14.4,66.6,15.4z"/>
		<path fill="#18FFFF" d="M75,13.9c0.1,1-0.5,1.8-1.4,2c-0.9,0.1-1.8-0.5-1.9-1.5c-0.2-0.9,0.5-1.9,1.4-2C74,12.2,74.9,12.9,75,13.9
			z"/>
		<path fill="#18FFFF" d="M83.4,13.4c0,1-0.8,1.7-1.7,1.8c-0.9,0-1.7-0.7-1.7-1.7c0-1,0.7-1.8,1.7-1.8
			C82.7,11.6,83.5,12.4,83.4,13.4z"/>
		<path fill="#18FFFF" d="M91.9,14c-0.1,1-1,1.7-1.9,1.5c-0.9-0.1-1.6-0.9-1.5-1.9c0.1-1,0.9-1.7,1.9-1.6C91.4,12.2,92,13,91.9,14z"
			/>
		<path fill="#18FFFF" d="M100.2,15.7c-0.3,0.9-1.2,1.5-2.1,1.3c-0.9-0.2-1.4-1.1-1.2-2.1s1.1-1.5,2.1-1.3
			C99.9,13.8,100.5,14.8,100.2,15.7z"/>
		<path fill="#18FFFF" d="M108.2,18.4c-0.4,0.9-1.4,1.4-2.2,1c-0.8-0.3-1.3-1.3-1-2.2c0.3-0.9,1.3-1.4,2.2-1
			C108.2,16.5,108.6,17.6,108.2,18.4z"/>
		<path fill="#18FFFF" d="M115.8,22.2c-0.5,0.8-1.5,1.2-2.3,0.7c-0.8-0.4-1.1-1.5-0.7-2.3c0.4-0.9,1.5-1.2,2.4-0.8
			C116.1,20.3,116.3,21.4,115.8,22.2z"/>
	</g>
	<g>
		<path fill="#18FFFF" d="M123.8,27.7c-0.6,0.8-1.7,0.9-2.4,0.4c-0.7-0.5-0.9-1.6-0.3-2.4c0.6-0.8,1.7-1,2.4-0.4
			C124.3,25.8,124.4,26.9,123.8,27.7z"/>
		<path fill="#18FFFF" d="M130.1,33.4c-0.7,0.7-1.8,0.7-2.4,0.1c-0.7-0.6-0.7-1.7,0-2.4c0.7-0.7,1.8-0.8,2.5-0.1
			C130.9,31.5,130.8,32.7,130.1,33.4z"/>
		<path fill="#18FFFF" d="M135.7,39.8c-0.8,0.6-1.9,0.5-2.4-0.2c-0.6-0.7-0.4-1.8,0.3-2.4c0.8-0.6,1.9-0.5,2.4,0.2
			C136.6,38.1,136.4,39.2,135.7,39.8z"/>
		<path fill="#18FFFF" d="M140.3,46.9c-0.8,0.5-1.9,0.2-2.4-0.6c-0.5-0.8-0.2-1.8,0.6-2.3c0.8-0.5,1.9-0.3,2.4,0.5
			C141.4,45.4,141.1,46.4,140.3,46.9z"/>
		<path fill="#18FFFF" d="M144,54.5c-0.9,0.4-1.9,0-2.3-0.9c-0.4-0.8,0-1.8,0.9-2.3c0.9-0.4,1.9,0,2.3,0.8
			C145.4,53.1,144.9,54.2,144,54.5z"/>
		<path fill="#18FFFF" d="M146.7,62.6c-0.9,0.2-1.9-0.3-2.2-1.1c-0.2-0.9,0.3-1.8,1.2-2.1c0.9-0.3,1.9,0.2,2.2,1.1
			C148.2,61.4,147.6,62.3,146.7,62.6z"/>
		<path fill="#18FFFF" d="M148.3,70.9c-1,0.1-1.8-0.5-2-1.4c-0.2-0.9,0.5-1.8,1.4-1.9c1-0.2,1.9,0.5,2,1.4
			C149.9,69.9,149.3,70.8,148.3,70.9z"/>
		<path fill="#18FFFF" d="M148.8,79.4c-1,0-1.8-0.7-1.8-1.7s0.7-1.7,1.7-1.7c1-0.1,1.8,0.7,1.8,1.7
			C150.6,78.6,149.8,79.4,148.8,79.4z"/>
	</g>
</g>
<g>
	<path fill="#18FFFF" d="M82.7,66c-6.3,0-8.9,5.4-9.3,9.3h17.7C91.1,71.7,89.5,66,82.7,66z"/>
	<path fill="#18FFFF" d="M82.7,47.1c-17.7,0-32,14.3-32,32c0,17.7,14.3,32,32,32c17.7,0,32-14.3,32-32
		C114.7,61.4,100.4,47.1,82.7,47.1z M100.3,82H73.4c0.2,6.9,5.9,9.8,12.4,9.8c4.7,0,8.1-0.6,11.1-1.7l1.5,6.6
		c-3.5,1.3-8.3,2.3-14,2.3c-13.1,0-20.7-7.6-20.7-19.2c0-10.5,6.8-20.5,19.7-20.5c13.1,0,17.3,10.2,17.3,18.5
		C100.6,79.7,100.5,81.1,100.3,82z"/>
</g>
</svg>
