<?xml version="1.0" encoding="utf-8"?>
<!-- Generator: Adobe Illustrator 18.1.1, SVG Export Plug-In . SVG Version: 6.00 Build 0)  -->
<svg version="1.1" id="Слой_1" xmlns="http://www.w3.org/2000/svg" xmlns:xlink="http://www.w3.org/1999/xlink" x="0px" y="0px"
	 viewBox="0 0 412 160" enable-background="new 0 0 412 160" xml:space="preserve">
<line fill="none" stroke="#18FFFF" stroke-width="2" stroke-miterlimit="10" x1="151.3" y1="81.5" x2="261.2" y2="81.5"/>
<g>
	<g>
		<path fill="#18FFFF" d="M149,91.1c-1-0.1-1.7-1-1.5-1.9c0.1-0.9,1-1.6,1.9-1.5c1,0.1,1.7,0.9,1.6,1.9
			C150.8,90.6,149.9,91.3,149,91.1z"/>
		<path fill="#18FFFF" d="M147.2,99.4c-0.9-0.3-1.5-1.2-1.3-2.1c0.2-0.9,1.1-1.4,2.1-1.2c1,0.2,1.5,1.1,1.3,2.1
			C149.1,99.2,148.1,99.7,147.2,99.4z"/>
		<path fill="#18FFFF" d="M144.4,107.4c-0.9-0.4-1.3-1.4-1-2.2c0.3-0.8,1.3-1.3,2.3-0.9c0.9,0.3,1.4,1.3,1,2.2
			C146.3,107.4,145.3,107.8,144.4,107.4z"/>
		<path fill="#18FFFF" d="M140.5,115c-0.8-0.5-1.1-1.5-0.7-2.3c0.5-0.8,1.5-1.1,2.3-0.6c0.9,0.4,1.2,1.5,0.7,2.4
			C142.4,115.2,141.4,115.5,140.5,115z"/>
		<path fill="#18FFFF" d="M135.8,122c-0.8-0.6-0.9-1.7-0.4-2.4c0.5-0.7,1.6-0.9,2.4-0.3c0.8,0.6,1,1.6,0.4,2.4
			C137.6,122.5,136.5,122.6,135.8,122z"/>
		<path fill="#18FFFF" d="M130.1,128.4c-0.7-0.7-0.7-1.8-0.1-2.4c0.6-0.7,1.7-0.7,2.4,0c0.7,0.7,0.8,1.7,0.1,2.4
			C131.9,129.1,130.8,129.1,130.1,128.4z"/>
		<path fill="#18FFFF" d="M123.7,133.9c-0.6-0.8-0.5-1.9,0.2-2.4c0.7-0.5,1.8-0.5,2.4,0.3c0.6,0.7,0.6,1.9-0.2,2.5
			C125.4,134.8,124.3,134.7,123.7,133.9z"/>
		<path fill="#18FFFF" d="M116.7,138.6c-0.5-0.9-0.2-1.9,0.5-2.4c0.8-0.5,1.8-0.2,2.4,0.6c0.5,0.8,0.3,1.9-0.5,2.4
			C118.2,139.8,117.1,139.5,116.7,138.6z"/>
	</g>
	<g>
		<path fill="#18FFFF" d="M108,142.8c-0.4-0.9,0-1.9,0.9-2.3c0.8-0.4,1.8,0,2.2,0.9c0.4,0.9,0,1.9-0.9,2.3
			C109.3,144.2,108.3,143.7,108,142.8z"/>
		<path fill="#18FFFF" d="M99.9,145.5c-0.2-0.9,0.3-1.9,1.2-2.1c0.9-0.2,1.8,0.3,2.1,1.2c0.3,0.9-0.2,1.9-1.2,2.2
			C101.1,147,100.1,146.4,99.9,145.5z"/>
		<path fill="#18FFFF" d="M91.6,147c-0.1-1,0.5-1.8,1.4-2c0.9-0.1,1.8,0.5,1.9,1.5c0.2,0.9-0.5,1.9-1.4,2
			C92.5,148.6,91.7,148,91.6,147z"/>
		<path fill="#18FFFF" d="M83.1,147.5c0-1,0.8-1.7,1.7-1.8c0.9,0,1.7,0.7,1.7,1.7c0,1-0.7,1.8-1.7,1.8
			C83.8,149.3,83.1,148.4,83.1,147.5z"/>
		<path fill="#18FFFF" d="M74.6,146.8c0.1-1,1-1.7,1.9-1.5c0.9,0.1,1.6,0.9,1.5,1.9c-0.1,1-0.9,1.7-1.9,1.6
			C75.1,148.7,74.5,147.8,74.6,146.8z"/>
		<path fill="#18FFFF" d="M66.3,145.2c0.3-0.9,1.2-1.5,2.1-1.3c0.9,0.2,1.4,1.1,1.2,2.1c-0.2,1-1.1,1.5-2.1,1.3
			C66.6,147.1,66,146.1,66.3,145.2z"/>
		<path fill="#18FFFF" d="M58.3,142.4c0.4-0.9,1.4-1.4,2.2-1c0.8,0.3,1.3,1.3,1,2.2c-0.3,0.9-1.3,1.4-2.2,1
			C58.3,144.3,57.9,143.3,58.3,142.4z"/>
		<path fill="#18FFFF" d="M50.7,138.6c0.5-0.8,1.5-1.2,2.3-0.7c0.8,0.4,1.1,1.5,0.7,2.3c-0.4,0.9-1.5,1.2-2.4,0.8
			C50.5,140.5,50.2,139.5,50.7,138.6z"/>
	</g>
	<g>
		<path fill="#18FFFF" d="M42.7,133.2c0.6-0.8,1.7-0.9,2.4-0.4c0.7,0.5,0.9,1.6,0.3,2.4c-0.6,0.8-1.7,1-2.4,0.4
			C42.2,135,42.1,133.9,42.7,133.2z"/>
		<path fill="#18FFFF" d="M36.4,127.5c0.7-0.7,1.8-0.7,2.4-0.1c0.7,0.6,0.7,1.7,0,2.4s-1.8,0.8-2.5,0.1
			C35.6,129.3,35.7,128.2,36.4,127.5z"/>
		<path fill="#18FFFF" d="M30.9,121.1c0.8-0.6,1.9-0.5,2.4,0.2c0.6,0.7,0.4,1.8-0.3,2.4c-0.8,0.6-1.9,0.5-2.4-0.2
			C29.9,122.7,30.1,121.6,30.9,121.1z"/>
		<path fill="#18FFFF" d="M26.2,114c0.8-0.5,1.9-0.2,2.4,0.6c0.5,0.8,0.2,1.8-0.6,2.3c-0.8,0.5-1.9,0.3-2.4-0.5
			C25.1,115.5,25.4,114.4,26.2,114z"/>
		<path fill="#18FFFF" d="M22.5,106.3c0.9-0.4,1.9,0,2.3,0.9c0.4,0.8,0,1.8-0.9,2.3s-1.9,0-2.3-0.8
			C21.2,107.7,21.6,106.7,22.5,106.3z"/>
		<path fill="#18FFFF" d="M19.8,98.3c0.9-0.2,1.9,0.3,2.2,1.1c0.2,0.9-0.3,1.8-1.2,2.1c-0.9,0.3-1.9-0.2-2.2-1.1
			C18.3,99.5,18.9,98.5,19.8,98.3z"/>
		<path fill="#18FFFF" d="M18.2,89.9c1-0.1,1.8,0.5,2,1.4c0.2,0.9-0.5,1.8-1.4,1.9c-1,0.2-1.9-0.5-2-1.4
			C16.6,90.9,17.3,90.1,18.2,89.9z"/>
		<path fill="#18FFFF" d="M17.7,81.5c1,0,1.8,0.7,1.8,1.7c0,0.9-0.7,1.7-1.7,1.7S16,84.2,16,83.2C15.9,82.3,16.7,81.5,17.7,81.5z"/>
	</g>
	<g>
		<path fill="#18FFFF" d="M18.4,71.8c1,0.1,1.7,1,1.5,1.9c-0.1,0.9-1,1.6-1.9,1.5c-1-0.1-1.7-0.9-1.6-1.9
			C16.5,72.3,17.4,71.7,18.4,71.8z"/>
		<path fill="#18FFFF" d="M20.2,63.5c0.9,0.3,1.5,1.2,1.3,2.1c-0.2,0.9-1.1,1.4-2.1,1.2s-1.5-1.1-1.3-2.1
			C18.2,63.8,19.2,63.3,20.2,63.5z"/>
		<path fill="#18FFFF" d="M23,55.5c0.9,0.4,1.3,1.4,1,2.2c-0.3,0.8-1.3,1.3-2.3,0.9s-1.4-1.3-1-2.2C21.1,55.6,22.1,55.1,23,55.5z"/>
		<path fill="#18FFFF" d="M26.8,48c0.8,0.5,1.1,1.5,0.7,2.3c-0.5,0.8-1.5,1.1-2.3,0.6c-0.9-0.4-1.2-1.5-0.7-2.4
			C24.9,47.7,26,47.5,26.8,48z"/>
		<path fill="#18FFFF" d="M31.6,41c0.8,0.6,0.9,1.7,0.4,2.4c-0.5,0.7-1.6,0.9-2.4,0.3c-0.8-0.6-1-1.6-0.4-2.4
			C29.7,40.5,30.8,40.4,31.6,41z"/>
		<path fill="#18FFFF" d="M37.2,34.6c0.7,0.7,0.7,1.8,0.1,2.4c-0.6,0.7-1.7,0.7-2.4,0c-0.7-0.7-0.8-1.7-0.1-2.4
			C35.4,33.9,36.5,33.9,37.2,34.6z"/>
		<path fill="#18FFFF" d="M43.6,29c0.6,0.8,0.5,1.9-0.2,2.4c-0.7,0.5-1.8,0.5-2.4-0.3c-0.6-0.7-0.6-1.9,0.2-2.5
			C41.9,28.1,43,28.3,43.6,29z"/>
		<path fill="#18FFFF" d="M50.7,24.3c0.5,0.9,0.2,1.9-0.5,2.4c-0.8,0.5-1.8,0.2-2.4-0.6c-0.5-0.8-0.3-1.9,0.5-2.4
			C49.1,23.2,50.2,23.5,50.7,24.3z"/>
	</g>
	<g>
		<path fill="#18FFFF" d="M59.4,20.1c0.4,0.9,0,1.9-0.9,2.3c-0.8,0.4-1.8,0-2.2-0.9c-0.4-0.9,0-1.9,0.9-2.3
			C58,18.7,59,19.2,59.4,20.1z"/>
		<path fill="#18FFFF" d="M67.5,17.5c0.2,0.9-0.3,1.9-1.2,2.1c-0.9,0.2-1.8-0.3-2.1-1.2c-0.3-0.9,0.2-1.9,1.2-2.2
			C66.3,16,67.2,16.5,67.5,17.5z"/>
		<path fill="#18FFFF" d="M75.8,16c0.1,1-0.5,1.8-1.4,2c-0.9,0.1-1.8-0.5-1.9-1.5c-0.2-0.9,0.5-1.9,1.4-2C74.8,14.3,75.7,15,75.8,16
			z"/>
		<path fill="#18FFFF" d="M84.3,15.5c0,1-0.8,1.7-1.7,1.8c-0.9,0-1.7-0.7-1.7-1.7c0-1,0.7-1.8,1.7-1.8
			C83.5,13.7,84.3,14.5,84.3,15.5z"/>
		<path fill="#18FFFF" d="M92.7,16.1c-0.1,1-1,1.7-1.9,1.5c-0.9-0.1-1.6-0.9-1.5-1.9c0.1-1,0.9-1.7,1.9-1.6
			C92.2,14.3,92.9,15.1,92.7,16.1z"/>
		<path fill="#18FFFF" d="M101,17.8c-0.3,0.9-1.2,1.5-2.1,1.3c-0.9-0.2-1.4-1.1-1.2-2.1c0.2-1,1.1-1.5,2.1-1.3
			C100.8,15.9,101.3,16.9,101,17.8z"/>
		<path fill="#18FFFF" d="M109.1,20.5c-0.4,0.9-1.4,1.4-2.2,1c-0.8-0.3-1.3-1.3-1-2.2c0.3-0.9,1.3-1.4,2.2-1
			C109,18.6,109.5,19.7,109.1,20.5z"/>
		<path fill="#18FFFF" d="M116.7,24.3c-0.5,0.8-1.5,1.2-2.3,0.7c-0.8-0.4-1.1-1.5-0.7-2.3c0.4-0.9,1.5-1.2,2.4-0.8
			C116.9,22.4,117.2,23.5,116.7,24.3z"/>
	</g>
	<g>
		<path fill="#18FFFF" d="M124.7,29.8c-0.6,0.8-1.7,0.9-2.4,0.4c-0.7-0.5-0.9-1.6-0.3-2.4c0.6-0.8,1.7-1,2.4-0.4
			C125.1,27.9,125.3,29,124.7,29.8z"/>
		<path fill="#18FFFF" d="M131,35.5c-0.7,0.7-1.8,0.7-2.4,0.1c-0.7-0.6-0.7-1.7,0-2.4c0.7-0.7,1.8-0.8,2.5-0.1
			C131.7,33.6,131.7,34.8,131,35.5z"/>
		<path fill="#18FFFF" d="M136.5,41.9c-0.8,0.6-1.9,0.5-2.4-0.2c-0.6-0.7-0.4-1.8,0.3-2.4c0.8-0.6,1.9-0.5,2.4,0.2
			C137.4,40.2,137.3,41.3,136.5,41.9z"/>
		<path fill="#18FFFF" d="M141.1,49c-0.8,0.5-1.9,0.2-2.4-0.6c-0.5-0.8-0.2-1.8,0.6-2.3c0.8-0.5,1.9-0.3,2.4,0.5
			C142.3,47.5,142,48.5,141.1,49z"/>
		<path fill="#18FFFF" d="M144.8,56.6c-0.9,0.4-1.9,0-2.3-0.9c-0.4-0.8,0-1.8,0.9-2.3c0.9-0.4,1.9,0,2.3,0.8
			C146.2,55.2,145.7,56.3,144.8,56.6z"/>
		<path fill="#18FFFF" d="M147.5,64.7c-0.9,0.2-1.9-0.3-2.2-1.1c-0.2-0.9,0.3-1.8,1.2-2.1c0.9-0.3,1.9,0.2,2.2,1.1
			C149,63.5,148.5,64.4,147.5,64.7z"/>
		<path fill="#18FFFF" d="M149.1,73c-1,0.1-1.8-0.5-2-1.4c-0.2-0.9,0.5-1.8,1.4-1.9c1-0.2,1.9,0.5,2,1.4
			C150.8,72,150.1,72.9,149.1,73z"/>
		<path fill="#18FFFF" d="M149.7,81.5c-1,0-1.8-0.7-1.8-1.7s0.7-1.7,1.7-1.7c1-0.1,1.8,0.7,1.8,1.7
			C151.4,80.7,150.6,81.5,149.7,81.5z"/>
	</g>
</g>
<circle fill="#18FFFF" cx="151.3" cy="81.5" r="6"/>
<g>
	<path fill="#18FFFF" d="M83.7,49.5c-17.7,0-32,14.3-32,32c0,17.7,14.3,32,32,32s32-14.3,32-32C115.7,63.8,101.3,49.5,83.7,49.5z
		 M83.7,104.9c-12.9,0-23.4-10.5-23.4-23.4S70.7,58,83.7,58c12.9,0,23.4,10.5,23.4,23.4S96.6,104.9,83.7,104.9z"/>
	<g>
		<path fill="#18FFFF" d="M67.6,76.6c0.9-0.1,2.1-0.3,3.7-0.3c1.8,0,3.1,0.4,4,1c0.8,0.6,1.3,1.6,1.3,2.8c0,1.2-0.4,2.2-1.2,2.9
			c-1,0.9-2.5,1.4-4.2,1.4c-0.5,0-0.9,0-1.2-0.1v4.8h-2.4V76.6z M70,82.5c0.3,0.1,0.7,0.1,1.2,0.1c1.8,0,2.9-0.8,2.9-2.3
			c0-1.4-1-2.2-2.7-2.2c-0.7,0-1.2,0.1-1.4,0.1V82.5z"/>
		<path fill="#18FFFF" d="M81.1,76.5v5.1h5.7v-5.1h2.4v12.7h-2.4v-5.6h-5.7v5.6h-2.4V76.5H81.1z"/>
		<path fill="#18FFFF" d="M92,76.6c0.9-0.1,2.1-0.3,3.7-0.3c1.8,0,3.1,0.4,4,1c0.8,0.6,1.3,1.6,1.3,2.8c0,1.2-0.4,2.2-1.2,2.9
			c-1,0.9-2.5,1.4-4.2,1.4c-0.5,0-0.9,0-1.2-0.1v4.8H92V76.6z M94.4,82.5c0.3,0.1,0.7,0.1,1.2,0.1c1.8,0,2.9-0.8,2.9-2.3
			c0-1.4-1-2.2-2.7-2.2c-0.7,0-1.2,0.1-1.4,0.1V82.5z"/>
	</g>
</g>
<g>
	<g>
		<path fill="#18FFFF" d="M393.4,91.1c-1-0.1-1.7-1-1.5-1.9c0.1-0.9,1-1.6,1.9-1.5c1,0.1,1.7,0.9,1.6,1.9
			C395.2,90.6,394.4,91.3,393.4,91.1z"/>
		<path fill="#18FFFF" d="M391.6,99.4c-0.9-0.3-1.5-1.2-1.3-2.1c0.2-0.9,1.1-1.4,2.1-1.2c1,0.2,1.5,1.1,1.3,2.1
			C393.5,99.2,392.5,99.7,391.6,99.4z"/>
		<path fill="#18FFFF" d="M388.8,107.4c-0.9-0.4-1.3-1.4-1-2.2c0.3-0.8,1.3-1.3,2.3-0.9s1.4,1.3,1,2.2
			C390.7,107.4,389.7,107.8,388.8,107.4z"/>
		<path fill="#18FFFF" d="M385,115c-0.8-0.5-1.1-1.5-0.7-2.3c0.5-0.8,1.5-1.1,2.3-0.6c0.9,0.4,1.2,1.5,0.7,2.4
			C386.9,115.2,385.8,115.5,385,115z"/>
		<path fill="#18FFFF" d="M380.2,122c-0.8-0.6-0.9-1.7-0.4-2.4c0.5-0.7,1.6-0.9,2.4-0.3c0.8,0.6,1,1.6,0.4,2.4
			C382.1,122.5,380.9,122.6,380.2,122z"/>
		<path fill="#18FFFF" d="M374.6,128.4c-0.7-0.7-0.7-1.8-0.1-2.4c0.6-0.7,1.7-0.7,2.4,0c0.7,0.7,0.8,1.7,0.1,2.4
			C376.3,129.1,375.2,129.1,374.6,128.4z"/>
		<path fill="#18FFFF" d="M368.2,133.9c-0.6-0.8-0.5-1.9,0.2-2.4c0.7-0.5,1.8-0.5,2.4,0.3c0.6,0.7,0.6,1.9-0.2,2.5
			C369.8,134.8,368.7,134.7,368.2,133.9z"/>
		<path fill="#18FFFF" d="M361.1,138.6c-0.5-0.9-0.2-1.9,0.5-2.4c0.8-0.5,1.8-0.2,2.4,0.6c0.5,0.8,0.3,1.9-0.5,2.4
			C362.7,139.8,361.6,139.5,361.1,138.6z"/>
	</g>
	<g>
		<path fill="#18FFFF" d="M352.4,142.8c-0.4-0.9,0-1.9,0.9-2.3c0.8-0.4,1.8,0,2.2,0.9c0.4,0.9,0,1.9-0.9,2.3
			C353.8,144.2,352.7,143.7,352.4,142.8z"/>
		<path fill="#18FFFF" d="M344.3,145.5c-0.2-0.9,0.3-1.9,1.2-2.1c0.9-0.2,1.8,0.3,2.1,1.2c0.3,0.9-0.2,1.9-1.2,2.2
			C345.5,147,344.6,146.4,344.3,145.5z"/>
		<path fill="#18FFFF" d="M336,147c-0.1-1,0.5-1.8,1.4-2c0.9-0.1,1.8,0.5,1.9,1.5c0.2,0.9-0.5,1.9-1.4,2
			C337,148.6,336.1,148,336,147z"/>
		<path fill="#18FFFF" d="M327.5,147.5c0-1,0.8-1.7,1.7-1.8c0.9,0,1.7,0.7,1.7,1.7c0,1-0.7,1.8-1.7,1.8
			C328.3,149.3,327.5,148.4,327.5,147.5z"/>
		<path fill="#18FFFF" d="M319,146.8c0.1-1,1-1.7,1.9-1.5c0.9,0.1,1.6,0.9,1.5,1.9c-0.1,1-0.9,1.7-1.9,1.6
			C319.6,148.7,318.9,147.8,319,146.8z"/>
		<path fill="#18FFFF" d="M310.7,145.2c0.3-0.9,1.2-1.5,2.1-1.3c0.9,0.2,1.4,1.1,1.2,2.1s-1.1,1.5-2.1,1.3
			C311,147.1,310.5,146.1,310.7,145.2z"/>
		<path fill="#18FFFF" d="M302.7,142.4c0.4-0.9,1.4-1.4,2.2-1c0.8,0.3,1.3,1.3,1,2.2c-0.3,0.9-1.3,1.4-2.2,1
			C302.7,144.3,302.3,143.3,302.7,142.4z"/>
		<path fill="#18FFFF" d="M295.1,138.6c0.5-0.8,1.5-1.2,2.3-0.7c0.8,0.4,1.1,1.5,0.7,2.3c-0.4,0.9-1.5,1.2-2.4,0.8
			C294.9,140.5,294.6,139.5,295.1,138.6z"/>
	</g>
	<g>
		<path fill="#18FFFF" d="M287.1,133.2c0.6-0.8,1.7-0.9,2.4-0.4c0.7,0.5,0.9,1.6,0.3,2.4c-0.6,0.8-1.7,1-2.4,0.4
			C286.6,135,286.5,133.9,287.1,133.2z"/>
		<path fill="#18FFFF" d="M280.8,127.5c0.7-0.7,1.8-0.7,2.4-0.1c0.7,0.6,0.7,1.7,0,2.4s-1.8,0.8-2.5,0.1
			C280.1,129.3,280.1,128.2,280.8,127.5z"/>
		<path fill="#18FFFF" d="M275.3,121.1c0.8-0.6,1.9-0.5,2.4,0.2c0.6,0.7,0.4,1.8-0.3,2.4c-0.8,0.6-1.9,0.5-2.4-0.2
			C274.4,122.7,274.5,121.6,275.3,121.1z"/>
		<path fill="#18FFFF" d="M270.7,114c0.8-0.5,1.9-0.2,2.4,0.6c0.5,0.8,0.2,1.8-0.6,2.3c-0.8,0.5-1.9,0.3-2.4-0.5
			C269.5,115.5,269.8,114.4,270.7,114z"/>
		<path fill="#18FFFF" d="M267,106.3c0.9-0.4,1.9,0,2.3,0.9c0.4,0.8,0,1.8-0.9,2.3c-0.9,0.4-1.9,0-2.3-0.8
			C265.6,107.7,266.1,106.7,267,106.3z"/>
		<path fill="#18FFFF" d="M264.3,98.3c0.9-0.2,1.9,0.3,2.2,1.1c0.2,0.9-0.3,1.8-1.2,2.1c-0.9,0.3-1.9-0.2-2.2-1.1
			C262.8,99.5,263.3,98.5,264.3,98.3z"/>
		<path fill="#18FFFF" d="M262.7,89.9c1-0.1,1.8,0.5,2,1.4c0.2,0.9-0.5,1.8-1.4,1.9c-1,0.2-1.9-0.5-2-1.4
			C261,90.9,261.7,90.1,262.7,89.9z"/>
		<path fill="#18FFFF" d="M262.1,81.5c1,0,1.8,0.7,1.8,1.7c0,0.9-0.7,1.7-1.7,1.7s-1.8-0.7-1.8-1.7
			C260.4,82.3,261.1,81.5,262.1,81.5z"/>
	</g>
	<g>
		<path fill="#18FFFF" d="M262.8,71.8c1,0.1,1.7,1,1.5,1.9c-0.1,0.9-1,1.6-1.9,1.5c-1-0.1-1.7-0.9-1.6-1.9
			C261,72.3,261.9,71.7,262.8,71.8z"/>
		<path fill="#18FFFF" d="M264.6,63.5c0.9,0.3,1.5,1.2,1.3,2.1c-0.2,0.9-1.1,1.4-2.1,1.2c-1-0.2-1.5-1.1-1.3-2.1
			C262.7,63.8,263.7,63.3,264.6,63.5z"/>
		<path fill="#18FFFF" d="M267.4,55.5c0.9,0.4,1.3,1.4,1,2.2c-0.3,0.8-1.3,1.3-2.3,0.9c-0.9-0.3-1.4-1.3-1-2.2
			C265.5,55.6,266.5,55.1,267.4,55.5z"/>
		<path fill="#18FFFF" d="M271.2,48c0.8,0.5,1.1,1.5,0.7,2.3c-0.5,0.8-1.5,1.1-2.3,0.6c-0.9-0.4-1.2-1.5-0.7-2.4
			C269.3,47.7,270.4,47.5,271.2,48z"/>
		<path fill="#18FFFF" d="M276,41c0.8,0.6,0.9,1.7,0.4,2.4c-0.5,0.7-1.6,0.9-2.4,0.3c-0.8-0.6-1-1.6-0.4-2.4
			C274.1,40.5,275.3,40.4,276,41z"/>
		<path fill="#18FFFF" d="M281.7,34.6c0.7,0.7,0.7,1.8,0.1,2.4c-0.6,0.7-1.7,0.7-2.4,0s-0.8-1.7-0.1-2.4
			C279.9,33.9,281,33.9,281.7,34.6z"/>
		<path fill="#18FFFF" d="M288.1,29c0.6,0.8,0.5,1.9-0.2,2.4c-0.7,0.5-1.8,0.5-2.4-0.3c-0.6-0.7-0.6-1.9,0.2-2.5
			C286.4,28.1,287.5,28.3,288.1,29z"/>
		<path fill="#18FFFF" d="M295.1,24.3c0.5,0.9,0.2,1.9-0.5,2.4c-0.8,0.5-1.8,0.2-2.4-0.6s-0.3-1.9,0.5-2.4
			C293.5,23.2,294.6,23.5,295.1,24.3z"/>
	</g>
	<g>
		<path fill="#18FFFF" d="M303.8,20.1c0.4,0.9,0,1.9-0.9,2.3c-0.8,0.4-1.8,0-2.2-0.9c-0.4-0.9,0-1.9,0.9-2.3
			C302.4,18.7,303.5,19.2,303.8,20.1z"/>
		<path fill="#18FFFF" d="M311.9,17.5c0.2,0.9-0.3,1.9-1.2,2.1c-0.9,0.2-1.8-0.3-2.1-1.2c-0.3-0.9,0.2-1.9,1.2-2.2
			C310.7,16,311.6,16.5,311.9,17.5z"/>
		<path fill="#18FFFF" d="M320.2,16c0.1,1-0.5,1.8-1.4,2c-0.9,0.1-1.8-0.5-1.9-1.5c-0.2-0.9,0.5-1.9,1.4-2
			C319.2,14.3,320.1,15,320.2,16z"/>
		<path fill="#18FFFF" d="M328.7,15.5c0,1-0.8,1.7-1.7,1.8c-0.9,0-1.7-0.7-1.7-1.7c0-1,0.7-1.8,1.7-1.8
			C327.9,13.7,328.7,14.5,328.7,15.5z"/>
		<path fill="#18FFFF" d="M337.2,16.1c-0.1,1-1,1.7-1.9,1.5c-0.9-0.1-1.6-0.9-1.5-1.9c0.1-1,0.9-1.7,1.9-1.6
			C336.6,14.3,337.3,15.1,337.2,16.1z"/>
		<path fill="#18FFFF" d="M345.5,17.8c-0.3,0.9-1.2,1.5-2.1,1.3c-0.9-0.2-1.4-1.1-1.2-2.1s1.1-1.5,2.1-1.3
			C345.2,15.9,345.7,16.9,345.5,17.8z"/>
		<path fill="#18FFFF" d="M353.5,20.5c-0.4,0.9-1.4,1.4-2.2,1c-0.8-0.3-1.3-1.3-1-2.2c0.3-0.9,1.3-1.4,2.2-1
			C353.5,18.6,353.9,19.7,353.5,20.5z"/>
		<path fill="#18FFFF" d="M361.1,24.3c-0.5,0.8-1.5,1.2-2.3,0.7c-0.8-0.4-1.1-1.5-0.7-2.3c0.4-0.9,1.5-1.2,2.4-0.8
			C361.3,22.4,361.6,23.5,361.1,24.3z"/>
	</g>
	<g>
		<path fill="#18FFFF" d="M369.1,29.8c-0.6,0.8-1.7,0.9-2.4,0.4c-0.7-0.5-0.9-1.6-0.3-2.4c0.6-0.8,1.7-1,2.4-0.4
			C369.6,27.9,369.7,29,369.1,29.8z"/>
		<path fill="#18FFFF" d="M375.4,35.5c-0.7,0.7-1.8,0.7-2.4,0.1c-0.7-0.6-0.7-1.7,0-2.4c0.7-0.7,1.8-0.8,2.5-0.1
			C376.1,33.6,376.1,34.8,375.4,35.5z"/>
		<path fill="#18FFFF" d="M380.9,41.9c-0.8,0.6-1.9,0.5-2.4-0.2c-0.6-0.7-0.4-1.8,0.3-2.4c0.8-0.6,1.9-0.5,2.4,0.2
			C381.8,40.2,381.7,41.3,380.9,41.9z"/>
		<path fill="#18FFFF" d="M385.6,49c-0.8,0.5-1.9,0.2-2.4-0.6c-0.5-0.8-0.2-1.8,0.6-2.3c0.8-0.5,1.9-0.3,2.4,0.5
			C386.7,47.5,386.4,48.5,385.6,49z"/>
		<path fill="#18FFFF" d="M389.3,56.6c-0.9,0.4-1.9,0-2.3-0.9c-0.4-0.8,0-1.8,0.9-2.3c0.9-0.4,1.9,0,2.3,0.8
			C390.6,55.2,390.1,56.3,389.3,56.6z"/>
		<path fill="#18FFFF" d="M391.9,64.7c-0.9,0.2-1.9-0.3-2.2-1.1c-0.2-0.9,0.3-1.8,1.2-2.1c0.9-0.3,1.9,0.2,2.2,1.1
			C393.4,63.5,392.9,64.4,391.9,64.7z"/>
		<path fill="#18FFFF" d="M393.5,73c-1,0.1-1.8-0.5-2-1.4c-0.2-0.9,0.5-1.8,1.4-1.9c1-0.2,1.9,0.5,2,1.4
			C395.2,72,394.5,72.9,393.5,73z"/>
		<path fill="#18FFFF" d="M394.1,81.5c-1,0-1.8-0.7-1.8-1.7c0-0.9,0.7-1.7,1.7-1.7s1.8,0.7,1.8,1.7
			C395.8,80.7,395.1,81.5,394.1,81.5z"/>
	</g>
</g>
<circle fill="#18FFFF" cx="261.2" cy="81.5" r="6"/>
<g>
	<path fill="#18FFFF" d="M349,96.7c0,0-0.8,1.2-2-1.7c-1.2-2.9-5.7-11.5-8.6-16.9c-2.9-5.4-9.4-10.6-13.1-13.5c-3.7-2.9-9.5-4-9.5-4
		s-1.7,0.4-3.7-0.8c-2-1.2-2.5-2-6.3-3.2c-3.8-1.2-4-1.1-6.2,0.7c-2.2,1.7,0.8,7,1.8,8.2c1.1,1.2,3,4.7,3.7,6.6
		c0.7,1.8,2.9,8.2,4.1,8.7c1.2,0.5,0.5,2,0.5,2c-4.1,17.8,3.3,20.4,3.3,20.4c5.8,2.8,3.8-8.3,5.4-4.4c1.6,4,10.8,10.9,10.8,10.9
		l5.3-1.1l-4-4.6c2.5-1.2,9.3,0.9,14.1,3.1c5.9-0.9,12-1.2,18.1-1C359.3,101,349,96.7,349,96.7z M321.9,71.4l-3.6-1.7l-1.6-4.1
		l5.2,4.1V71.4z"/>
	<path fill="#18FFFF" d="M351.2,103.5c-2.4,0.2-5,0.7-7.4,0.3c-6.4-1.1-16.6-5.7-21.1,0.4c3.1,3,6.6,5.7,6.6,5.7l5.3-1.1l-4-4.6
		c2.5-1.2,9.3,0.9,14.1,3.1c5.9-0.9,12-1.2,18.1-1c-0.4-0.6-0.9-1.2-1.5-1.8C358.2,103.7,355,103.2,351.2,103.5z"/>
</g>
<g>
</g>
<g>
</g>
<g>
</g>
<g>
</g>
<g>
</g>
<g>
</g>
</svg>
