<?xml version="1.0" encoding="utf-8"?>
<!-- Generator: Adobe Illustrator 18.1.1, SVG Export Plug-In . SVG Version: 6.00 Build 0)  -->
<svg version="1.1" id="Слой_1" xmlns="http://www.w3.org/2000/svg" xmlns:xlink="http://www.w3.org/1999/xlink" x="0px" y="0px"
	 viewBox="0 0 164 158" enable-background="new 0 0 164 158" xml:space="preserve">
<g>
	<g>
		<path fill="#18FFFF" d="M148.1,89c-1-0.1-1.7-1-1.5-1.9c0.1-0.9,1-1.6,1.9-1.5c1,0.1,1.7,0.9,1.6,1.9
			C150,88.5,149.1,89.2,148.1,89z"/>
		<path fill="#18FFFF" d="M146.4,97.3c-0.9-0.3-1.5-1.2-1.3-2.1c0.2-0.9,1.1-1.4,2.1-1.2c1,0.2,1.5,1.1,1.3,2.1
			C148.3,97.1,147.3,97.6,146.4,97.3z"/>
		<path fill="#18FFFF" d="M143.5,105.3c-0.9-0.4-1.3-1.4-1-2.2c0.3-0.8,1.3-1.3,2.3-0.9c0.9,0.3,1.4,1.3,1,2.2
			C145.5,105.3,144.4,105.7,143.5,105.3z"/>
		<path fill="#18FFFF" d="M139.7,112.9c-0.8-0.5-1.1-1.5-0.7-2.3c0.5-0.8,1.5-1.1,2.3-0.6c0.9,0.4,1.2,1.5,0.7,2.4
			C141.6,113.1,140.5,113.4,139.7,112.9z"/>
		<path fill="#18FFFF" d="M134.9,119.9c-0.8-0.6-0.9-1.7-0.4-2.4c0.5-0.7,1.6-0.9,2.4-0.3c0.8,0.6,1,1.6,0.4,2.4
			C136.8,120.4,135.7,120.5,134.9,119.9z"/>
		<path fill="#18FFFF" d="M129.3,126.3c-0.7-0.7-0.7-1.8-0.1-2.4c0.6-0.7,1.7-0.7,2.4,0c0.7,0.7,0.8,1.7,0.1,2.4
			C131.1,127,130,127,129.3,126.3z"/>
		<path fill="#18FFFF" d="M122.9,131.8c-0.6-0.8-0.5-1.9,0.2-2.4c0.7-0.5,1.8-0.5,2.4,0.3c0.6,0.7,0.6,1.9-0.2,2.5
			C124.6,132.7,123.5,132.6,122.9,131.8z"/>
		<path fill="#18FFFF" d="M115.8,136.5c-0.5-0.9-0.2-1.9,0.5-2.4c0.8-0.5,1.8-0.2,2.4,0.6c0.5,0.8,0.3,1.9-0.5,2.4
			C117.4,137.7,116.3,137.4,115.8,136.5z"/>
	</g>
	<g>
		<path fill="#18FFFF" d="M107.1,140.7c-0.4-0.9,0-1.9,0.9-2.3c0.8-0.4,1.8,0,2.2,0.9c0.4,0.9,0,1.9-0.9,2.3
			C108.5,142.1,107.5,141.6,107.1,140.7z"/>
		<path fill="#18FFFF" d="M99.1,143.4c-0.2-0.9,0.3-1.9,1.2-2.1c0.9-0.2,1.8,0.3,2.1,1.2c0.3,0.9-0.2,1.9-1.2,2.2
			C100.3,144.9,99.3,144.3,99.1,143.4z"/>
		<path fill="#18FFFF" d="M90.7,144.9c-0.1-1,0.5-1.8,1.4-2c0.9-0.1,1.8,0.5,1.9,1.5c0.2,0.9-0.5,1.9-1.4,2
			C91.7,146.5,90.8,145.9,90.7,144.9z"/>
		<path fill="#18FFFF" d="M82.3,145.4c0-1,0.8-1.7,1.7-1.8c0.9,0,1.7,0.7,1.7,1.7c0,1-0.7,1.8-1.7,1.8
			C83,147.2,82.2,146.3,82.3,145.4z"/>
		<path fill="#18FFFF" d="M73.8,144.7c0.1-1,1-1.7,1.9-1.5c0.9,0.1,1.6,0.9,1.5,1.9c-0.1,1-0.9,1.7-1.9,1.6
			C74.3,146.6,73.7,145.7,73.8,144.7z"/>
		<path fill="#18FFFF" d="M65.5,143.1c0.3-0.9,1.2-1.5,2.1-1.3c0.9,0.2,1.4,1.1,1.2,2.1s-1.1,1.5-2.1,1.3
			C65.8,145,65.2,144,65.5,143.1z"/>
		<path fill="#18FFFF" d="M57.4,140.3c0.4-0.9,1.4-1.4,2.2-1c0.8,0.3,1.3,1.3,1,2.2c-0.3,0.9-1.3,1.4-2.2,1
			C57.5,142.2,57.1,141.2,57.4,140.3z"/>
		<path fill="#18FFFF" d="M49.9,136.5c0.5-0.8,1.5-1.2,2.3-0.7c0.8,0.4,1.1,1.5,0.7,2.3c-0.4,0.9-1.5,1.2-2.4,0.8
			C49.6,138.4,49.4,137.4,49.9,136.5z"/>
	</g>
	<g>
		<path fill="#18FFFF" d="M41.9,131.1c0.6-0.8,1.7-0.9,2.4-0.4c0.7,0.5,0.9,1.6,0.3,2.4c-0.6,0.8-1.7,1-2.4,0.4
			C41.4,132.9,41.3,131.8,41.9,131.1z"/>
		<path fill="#18FFFF" d="M35.6,125.4c0.7-0.7,1.8-0.7,2.4-0.1c0.7,0.6,0.7,1.7,0,2.4s-1.8,0.8-2.5,0.1
			C34.8,127.2,34.9,126.1,35.6,125.4z"/>
		<path fill="#18FFFF" d="M30,119c0.8-0.6,1.9-0.5,2.4,0.2c0.6,0.7,0.4,1.8-0.3,2.4c-0.8,0.6-1.9,0.5-2.4-0.2
			C29.1,120.6,29.3,119.5,30,119z"/>
		<path fill="#18FFFF" d="M25.4,111.9c0.8-0.5,1.9-0.2,2.4,0.6c0.5,0.8,0.2,1.8-0.6,2.3c-0.8,0.5-1.9,0.3-2.4-0.5
			C24.3,113.4,24.6,112.3,25.4,111.9z"/>
		<path fill="#18FFFF" d="M21.7,104.2c0.9-0.4,1.9,0,2.3,0.9c0.4,0.8,0,1.8-0.9,2.3s-1.9,0-2.3-0.8
			C20.3,105.6,20.8,104.6,21.7,104.2z"/>
		<path fill="#18FFFF" d="M19,96.2c0.9-0.2,1.9,0.3,2.2,1.1c0.2,0.9-0.3,1.8-1.2,2.1c-0.9,0.3-1.9-0.2-2.2-1.1
			C17.5,97.4,18.1,96.4,19,96.2z"/>
		<path fill="#18FFFF" d="M17.4,87.8c1-0.1,1.8,0.5,2,1.4c0.2,0.9-0.5,1.8-1.4,1.9c-1,0.2-1.9-0.5-2-1.4
			C15.8,88.8,16.4,88,17.4,87.8z"/>
		<path fill="#18FFFF" d="M16.8,79.4c1,0,1.8,0.7,1.8,1.7c0,0.9-0.7,1.7-1.7,1.7s-1.8-0.7-1.8-1.7C15.1,80.2,15.9,79.4,16.8,79.4z"
			/>
	</g>
	<g>
		<path fill="#18FFFF" d="M17.6,69.7c1,0.1,1.7,1,1.5,1.9c-0.1,0.9-1,1.6-1.9,1.5c-1-0.1-1.7-0.9-1.6-1.9
			C15.7,70.2,16.6,69.6,17.6,69.7z"/>
		<path fill="#18FFFF" d="M19.3,61.4c0.9,0.3,1.5,1.2,1.3,2.1c-0.2,0.9-1.1,1.4-2.1,1.2s-1.5-1.1-1.3-2.1
			C17.4,61.7,18.4,61.2,19.3,61.4z"/>
		<path fill="#18FFFF" d="M22.1,53.4c0.9,0.4,1.3,1.4,1,2.2c-0.3,0.8-1.3,1.3-2.3,0.9s-1.4-1.3-1-2.2C20.2,53.5,21.2,53,22.1,53.4z"
			/>
		<path fill="#18FFFF" d="M26,45.9c0.8,0.5,1.1,1.5,0.7,2.3c-0.5,0.8-1.5,1.1-2.3,0.6c-0.9-0.4-1.2-1.5-0.7-2.4
			C24.1,45.6,25.2,45.4,26,45.9z"/>
		<path fill="#18FFFF" d="M30.8,38.9c0.8,0.6,0.9,1.7,0.4,2.4c-0.5,0.7-1.6,0.9-2.4,0.3c-0.8-0.6-1-1.6-0.4-2.4
			C28.9,38.4,30,38.3,30.8,38.9z"/>
		<path fill="#18FFFF" d="M36.4,32.5c0.7,0.7,0.7,1.8,0.1,2.4c-0.6,0.7-1.7,0.7-2.4,0c-0.7-0.7-0.8-1.7-0.1-2.4
			C34.6,31.8,35.7,31.8,36.4,32.5z"/>
		<path fill="#18FFFF" d="M42.8,26.9c0.6,0.8,0.5,1.9-0.2,2.4c-0.7,0.5-1.8,0.5-2.4-0.3c-0.6-0.7-0.6-1.9,0.2-2.5
			C41.1,26,42.2,26.2,42.8,26.9z"/>
		<path fill="#18FFFF" d="M49.9,22.2c0.5,0.9,0.2,1.9-0.5,2.4c-0.8,0.5-1.8,0.2-2.4-0.6c-0.5-0.8-0.3-1.9,0.5-2.4
			C48.3,21.1,49.4,21.4,49.9,22.2z"/>
	</g>
	<g>
		<path fill="#18FFFF" d="M58.6,18c0.4,0.9,0,1.9-0.9,2.3c-0.8,0.4-1.8,0-2.2-0.9c-0.4-0.9,0-1.9,0.9-2.3
			C57.2,16.6,58.2,17.1,58.6,18z"/>
		<path fill="#18FFFF" d="M66.6,15.4c0.2,0.9-0.3,1.9-1.2,2.1c-0.9,0.2-1.8-0.3-2.1-1.2c-0.3-0.9,0.2-1.9,1.2-2.2
			C65.4,13.9,66.4,14.4,66.6,15.4z"/>
		<path fill="#18FFFF" d="M75,13.9c0.1,1-0.5,1.8-1.4,2c-0.9,0.1-1.8-0.5-1.9-1.5c-0.2-0.9,0.5-1.9,1.4-2C74,12.2,74.9,12.9,75,13.9
			z"/>
		<path fill="#18FFFF" d="M83.4,13.4c0,1-0.8,1.7-1.7,1.8c-0.9,0-1.7-0.7-1.7-1.7c0-1,0.7-1.8,1.7-1.8
			C82.7,11.6,83.5,12.4,83.4,13.4z"/>
		<path fill="#18FFFF" d="M91.9,14c-0.1,1-1,1.7-1.9,1.5c-0.9-0.1-1.6-0.9-1.5-1.9c0.1-1,0.9-1.7,1.9-1.6C91.4,12.2,92,13,91.9,14z"
			/>
		<path fill="#18FFFF" d="M100.2,15.7c-0.3,0.9-1.2,1.5-2.1,1.3c-0.9-0.2-1.4-1.1-1.2-2.1s1.1-1.5,2.1-1.3
			C99.9,13.8,100.5,14.8,100.2,15.7z"/>
		<path fill="#18FFFF" d="M108.2,18.4c-0.4,0.9-1.4,1.4-2.2,1c-0.8-0.3-1.3-1.3-1-2.2c0.3-0.9,1.3-1.4,2.2-1
			C108.2,16.5,108.6,17.6,108.2,18.4z"/>
		<path fill="#18FFFF" d="M115.8,22.2c-0.5,0.8-1.5,1.2-2.3,0.7c-0.8-0.4-1.1-1.5-0.7-2.3c0.4-0.9,1.5-1.2,2.4-0.8
			C116.1,20.3,116.3,21.4,115.8,22.2z"/>
	</g>
	<g>
		<path fill="#18FFFF" d="M123.8,27.7c-0.6,0.8-1.7,0.9-2.4,0.4c-0.7-0.5-0.9-1.6-0.3-2.4c0.6-0.8,1.7-1,2.4-0.4
			C124.3,25.8,124.4,26.9,123.8,27.7z"/>
		<path fill="#18FFFF" d="M130.1,33.4c-0.7,0.7-1.8,0.7-2.4,0.1c-0.7-0.6-0.7-1.7,0-2.4c0.7-0.7,1.8-0.8,2.5-0.1
			C130.9,31.5,130.8,32.7,130.1,33.4z"/>
		<path fill="#18FFFF" d="M135.7,39.8c-0.8,0.6-1.9,0.5-2.4-0.2c-0.6-0.7-0.4-1.8,0.3-2.4c0.8-0.6,1.9-0.5,2.4,0.2
			C136.6,38.1,136.4,39.2,135.7,39.8z"/>
		<path fill="#18FFFF" d="M140.3,46.9c-0.8,0.5-1.9,0.2-2.4-0.6c-0.5-0.8-0.2-1.8,0.6-2.3c0.8-0.5,1.9-0.3,2.4,0.5
			C141.4,45.4,141.1,46.4,140.3,46.9z"/>
		<path fill="#18FFFF" d="M144,54.5c-0.9,0.4-1.9,0-2.3-0.9c-0.4-0.8,0-1.8,0.9-2.3c0.9-0.4,1.9,0,2.3,0.8
			C145.4,53.1,144.9,54.2,144,54.5z"/>
		<path fill="#18FFFF" d="M146.7,62.6c-0.9,0.2-1.9-0.3-2.2-1.1c-0.2-0.9,0.3-1.8,1.2-2.1c0.9-0.3,1.9,0.2,2.2,1.1
			C148.2,61.4,147.6,62.3,146.7,62.6z"/>
		<path fill="#18FFFF" d="M148.3,70.9c-1,0.1-1.8-0.5-2-1.4c-0.2-0.9,0.5-1.8,1.4-1.9c1-0.2,1.9,0.5,2,1.4
			C149.9,69.9,149.3,70.8,148.3,70.9z"/>
		<path fill="#18FFFF" d="M148.8,79.4c-1,0-1.8-0.7-1.8-1.7s0.7-1.7,1.7-1.7c1-0.1,1.8,0.7,1.8,1.7
			C150.6,78.6,149.8,79.4,148.8,79.4z"/>
	</g>
</g>
<g>
	<path fill="#18FFFF" d="M96.1,86.3c-2-0.1-3.9-0.4-5.6-1.4c-0.2-0.1-0.4-0.2-0.6-0.3c-0.2-0.2-0.4-0.4-0.5-0.6
		c-0.4-0.9-1.1-1.4-1.9-1.8c-0.1,0-0.1-0.1-0.2-0.1c-0.3-0.1-0.6-0.2-0.7-0.7c-0.1-0.4-0.5-0.6-0.9-0.8c-1.5-0.6-2.9-0.6-4.3,0.1
		c-0.2,0.1-0.4,0.2-0.5,0.4c-0.2,0.2-0.3,0.5-0.3,0.8c0,0.2-0.1,0.3-0.2,0.4c-0.7,0.3-1.3,0.7-1.8,1.2c-0.1,0.1-0.3,0.3-0.4,0.5
		c-0.2,0.5-0.7,0.9-1.2,1.2c-1.4,0.9-2.8,1.5-4.5,1.8C72,86.9,71.4,87,70.9,87c-1.3,0-2.4-0.3-3.5-0.9c-1.8-1-3.2-2.4-4.2-4.3
		c-0.3-0.6-0.4-1.4-0.5-2.1c-0.1-1.9,0.1-3.8,0.7-5.6c0.9-2.6,2.7-4.4,5.1-5.6c1.7-0.8,3.5-1.2,5.3-1.6c1.3-0.2,2.5-0.4,3.8-0.5
		c1.1-0.1,2.2-0.2,3.3-0.2c1.6-0.1,3.3-0.1,4.9-0.1c1.2,0,2.5,0.1,3.7,0.2c1.3,0.1,2.6,0.2,3.8,0.5c1.9,0.3,3.9,0.8,5.6,1.8
		c2,1.1,3.3,2.8,4.2,4.9c0.5,1.3,0.8,2.6,0.8,4c0.1,0.9,0,1.9-0.2,2.8c-0.2,1-0.8,1.9-1.4,2.7c-1,1.2-2.2,2.2-3.7,2.8
		C97.9,86.2,97,86.3,96.1,86.3z M101.6,76.7c0-0.6,0-1.3-0.2-1.9c-0.4-2.4-1.7-4.1-3.9-5.3c-1.1-0.6-2.2-0.9-3.4-1.1
		c-1-0.2-2-0.2-2.9-0.1C89.6,68.4,88.3,69,87,70c-2.7,2.2-3.4,6.2-1.6,9.2c0.7,1.2,1.8,2.1,3,2.8c1.6,0.9,3.3,1.4,5.1,1.5
		c1.3,0.1,2.7-0.1,3.9-0.6c1.4-0.5,2.5-1.4,3.3-2.7C101.4,79.1,101.7,77.9,101.6,76.7z M64.8,77.6c0,0.2,0,0.3,0,0.5
		c0,0.2,0,0.4,0,0.5c0.2,1.7,1,3.1,2.3,4.1c1.4,1.1,3,1.6,4.7,1.7c1.4,0.1,2.7-0.1,4-0.6c1.4-0.5,2.6-1.4,3.7-2.4
		c1.8-1.7,2.6-3.8,2.2-6.3c-0.4-2.3-1.6-4-3.6-5.1c-2-1.1-4.1-1.3-6.3-0.6c-1.7,0.5-3.2,1.3-4.5,2.5C65.6,73.4,64.8,75.3,64.8,77.6z
		"/>
	<path fill="#18FFFF" d="M83.5,55.9c1.2,0,2.5,0.1,3.7,0.3c0.7,0.1,1.4,0.2,2.1,0.4c0.6,0.2,1.1,0.4,1.7,0.7
		c1.6,0.6,3.2,1.1,4.8,1.7c0.6,0.2,1.1,0.6,1.5,1c1.1,0.8,2,1.8,3,2.7c0.1,0.1,0.1,0.2,0,0.3c-0.8,1.5-1.4,3.1-2.1,4.7
		c-0.1,0.2-0.1,0.2-0.3,0.1c-1.6-0.6-3.2-1-4.9-1.3c-1.3-0.2-2.6-0.3-3.8-0.4c-1.7-0.1-3.4-0.2-5-0.1c-0.4,0-0.8,0-1.3,0
		c-0.2,0-0.2,0-0.2-0.2c0-1.1-0.1-2.3,0-3.4c0.1-1.2-0.1-2.3-0.2-3.5c-0.1-0.9-0.2-1.8-0.3-2.6c0-0.1,0-0.2,0.1-0.2
		C82.7,55.9,83.1,55.9,83.5,55.9z"/>
	<path fill="#18FFFF" d="M82.4,61.4c0,0.7-0.1,1.4-0.1,2.1c0,0.7,0.1,1.4,0.1,2.1c0,0.1,0,0.2-0.2,0.2c-1.1,0-2.2,0.1-3.2,0.2
		c-3.1,0.2-6.1,0.7-9,1.6c-0.9,0.3-1.8,0.7-2.6,1.1c-0.2,0.1-0.2,0.1-0.3-0.1c-0.3-0.7-0.4-1.4-0.5-2.1c-0.1-0.8-0.2-1.6-0.2-2.5
		c0-0.1,0-0.2,0.1-0.3c0.4-0.5,0.9-0.8,1.4-1.2c1.1-0.7,2-1.5,2.8-2.5c0.4-0.5,1-0.8,1.5-1.2c1.2-0.7,2.5-1.4,3.8-1.9
		c0.7-0.3,1.4-0.4,2.1-0.5c1.1-0.2,2.2-0.3,3.3-0.6c0.5-0.1,0.5-0.1,0.6,0.4c0.1,0.9,0.2,1.7,0.3,2.6C82.4,59.8,82.4,60.6,82.4,61.4
		z"/>
	<path fill="#18FFFF" d="M48.2,92.5c0.4,0.4,0.7,0.7,0.8,1.2c0.1,0.8,0.3,1.6,0.5,2.4c0.2,0.6,0.5,0.8,1.2,0.9
		c0.7,0.1,1.4-0.1,2-0.3c0.6-0.2,1.2-0.3,1.9-0.3c0.8,0,1.7,0,2.5-0.1c0.9-0.1,1.6-0.5,2-1.4c0.6-1.4,1.2-2.8,1.5-4.3
		c0.1-0.8,0.1-1.5-0.1-2.2c-0.2-1-0.4-2-0.5-3.1c-0.1-0.5-0.1-1-0.2-1.5c-0.1-0.5,0.1-1,0.2-1.5c0.1-0.3,0.1-0.7,0.2-1
		c0-0.2,0.1-0.2,0.2-0.1c0.6,0.3,1.2,0.4,1.9,0.3c0.3,0,0.3,0.1,0.4,0.3c0.4,1,1.1,1.8,1.8,2.6c0.5,0.5,1,1,1.6,1.4
		c0.1,0.1,0.2,0.2,0.1,0.3c-0.3,0.9-0.5,1.8-0.6,2.7c-0.1,0.7,0,1.4,0.1,2.1c0,0.2,0.1,0.4,0.1,0.6c0,0.3,0,0.6-0.2,0.9
		c-0.4,0.7-0.9,1.4-1.6,2c-0.6,0.5-1.2,1.1-1.8,1.5c-0.5,0.4-1,0.5-1.6,0.5c-0.8,0-1.6,0.2-2.3,0.6c-0.4,0.2-0.8,0.3-1.3,0.3
		c-1.2,0-2.4-0.1-3.6,0c-0.2,0-0.5,0.1-0.7,0.2c-0.5,0.2-1,0.4-1.5,0.4c-1,0.1-1.9-0.3-2.5-1.1c-0.6-0.8-1.2-1.7-1.7-2.6
		c-0.3-0.6-0.2-0.5,0.2-0.7C47.9,93.4,48.2,93.1,48.2,92.5z"/>
	<path fill="#18FFFF" d="M107.3,80.8c0,0.5-0.1,0.9-0.1,1.4c0,0.4-0.1,0.7-0.2,1c0,0.3,0.1,0.5,0.3,0.7c0.1,0.2,0.3,0.4,0.4,0.5
		c0.4,0.4,0.5,0.9,0.6,1.4c0.1,0.9,0.1,1.8,0,2.7c-0.1,0.8-0.4,1.4-0.7,2.1c-0.3,0.6-0.6,1.2-0.9,1.8c-0.5,1-0.4,1.6,0.6,2.4
		c0.7,0.5,1.4,1,2.2,1.4c0.4,0.2,0.7,0.6,1,0.9c0.4,0.4,0.9,0.6,1.5,0.6c0.7,0,1.2-0.3,1.6-0.8c0.1-0.1,0.2-0.3,0.3-0.4
		c0.4-0.9,1.1-1.5,1.8-2.2c0.2-0.2,0.2-0.1,0.3,0.1c0.1,0.3,0.2,0.6,0.3,0.9c0,0.1,0,0.2-0.1,0.3c-0.6,0.3-1,0.8-1.4,1.3
		c-0.2,0.2-0.3,0.5-0.3,0.8c-0.2,0.9-0.7,1.4-1.5,1.8c-0.1,0.1-0.2,0.1-0.4,0.1c-0.8-0.3-1.6-0.5-2.5-0.5c-0.5,0-1-0.3-1.4-0.5
		c-0.8-0.4-1.6-1-2.4-1.5c-0.7-0.4-1.4-0.7-2.1-1.2c-0.2-0.2-0.5-0.4-0.7-0.6c-0.4-0.3-0.4-0.8-0.4-1.2c0.1-1,0.5-1.9,0.7-2.9
		c0.2-1.3,0.2-2.5-0.5-3.7c-0.3-0.5-0.4-1.1-0.5-1.8c-0.1-0.6-0.1-1.3-0.1-1.9c0-0.1,0-0.2,0.1-0.3c0.6-0.7,1.1-1.5,1.5-2.4
		c0-0.1,0.1-0.1,0.2-0.1C105.4,81.1,106.4,81.1,107.3,80.8z"/>
	<path fill="#18FFFF" d="M105.4,76.6c-0.1,0-0.2,0-0.2,0c-0.6,0-0.7,0-0.8-0.7c-0.3-1.9-1-3.6-2.2-5.2c-1-1.2-2.1-2.2-3.6-2.9
		c-0.2-0.1-0.2-0.1-0.1-0.3c0.7-1.5,1.3-3.1,2-4.5c0.1-0.2,0.1-0.2,0.3-0.1c0.5,0.4,1,0.7,1.5,1c0.7,0.5,1.2,1.1,1.4,1.9
		c0.3,0.8,0.5,1.6,0.8,2.5c0.1,0.2,0,0.2-0.1,0.2c-0.3,0-0.6,0.1-0.8,0.2c-0.2,0-0.2,0.1-0.1,0.3c0.5,1.1,1,2.2,1.6,3.4
		c0.5,1.2,0.8,2.5,0.8,3.8C105.9,76.7,105.9,76.6,105.4,76.6z"/>
	<path fill="#18FFFF" d="M87.1,86.5c-0.7,0-1.3-0.2-1.9-0.3c-1.3-0.2-2.6-0.2-3.9,0.2c-0.5,0.2-1.1,0.2-1.7,0.2
		c-1.3-0.1-1.4-1.2-1.2-2c0.2-0.6,0.7-1,1.2-1.4c0.2-0.1,0.4-0.2,0.6-0.3c0.4-0.2,0.8-0.3,1.3,0c1.4,0.7,2.9,0.6,4.3,0
		c0.1-0.1,0.2-0.1,0.3-0.2c0.2-0.2,0.4-0.2,0.6-0.1c0.6,0.2,1.1,0.5,1.6,1c0.6,0.7,0.7,1.4,0.4,2.2C88.4,86.4,87.8,86.5,87.1,86.5z"
		/>
	<path fill="#18FFFF" d="M66.1,64.1c0,0.5,0.1,0.9,0.1,1.3c0.1,1.1,0.2,2.2,0.7,3.2c0,0.1,0,0.1,0.1,0.2C67,69,67,69,66.9,69.1
		c-1,0.7-1.9,1.5-2.6,2.6c-0.9,1.3-1.5,2.8-1.8,4.3c-0.1,0.3-0.1,0.7-0.2,1c0,0.1,0,0.1-0.1,0.1c-0.4,0.1-0.8,0.1-1.2,0.1
		c-0.1,0-0.1,0-0.1-0.2c0.4-2.2,1-4.4,2.3-6.3c0.3-0.5,0.6-1,0.9-1.4c0.1-0.1,0.1-0.2-0.1-0.2c-0.3-0.1-0.6-0.2-1-0.2
		c-0.1,0-0.2-0.1-0.1-0.2c0.2-0.8,0.3-1.5,0.6-2.2c0.3-0.9,1-1.4,1.8-1.9C65.5,64.3,65.8,64.2,66.1,64.1z"/>
	<path fill="#18FFFF" d="M63.2,69.5c-0.5,0.8-1,1.5-1.4,2.3c-0.1,0.1-0.1,0.1-0.2,0.1c-0.3,0-0.5-0.1-0.8,0c-0.9,0.1-1.3,0.8-1,1.7
		c0.1,0.4,0.5,0.7,0.8,1c0.1,0.1,0.2,0.1,0.1,0.3c-0.2,0.6-0.3,1.3-0.5,2c0,0.1,0,0.2-0.2,0.1c-1.2-0.4-2.2-1.1-2.6-2.4
		c-0.4-1.2,0.1-3.7,1.7-4.6c0.9-0.5,1.8-0.6,2.8-0.6C62.3,69.3,62.7,69.4,63.2,69.5z"/>
	<path fill="#18FFFF" d="M109.5,73.1c0,1.5-0.9,2.7-2.5,3c-0.5,0.1-0.5,0.1-0.5-0.4c0-0.4,0-0.9-0.1-1.3c0-0.1,0-0.2,0.2-0.3
		c0.5-0.2,0.9-0.5,1.1-1.1c0.2-0.8-0.3-1.6-1.2-1.7c-0.3,0-0.6,0-0.9,0c-0.1,0-0.2,0-0.2-0.1c-0.3-0.6-0.6-1.2-0.9-1.9
		c0-0.1-0.1-0.2,0.1-0.2c1-0.2,2-0.2,3,0.3c1,0.5,1.5,1.4,1.8,2.4C109.4,72.3,109.5,72.7,109.5,73.1z"/>
	<path fill="#18FFFF" d="M83.1,88.7c0,0.6,0,1.2,0,1.7c0,0.2,0,0.3-0.2,0.4c-0.4,0.4-0.8,0.6-1.3,0.8c-0.4,0.1-0.8,0-1.1-0.3
		c-0.2-0.2-0.3-0.4-0.3-0.7c0.1-1.1,0.1-2.1,0.1-3.2c0-0.1,0-0.2,0.1-0.2c0.6,0,1.1-0.3,1.7-0.4c0.2,0,0.5-0.1,0.7-0.1
		c0.2,0,0.3,0,0.2,0.2C83.1,87.6,83.1,88.2,83.1,88.7C83.1,88.7,83.1,88.7,83.1,88.7z"/>
	<path fill="#18FFFF" d="M83.8,88.8c0-0.6,0-1.2,0-1.8c0-0.2,0-0.2,0.2-0.2c0.8,0.1,1.6,0.2,2.4,0.4c0.1,0,0.1,0.1,0.1,0.2
		c0.1,1,0.3,2.1,0.1,3.1c-0.1,0.9-0.8,1.3-1.6,1.1c-0.4-0.1-0.8-0.3-1.2-0.6c-0.1-0.1-0.1-0.2-0.1-0.3C83.8,90,83.8,89.4,83.8,88.8z
		"/>
	<path fill="#18FFFF" d="M108,77.8c0,0.5,0,0.9-0.1,1.4c-0.2,0.9-0.5,1.2-1.5,1.3c-0.6,0.1-1.2,0-1.8,0c-0.1,0-0.2,0-0.2-0.2
		c0.2-1.1,0.2-2.2,0.1-3.2c0-0.1,0-0.1,0.1-0.1c1,0.2,2,0,3-0.2c0.2,0,0.3,0,0.3,0.2C108,77.3,108,77.6,108,77.8z"/>
	<path fill="#18FFFF" d="M62,81.1c-0.5,0-0.9-0.1-1.3-0.3c-1-0.4-1.4-1.1-1.6-2.1c-0.1-0.4-0.1-0.7,0-1.1c0-0.2,0.1-0.2,0.2-0.2
		c0.7,0.1,1.4,0.1,2.1,0.1c0.2,0,0.5,0,0.7-0.1c0.1,0,0.1,0,0.1,0.1c-0.1,1.1-0.1,2.1,0.1,3.1c0.1,0.3-0.1,0.3-0.3,0.3
		C62.1,81.1,62,81.1,62,81.1z"/>
	<path fill="#18FFFF" d="M118.2,93.3c0.3,0,0.5,0.1,0.7,0.3c0.1,0.2,0.2,0.3,0,0.5c-0.2,0.2-0.4,0.3-0.6,0.4
		c-0.4,0.2-0.8,0.4-1.2,0.5c-0.1,0-0.2,0.1-0.2-0.1c0-0.1-0.2-0.3,0.1-0.3c0.3-0.1,0.5-0.2,0.7-0.3c0.1,0,0.1-0.1,0.2-0.1
		c0.1-0.1,0.2-0.1,0.1-0.3c0-0.1-0.2-0.1-0.3-0.1c-0.3,0.1-0.6,0.2-0.8,0.3c-0.3,0.1-0.3,0.1-0.4-0.2c0-0.1,0-0.1,0.1-0.2
		C117.1,93.6,117.6,93.4,118.2,93.3z"/>
	<path fill="#18FFFF" d="M101.6,76.7c0,1.2-0.2,2.4-0.8,3.4c-0.8,1.3-1.9,2.2-3.3,2.7c-1.3,0.5-2.6,0.7-3.9,0.6
		c-1.8-0.1-3.5-0.6-5.1-1.5c-1.2-0.7-2.3-1.6-3-2.8c-1.8-3-1.1-7,1.6-9.2c1.2-1,2.6-1.6,4.2-1.7c1-0.1,2,0,2.9,0.1
		c1.2,0.2,2.4,0.5,3.4,1.1c2.1,1.1,3.4,2.9,3.9,5.3C101.6,75.4,101.7,76.1,101.6,76.7z M92,82.1c1.5,0,2.8-0.4,4.1-1.3
		c2.7-1.9,3.6-5.5,2-8.4c-1.9-3.5-6.6-4.7-10-2.5c-2.7,1.7-3.8,4.9-2.7,7.8C86.4,80.4,89.1,82.1,92,82.1z M92.1,82.8
		c0.1,0,0.2,0,0.3,0c1.6,0.2,3.3,0.2,4.8-0.4c1.7-0.6,3-1.8,3.6-3.6c0.3-1.1,0.3-2.2,0.2-3.3c-0.3-2.6-1.5-4.5-3.9-5.7
		c-0.3-0.2-0.7-0.3-1.1-0.4c3.2,2.1,3.8,5.6,3,8C98.1,80.8,95.7,82.4,92.1,82.8z"/>
	<path fill="#18FFFF" d="M64.8,77.6c0-2.3,0.8-4.2,2.5-5.7c1.3-1.2,2.8-2,4.5-2.5c2.2-0.7,4.3-0.5,6.3,0.6c2,1.1,3.2,2.8,3.6,5.1
		c0.4,2.5-0.4,4.6-2.2,6.3c-1.1,1-2.3,1.9-3.7,2.4c-1.3,0.5-2.6,0.7-4,0.6c-1.7-0.1-3.3-0.6-4.7-1.7c-1.3-1.1-2.1-2.4-2.3-4.1
		c0-0.2,0-0.4,0-0.5C64.8,77.9,64.8,77.8,64.8,77.6z M74.4,82.8c0.9,0,1.9-0.2,2.8-0.6c4.2-1.8,5.4-7,2.3-10.4
		c-2.6-2.9-7.2-3.1-10-0.4c-1.9,1.8-2.6,4.5-1.7,7C68.8,81,71.3,82.8,74.4,82.8z M68.3,71.7c-0.2,0-0.2,0.1-0.3,0.2
		c-1.9,1.6-2.9,3.7-2.7,6.2c0.1,2.4,1.3,4.1,3.4,5.1c2,1,4.1,1.1,6.2,0.5c0.3-0.1,0.6-0.2,0.9-0.3c-3.3,0.4-6-0.5-7.8-3.3
		C66.1,77.3,66.4,74.4,68.3,71.7z"/>
	<path fill="#18FFFF" d="M95.8,78.1c-1.3,0-2.4-1-2.3-2.4c0-1.3,1.1-2.3,2.4-2.3c1.3,0,2.3,1.1,2.3,2.3
		C98.1,77.1,97.1,78.1,95.8,78.1z M97,76.2c0-0.3-0.2-0.5-0.5-0.5c-0.3,0-0.6,0.2-0.6,0.5c0,0.3,0.2,0.5,0.5,0.5
		C96.8,76.7,97,76.5,97,76.2z"/>
	<path fill="#18FFFF" d="M75.8,76.5c0-1.3,1.1-2.4,2.4-2.3c1.3,0,2.3,1.1,2.2,2.4c0,1.3-1.1,2.3-2.4,2.3
		C76.8,78.8,75.7,77.7,75.8,76.5z M78.9,76.3c-0.3,0-0.5,0.2-0.5,0.5c0,0.3,0.2,0.5,0.5,0.5c0.3,0,0.5-0.2,0.5-0.6
		C79.4,76.5,79.2,76.3,78.9,76.3z"/>
</g>
</svg>
