<?xml version="1.0" encoding="utf-8"?>
<!-- Generator: Adobe Illustrator 18.1.1, SVG Export Plug-In . SVG Version: 6.00 Build 0)  -->
<svg version="1.1" id="Слой_1" xmlns="http://www.w3.org/2000/svg" xmlns:xlink="http://www.w3.org/1999/xlink" x="0px" y="0px"
	 viewBox="0 0 382 354" enable-background="new 0 0 382 354" xml:space="preserve">
<line fill="none" stroke="#18FFFF" stroke-width="2" stroke-miterlimit="10" x1="150" y1="178.5" x2="196.8" y2="178.5"/>
<g>
	<g>
		<path fill="#18FFFF" d="M149.3,188.1c-1-0.1-1.7-1-1.5-1.9c0.1-0.9,1-1.6,1.9-1.5c1,0.1,1.7,0.9,1.6,1.9
			C151.2,187.6,150.3,188.3,149.3,188.1z"/>
		<path fill="#18FFFF" d="M147.5,196.4c-0.9-0.3-1.5-1.2-1.3-2.1c0.2-0.9,1.1-1.4,2.1-1.2c1,0.2,1.5,1.1,1.3,2.1
			C149.5,196.2,148.5,196.7,147.5,196.4z"/>
		<path fill="#18FFFF" d="M144.7,204.4c-0.9-0.4-1.3-1.4-1-2.2c0.3-0.8,1.3-1.3,2.3-0.9c0.9,0.3,1.4,1.3,1,2.2
			C146.6,204.4,145.6,204.8,144.7,204.4z"/>
		<path fill="#18FFFF" d="M140.9,212c-0.8-0.5-1.1-1.5-0.7-2.3c0.5-0.8,1.5-1.1,2.3-0.6c0.9,0.4,1.2,1.5,0.7,2.4
			C142.8,212.2,141.7,212.5,140.9,212z"/>
		<path fill="#18FFFF" d="M136.1,219c-0.8-0.6-0.9-1.7-0.4-2.4c0.5-0.7,1.6-0.9,2.4-0.3c0.8,0.6,1,1.6,0.4,2.4
			C138,219.5,136.9,219.6,136.1,219z"/>
		<path fill="#18FFFF" d="M130.5,225.4c-0.7-0.7-0.7-1.8-0.1-2.4c0.6-0.7,1.7-0.7,2.4,0c0.7,0.7,0.8,1.7,0.1,2.4
			C132.3,226.1,131.2,226.1,130.5,225.4z"/>
		<path fill="#18FFFF" d="M124.1,230.9c-0.6-0.8-0.5-1.9,0.2-2.4c0.7-0.5,1.8-0.5,2.4,0.3c0.6,0.7,0.6,1.9-0.2,2.5
			C125.8,231.8,124.7,231.7,124.1,230.9z"/>
		<path fill="#18FFFF" d="M117,235.6c-0.5-0.9-0.2-1.9,0.5-2.4c0.8-0.5,1.8-0.2,2.4,0.6c0.5,0.8,0.3,1.9-0.5,2.4
			C118.6,236.8,117.5,236.5,117,235.6z"/>
	</g>
	<g>
		<path fill="#18FFFF" d="M108.3,239.8c-0.4-0.9,0-1.9,0.9-2.3c0.8-0.4,1.8,0,2.2,0.9c0.4,0.9,0,1.9-0.9,2.3
			C109.7,241.2,108.7,240.7,108.3,239.8z"/>
		<path fill="#18FFFF" d="M100.2,242.5c-0.2-0.9,0.3-1.9,1.2-2.1c0.9-0.2,1.8,0.3,2.1,1.2c0.3,0.9-0.2,1.9-1.2,2.2
			C101.4,244,100.5,243.4,100.2,242.5z"/>
		<path fill="#18FFFF" d="M91.9,244c-0.1-1,0.5-1.8,1.4-2c0.9-0.1,1.8,0.5,1.9,1.5c0.2,0.9-0.5,1.9-1.4,2
			C92.9,245.6,92,245,91.9,244z"/>
		<path fill="#18FFFF" d="M83.4,244.5c0-1,0.8-1.7,1.7-1.8c0.9,0,1.7,0.7,1.7,1.7c0,1-0.7,1.8-1.7,1.8
			C84.2,246.3,83.4,245.4,83.4,244.5z"/>
		<path fill="#18FFFF" d="M75,243.8c0.1-1,1-1.7,1.9-1.5c0.9,0.1,1.6,0.9,1.5,1.9c-0.1,1-0.9,1.7-1.9,1.6
			C75.5,245.7,74.8,244.8,75,243.8z"/>
		<path fill="#18FFFF" d="M66.7,242.2c0.3-0.9,1.2-1.5,2.1-1.3c0.9,0.2,1.4,1.1,1.2,2.1s-1.1,1.5-2.1,1.3
			C66.9,244.1,66.4,243.1,66.7,242.2z"/>
		<path fill="#18FFFF" d="M58.6,239.4c0.4-0.9,1.4-1.4,2.2-1c0.8,0.3,1.3,1.3,1,2.2c-0.3,0.9-1.3,1.4-2.2,1
			C58.7,241.3,58.2,240.3,58.6,239.4z"/>
		<path fill="#18FFFF" d="M51,235.6c0.5-0.8,1.5-1.2,2.3-0.7c0.8,0.4,1.1,1.5,0.7,2.3c-0.4,0.9-1.5,1.2-2.4,0.8
			C50.8,237.5,50.5,236.5,51,235.6z"/>
	</g>
	<g>
		<path fill="#18FFFF" d="M43,230.2c0.6-0.8,1.7-0.9,2.4-0.4c0.7,0.5,0.9,1.6,0.3,2.4c-0.6,0.8-1.7,1-2.4,0.4
			C42.5,232,42.4,230.9,43,230.2z"/>
		<path fill="#18FFFF" d="M36.7,224.5c0.7-0.7,1.8-0.7,2.4-0.1c0.7,0.6,0.7,1.7,0,2.4s-1.8,0.8-2.5,0.1
			C36,226.3,36,225.2,36.7,224.5z"/>
		<path fill="#18FFFF" d="M31.2,218.1c0.8-0.6,1.9-0.5,2.4,0.2c0.6,0.7,0.4,1.8-0.3,2.4c-0.8,0.6-1.9,0.5-2.4-0.2
			C30.3,219.7,30.4,218.6,31.2,218.1z"/>
		<path fill="#18FFFF" d="M26.6,211c0.8-0.5,1.9-0.2,2.4,0.6c0.5,0.8,0.2,1.8-0.6,2.3c-0.8,0.5-1.9,0.3-2.4-0.5
			C25.4,212.5,25.7,211.4,26.6,211z"/>
		<path fill="#18FFFF" d="M22.9,203.3c0.9-0.4,1.9,0,2.3,0.9c0.4,0.8,0,1.8-0.9,2.3s-1.9,0-2.3-0.8C21.5,204.7,22,203.7,22.9,203.3z
			"/>
		<path fill="#18FFFF" d="M20.2,195.3c0.9-0.2,1.9,0.3,2.2,1.1c0.2,0.9-0.3,1.8-1.2,2.1c-0.9,0.3-1.9-0.2-2.2-1.1
			C18.7,196.5,19.2,195.5,20.2,195.3z"/>
		<path fill="#18FFFF" d="M18.6,186.9c1-0.1,1.8,0.5,2,1.4c0.2,0.9-0.5,1.8-1.4,1.9c-1,0.2-1.9-0.5-2-1.4
			C16.9,187.9,17.6,187.1,18.6,186.9z"/>
		<path fill="#18FFFF" d="M18,178.5c1,0,1.8,0.7,1.8,1.7c0,0.9-0.7,1.7-1.7,1.7s-1.8-0.7-1.8-1.7C16.3,179.3,17,178.5,18,178.5z"/>
	</g>
	<g>
		<path fill="#18FFFF" d="M18.7,168.8c1,0.1,1.7,1,1.5,1.9c-0.1,0.9-1,1.6-1.9,1.5c-1-0.1-1.7-0.9-1.6-1.9
			C16.9,169.3,17.8,168.7,18.7,168.8z"/>
		<path fill="#18FFFF" d="M20.5,160.5c0.9,0.3,1.5,1.2,1.3,2.1c-0.2,0.9-1.1,1.4-2.1,1.2s-1.5-1.1-1.3-2.1
			C18.6,160.8,19.6,160.3,20.5,160.5z"/>
		<path fill="#18FFFF" d="M23.3,152.5c0.9,0.4,1.3,1.4,1,2.2c-0.3,0.8-1.3,1.3-2.3,0.9s-1.4-1.3-1-2.2
			C21.4,152.6,22.4,152.1,23.3,152.5z"/>
		<path fill="#18FFFF" d="M27.2,145c0.8,0.5,1.1,1.5,0.7,2.3c-0.5,0.8-1.5,1.1-2.3,0.6c-0.9-0.4-1.2-1.5-0.7-2.4
			C25.3,144.7,26.3,144.5,27.2,145z"/>
		<path fill="#18FFFF" d="M31.9,138c0.8,0.6,0.9,1.7,0.4,2.4c-0.5,0.7-1.6,0.9-2.4,0.3c-0.8-0.6-1-1.6-0.4-2.4
			C30.1,137.5,31.2,137.4,31.9,138z"/>
		<path fill="#18FFFF" d="M37.6,131.6c0.7,0.7,0.7,1.8,0.1,2.4c-0.6,0.7-1.7,0.7-2.4,0c-0.7-0.7-0.8-1.7-0.1-2.4
			C35.8,130.9,36.9,130.9,37.6,131.6z"/>
		<path fill="#18FFFF" d="M44,126c0.6,0.8,0.5,1.9-0.2,2.4c-0.7,0.5-1.8,0.5-2.4-0.3c-0.6-0.7-0.6-1.9,0.2-2.5
			C42.3,125.1,43.4,125.3,44,126z"/>
		<path fill="#18FFFF" d="M51,121.3c0.5,0.9,0.2,1.9-0.5,2.4c-0.8,0.5-1.8,0.2-2.4-0.6c-0.5-0.8-0.3-1.9,0.5-2.4
			C49.5,120.2,50.5,120.5,51,121.3z"/>
	</g>
	<g>
		<path fill="#18FFFF" d="M59.7,117.1c0.4,0.9,0,1.9-0.9,2.3c-0.8,0.4-1.8,0-2.2-0.9c-0.4-0.9,0-1.9,0.9-2.3
			C58.4,115.7,59.4,116.2,59.7,117.1z"/>
		<path fill="#18FFFF" d="M67.8,114.5c0.2,0.9-0.3,1.9-1.2,2.1c-0.9,0.2-1.8-0.3-2.1-1.2c-0.3-0.9,0.2-1.9,1.2-2.2
			C66.6,113,67.6,113.5,67.8,114.5z"/>
		<path fill="#18FFFF" d="M76.1,113c0.1,1-0.5,1.8-1.4,2c-0.9,0.1-1.8-0.5-1.9-1.5c-0.2-0.9,0.5-1.9,1.4-2
			C75.2,111.3,76,112,76.1,113z"/>
		<path fill="#18FFFF" d="M84.6,112.5c0,1-0.8,1.7-1.7,1.8c-0.9,0-1.7-0.7-1.7-1.7c0-1,0.7-1.8,1.7-1.8
			C83.9,110.7,84.6,111.5,84.6,112.5z"/>
		<path fill="#18FFFF" d="M93.1,113.1c-0.1,1-1,1.7-1.9,1.5c-0.9-0.1-1.6-0.9-1.5-1.9c0.1-1,0.9-1.7,1.9-1.6
			C92.5,111.3,93.2,112.1,93.1,113.1z"/>
		<path fill="#18FFFF" d="M101.4,114.8c-0.3,0.9-1.2,1.5-2.1,1.3c-0.9-0.2-1.4-1.1-1.2-2.1s1.1-1.5,2.1-1.3
			C101.1,112.9,101.6,113.9,101.4,114.8z"/>
		<path fill="#18FFFF" d="M109.4,117.5c-0.4,0.9-1.4,1.4-2.2,1c-0.8-0.3-1.3-1.3-1-2.2c0.3-0.9,1.3-1.4,2.2-1
			C109.4,115.6,109.8,116.7,109.4,117.5z"/>
		<path fill="#18FFFF" d="M117,121.3c-0.5,0.8-1.5,1.2-2.3,0.7c-0.8-0.4-1.1-1.5-0.7-2.3c0.4-0.9,1.5-1.2,2.4-0.8
			C117.2,119.4,117.5,120.5,117,121.3z"/>
	</g>
	<g>
		<path fill="#18FFFF" d="M125,126.8c-0.6,0.8-1.7,0.9-2.4,0.4c-0.7-0.5-0.9-1.6-0.3-2.4c0.6-0.8,1.7-1,2.4-0.4
			C125.5,124.9,125.6,126,125,126.8z"/>
		<path fill="#18FFFF" d="M131.3,132.5c-0.7,0.7-1.8,0.7-2.4,0.1c-0.7-0.6-0.7-1.7,0-2.4c0.7-0.7,1.8-0.8,2.5-0.1
			C132,130.6,132,131.8,131.3,132.5z"/>
		<path fill="#18FFFF" d="M136.8,138.9c-0.8,0.6-1.9,0.5-2.4-0.2c-0.6-0.7-0.4-1.8,0.3-2.4c0.8-0.6,1.9-0.5,2.4,0.2
			C137.8,137.2,137.6,138.3,136.8,138.9z"/>
		<path fill="#18FFFF" d="M141.5,146c-0.8,0.5-1.9,0.2-2.4-0.6c-0.5-0.8-0.2-1.8,0.6-2.3c0.8-0.5,1.9-0.3,2.4,0.5
			C142.6,144.5,142.3,145.5,141.5,146z"/>
		<path fill="#18FFFF" d="M145.2,153.6c-0.9,0.4-1.9,0-2.3-0.9c-0.4-0.8,0-1.8,0.9-2.3c0.9-0.4,1.9,0,2.3,0.8
			C146.5,152.2,146.1,153.3,145.2,153.6z"/>
		<path fill="#18FFFF" d="M147.9,161.7c-0.9,0.2-1.9-0.3-2.2-1.1c-0.2-0.9,0.3-1.8,1.2-2.1c0.9-0.3,1.9,0.2,2.2,1.1
			C149.4,160.5,148.8,161.4,147.9,161.7z"/>
		<path fill="#18FFFF" d="M149.5,170c-1,0.1-1.8-0.5-2-1.4c-0.2-0.9,0.5-1.8,1.4-1.9c1-0.2,1.9,0.5,2,1.4
			C151.1,169,150.4,169.9,149.5,170z"/>
		<path fill="#18FFFF" d="M150,178.5c-1,0-1.8-0.7-1.8-1.7s0.7-1.7,1.7-1.7c1-0.1,1.8,0.7,1.8,1.7C151.8,177.7,151,178.5,150,178.5z
			"/>
	</g>
</g>
<circle fill="#18FFFF" cx="151.7" cy="178.5" r="6"/>
<g>
	<g>
		<path fill="#18FFFF" d="M362.7,85.6c-1-0.1-1.7-1-1.5-1.9c0.1-0.9,1-1.6,1.9-1.5c1,0.1,1.7,0.9,1.6,1.9
			C364.6,85.1,363.7,85.8,362.7,85.6z"/>
		<path fill="#18FFFF" d="M361,93.9c-0.9-0.3-1.5-1.2-1.3-2.1c0.2-0.9,1.1-1.4,2.1-1.2c1,0.2,1.5,1.1,1.3,2.1
			C362.9,93.7,361.9,94.2,361,93.9z"/>
		<path fill="#18FFFF" d="M358.1,101.9c-0.9-0.4-1.3-1.4-1-2.2c0.3-0.8,1.3-1.3,2.3-0.9s1.4,1.3,1,2.2
			C360.1,101.9,359.1,102.3,358.1,101.9z"/>
		<path fill="#18FFFF" d="M354.3,109.5c-0.8-0.5-1.1-1.5-0.7-2.3c0.5-0.8,1.5-1.1,2.3-0.6c0.9,0.4,1.2,1.5,0.7,2.4
			C356.2,109.7,355.1,110,354.3,109.5z"/>
		<path fill="#18FFFF" d="M349.5,116.5c-0.8-0.6-0.9-1.7-0.4-2.4c0.5-0.7,1.6-0.9,2.4-0.3c0.8,0.6,1,1.6,0.4,2.4
			C351.4,117,350.3,117.1,349.5,116.5z"/>
		<path fill="#18FFFF" d="M343.9,122.9c-0.7-0.7-0.7-1.8-0.1-2.4c0.6-0.7,1.7-0.7,2.4,0c0.7,0.7,0.8,1.7,0.1,2.4
			C345.7,123.6,344.6,123.6,343.9,122.9z"/>
		<path fill="#18FFFF" d="M337.5,128.4c-0.6-0.8-0.5-1.9,0.2-2.4c0.7-0.5,1.8-0.5,2.4,0.3c0.6,0.7,0.6,1.9-0.2,2.5
			C339.2,129.4,338.1,129.2,337.5,128.4z"/>
		<path fill="#18FFFF" d="M330.4,133.2c-0.5-0.9-0.2-1.9,0.5-2.4c0.8-0.5,1.8-0.2,2.4,0.6c0.5,0.8,0.3,1.9-0.5,2.4
			C332,134.3,330.9,134,330.4,133.2z"/>
	</g>
	<g>
		<path fill="#18FFFF" d="M321.7,137.4c-0.4-0.9,0-1.9,0.9-2.3c0.8-0.4,1.8,0,2.2,0.9c0.4,0.9,0,1.9-0.9,2.3
			C323.1,138.7,322.1,138.3,321.7,137.4z"/>
		<path fill="#18FFFF" d="M313.7,140c-0.2-0.9,0.3-1.9,1.2-2.1c0.9-0.2,1.8,0.3,2.1,1.2c0.3,0.9-0.2,1.9-1.2,2.2
			C314.9,141.5,313.9,140.9,313.7,140z"/>
		<path fill="#18FFFF" d="M305.3,141.5c-0.1-1,0.5-1.8,1.4-2c0.9-0.1,1.8,0.5,1.9,1.5c0.2,0.9-0.5,1.9-1.4,2
			C306.3,143.2,305.4,142.5,305.3,141.5z"/>
		<path fill="#18FFFF" d="M296.9,142c0-1,0.8-1.7,1.7-1.8c0.9,0,1.7,0.7,1.7,1.7c0,1-0.7,1.8-1.7,1.8
			C297.6,143.8,296.8,143,296.9,142z"/>
		<path fill="#18FFFF" d="M288.4,141.4c0.1-1,1-1.7,1.9-1.5c0.9,0.1,1.6,0.9,1.5,1.9c-0.1,1-0.9,1.7-1.9,1.6
			C288.9,143.2,288.3,142.3,288.4,141.4z"/>
		<path fill="#18FFFF" d="M280.1,139.7c0.3-0.9,1.2-1.5,2.1-1.3c0.9,0.2,1.4,1.1,1.2,2.1s-1.1,1.5-2.1,1.3
			C280.4,141.6,279.8,140.6,280.1,139.7z"/>
		<path fill="#18FFFF" d="M272.1,136.9c0.4-0.9,1.4-1.4,2.2-1c0.8,0.3,1.3,1.3,1,2.2c-0.3,0.9-1.3,1.4-2.2,1
			C272.1,138.8,271.7,137.8,272.1,136.9z"/>
		<path fill="#18FFFF" d="M264.5,133.2c0.5-0.8,1.5-1.2,2.3-0.7c0.8,0.4,1.1,1.5,0.7,2.3c-0.4,0.9-1.5,1.2-2.4,0.8
			C264.2,135.1,264,134,264.5,133.2z"/>
	</g>
	<g>
		<path fill="#18FFFF" d="M256.5,127.7c0.6-0.8,1.7-0.9,2.4-0.4c0.7,0.5,0.9,1.6,0.3,2.4c-0.6,0.8-1.7,1-2.4,0.4
			C256,129.6,255.9,128.5,256.5,127.7z"/>
		<path fill="#18FFFF" d="M250.2,122c0.7-0.7,1.8-0.7,2.4-0.1c0.7,0.6,0.7,1.7,0,2.4s-1.8,0.8-2.5,0.1
			C249.4,123.8,249.5,122.7,250.2,122z"/>
		<path fill="#18FFFF" d="M244.6,115.6c0.8-0.6,1.9-0.5,2.4,0.2c0.6,0.7,0.4,1.8-0.3,2.4c-0.8,0.6-1.9,0.5-2.4-0.2
			C243.7,117.3,243.9,116.2,244.6,115.6z"/>
		<path fill="#18FFFF" d="M240,108.5c0.8-0.5,1.9-0.2,2.4,0.6c0.5,0.8,0.2,1.8-0.6,2.3c-0.8,0.5-1.9,0.3-2.4-0.5
			C238.9,110,239.2,109,240,108.5z"/>
		<path fill="#18FFFF" d="M236.3,100.8c0.9-0.4,1.9,0,2.3,0.9c0.4,0.8,0,1.8-0.9,2.3c-0.9,0.4-1.9,0-2.3-0.8
			C234.9,102.2,235.4,101.2,236.3,100.8z"/>
		<path fill="#18FFFF" d="M233.6,92.8c0.9-0.2,1.9,0.3,2.2,1.1c0.2,0.9-0.3,1.8-1.2,2.1c-0.9,0.3-1.9-0.2-2.2-1.1
			C232.1,94,232.7,93,233.6,92.8z"/>
		<path fill="#18FFFF" d="M232,84.5c1-0.1,1.8,0.5,2,1.4c0.2,0.9-0.5,1.8-1.4,1.9c-1,0.2-1.9-0.5-2-1.4
			C230.4,85.5,231,84.6,232,84.5z"/>
		<path fill="#18FFFF" d="M231.5,76c1,0,1.8,0.7,1.8,1.7c0,0.9-0.7,1.7-1.7,1.7s-1.8-0.7-1.8-1.7C229.7,76.8,230.5,76,231.5,76z"/>
	</g>
	<g>
		<path fill="#18FFFF" d="M232.2,66.4c1,0.1,1.7,1,1.5,1.9c-0.1,0.9-1,1.6-1.9,1.5c-1-0.1-1.7-0.9-1.6-1.9
			C230.3,66.9,231.2,66.2,232.2,66.4z"/>
		<path fill="#18FFFF" d="M233.9,58.1c0.9,0.3,1.5,1.2,1.3,2.1c-0.2,0.9-1.1,1.4-2.1,1.2c-1-0.2-1.5-1.1-1.3-2.1
			C232,58.3,233,57.8,233.9,58.1z"/>
		<path fill="#18FFFF" d="M236.8,50.1c0.9,0.4,1.3,1.4,1,2.2c-0.3,0.8-1.3,1.3-2.3,0.9c-0.9-0.3-1.4-1.3-1-2.2
			C234.8,50.1,235.8,49.7,236.8,50.1z"/>
		<path fill="#18FFFF" d="M240.6,42.5c0.8,0.5,1.1,1.5,0.7,2.3c-0.5,0.8-1.5,1.1-2.3,0.6c-0.9-0.4-1.2-1.5-0.7-2.4
			C238.7,42.3,239.8,42,240.6,42.5z"/>
		<path fill="#18FFFF" d="M245.4,35.5c0.8,0.6,0.9,1.7,0.4,2.4c-0.5,0.7-1.6,0.9-2.4,0.3c-0.8-0.6-1-1.6-0.4-2.4
			C243.5,35,244.6,34.9,245.4,35.5z"/>
		<path fill="#18FFFF" d="M251,29.1c0.7,0.7,0.7,1.8,0.1,2.4c-0.6,0.7-1.7,0.7-2.4,0s-0.8-1.7-0.1-2.4
			C249.2,28.4,250.3,28.4,251,29.1z"/>
		<path fill="#18FFFF" d="M257.4,23.6c0.6,0.8,0.5,1.9-0.2,2.4c-0.7,0.5-1.8,0.5-2.4-0.3c-0.6-0.7-0.6-1.9,0.2-2.5
			C255.7,22.6,256.8,22.8,257.4,23.6z"/>
		<path fill="#18FFFF" d="M264.5,18.8c0.5,0.9,0.2,1.9-0.5,2.4c-0.8,0.5-1.8,0.2-2.4-0.6s-0.3-1.9,0.5-2.4
			C262.9,17.7,264,18,264.5,18.8z"/>
	</g>
	<g>
		<path fill="#18FFFF" d="M273.2,14.6c0.4,0.9,0,1.9-0.9,2.3c-0.8,0.4-1.8,0-2.2-0.9c-0.4-0.9,0-1.9,0.9-2.3
			C271.8,13.3,272.8,13.7,273.2,14.6z"/>
		<path fill="#18FFFF" d="M281.2,12c0.2,0.9-0.3,1.9-1.2,2.1c-0.9,0.2-1.8-0.3-2.1-1.2c-0.3-0.9,0.2-1.9,1.2-2.2
			C280,10.5,281,11.1,281.2,12z"/>
		<path fill="#18FFFF" d="M289.6,10.5c0.1,1-0.5,1.8-1.4,2c-0.9,0.1-1.8-0.5-1.9-1.5c-0.2-0.9,0.5-1.9,1.4-2
			C288.6,8.8,289.5,9.5,289.6,10.5z"/>
		<path fill="#18FFFF" d="M298,10c0,1-0.8,1.7-1.7,1.8c-0.9,0-1.7-0.7-1.7-1.7c0-1,0.7-1.8,1.7-1.8C297.3,8.2,298.1,9,298,10z"/>
		<path fill="#18FFFF" d="M306.5,10.6c-0.1,1-1,1.7-1.9,1.5c-0.9-0.1-1.6-0.9-1.5-1.9c0.1-1,0.9-1.7,1.9-1.6
			C306,8.8,306.6,9.7,306.5,10.6z"/>
		<path fill="#18FFFF" d="M314.8,12.3c-0.3,0.9-1.2,1.5-2.1,1.3c-0.9-0.2-1.4-1.1-1.2-2.1s1.1-1.5,2.1-1.3
			C314.5,10.4,315.1,11.4,314.8,12.3z"/>
		<path fill="#18FFFF" d="M322.8,15.1c-0.4,0.9-1.4,1.4-2.2,1c-0.8-0.3-1.3-1.3-1-2.2c0.3-0.9,1.3-1.4,2.2-1
			C322.8,13.2,323.2,14.2,322.8,15.1z"/>
		<path fill="#18FFFF" d="M330.4,18.8c-0.5,0.8-1.5,1.2-2.3,0.7c-0.8-0.4-1.1-1.5-0.7-2.3c0.4-0.9,1.5-1.2,2.4-0.8
			C330.7,16.9,330.9,18,330.4,18.8z"/>
	</g>
	<g>
		<path fill="#18FFFF" d="M338.4,24.3c-0.6,0.8-1.7,0.9-2.4,0.4c-0.7-0.5-0.9-1.6-0.3-2.4c0.6-0.8,1.7-1,2.4-0.4
			C338.9,22.4,339,23.5,338.4,24.3z"/>
		<path fill="#18FFFF" d="M344.7,30c-0.7,0.7-1.8,0.7-2.4,0.1c-0.7-0.6-0.7-1.7,0-2.4c0.7-0.7,1.8-0.8,2.5-0.1
			C345.5,28.2,345.4,29.3,344.7,30z"/>
		<path fill="#18FFFF" d="M350.3,36.4c-0.8,0.6-1.9,0.5-2.4-0.2c-0.6-0.7-0.4-1.8,0.3-2.4c0.8-0.6,1.9-0.5,2.4,0.2
			C351.2,34.7,351,35.8,350.3,36.4z"/>
		<path fill="#18FFFF" d="M354.9,43.5c-0.8,0.5-1.9,0.2-2.4-0.6c-0.5-0.8-0.2-1.8,0.6-2.3c0.8-0.5,1.9-0.3,2.4,0.5
			C356,42,355.7,43,354.9,43.5z"/>
		<path fill="#18FFFF" d="M358.6,51.2c-0.9,0.4-1.9,0-2.3-0.9c-0.4-0.8,0-1.8,0.9-2.3c0.9-0.4,1.9,0,2.3,0.8
			C360,49.8,359.5,50.8,358.6,51.2z"/>
		<path fill="#18FFFF" d="M361.3,59.2c-0.9,0.2-1.9-0.3-2.2-1.1c-0.2-0.9,0.3-1.8,1.2-2.1c0.9-0.3,1.9,0.2,2.2,1.1
			C362.8,58,362.2,59,361.3,59.2z"/>
		<path fill="#18FFFF" d="M362.9,67.5c-1,0.1-1.8-0.5-2-1.4c-0.2-0.9,0.5-1.8,1.4-1.9c1-0.2,1.9,0.5,2,1.4
			C364.5,66.5,363.9,67.4,362.9,67.5z"/>
		<path fill="#18FFFF" d="M363.5,76c-1,0-1.8-0.7-1.8-1.7c0-0.9,0.7-1.7,1.7-1.7s1.8,0.7,1.8,1.7C365.2,75.2,364.4,76,363.5,76z"/>
	</g>
</g>
<circle fill="#18FFFF" cx="230.5" cy="76" r="6"/>
<circle fill="#18FFFF" cx="196.8" cy="178.5" r="6"/>
<g>
	<path fill="#18FFFF" d="M329,279.5c-3.2-3.4-7-3.8-11.1-2.3c-0.7,0.2-1.3,0.7-1.9,1c-1-0.5-2-0.2-3-0.2c-0.5,0-1.2-0.2-1.6,0.3
		c-0.1-0.1-0.2-0.2-0.4-0.3c0-3.6,0-7.3,0-10.9c1.1-0.3,2.2-0.2,3.2-0.2c2.9,0,5.7,0,8.6,0c1.9,0,3.8-0.2,5.8,0.2
		c0.4,2.2,0.7,4.4,0.7,6.6c0,1.6,0,3.2,0,4.8C329.3,278.8,329.5,279.3,329,279.5z"/>
	<path fill="#18FFFF" d="M297.9,279.5c-0.1-2.4-0.1-2.4-2.5-2.4c-0.9,0-1.8,0.1-2.7,0c-0.9-0.1-1.4,0.2-1.2,1.2
		c0,0.2-0.1,0.4-0.1,0.6c-0.4-0.1-0.8,0.2-1.1,0.2c0-3.9,0-7.9,0-11.8c0.6-0.2,1.2-0.2,1.8-0.2c5.2,0,10.4,0,15.6,0
		c0,3.1,0,6.3,0,9.4c-1.3,0-2.7-0.1-4,0.1c-2.1,0.4-3.8,1.5-5.3,2.9C298.2,279.5,298.1,279.5,297.9,279.5z"/>
	<path fill="#18FFFF" d="M298,301.8c0-4.2-0.2-8.3,0.1-12.5c3.3,0,6.5,0,9.8,0c0,4.1,0,8.3,0,12.4
		C304.5,301.8,301.3,301.8,298,301.8z"/>
	<path fill="#18FFFF" d="M324.1,290.6c0,3.7,0,7.4,0,11.1c-3.2,0-6.5,0-9.7,0c0-3.7,0-7.4,0-11.1
		C317.7,290.6,320.9,290.6,324.1,290.6z"/>
	<path fill="#18FFFF" d="M290.3,267.3c0,3.9,0,7.9,0,11.8c0,2.5,0,5.1,0,7.6c0,0.9,0.3,1.2,1.2,1.2c0.1,4.7,0.2,9.3,0,14
		c-1.8,0-1.8,0-1.8-1.9c0-14.6,0-29.1,0-43.7c0-1.1,0.3-1.4,1.4-1.4c5.3,0.1,10.5,0,15.8,0c1.6,0,1.6,0,1.6,1.6c0,6.7,0,13.4,0,20.2
		c-0.2-0.1-0.4-0.1-0.7-0.2c0-3.1,0-6.3,0-9.4c0-3.4,0-6.8,0-10.2c0-0.7-0.2-0.9-0.9-0.9c-5.2,0-10.5,0-15.7,0
		c-0.7,0-0.9,0.2-0.9,0.9C290.2,260.3,290.2,263.8,290.3,267.3z"/>
	<path fill="#18FFFF" d="M287,278.4c0,7.6,0,15.1,0,22.7c0,1-0.2,1.2-1.2,1.2c-6.1,0-12.1,0-18.2,0c-0.6,0-1.1,0.1-1.1-0.9
		c0-9.7,0-19.4,0.1-29c0.1-5,1.4-9.6,5-13.3c2.4-2.5,5.3-3.6,8.5-4.2c2-0.4,4-0.5,6-0.5c0.9,0,1.1,0.3,1.1,1.2c0,7.6,0,15.2,0,22.8
		C287.1,278.4,287,278.4,287,278.4z M286.5,275.4C286.5,275.4,286.5,275.4,286.5,275.4c0-6.4,0-12.8,0-19.2c0-1-0.4-1.4-1.3-1.2
		c-0.9,0.2-1.7,0.1-2.6,0.1c-3.1,0.3-6.1,0.9-8.6,2.7c-4.5,3.2-6.7,8-6.8,13.4c-0.2,9.9-0.1,19.8-0.1,29.8c0,0.6,0.2,0.9,0.9,0.9
		c5.9,0,11.7,0,17.6,0c0.6,0,0.8-0.2,0.8-0.8c0-2.5,0.1-5.1,0.2-7.6C286.6,287.4,286.5,281.4,286.5,275.4z"/>
	<path fill="#18FFFF" d="M324.1,290.6c-3.2,0-6.5,0-9.7,0c0-1.9,0-3.8,0.9-5.5c1.1-2,2.8-2.9,5-2.7c1.7,0.1,2.8,1.1,3.2,2.6
		C324.2,286.8,324.3,288.7,324.1,290.6z"/>
	<path fill="#18FFFF" d="M307.8,289.3c-3.3,0-6.5,0-9.8,0c0-1.7,0.3-3.3,1.2-4.8c1.1-1.7,3.2-2.6,5-2.1c2,0.5,2.9,1.9,3.2,3.8
		C307.8,287.2,307.9,288.3,307.8,289.3z"/>
	<path fill="#18FFFF" d="M308.4,276.7c0-6.7,0-13.4,0-20.2c0-1.6,0-1.6-1.6-1.6c-5.3,0-10.5,0-15.8,0c-1.1,0-1.4,0.2-1.4,1.4
		c0,14.6,0,29.1,0,43.7c0,1.8,0,1.8,1.8,1.9c0.1,0.3,0,0.5-0.3,0.5c-1.8,0.3-2.1,0.1-2.1-1.8c0-14.9,0-29.9,0-44.8
		c0-1,0.2-1.3,1.2-1.3c5.8,0.1,11.6,0,17.5,0c0.9,0,1.2,0.1,1.2,1.1c0,6.8,0,13.5,0,20.3C308.8,276.1,309.2,276.7,308.4,276.7z"/>
	<path fill="#18FFFF" d="M311,267.1c0,3.6,0,7.3,0,10.9c-0.2-0.1-0.4-0.3-0.7-0.4c0-7.2,0-14.4,0-21.6c0-0.8,0.2-1.2,1.1-1.1
		c1.5,0.2,3,0.3,4.5,0.4c6.9,0.8,11.2,4.7,13.1,11.3c1.4,4.7,0.9,9.6,0.9,14.5c-0.3-0.5-0.6-1.1-0.9-1.6c0.5-0.3,0.3-0.7,0.3-1.1
		c0-1.6,0-3.2,0-4.8c0-2.2-0.3-4.4-0.7-6.6c-0.9-3.6-2.8-6.5-5.8-8.6c-3.4-2.3-7.3-2.6-11.3-2.6c-0.7,0-0.6,0.5-0.6,0.9
		C311,260.2,311,263.6,311,267.1z"/>
	<path fill="#18FFFF" d="M329.9,281.1c0-4.8,0.5-9.7-0.9-14.5c-1.9-6.7-6.2-10.6-13.1-11.3c-1.5-0.2-3-0.3-4.5-0.4
		c-0.9-0.1-1.1,0.3-1.1,1.1c0,7.2,0,14.4,0,21.6c-0.5-0.1-0.4-0.5-0.4-0.9c0-7.1,0-14.2-0.1-21.4c0-0.4-0.1-0.9,0.6-0.9
		c4.4-0.1,8.8,0.3,12.7,2.8c3.9,2.6,6,6.4,6.9,10.9c0.9,4.8,0.3,9.6,0.3,14.4C330.1,282,330,281.6,329.9,281.1z"/>
	<path fill="#18FFFF" d="M291.4,287.8c-0.9,0.1-1.2-0.2-1.2-1.2c0.1-2.5,0-5.1,0-7.6c0.4,0,0.7-0.3,1.1-0.2
		C291.5,281.9,291.6,284.8,291.4,287.8z"/>
	<path fill="#18FFFF" d="M311.3,278.3c0.5-0.5,1.1-0.3,1.6-0.3c1,0,2.1-0.3,3,0.2c-0.8,0.7-1.6,1.3-2.2,2.2c-0.3,0.4-0.5,0.5-0.8,0
		C312.6,279.6,312,278.9,311.3,278.3z"/>
	<path fill="#18FFFF" d="M298,301.8c3.3,0,6.6,0,9.9,0c0.1,0.5-0.2,0.5-0.6,0.5c-2.9,0-5.8,0-8.7,0
		C298.2,302.3,297.8,302.3,298,301.8z"/>
	<path fill="#18FFFF" d="M314.4,301.8c3.2,0,6.5,0,9.7,0c0.1,0.5-0.2,0.5-0.6,0.5c-2.9,0-5.7,0-8.6,0
		C314.6,302.3,314.3,302.3,314.4,301.8z"/>
	<path fill="#18FFFF" d="M311,267.1c0-3.4,0-6.8,0-10.2c0-0.4-0.1-0.9,0.6-0.9c4-0.1,7.9,0.3,11.3,2.6c3,2.1,4.9,5,5.8,8.6
		c-1.9-0.4-3.8-0.2-5.8-0.2c-2.9,0-5.7,0-8.6,0C313.2,266.9,312.1,266.8,311,267.1z"/>
	<path fill="#18FFFF" d="M290.3,267.3c0-3.5,0-7,0-10.5c0-0.7,0.2-0.9,0.9-0.9c5.2,0,10.5,0,15.7,0c0.7,0,0.9,0.2,0.9,0.9
		c0,3.4,0,6.8,0,10.2c-5.2,0-10.4,0-15.6,0C291.4,267.1,290.8,267.1,290.3,267.3z"/>
	<path fill="#18FFFF" d="M286.5,275.4c0,6,0.1,12,0,18c0,2.5-0.2,5.1-0.2,7.6c0,0.6-0.2,0.8-0.8,0.8c-5.9,0-11.7,0-17.6,0
		c-0.7,0-0.9-0.3-0.9-0.9c0-9.9-0.1-19.8,0.1-29.8c0.1-5.4,2.3-10.1,6.8-13.4c2.5-1.8,5.6-2.4,8.6-2.7c0.9-0.1,1.7,0,2.6-0.1
		c1-0.2,1.3,0.2,1.3,1.2C286.5,262.6,286.5,269,286.5,275.4C286.5,275.4,286.5,275.4,286.5,275.4z M268.2,268.3
		c-0.1,0.1-0.1,0.2-0.2,0.2c-0.4,2.8-0.2,5.7-0.3,8.5c0,3.6,0,7.2,0,10.8c0,1,0,1.3,1.3,1.3c5.4-0.1,10.8-0.1,16.2,0
		c0.6,0,0.6-0.2,0.6-0.6c-0.2-3.8,0.4-7.7,0.2-11.5c0-3.1,0.2-6.1-0.2-9.2c0-0.9,0.2-1.9,0.2-2.8c0.1-2.8,0-5.6,0.1-8.4
		c0-0.6-0.2-0.8-0.8-0.8c-1.5,0-3,0-4.4,0.2c-2.5,0.4-4.9,1-7,2.5c-3,2.3-4.8,5.4-5.6,9C268.2,267.9,268.2,268.1,268.2,268.3z"/>
	<path fill="#18FFFF" d="M286.1,277.1c0.2,3.8-0.4,7.7-0.2,11.5c0,0.4,0,0.6-0.6,0.6c-5.4-0.1-10.8-0.2-16.2,0
		c-1.3,0-1.3-0.3-1.3-1.3c0-3.6,0-7.2,0-10.8c0.5-0.1,1-0.2,1.5-0.2C274.9,277,280.5,276.7,286.1,277.1z"/>
	<path fill="#18FFFF" d="M268.2,267.7c0.8-3.7,2.6-6.8,5.6-9c2.1-1.5,4.5-2.1,7-2.5c1.5-0.2,3-0.2,4.4-0.2c0.6,0,0.8,0.2,0.8,0.8
		c0,2.8,0,5.6-0.1,8.4c0,0.9-0.2,1.9-0.2,2.8c-0.6-0.2-1.1-0.2-1.7-0.2C278.8,267.7,273.5,267.7,268.2,267.7z"/>
	<path fill="#18FFFF" d="M268.2,267.7c5.3,0,10.6,0,15.9,0c0.6,0,1.2,0,1.7,0.2c0.5,3,0.2,6.1,0.2,9.2c-5.6-0.4-11.2-0.1-16.8-0.2
		c-0.5,0-1,0.1-1.5,0.2c0-2.8-0.2-5.7,0.3-8.5c0.1-0.1,0.1-0.2,0.2-0.2C268.2,268.1,268.2,267.9,268.2,267.7z"/>
	<path fill="#18FFFF" d="M268.2,268.3c-0.1,0.1-0.1,0.2-0.2,0.2C268.1,268.5,268.1,268.4,268.2,268.3z"/>
</g>
<g>
	<path fill="#18FFFF" d="M317.1,90.1c0,0-0.8,1.2-2-1.7c-1.2-2.9-5.7-11.5-8.6-16.9c-2.9-5.4-9.4-10.6-13.1-13.5
		c-3.7-2.9-9.5-4-9.5-4s-1.7,0.4-3.7-0.8c-2-1.2-2.5-2-6.3-3.2c-3.8-1.2-4-1.1-6.2,0.7c-2.2,1.7,0.8,7,1.8,8.2
		c1.1,1.2,3,4.7,3.7,6.6c0.7,1.8,2.9,8.2,4.1,8.7c1.2,0.5,0.5,2,0.5,2c-4.1,17.8,3.3,20.4,3.3,20.4c5.8,2.8,3.8-8.3,5.4-4.4
		c1.6,4,10.8,10.9,10.8,10.9l5.3-1.1l-4-4.6c2.5-1.2,9.3,0.9,14.1,3.1c5.9-0.9,12-1.2,18.1-1C327.4,94.4,317.1,90.1,317.1,90.1z
		 M290,64.9l-3.6-1.7l-1.6-4.1l5.2,4.1V64.9z"/>
	<path fill="#18FFFF" d="M319.3,97c-2.4,0.2-5,0.7-7.4,0.3c-6.4-1.1-16.6-5.7-21.1,0.4c3.1,3,6.6,5.7,6.6,5.7l5.3-1.1l-4-4.6
		c2.5-1.2,9.3,0.9,14.1,3.1c5.9-0.9,12-1.2,18.1-1c-0.4-0.6-0.9-1.2-1.5-1.8C326.3,97.1,323.1,96.6,319.3,97z"/>
</g>
<g>
	<g>
		<path fill="#18FFFF" d="M362.7,287.6c-1-0.1-1.7-1-1.5-1.9c0.1-0.9,1-1.6,1.9-1.5c1,0.1,1.7,0.9,1.6,1.9
			C364.6,287.1,363.7,287.8,362.7,287.6z"/>
		<path fill="#18FFFF" d="M361,295.9c-0.9-0.3-1.5-1.2-1.3-2.1c0.2-0.9,1.1-1.4,2.1-1.2c1,0.2,1.5,1.1,1.3,2.1
			C362.9,295.7,361.9,296.2,361,295.9z"/>
		<path fill="#18FFFF" d="M358.1,303.9c-0.9-0.4-1.3-1.4-1-2.2c0.3-0.8,1.3-1.3,2.3-0.9s1.4,1.3,1,2.2
			C360.1,303.9,359.1,304.3,358.1,303.9z"/>
		<path fill="#18FFFF" d="M354.3,311.5c-0.8-0.5-1.1-1.5-0.7-2.3c0.5-0.8,1.5-1.1,2.3-0.6c0.9,0.4,1.2,1.5,0.7,2.4
			C356.2,311.7,355.1,312,354.3,311.5z"/>
		<path fill="#18FFFF" d="M349.5,318.5c-0.8-0.6-0.9-1.7-0.4-2.4c0.5-0.7,1.6-0.9,2.4-0.3c0.8,0.6,1,1.6,0.4,2.4
			C351.4,319,350.3,319.1,349.5,318.5z"/>
		<path fill="#18FFFF" d="M343.9,324.9c-0.7-0.7-0.7-1.8-0.1-2.4c0.6-0.7,1.7-0.7,2.4,0s0.8,1.7,0.1,2.4
			C345.7,325.6,344.6,325.6,343.9,324.9z"/>
		<path fill="#18FFFF" d="M337.5,330.4c-0.6-0.8-0.5-1.9,0.2-2.4c0.7-0.5,1.8-0.5,2.4,0.3c0.6,0.7,0.6,1.9-0.2,2.5
			C339.2,331.4,338.1,331.2,337.5,330.4z"/>
		<path fill="#18FFFF" d="M330.4,335.2c-0.5-0.9-0.2-1.9,0.5-2.4c0.8-0.5,1.8-0.2,2.4,0.6c0.5,0.8,0.3,1.9-0.5,2.4
			C332,336.3,330.9,336,330.4,335.2z"/>
	</g>
	<g>
		<path fill="#18FFFF" d="M321.7,339.4c-0.4-0.9,0-1.9,0.9-2.3c0.8-0.4,1.8,0,2.2,0.9c0.4,0.9,0,1.9-0.9,2.3
			C323.1,340.7,322.1,340.3,321.7,339.4z"/>
		<path fill="#18FFFF" d="M313.7,342c-0.2-0.9,0.3-1.9,1.2-2.1c0.9-0.2,1.8,0.3,2.1,1.2c0.3,0.9-0.2,1.9-1.2,2.2
			C314.9,343.5,313.9,342.9,313.7,342z"/>
		<path fill="#18FFFF" d="M305.3,343.5c-0.1-1,0.5-1.8,1.4-2c0.9-0.1,1.8,0.5,1.9,1.5c0.2,0.9-0.5,1.9-1.4,2
			C306.3,345.2,305.4,344.5,305.3,343.5z"/>
		<path fill="#18FFFF" d="M296.9,344c0-1,0.8-1.7,1.7-1.8c0.9,0,1.7,0.7,1.7,1.7c0,1-0.7,1.8-1.7,1.8
			C297.6,345.8,296.8,345,296.9,344z"/>
		<path fill="#18FFFF" d="M288.4,343.4c0.1-1,1-1.7,1.9-1.5c0.9,0.1,1.6,0.9,1.5,1.9c-0.1,1-0.9,1.7-1.9,1.6
			C288.9,345.2,288.3,344.3,288.4,343.4z"/>
		<path fill="#18FFFF" d="M280.1,341.7c0.3-0.9,1.2-1.5,2.1-1.3c0.9,0.2,1.4,1.1,1.2,2.1s-1.1,1.5-2.1,1.3
			C280.4,343.6,279.8,342.6,280.1,341.7z"/>
		<path fill="#18FFFF" d="M272.1,338.9c0.4-0.9,1.4-1.4,2.2-1c0.8,0.3,1.3,1.3,1,2.2c-0.3,0.9-1.3,1.4-2.2,1
			C272.1,340.8,271.7,339.8,272.1,338.9z"/>
		<path fill="#18FFFF" d="M264.5,335.2c0.5-0.8,1.5-1.2,2.3-0.7c0.8,0.4,1.1,1.5,0.7,2.3c-0.4,0.9-1.5,1.2-2.4,0.8
			C264.2,337.1,264,336,264.5,335.2z"/>
	</g>
	<g>
		<path fill="#18FFFF" d="M256.5,329.7c0.6-0.8,1.7-0.9,2.4-0.4c0.7,0.5,0.9,1.6,0.3,2.4c-0.6,0.8-1.7,1-2.4,0.4
			C256,331.6,255.9,330.5,256.5,329.7z"/>
		<path fill="#18FFFF" d="M250.2,324c0.7-0.7,1.8-0.7,2.4-0.1c0.7,0.6,0.7,1.7,0,2.4s-1.8,0.8-2.5,0.1
			C249.4,325.8,249.5,324.7,250.2,324z"/>
		<path fill="#18FFFF" d="M244.6,317.6c0.8-0.6,1.9-0.5,2.4,0.2c0.6,0.7,0.4,1.8-0.3,2.4c-0.8,0.6-1.9,0.5-2.4-0.2
			C243.7,319.3,243.9,318.2,244.6,317.6z"/>
		<path fill="#18FFFF" d="M240,310.5c0.8-0.5,1.9-0.2,2.4,0.6c0.5,0.8,0.2,1.8-0.6,2.3c-0.8,0.5-1.9,0.3-2.4-0.5
			C238.9,312,239.2,311,240,310.5z"/>
		<path fill="#18FFFF" d="M236.3,302.8c0.9-0.4,1.9,0,2.3,0.9c0.4,0.8,0,1.8-0.9,2.3c-0.9,0.4-1.9,0-2.3-0.8
			C234.9,304.2,235.4,303.2,236.3,302.8z"/>
		<path fill="#18FFFF" d="M233.6,294.8c0.9-0.2,1.9,0.3,2.2,1.1c0.2,0.9-0.3,1.8-1.2,2.1c-0.9,0.3-1.9-0.2-2.2-1.1
			C232.1,296,232.7,295,233.6,294.8z"/>
		<path fill="#18FFFF" d="M232,286.5c1-0.1,1.8,0.5,2,1.4c0.2,0.9-0.5,1.8-1.4,1.9c-1,0.2-1.9-0.5-2-1.4
			C230.4,287.5,231,286.6,232,286.5z"/>
		<path fill="#18FFFF" d="M231.5,278c1,0,1.8,0.7,1.8,1.7c0,0.9-0.7,1.7-1.7,1.7c-1,0.1-1.8-0.7-1.8-1.7
			C229.7,278.8,230.5,278,231.5,278z"/>
	</g>
	<g>
		<path fill="#18FFFF" d="M232.2,268.4c1,0.1,1.7,1,1.5,1.9c-0.1,0.9-1,1.6-1.9,1.5c-1-0.1-1.7-0.9-1.6-1.9
			C230.3,268.9,231.2,268.2,232.2,268.4z"/>
		<path fill="#18FFFF" d="M233.9,260.1c0.9,0.3,1.5,1.2,1.3,2.1c-0.2,0.9-1.1,1.4-2.1,1.2c-1-0.2-1.5-1.1-1.3-2.1
			C232,260.3,233,259.8,233.9,260.1z"/>
		<path fill="#18FFFF" d="M236.8,252.1c0.9,0.4,1.3,1.4,1,2.2c-0.3,0.8-1.3,1.3-2.3,0.9c-0.9-0.3-1.4-1.3-1-2.2
			C234.8,252.1,235.8,251.7,236.8,252.1z"/>
		<path fill="#18FFFF" d="M240.6,244.5c0.8,0.5,1.1,1.5,0.7,2.3c-0.5,0.8-1.5,1.1-2.3,0.6c-0.9-0.4-1.2-1.5-0.7-2.4
			C238.7,244.3,239.8,244,240.6,244.5z"/>
		<path fill="#18FFFF" d="M245.4,237.5c0.8,0.6,0.9,1.7,0.4,2.4c-0.5,0.7-1.6,0.9-2.4,0.3c-0.8-0.6-1-1.6-0.4-2.4
			C243.5,237,244.6,236.9,245.4,237.5z"/>
		<path fill="#18FFFF" d="M251,231.1c0.7,0.7,0.7,1.8,0.1,2.4c-0.6,0.7-1.7,0.7-2.4,0s-0.8-1.7-0.1-2.4
			C249.2,230.4,250.3,230.4,251,231.1z"/>
		<path fill="#18FFFF" d="M257.4,225.6c0.6,0.8,0.5,1.9-0.2,2.4c-0.7,0.5-1.8,0.5-2.4-0.3c-0.6-0.7-0.6-1.9,0.2-2.5
			C255.7,224.6,256.8,224.8,257.4,225.6z"/>
		<path fill="#18FFFF" d="M264.5,220.8c0.5,0.9,0.2,1.9-0.5,2.4c-0.8,0.5-1.8,0.2-2.4-0.6s-0.3-1.9,0.5-2.4
			C262.9,219.7,264,220,264.5,220.8z"/>
	</g>
	<g>
		<path fill="#18FFFF" d="M273.2,216.6c0.4,0.9,0,1.9-0.9,2.3c-0.8,0.4-1.8,0-2.2-0.9c-0.4-0.9,0-1.9,0.9-2.3
			C271.8,215.3,272.8,215.7,273.2,216.6z"/>
		<path fill="#18FFFF" d="M281.2,214c0.2,0.9-0.3,1.9-1.2,2.1c-0.9,0.2-1.8-0.3-2.1-1.2c-0.3-0.9,0.2-1.9,1.2-2.2
			C280,212.5,281,213.1,281.2,214z"/>
		<path fill="#18FFFF" d="M289.6,212.5c0.1,1-0.5,1.8-1.4,2c-0.9,0.1-1.8-0.5-1.9-1.5c-0.2-0.9,0.5-1.9,1.4-2
			C288.6,210.8,289.5,211.5,289.6,212.5z"/>
		<path fill="#18FFFF" d="M298,212c0,1-0.8,1.7-1.7,1.8c-0.9,0-1.7-0.7-1.7-1.7c0-1,0.7-1.8,1.7-1.8C297.3,210.2,298.1,211,298,212z
			"/>
		<path fill="#18FFFF" d="M306.5,212.6c-0.1,1-1,1.7-1.9,1.5c-0.9-0.1-1.6-0.9-1.5-1.9c0.1-1,0.9-1.7,1.9-1.6
			C306,210.8,306.6,211.7,306.5,212.6z"/>
		<path fill="#18FFFF" d="M314.8,214.3c-0.3,0.9-1.2,1.5-2.1,1.3c-0.9-0.2-1.4-1.1-1.2-2.1s1.1-1.5,2.1-1.3
			C314.5,212.4,315.1,213.4,314.8,214.3z"/>
		<path fill="#18FFFF" d="M322.8,217.1c-0.4,0.9-1.4,1.4-2.2,1c-0.8-0.3-1.3-1.3-1-2.2c0.3-0.9,1.3-1.4,2.2-1
			C322.8,215.2,323.2,216.2,322.8,217.1z"/>
		<path fill="#18FFFF" d="M330.4,220.8c-0.5,0.8-1.5,1.2-2.3,0.7c-0.8-0.4-1.1-1.5-0.7-2.3c0.4-0.9,1.5-1.2,2.4-0.8
			C330.7,218.9,330.9,220,330.4,220.8z"/>
	</g>
	<g>
		<path fill="#18FFFF" d="M338.4,226.3c-0.6,0.8-1.7,0.9-2.4,0.4c-0.7-0.5-0.9-1.6-0.3-2.4c0.6-0.8,1.7-1,2.4-0.4
			C338.9,224.4,339,225.5,338.4,226.3z"/>
		<path fill="#18FFFF" d="M344.7,232c-0.7,0.7-1.8,0.7-2.4,0.1c-0.7-0.6-0.7-1.7,0-2.4c0.7-0.7,1.8-0.8,2.5-0.1
			C345.5,230.2,345.4,231.3,344.7,232z"/>
		<path fill="#18FFFF" d="M350.3,238.4c-0.8,0.6-1.9,0.5-2.4-0.2c-0.6-0.7-0.4-1.8,0.3-2.4c0.8-0.6,1.9-0.5,2.4,0.2
			C351.2,236.7,351,237.8,350.3,238.4z"/>
		<path fill="#18FFFF" d="M354.9,245.5c-0.8,0.5-1.9,0.2-2.4-0.6c-0.5-0.8-0.2-1.8,0.6-2.3c0.8-0.5,1.9-0.3,2.4,0.5
			C356,244,355.7,245,354.9,245.5z"/>
		<path fill="#18FFFF" d="M358.6,253.2c-0.9,0.4-1.9,0-2.3-0.9c-0.4-0.8,0-1.8,0.9-2.3c0.9-0.4,1.9,0,2.3,0.8
			C360,251.8,359.5,252.8,358.6,253.2z"/>
		<path fill="#18FFFF" d="M361.3,261.2c-0.9,0.2-1.9-0.3-2.2-1.1c-0.2-0.9,0.3-1.8,1.2-2.1c0.9-0.3,1.9,0.2,2.2,1.1
			C362.8,260,362.2,261,361.3,261.2z"/>
		<path fill="#18FFFF" d="M362.9,269.5c-1,0.1-1.8-0.5-2-1.4c-0.2-0.9,0.5-1.8,1.4-1.9s1.9,0.5,2,1.4
			C364.5,268.5,363.9,269.4,362.9,269.5z"/>
		<path fill="#18FFFF" d="M363.5,278c-1,0-1.8-0.7-1.8-1.7c0-0.9,0.7-1.7,1.7-1.7c1-0.1,1.8,0.7,1.8,1.7
			C365.2,277.2,364.4,278,363.5,278z"/>
	</g>
</g>
<circle fill="#18FFFF" cx="230.5" cy="278" r="6"/>
<path fill="none" stroke="#18FFFF" stroke-width="2" stroke-miterlimit="10" d="M196.8,178.5V92.3c0,0-2.5-16.3,11-16.3h20.5"/>
<path fill="none" stroke="#18FFFF" stroke-width="2" stroke-miterlimit="10" d="M196.8,176.2v86.2c0,0-2.5,16.3,11,16.3h20.5"/>
<g>
	<path fill="#18FFFF" d="M83.9,146.5c-17.7,0-32,14.3-32,32c0,17.7,14.3,32,32,32s32-14.3,32-32C115.9,160.8,101.6,146.5,83.9,146.5
		z M83.9,201.9c-12.9,0-23.4-10.5-23.4-23.4S71,155,83.9,155c12.9,0,23.4,10.5,23.4,23.4S96.9,201.9,83.9,201.9z"/>
	<text transform="matrix(1.0576 0 0 1 66.3816 186.1351)" fill="#18FFFF" font-family="'MyriadPro-Semibold'" font-size="18.7765">PHP</text>
</g>
</svg>
