<?xml version="1.0" encoding="utf-8"?>
<!-- Generator: Adobe Illustrator 18.1.1, SVG Export Plug-In . SVG Version: 6.00 Build 0)  -->
<svg version="1.1" id="Слой_1" xmlns="http://www.w3.org/2000/svg" xmlns:xlink="http://www.w3.org/1999/xlink" x="0px" y="0px"
	 viewBox="0 0 48 48" enable-background="new 0 0 48 48" xml:space="preserve">
<line fill="none" stroke="#18FFFF" stroke-width="0.25" stroke-miterlimit="10" x1="18.8" y1="24.2" x2="24.7" y2="24.2"/>
<g>
	<g>
		<path fill="#18FFFF" d="M18.8,25.4c-0.1,0-0.2-0.1-0.2-0.2c0-0.1,0.1-0.2,0.2-0.2c0.1,0,0.2,0.1,0.2,0.2
			C19,25.3,18.9,25.4,18.8,25.4z"/>
		<path fill="#18FFFF" d="M18.5,26.4c-0.1,0-0.2-0.2-0.2-0.3c0-0.1,0.1-0.2,0.3-0.2s0.2,0.1,0.2,0.3C18.8,26.4,18.7,26.5,18.5,26.4z
			"/>
		<path fill="#18FFFF" d="M18.2,27.4c-0.1-0.1-0.2-0.2-0.1-0.3c0-0.1,0.2-0.2,0.3-0.1c0.1,0,0.2,0.2,0.1,0.3
			C18.4,27.4,18.3,27.5,18.2,27.4z"/>
		<path fill="#18FFFF" d="M17.7,28.4c-0.1-0.1-0.1-0.2-0.1-0.3c0.1-0.1,0.2-0.1,0.3-0.1c0.1,0.1,0.2,0.2,0.1,0.3
			C17.9,28.4,17.8,28.5,17.7,28.4z"/>
		<path fill="#18FFFF" d="M17.1,29.3C17,29.2,17,29.1,17.1,29s0.2-0.1,0.3,0c0.1,0.1,0.1,0.2,0.1,0.3C17.3,29.3,17.2,29.4,17.1,29.3
			z"/>
		<path fill="#18FFFF" d="M16.4,30.1c-0.1-0.1-0.1-0.2,0-0.3c0.1-0.1,0.2-0.1,0.3,0s0.1,0.2,0,0.3C16.6,30.2,16.5,30.2,16.4,30.1z"
			/>
		<path fill="#18FFFF" d="M15.6,30.8c-0.1-0.1-0.1-0.2,0-0.3c0.1-0.1,0.2-0.1,0.3,0c0.1,0.1,0.1,0.2,0,0.3
			C15.8,30.9,15.7,30.9,15.6,30.8z"/>
		<path fill="#18FFFF" d="M14.7,31.4c-0.1-0.1,0-0.2,0.1-0.3c0.1-0.1,0.2,0,0.3,0.1c0.1,0.1,0,0.2-0.1,0.3
			C14.9,31.5,14.8,31.5,14.7,31.4z"/>
	</g>
	<g>
		<path fill="#18FFFF" d="M13.6,31.9c-0.1-0.1,0-0.2,0.1-0.3c0.1-0.1,0.2,0,0.3,0.1s0,0.2-0.1,0.3C13.8,32.1,13.7,32,13.6,31.9z"/>
		<path fill="#18FFFF" d="M12.6,32.2c0-0.1,0-0.2,0.2-0.3c0.1,0,0.2,0,0.3,0.2c0,0.1,0,0.2-0.2,0.3C12.7,32.4,12.6,32.3,12.6,32.2z"
			/>
		<path fill="#18FFFF" d="M11.5,32.4c0-0.1,0.1-0.2,0.2-0.3c0.1,0,0.2,0.1,0.2,0.2c0,0.1-0.1,0.2-0.2,0.3
			C11.7,32.6,11.6,32.5,11.5,32.4z"/>
		<path fill="#18FFFF" d="M10.5,32.5c0-0.1,0.1-0.2,0.2-0.2c0.1,0,0.2,0.1,0.2,0.2c0,0.1-0.1,0.2-0.2,0.2
			C10.6,32.7,10.5,32.6,10.5,32.5z"/>
		<path fill="#18FFFF" d="M9.4,32.4c0-0.1,0.1-0.2,0.2-0.2c0.1,0,0.2,0.1,0.2,0.2c0,0.1-0.1,0.2-0.2,0.2C9.5,32.6,9.4,32.5,9.4,32.4
			z"/>
		<path fill="#18FFFF" d="M8.4,32.2c0-0.1,0.2-0.2,0.3-0.2c0.1,0,0.2,0.1,0.2,0.3c0,0.1-0.1,0.2-0.3,0.2C8.4,32.4,8.3,32.3,8.4,32.2
			z"/>
		<path fill="#18FFFF" d="M7.4,31.8c0.1-0.1,0.2-0.2,0.3-0.1c0.1,0,0.2,0.2,0.1,0.3c0,0.1-0.2,0.2-0.3,0.1C7.4,32.1,7.3,32,7.4,31.8
			z"/>
		<path fill="#18FFFF" d="M6.4,31.4c0.1-0.1,0.2-0.2,0.3-0.1c0.1,0.1,0.1,0.2,0.1,0.3c-0.1,0.1-0.2,0.2-0.3,0.1
			C6.4,31.6,6.3,31.5,6.4,31.4z"/>
	</g>
	<g>
		<path fill="#18FFFF" d="M5.4,30.7c0.1-0.1,0.2-0.1,0.3-0.1c0.1,0.1,0.1,0.2,0,0.3S5.5,31.1,5.4,31C5.3,30.9,5.3,30.8,5.4,30.7z"/>
		<path fill="#18FFFF" d="M4.6,30c0.1-0.1,0.2-0.1,0.3,0C5,30,5,30.2,4.9,30.3c-0.1,0.1-0.2,0.1-0.3,0C4.5,30.2,4.5,30.1,4.6,30z"/>
		<path fill="#18FFFF" d="M3.9,29.2c0.1-0.1,0.2-0.1,0.3,0c0.1,0.1,0.1,0.2,0,0.3c-0.1,0.1-0.2,0.1-0.3,0
			C3.8,29.4,3.8,29.2,3.9,29.2z"/>
		<path fill="#18FFFF" d="M3.3,28.3c0.1-0.1,0.2,0,0.3,0.1c0.1,0.1,0,0.2-0.1,0.3c-0.1,0.1-0.2,0-0.3-0.1
			C3.2,28.5,3.2,28.3,3.3,28.3z"/>
		<path fill="#18FFFF" d="M2.9,27.3c0.1-0.1,0.2,0,0.3,0.1c0.1,0.1,0,0.2-0.1,0.3c-0.1,0.1-0.2,0-0.3-0.1
			C2.7,27.5,2.8,27.4,2.9,27.3z"/>
		<path fill="#18FFFF" d="M2.5,26.3c0.1,0,0.2,0,0.3,0.1c0,0.1,0,0.2-0.2,0.3s-0.2,0-0.3-0.1C2.3,26.5,2.4,26.3,2.5,26.3z"/>
		<path fill="#18FFFF" d="M2.3,25.2c0.1,0,0.2,0.1,0.3,0.2s-0.1,0.2-0.2,0.2c-0.1,0-0.2-0.1-0.3-0.2C2.1,25.4,2.2,25.3,2.3,25.2z"/>
		<path fill="#18FFFF" d="M2.3,24.2c0.1,0,0.2,0.1,0.2,0.2c0,0.1-0.1,0.2-0.2,0.2S2,24.5,2,24.4C2,24.3,2.1,24.2,2.3,24.2z"/>
	</g>
	<g>
		<path fill="#18FFFF" d="M2.3,23c0.1,0,0.2,0.1,0.2,0.2c0,0.1-0.1,0.2-0.2,0.2c-0.1,0-0.2-0.1-0.2-0.2C2.1,23,2.2,23,2.3,23z"/>
		<path fill="#18FFFF" d="M2.6,21.9c0.1,0,0.2,0.2,0.2,0.3c0,0.1-0.1,0.2-0.3,0.2c-0.1,0-0.2-0.1-0.2-0.3C2.3,22,2.5,21.9,2.6,21.9z
			"/>
		<path fill="#18FFFF" d="M2.9,20.9C3,21,3.1,21.1,3.1,21.2c0,0.1-0.2,0.2-0.3,0.1S2.6,21.1,2.6,21C2.7,20.9,2.8,20.9,2.9,20.9z"/>
		<path fill="#18FFFF" d="M3.4,20c0.1,0.1,0.1,0.2,0.1,0.3c-0.1,0.1-0.2,0.1-0.3,0.1c-0.1-0.1-0.2-0.2-0.1-0.3
			C3.2,19.9,3.3,19.9,3.4,20z"/>
		<path fill="#18FFFF" d="M4,19.1c0.1,0.1,0.1,0.2,0.1,0.3c-0.1,0.1-0.2,0.1-0.3,0c-0.1-0.1-0.1-0.2-0.1-0.3S3.9,19,4,19.1z"/>
		<path fill="#18FFFF" d="M4.7,18.3c0.1,0.1,0.1,0.2,0,0.3c-0.1,0.1-0.2,0.1-0.3,0s-0.1-0.2,0-0.3C4.5,18.2,4.6,18.2,4.7,18.3z"/>
		<path fill="#18FFFF" d="M5.5,17.6c0.1,0.1,0.1,0.2,0,0.3c-0.1,0.1-0.2,0.1-0.3,0c-0.1-0.1-0.1-0.2,0-0.3
			C5.3,17.5,5.5,17.5,5.5,17.6z"/>
		<path fill="#18FFFF" d="M6.4,17c0.1,0.1,0,0.2-0.1,0.3c-0.1,0.1-0.2,0-0.3-0.1C6,17.1,6,17,6.1,16.9C6.2,16.9,6.3,16.9,6.4,17z"/>
	</g>
	<g>
		<path fill="#18FFFF" d="M7.5,16.5c0.1,0.1,0,0.2-0.1,0.3c-0.1,0.1-0.2,0-0.3-0.1c-0.1-0.1,0-0.2,0.1-0.3
			C7.3,16.3,7.5,16.4,7.5,16.5z"/>
		<path fill="#18FFFF" d="M8.5,16.1c0,0.1,0,0.2-0.2,0.3s-0.2,0-0.3-0.2c0-0.1,0-0.2,0.2-0.3C8.4,16,8.5,16,8.5,16.1z"/>
		<path fill="#18FFFF" d="M9.6,16c0,0.1-0.1,0.2-0.2,0.3c-0.1,0-0.2-0.1-0.2-0.2c0-0.1,0.1-0.2,0.2-0.3C9.4,15.7,9.5,15.8,9.6,16z"
			/>
		<path fill="#18FFFF" d="M10.6,15.9c0,0.1-0.1,0.2-0.2,0.2c-0.1,0-0.2-0.1-0.2-0.2s0.1-0.2,0.2-0.2C10.5,15.7,10.6,15.8,10.6,15.9z
			"/>
		<path fill="#18FFFF" d="M11.7,16c0,0.1-0.1,0.2-0.2,0.2c-0.1,0-0.2-0.1-0.2-0.2c0-0.1,0.1-0.2,0.2-0.2
			C11.6,15.7,11.7,15.8,11.7,16z"/>
		<path fill="#18FFFF" d="M12.7,16.2c0,0.1-0.2,0.2-0.3,0.2s-0.2-0.1-0.2-0.3c0-0.1,0.1-0.2,0.3-0.2C12.7,15.9,12.8,16.1,12.7,16.2z
			"/>
		<path fill="#18FFFF" d="M13.7,16.5c-0.1,0.1-0.2,0.2-0.3,0.1c-0.1,0-0.2-0.2-0.1-0.3c0-0.1,0.2-0.2,0.3-0.1
			C13.7,16.3,13.8,16.4,13.7,16.5z"/>
		<path fill="#18FFFF" d="M14.7,17c-0.1,0.1-0.2,0.2-0.3,0.1c-0.1-0.1-0.1-0.2-0.1-0.3c0.1-0.1,0.2-0.2,0.3-0.1
			C14.7,16.8,14.8,16.9,14.7,17z"/>
	</g>
	<g>
		<path fill="#18FFFF" d="M15.7,17.7c-0.1,0.1-0.2,0.1-0.3,0.1c-0.1-0.1-0.1-0.2,0-0.3c0.1-0.1,0.2-0.1,0.3-0.1
			C15.8,17.5,15.8,17.6,15.7,17.7z"/>
		<path fill="#18FFFF" d="M16.5,18.4c-0.1,0.1-0.2,0.1-0.3,0c-0.1-0.1-0.1-0.2,0-0.3s0.2-0.1,0.3,0C16.6,18.2,16.6,18.3,16.5,18.4z"
			/>
		<path fill="#18FFFF" d="M17.2,19.2c-0.1,0.1-0.2,0.1-0.3,0c-0.1-0.1-0.1-0.2,0-0.3c0.1-0.1,0.2-0.1,0.3,0
			C17.3,19,17.3,19.1,17.2,19.2z"/>
		<path fill="#18FFFF" d="M17.8,20.1c-0.1,0.1-0.2,0-0.3-0.1c-0.1-0.1,0-0.2,0.1-0.3c0.1-0.1,0.2,0,0.3,0.1
			C17.9,19.9,17.9,20,17.8,20.1z"/>
		<path fill="#18FFFF" d="M18.2,21.1c-0.1,0.1-0.2,0-0.3-0.1c-0.1-0.1,0-0.2,0.1-0.3c0.1-0.1,0.2,0,0.3,0.1
			C18.4,20.9,18.4,21,18.2,21.1z"/>
		<path fill="#18FFFF" d="M18.6,22.1c-0.1,0-0.2,0-0.3-0.1c0-0.1,0-0.2,0.2-0.3s0.2,0,0.3,0.1C18.8,21.9,18.7,22,18.6,22.1z"/>
		<path fill="#18FFFF" d="M18.8,23.1c-0.1,0-0.2-0.1-0.3-0.2c0-0.1,0.1-0.2,0.2-0.2c0.1,0,0.2,0.1,0.3,0.2
			C19,23,18.9,23.1,18.8,23.1z"/>
		<path fill="#18FFFF" d="M18.8,24.2c-0.1,0-0.2-0.1-0.2-0.2s0.1-0.2,0.2-0.2c0.1,0,0.2,0.1,0.2,0.2C19.1,24.1,19,24.2,18.8,24.2z"
			/>
	</g>
</g>
<circle fill="#18FFFF" cx="19.1" cy="24.2" r="0.8"/>
<g>
	<g>
		<path fill="#18FFFF" d="M45.6,12.5c-0.1,0-0.2-0.1-0.2-0.2c0-0.1,0.1-0.2,0.2-0.2c0.1,0,0.2,0.1,0.2,0.2
			C45.8,12.5,45.7,12.5,45.6,12.5z"/>
		<path fill="#18FFFF" d="M45.4,13.6c-0.1,0-0.2-0.2-0.2-0.3c0-0.1,0.1-0.2,0.3-0.2c0.1,0,0.2,0.1,0.2,0.3
			C45.6,13.5,45.5,13.6,45.4,13.6z"/>
		<path fill="#18FFFF" d="M45,14.6c-0.1-0.1-0.2-0.2-0.1-0.3c0-0.1,0.2-0.2,0.3-0.1c0.1,0.1,0.2,0.2,0.1,0.3
			C45.2,14.6,45.1,14.6,45,14.6z"/>
		<path fill="#18FFFF" d="M44.5,15.5c-0.1-0.1-0.1-0.2-0.1-0.3c0.1-0.1,0.2-0.1,0.3-0.1c0.1,0.1,0.2,0.2,0.1,0.3
			C44.8,15.5,44.6,15.6,44.5,15.5z"/>
		<path fill="#18FFFF" d="M43.9,16.4c-0.1-0.1-0.1-0.2-0.1-0.3c0.1-0.1,0.2-0.1,0.3,0c0.1,0.1,0.1,0.2,0.1,0.3
			C44.2,16.5,44,16.5,43.9,16.4z"/>
		<path fill="#18FFFF" d="M43.2,17.2c-0.1-0.1-0.1-0.2,0-0.3c0.1-0.1,0.2-0.1,0.3,0c0.1,0.1,0.1,0.2,0,0.3
			C43.4,17.3,43.3,17.3,43.2,17.2z"/>
		<path fill="#18FFFF" d="M42.4,17.9c-0.1-0.1-0.1-0.2,0-0.3c0.1-0.1,0.2-0.1,0.3,0c0.1,0.1,0.1,0.2,0,0.3
			C42.6,18,42.5,18,42.4,17.9z"/>
		<path fill="#18FFFF" d="M41.5,18.5c-0.1-0.1,0-0.2,0.1-0.3c0.1-0.1,0.2,0,0.3,0.1c0.1,0.1,0,0.2-0.1,0.3
			C41.7,18.6,41.6,18.6,41.5,18.5z"/>
	</g>
	<g>
		<path fill="#18FFFF" d="M40.4,19c-0.1-0.1,0-0.2,0.1-0.3c0.1-0.1,0.2,0,0.3,0.1s0,0.2-0.1,0.3C40.6,19.2,40.5,19.1,40.4,19z"/>
		<path fill="#18FFFF" d="M39.4,19.4c0-0.1,0-0.2,0.2-0.3c0.1,0,0.2,0,0.3,0.2c0,0.1,0,0.2-0.2,0.3C39.6,19.5,39.4,19.5,39.4,19.4z"
			/>
		<path fill="#18FFFF" d="M38.4,19.5c0-0.1,0.1-0.2,0.2-0.3c0.1,0,0.2,0.1,0.2,0.2c0,0.1-0.1,0.2-0.2,0.3
			C38.5,19.8,38.4,19.7,38.4,19.5z"/>
		<path fill="#18FFFF" d="M37.3,19.6c0-0.1,0.1-0.2,0.2-0.2c0.1,0,0.2,0.1,0.2,0.2s-0.1,0.2-0.2,0.2C37.4,19.8,37.3,19.7,37.3,19.6z
			"/>
		<path fill="#18FFFF" d="M36.2,19.5c0-0.1,0.1-0.2,0.2-0.2c0.1,0,0.2,0.1,0.2,0.2s-0.1,0.2-0.2,0.2C36.3,19.8,36.2,19.6,36.2,19.5z
			"/>
		<path fill="#18FFFF" d="M35.2,19.3c0-0.1,0.2-0.2,0.3-0.2c0.1,0,0.2,0.1,0.2,0.3c0,0.1-0.1,0.2-0.3,0.2
			C35.2,19.6,35.2,19.4,35.2,19.3z"/>
		<path fill="#18FFFF" d="M34.2,19c0.1-0.1,0.2-0.2,0.3-0.1c0.1,0,0.2,0.2,0.1,0.3c0,0.1-0.2,0.2-0.3,0.1
			C34.2,19.2,34.1,19.1,34.2,19z"/>
		<path fill="#18FFFF" d="M33.2,18.5c0.1-0.1,0.2-0.2,0.3-0.1c0.1,0.1,0.1,0.2,0.1,0.3c-0.1,0.1-0.2,0.2-0.3,0.1
			C33.2,18.7,33.2,18.6,33.2,18.5z"/>
	</g>
	<g>
		<path fill="#18FFFF" d="M32.2,17.8c0.1-0.1,0.2-0.1,0.3-0.1c0.1,0.1,0.1,0.2,0,0.3c-0.1,0.1-0.2,0.1-0.3,0.1
			C32.2,18,32.2,17.9,32.2,17.8z"/>
		<path fill="#18FFFF" d="M31.4,17.1c0.1-0.1,0.2-0.1,0.3,0c0.1,0.1,0.1,0.2,0,0.3c-0.1,0.1-0.2,0.1-0.3,0
			C31.3,17.3,31.4,17.2,31.4,17.1z"/>
		<path fill="#18FFFF" d="M30.7,16.3c0.1-0.1,0.2-0.1,0.3,0c0.1,0.1,0.1,0.2,0,0.3c-0.1,0.1-0.2,0.1-0.3,0
			C30.6,16.5,30.6,16.4,30.7,16.3z"/>
		<path fill="#18FFFF" d="M30.2,15.4c0.1-0.1,0.2,0,0.3,0.1c0.1,0.1,0,0.2-0.1,0.3c-0.1,0.1-0.2,0-0.3-0.1
			C30,15.6,30.1,15.5,30.2,15.4z"/>
		<path fill="#18FFFF" d="M29.7,14.4c0.1-0.1,0.2,0,0.3,0.1c0.1,0.1,0,0.2-0.1,0.3c-0.1,0.1-0.2,0-0.3-0.1
			C29.5,14.6,29.6,14.5,29.7,14.4z"/>
		<path fill="#18FFFF" d="M29.4,13.4c0.1,0,0.2,0,0.3,0.1c0,0.1,0,0.2-0.2,0.3c-0.1,0-0.2,0-0.3-0.1C29.2,13.6,29.2,13.4,29.4,13.4z
			"/>
		<path fill="#18FFFF" d="M29.2,12.4c0.1,0,0.2,0.1,0.3,0.2c0,0.1-0.1,0.2-0.2,0.2c-0.1,0-0.2-0.1-0.3-0.2
			C29,12.5,29,12.4,29.2,12.4z"/>
		<path fill="#18FFFF" d="M29.1,11.3c0.1,0,0.2,0.1,0.2,0.2c0,0.1-0.1,0.2-0.2,0.2s-0.2-0.1-0.2-0.2C28.9,11.4,29,11.3,29.1,11.3z"
			/>
	</g>
	<g>
		<path fill="#18FFFF" d="M29.2,10.1c0.1,0,0.2,0.1,0.2,0.2c0,0.1-0.1,0.2-0.2,0.2c-0.1,0-0.2-0.1-0.2-0.2
			C28.9,10.2,29.1,10.1,29.2,10.1z"/>
		<path fill="#18FFFF" d="M29.4,9.1c0.1,0,0.2,0.2,0.2,0.3c0,0.1-0.1,0.2-0.3,0.2c-0.1,0-0.2-0.1-0.2-0.3S29.3,9,29.4,9.1z"/>
		<path fill="#18FFFF" d="M29.8,8.1c0.1,0.1,0.2,0.2,0.1,0.3c0,0.1-0.2,0.2-0.3,0.1c-0.1,0-0.2-0.2-0.1-0.3
			C29.5,8.1,29.6,8,29.8,8.1z"/>
		<path fill="#18FFFF" d="M30.2,7.1c0.1,0.1,0.1,0.2,0.1,0.3c-0.1,0.1-0.2,0.1-0.3,0.1c-0.1-0.1-0.2-0.2-0.1-0.3
			C30,7.1,30.1,7,30.2,7.1z"/>
		<path fill="#18FFFF" d="M30.8,6.2c0.1,0.1,0.1,0.2,0.1,0.3c-0.1,0.1-0.2,0.1-0.3,0c-0.1-0.1-0.1-0.2-0.1-0.3
			C30.6,6.2,30.7,6.1,30.8,6.2z"/>
		<path fill="#18FFFF" d="M31.5,5.4c0.1,0.1,0.1,0.2,0,0.3c-0.1,0.1-0.2,0.1-0.3,0c-0.1-0.1-0.1-0.2,0-0.3
			C31.3,5.3,31.5,5.3,31.5,5.4z"/>
		<path fill="#18FFFF" d="M32.3,4.7c0.1,0.1,0.1,0.2,0,0.3S32.1,5.1,32,5c-0.1-0.1-0.1-0.2,0-0.3C32.1,4.6,32.3,4.6,32.3,4.7z"/>
		<path fill="#18FFFF" d="M33.2,4.1c0.1,0.1,0,0.2-0.1,0.3c-0.1,0.1-0.2,0-0.3-0.1c-0.1-0.1,0-0.2,0.1-0.3C33,4,33.2,4,33.2,4.1z"/>
	</g>
	<g>
		<path fill="#18FFFF" d="M34.3,3.6c0.1,0.1,0,0.2-0.1,0.3c-0.1,0.1-0.2,0-0.3-0.1c-0.1-0.1,0-0.2,0.1-0.3
			C34.2,3.4,34.3,3.5,34.3,3.6z"/>
		<path fill="#18FFFF" d="M35.3,3.3c0,0.1,0,0.2-0.2,0.3c-0.1,0-0.2,0-0.3-0.2c0-0.1,0-0.2,0.2-0.3C35.2,3.1,35.3,3.2,35.3,3.3z"/>
		<path fill="#18FFFF" d="M36.4,3.1c0,0.1-0.1,0.2-0.2,0.3c-0.1,0-0.2-0.1-0.2-0.2c0-0.1,0.1-0.2,0.2-0.3C36.3,2.9,36.4,3,36.4,3.1z
			"/>
		<path fill="#18FFFF" d="M37.4,3c0,0.1-0.1,0.2-0.2,0.2C37.1,3.2,37,3.2,37,3s0.1-0.2,0.2-0.2C37.4,2.8,37.5,2.9,37.4,3z"/>
		<path fill="#18FFFF" d="M38.5,3.1c0,0.1-0.1,0.2-0.2,0.2c-0.1,0-0.2-0.1-0.2-0.2c0-0.1,0.1-0.2,0.2-0.2C38.5,2.9,38.5,3,38.5,3.1z
			"/>
		<path fill="#18FFFF" d="M39.6,3.3c0,0.1-0.2,0.2-0.3,0.2c-0.1,0-0.2-0.1-0.2-0.3c0-0.1,0.1-0.2,0.3-0.2
			C39.5,3.1,39.6,3.2,39.6,3.3z"/>
		<path fill="#18FFFF" d="M40.6,3.7c-0.1,0.1-0.2,0.2-0.3,0.1c-0.1,0-0.2-0.2-0.1-0.3c0-0.1,0.2-0.2,0.3-0.1
			C40.6,3.4,40.6,3.5,40.6,3.7z"/>
		<path fill="#18FFFF" d="M41.5,4.1c-0.1,0.1-0.2,0.2-0.3,0.1c-0.1-0.1-0.1-0.2-0.1-0.3c0.1-0.1,0.2-0.2,0.3-0.1
			C41.6,3.9,41.6,4,41.5,4.1z"/>
	</g>
	<g>
		<path fill="#18FFFF" d="M42.5,4.8c-0.1,0.1-0.2,0.1-0.3,0.1c-0.1-0.1-0.1-0.2,0-0.3s0.2-0.1,0.3-0.1C42.6,4.6,42.6,4.7,42.5,4.8z"
			/>
		<path fill="#18FFFF" d="M43.3,5.5c-0.1,0.1-0.2,0.1-0.3,0c-0.1-0.1-0.1-0.2,0-0.3c0.1-0.1,0.2-0.1,0.3,0
			C43.4,5.3,43.4,5.4,43.3,5.5z"/>
		<path fill="#18FFFF" d="M44,6.3c-0.1,0.1-0.2,0.1-0.3,0c-0.1-0.1-0.1-0.2,0-0.3c0.1-0.1,0.2-0.1,0.3,0C44.1,6.1,44.1,6.3,44,6.3z"
			/>
		<path fill="#18FFFF" d="M44.6,7.2c-0.1,0.1-0.2,0-0.3-0.1c-0.1-0.1,0-0.2,0.1-0.3s0.2,0,0.3,0.1C44.7,7,44.7,7.2,44.6,7.2z"/>
		<path fill="#18FFFF" d="M45.1,8.2c-0.1,0.1-0.2,0-0.3-0.1c-0.1-0.1,0-0.2,0.1-0.3c0.1-0.1,0.2,0,0.3,0.1C45.2,8,45.2,8.1,45.1,8.2
			z"/>
		<path fill="#18FFFF" d="M45.4,9.2c-0.1,0-0.2,0-0.3-0.1c0-0.1,0-0.2,0.2-0.3c0.1,0,0.2,0,0.3,0.1C45.6,9,45.5,9.2,45.4,9.2z"/>
		<path fill="#18FFFF" d="M45.6,10.2c-0.1,0-0.2-0.1-0.3-0.2c0-0.1,0.1-0.2,0.2-0.2c0.1,0,0.2,0.1,0.3,0.2
			C45.8,10.1,45.7,10.2,45.6,10.2z"/>
		<path fill="#18FFFF" d="M45.7,11.3c-0.1,0-0.2-0.1-0.2-0.2c0-0.1,0.1-0.2,0.2-0.2c0.1,0,0.2,0.1,0.2,0.2
			C45.9,11.2,45.8,11.3,45.7,11.3z"/>
	</g>
</g>
<circle fill="#18FFFF" cx="29" cy="11.3" r="0.8"/>
<circle fill="#18FFFF" cx="24.7" cy="24.2" r="0.8"/>
<g>
	<g>
		<path fill="#18FFFF" d="M45.6,37.9c-0.1,0-0.2-0.1-0.2-0.2c0-0.1,0.1-0.2,0.2-0.2c0.1,0,0.2,0.1,0.2,0.2
			C45.8,37.8,45.7,37.9,45.6,37.9z"/>
		<path fill="#18FFFF" d="M45.4,38.9c-0.1,0-0.2-0.2-0.2-0.3c0-0.1,0.1-0.2,0.3-0.2c0.1,0,0.2,0.1,0.2,0.3
			C45.6,38.9,45.5,39,45.4,38.9z"/>
		<path fill="#18FFFF" d="M45,39.9c-0.1-0.1-0.2-0.2-0.1-0.3c0-0.1,0.2-0.2,0.3-0.1c0.1,0.1,0.2,0.2,0.1,0.3
			C45.2,39.9,45.1,40,45,39.9z"/>
		<path fill="#18FFFF" d="M44.5,40.9c-0.1-0.1-0.1-0.2-0.1-0.3c0.1-0.1,0.2-0.1,0.3-0.1c0.1,0.1,0.2,0.2,0.1,0.3
			C44.8,40.9,44.6,41,44.5,40.9z"/>
		<path fill="#18FFFF" d="M43.9,41.8c-0.1-0.1-0.1-0.2-0.1-0.3c0.1-0.1,0.2-0.1,0.3,0s0.1,0.2,0.1,0.3C44.2,41.8,44,41.9,43.9,41.8z
			"/>
		<path fill="#18FFFF" d="M43.2,42.6c-0.1-0.1-0.1-0.2,0-0.3c0.1-0.1,0.2-0.1,0.3,0c0.1,0.1,0.1,0.2,0,0.3
			C43.4,42.7,43.3,42.7,43.2,42.6z"/>
		<path fill="#18FFFF" d="M42.4,43.3c-0.1-0.1-0.1-0.2,0-0.3s0.2-0.1,0.3,0c0.1,0.1,0.1,0.2,0,0.3C42.6,43.4,42.5,43.4,42.4,43.3z"
			/>
		<path fill="#18FFFF" d="M41.5,43.9c-0.1-0.1,0-0.2,0.1-0.3c0.1-0.1,0.2,0,0.3,0.1c0.1,0.1,0,0.2-0.1,0.3
			C41.7,44,41.6,44,41.5,43.9z"/>
	</g>
	<g>
		<path fill="#18FFFF" d="M40.4,44.4c-0.1-0.1,0-0.2,0.1-0.3c0.1-0.1,0.2,0,0.3,0.1c0.1,0.1,0,0.2-0.1,0.3
			C40.6,44.6,40.5,44.5,40.4,44.4z"/>
		<path fill="#18FFFF" d="M39.4,44.7c0-0.1,0-0.2,0.2-0.3c0.1,0,0.2,0,0.3,0.2c0,0.1,0,0.2-0.2,0.3C39.6,44.9,39.4,44.8,39.4,44.7z"
			/>
		<path fill="#18FFFF" d="M38.4,44.9c0-0.1,0.1-0.2,0.2-0.3c0.1,0,0.2,0.1,0.2,0.2c0,0.1-0.1,0.2-0.2,0.3
			C38.5,45.1,38.4,45,38.4,44.9z"/>
		<path fill="#18FFFF" d="M37.3,45c0-0.1,0.1-0.2,0.2-0.2c0.1,0,0.2,0.1,0.2,0.2s-0.1,0.2-0.2,0.2C37.4,45.2,37.3,45.1,37.3,45z"/>
		<path fill="#18FFFF" d="M36.2,44.9c0-0.1,0.1-0.2,0.2-0.2c0.1,0,0.2,0.1,0.2,0.2c0,0.1-0.1,0.2-0.2,0.2
			C36.3,45.1,36.2,45,36.2,44.9z"/>
		<path fill="#18FFFF" d="M35.2,44.7c0-0.1,0.2-0.2,0.3-0.2c0.1,0,0.2,0.1,0.2,0.3c0,0.1-0.1,0.2-0.3,0.2
			C35.2,44.9,35.2,44.8,35.2,44.7z"/>
		<path fill="#18FFFF" d="M34.2,44.3c0.1-0.1,0.2-0.2,0.3-0.1c0.1,0,0.2,0.2,0.1,0.3c0,0.1-0.2,0.2-0.3,0.1
			C34.2,44.6,34.1,44.5,34.2,44.3z"/>
		<path fill="#18FFFF" d="M33.2,43.9c0.1-0.1,0.2-0.2,0.3-0.1c0.1,0.1,0.1,0.2,0.1,0.3c-0.1,0.1-0.2,0.2-0.3,0.1
			C33.2,44.1,33.2,44,33.2,43.9z"/>
	</g>
	<g>
		<path fill="#18FFFF" d="M32.2,43.2c0.1-0.1,0.2-0.1,0.3-0.1s0.1,0.2,0,0.3s-0.2,0.1-0.3,0.1C32.2,43.4,32.2,43.3,32.2,43.2z"/>
		<path fill="#18FFFF" d="M31.4,42.5c0.1-0.1,0.2-0.1,0.3,0c0.1,0.1,0.1,0.2,0,0.3c-0.1,0.1-0.2,0.1-0.3,0
			C31.3,42.7,31.4,42.6,31.4,42.5z"/>
		<path fill="#18FFFF" d="M30.7,41.7c0.1-0.1,0.2-0.1,0.3,0c0.1,0.1,0.1,0.2,0,0.3c-0.1,0.1-0.2,0.1-0.3,0
			C30.6,41.9,30.6,41.7,30.7,41.7z"/>
		<path fill="#18FFFF" d="M30.2,40.8c0.1-0.1,0.2,0,0.3,0.1c0.1,0.1,0,0.2-0.1,0.3c-0.1,0.1-0.2,0-0.3-0.1
			C30,41,30.1,40.8,30.2,40.8z"/>
		<path fill="#18FFFF" d="M29.7,39.8c0.1-0.1,0.2,0,0.3,0.1c0.1,0.1,0,0.2-0.1,0.3c-0.1,0.1-0.2,0-0.3-0.1
			C29.5,40,29.6,39.9,29.7,39.8z"/>
		<path fill="#18FFFF" d="M29.4,38.8c0.1,0,0.2,0,0.3,0.1c0,0.1,0,0.2-0.2,0.3s-0.2,0-0.3-0.1C29.2,39,29.2,38.8,29.4,38.8z"/>
		<path fill="#18FFFF" d="M29.2,37.8c0.1,0,0.2,0.1,0.3,0.2c0,0.1-0.1,0.2-0.2,0.2c-0.1,0-0.2-0.1-0.3-0.2
			C29,37.9,29,37.8,29.2,37.8z"/>
		<path fill="#18FFFF" d="M29.1,36.7c0.1,0,0.2,0.1,0.2,0.2c0,0.1-0.1,0.2-0.2,0.2c-0.1,0-0.2-0.1-0.2-0.2
			C28.9,36.8,29,36.7,29.1,36.7z"/>
	</g>
	<g>
		<path fill="#18FFFF" d="M29.2,35.5c0.1,0,0.2,0.1,0.2,0.2c0,0.1-0.1,0.2-0.2,0.2c-0.1,0-0.2-0.1-0.2-0.2
			C28.9,35.5,29.1,35.5,29.2,35.5z"/>
		<path fill="#18FFFF" d="M29.4,34.4c0.1,0,0.2,0.2,0.2,0.3c0,0.1-0.1,0.2-0.3,0.2c-0.1,0-0.2-0.1-0.2-0.3S29.3,34.4,29.4,34.4z"/>
		<path fill="#18FFFF" d="M29.8,33.4c0.1,0.1,0.2,0.2,0.1,0.3s-0.2,0.2-0.3,0.1c-0.1,0-0.2-0.2-0.1-0.3
			C29.5,33.4,29.6,33.4,29.8,33.4z"/>
		<path fill="#18FFFF" d="M30.2,32.5c0.1,0.1,0.1,0.2,0.1,0.3c-0.1,0.1-0.2,0.1-0.3,0.1c-0.1-0.1-0.2-0.2-0.1-0.3
			C30,32.5,30.1,32.4,30.2,32.5z"/>
		<path fill="#18FFFF" d="M30.8,31.6c0.1,0.1,0.1,0.2,0.1,0.3c-0.1,0.1-0.2,0.1-0.3,0c-0.1-0.1-0.1-0.2-0.1-0.3
			C30.6,31.5,30.7,31.5,30.8,31.6z"/>
		<path fill="#18FFFF" d="M31.5,30.8c0.1,0.1,0.1,0.2,0,0.3c-0.1,0.1-0.2,0.1-0.3,0s-0.1-0.2,0-0.3C31.3,30.7,31.5,30.7,31.5,30.8z"
			/>
		<path fill="#18FFFF" d="M32.3,30.1c0.1,0.1,0.1,0.2,0,0.3c-0.1,0.1-0.2,0.1-0.3,0c-0.1-0.1-0.1-0.2,0-0.3
			C32.1,30,32.3,30,32.3,30.1z"/>
		<path fill="#18FFFF" d="M33.2,29.5c0.1,0.1,0,0.2-0.1,0.3c-0.1,0.1-0.2,0-0.3-0.1c-0.1-0.1,0-0.2,0.1-0.3
			C33,29.4,33.2,29.4,33.2,29.5z"/>
	</g>
	<g>
		<path fill="#18FFFF" d="M34.3,29c0.1,0.1,0,0.2-0.1,0.3c-0.1,0.1-0.2,0-0.3-0.1c-0.1-0.1,0-0.2,0.1-0.3
			C34.2,28.8,34.3,28.9,34.3,29z"/>
		<path fill="#18FFFF" d="M35.3,28.6c0,0.1,0,0.2-0.2,0.3c-0.1,0-0.2,0-0.3-0.2c0-0.1,0-0.2,0.2-0.3C35.2,28.5,35.3,28.5,35.3,28.6z
			"/>
		<path fill="#18FFFF" d="M36.4,28.5c0,0.1-0.1,0.2-0.2,0.3c-0.1,0-0.2-0.1-0.2-0.2c0-0.1,0.1-0.2,0.2-0.3
			C36.3,28.2,36.4,28.3,36.4,28.5z"/>
		<path fill="#18FFFF" d="M37.4,28.4c0,0.1-0.1,0.2-0.2,0.2c-0.1,0-0.2-0.1-0.2-0.2s0.1-0.2,0.2-0.2C37.4,28.2,37.5,28.3,37.4,28.4z
			"/>
		<path fill="#18FFFF" d="M38.5,28.5c0,0.1-0.1,0.2-0.2,0.2c-0.1,0-0.2-0.1-0.2-0.2c0-0.1,0.1-0.2,0.2-0.2
			C38.5,28.2,38.5,28.4,38.5,28.5z"/>
		<path fill="#18FFFF" d="M39.6,28.7c0,0.1-0.2,0.2-0.3,0.2c-0.1,0-0.2-0.1-0.2-0.3c0-0.1,0.1-0.2,0.3-0.2
			C39.5,28.4,39.6,28.6,39.6,28.7z"/>
		<path fill="#18FFFF" d="M40.6,29c-0.1,0.1-0.2,0.2-0.3,0.1c-0.1,0-0.2-0.2-0.1-0.3c0-0.1,0.2-0.2,0.3-0.1
			C40.6,28.8,40.6,28.9,40.6,29z"/>
		<path fill="#18FFFF" d="M41.5,29.5c-0.1,0.1-0.2,0.2-0.3,0.1c-0.1-0.1-0.1-0.2-0.1-0.3c0.1-0.1,0.2-0.2,0.3-0.1
			C41.6,29.3,41.6,29.4,41.5,29.5z"/>
	</g>
	<g>
		<path fill="#18FFFF" d="M42.5,30.2c-0.1,0.1-0.2,0.1-0.3,0.1c-0.1-0.1-0.1-0.2,0-0.3s0.2-0.1,0.3-0.1C42.6,30,42.6,30.1,42.5,30.2
			z"/>
		<path fill="#18FFFF" d="M43.3,30.9c-0.1,0.1-0.2,0.1-0.3,0c-0.1-0.1-0.1-0.2,0-0.3c0.1-0.1,0.2-0.1,0.3,0
			C43.4,30.7,43.4,30.8,43.3,30.9z"/>
		<path fill="#18FFFF" d="M44,31.7c-0.1,0.1-0.2,0.1-0.3,0c-0.1-0.1-0.1-0.2,0-0.3c0.1-0.1,0.2-0.1,0.3,0
			C44.1,31.5,44.1,31.6,44,31.7z"/>
		<path fill="#18FFFF" d="M44.6,32.6c-0.1,0.1-0.2,0-0.3-0.1c-0.1-0.1,0-0.2,0.1-0.3c0.1-0.1,0.2,0,0.3,0.1
			C44.7,32.4,44.7,32.5,44.6,32.6z"/>
		<path fill="#18FFFF" d="M45.1,33.6c-0.1,0.1-0.2,0-0.3-0.1c-0.1-0.1,0-0.2,0.1-0.3c0.1-0.1,0.2,0,0.3,0.1
			C45.2,33.4,45.2,33.5,45.1,33.6z"/>
		<path fill="#18FFFF" d="M45.4,34.6c-0.1,0-0.2,0-0.3-0.1c0-0.1,0-0.2,0.2-0.3c0.1,0,0.2,0,0.3,0.1C45.6,34.4,45.5,34.6,45.4,34.6z
			"/>
		<path fill="#18FFFF" d="M45.6,35.6c-0.1,0-0.2-0.1-0.3-0.2c0-0.1,0.1-0.2,0.2-0.2c0.1,0,0.2,0.1,0.3,0.2
			C45.8,35.5,45.7,35.6,45.6,35.6z"/>
		<path fill="#18FFFF" d="M45.7,36.7c-0.1,0-0.2-0.1-0.2-0.2c0-0.1,0.1-0.2,0.2-0.2c0.1,0,0.2,0.1,0.2,0.2
			C45.9,36.6,45.8,36.7,45.7,36.7z"/>
	</g>
</g>
<circle fill="#18FFFF" cx="29" cy="36.7" r="0.8"/>
<path fill="none" stroke="#18FFFF" stroke-width="0.25" stroke-miterlimit="10" d="M24.7,24.2V13.4c0,0-0.3-2,1.4-2h2.6"/>
<path fill="none" stroke="#18FFFF" stroke-width="0.25" stroke-miterlimit="10" d="M24.7,23.9v10.8c0,0-0.3,2,1.4,2h2.6"/>
<g>
	<path opacity="0.79" fill="#18FFFF" d="M14,23.6c0.1-0.1,0.2-0.2,0.2-0.3v-0.9c0-0.1-0.1-0.3-0.2-0.3l-3.1-1.8
		c-0.1-0.1-0.3-0.1-0.4,0L7.3,22c-0.1,0.1-0.2,0.2-0.2,0.3V26c0,0.1,0.1,0.3,0.2,0.3l3.1,1.8c0.1,0.1,0.3,0.1,0.4,0l1.9-1.1
		c0.1,0,0.1-0.1,0.1-0.2c0-0.1,0-0.1-0.1-0.2l-3.2-1.8c-0.1,0-0.1-0.1-0.1-0.2v-1.1c0-0.1,0-0.1,0.1-0.2l1-0.6c0.1,0,0.1,0,0.2,0
		l1,0.6c0.1,0,0.1,0.1,0.1,0.2v0.9c0,0.1,0,0.1,0.1,0.2c0.1,0,0.1,0,0.2,0L14,23.6z"/>
	<path fill="#18FFFF" d="M10.7,23.4C10.7,23.4,10.7,23.4,10.7,23.4l0.7,0.4c0,0,0,0,0,0.1v0.7c0,0,0,0.1,0,0.1L10.7,25
		c0,0-0.1,0-0.1,0L10,24.6c0,0,0,0,0-0.1v-0.7c0,0,0-0.1,0-0.1L10.7,23.4z"/>
</g>
<g>
	<path fill="#18FFFF" d="M33.9,9.7c0.1-0.1,0.1-0.1,0.2-0.2c1-0.4,1.9-0.8,2.9-1.1c0.2-0.1,0.3-0.1,0.5-0.1c0.1,0,0.3,0.1,0.4,0.1
		c0.8,0.3,1.6,0.6,2.5,1c0.1,0,0.2,0.1,0.3,0.1c0.1,0,0.1,0.1,0.1,0.2c-0.1,0.1-0.1,0.1-0.2,0.2c-0.3,0.2-0.6,0.3-0.9,0.4
		c-0.3,0.1-0.7,0.3-1,0.4c-0.3,0.1-0.7,0.3-1,0.4c-0.2,0.1-0.3,0.1-0.5,0.1c-0.1,0-0.2-0.1-0.3-0.1c-0.4-0.2-0.9-0.4-1.3-0.5
		c-0.4-0.2-0.8-0.3-1.2-0.5C34.2,10,34,9.9,33.9,9.7C33.9,9.8,33.9,9.7,33.9,9.7z M39,9.3C39,9.3,39,9.3,39,9.3
		c-0.3,0.1-0.6,0.2-0.9,0.4c0,0-0.1,0-0.1,0.1c0,0,0,0,0.1,0c0.3,0.1,0.5,0.2,0.8,0.3c0.1,0,0.1,0,0.2,0c0.3-0.1,0.6-0.2,0.9-0.4
		c0,0,0,0,0,0C39.6,9.5,39.3,9.4,39,9.3z M35.9,10.1c0.2,0,0.3,0,0.5-0.1c0.1,0,0.2-0.1,0.3-0.2c0.1-0.1,0.1-0.2,0-0.2
		c0,0-0.1-0.1-0.2-0.1c-0.4-0.1-0.8-0.1-1.2,0c-0.1,0-0.2,0.1-0.2,0.1c-0.1,0.1-0.1,0.2,0,0.3c0,0,0.1,0.1,0.2,0.1
		C35.5,10,35.7,10.1,35.9,10.1z M36.4,10.3C36.4,10.3,36.4,10.3,36.4,10.3c0.4,0.2,0.7,0.3,1.1,0.5c0,0,0,0,0.1,0
		c0.1-0.2,0.3-0.4,0.4-0.6c0,0,0,0,0,0C37.4,10.2,36.9,10.2,36.4,10.3z M37.9,8.7c-0.1,0-0.2,0.1-0.3,0.1c-0.1,0-0.2,0-0.2,0
		c-0.1-0.1-0.2-0.1-0.4-0.1c0,0.1,0.1,0.2,0.1,0.2c0,0,0,0,0,0.1c-0.1,0-0.3,0.1-0.4,0.1c0,0,0,0-0.1,0c0.2,0,0.4,0,0.6,0.1
		c0.1,0,0.1,0,0.1,0.1c0.1,0.1,0.1,0.2,0.2,0.3c0-0.1,0.1-0.1,0.1-0.2c0-0.1,0.1-0.1,0.2-0.1c0.1,0,0.3,0,0.4,0c0,0,0,0,0,0
		c-0.1,0-0.2-0.1-0.3-0.1c0,0-0.1,0,0-0.1C37.9,8.9,37.9,8.8,37.9,8.7z"/>
	<path opacity="0.79" fill="#18FFFF" d="M40.8,12c0,0.2,0,0.4,0,0.7c0,0,0,0.1-0.1,0.1c-0.1,0.1-0.2,0.1-0.3,0.2
		c-0.6,0.3-1.1,0.5-1.7,0.7c-0.3,0.2-0.7,0.3-1,0.5c-0.1,0.1-0.3,0.1-0.5,0.1c-0.1,0-0.2,0-0.3-0.1c-0.8-0.3-1.6-0.7-2.3-1
		c-0.2-0.1-0.4-0.2-0.6-0.2c-0.1,0-0.1-0.1-0.2-0.2c0-0.2,0-0.5,0-0.7c0.1,0.1,0.2,0.1,0.3,0.2c0.3,0.1,0.6,0.2,0.8,0.4
		c0.4,0.2,0.8,0.3,1.2,0.5c0.3,0.1,0.5,0.2,0.8,0.3c0.3,0.1,0.5,0.1,0.8,0c0.1-0.1,0.2-0.1,0.4-0.2c0.3-0.1,0.6-0.3,0.9-0.4
		c0.3-0.1,0.5-0.2,0.8-0.3c0.3-0.1,0.5-0.2,0.8-0.4C40.7,12.2,40.8,12.1,40.8,12z"/>
	<path opacity="0.79" fill="#18FFFF" d="M40.8,10.9c0,0.2,0,0.4,0,0.7c0,0,0,0.1,0,0.1c-0.1,0.1-0.1,0.1-0.2,0.1c0,0,0,0,0,0
		c0,0,0,0,0,0c-0.2,0.1-0.4,0.2-0.7,0.3c-0.3,0.1-0.5,0.2-0.8,0.3c-0.3,0.1-0.6,0.3-0.9,0.4c-0.2,0.1-0.3,0.2-0.5,0.2
		c-0.2,0.1-0.4,0.1-0.6,0.1c-0.2,0-0.3-0.1-0.4-0.2c-0.4-0.1-0.7-0.3-1.1-0.5c-0.3-0.1-0.5-0.2-0.8-0.3c-0.2-0.1-0.4-0.2-0.7-0.3
		c0,0,0,0-0.1,0c-0.1,0-0.2-0.1-0.2-0.2c0-0.2,0-0.5,0-0.7c0.1,0.1,0.2,0.2,0.4,0.2c0.2,0.1,0.4,0.2,0.6,0.3
		c0.4,0.2,0.8,0.3,1.2,0.5c0.3,0.1,0.6,0.2,0.9,0.4c0.2,0.1,0.5,0.1,0.7,0c0.1,0,0.2-0.1,0.3-0.1c0.3-0.2,0.7-0.3,1-0.4
		c0.3-0.1,0.5-0.2,0.8-0.3c0.3-0.1,0.5-0.2,0.8-0.4C40.7,11,40.8,11,40.8,10.9z"/>
	<path opacity="0.79" fill="#18FFFF" d="M33.9,9.8c0.1,0.1,0.3,0.2,0.4,0.3c0.4,0.2,0.8,0.3,1.2,0.5c0.4,0.2,0.9,0.4,1.3,0.5
		c0.1,0,0.2,0.1,0.3,0.1c0.2,0,0.3,0,0.5-0.1c0.3-0.2,0.7-0.3,1-0.4c0.3-0.1,0.7-0.3,1-0.4c0.3-0.1,0.6-0.3,0.9-0.4
		c0.1,0,0.2-0.1,0.2-0.2c0,0.2,0,0.4,0,0.7c0,0,0,0.1-0.1,0.1c-0.1,0.1-0.1,0.1-0.2,0.1c0,0,0,0-0.1,0c-0.2,0.1-0.5,0.2-0.7,0.3
		c-0.3,0.1-0.5,0.2-0.8,0.4c-0.3,0.1-0.6,0.3-0.9,0.4c-0.2,0.1-0.3,0.2-0.5,0.2c-0.2,0.1-0.4,0.1-0.6,0c-0.2-0.1-0.4-0.2-0.6-0.3
		c-0.4-0.2-0.7-0.3-1.1-0.5c-0.3-0.1-0.6-0.2-0.9-0.4c-0.1,0-0.2-0.1-0.3-0.1c0,0-0.1,0-0.1,0c-0.1-0.1-0.2-0.1-0.2-0.2
		C33.9,10.3,33.9,10,33.9,9.8z"/>
	<path opacity="0.35" fill="#18FFFF" d="M34.2,10.7c0.1,0,0.2,0.1,0.3,0.1c0.3,0.1,0.6,0.2,0.9,0.4c0.4,0.2,0.7,0.3,1.1,0.5
		c0.2,0.1,0.4,0.2,0.6,0.3c0.2,0.1,0.4,0.1,0.6,0c0.2-0.1,0.3-0.2,0.5-0.2c0.3-0.1,0.6-0.3,0.9-0.4c0.3-0.1,0.5-0.2,0.8-0.4
		c0.2-0.1,0.5-0.2,0.7-0.3c0.1,0,0.2,0.1,0.2,0.1c0,0,0.1,0.1,0.1,0.1c-0.1,0.1-0.2,0.2-0.3,0.2c-0.3,0.1-0.5,0.2-0.8,0.4
		c-0.3,0.1-0.5,0.2-0.8,0.3c-0.3,0.1-0.7,0.3-1,0.4c-0.1,0-0.2,0.1-0.3,0.1c-0.2,0.1-0.5,0.1-0.7,0c-0.3-0.1-0.6-0.3-0.9-0.4
		c-0.4-0.2-0.8-0.3-1.2-0.5c-0.2-0.1-0.4-0.2-0.6-0.3c-0.1-0.1-0.3-0.1-0.4-0.2c0,0,0-0.1,0-0.1c0,0,0-0.1,0.1-0.1
		C34,10.8,34.1,10.7,34.2,10.7z"/>
	<path opacity="0.35" fill="#18FFFF" d="M34.2,11.9c0.2,0.1,0.4,0.2,0.7,0.3c0.3,0.1,0.5,0.2,0.8,0.3c0.4,0.2,0.7,0.3,1.1,0.5
		c0.1,0.1,0.3,0.1,0.4,0.2c0.2,0,0.4,0,0.6-0.1c0.2-0.1,0.3-0.2,0.5-0.2c0.3-0.1,0.6-0.3,0.9-0.4c0.3-0.1,0.5-0.2,0.8-0.3
		c0.2-0.1,0.4-0.2,0.7-0.3c0,0,0,0,0,0c0.1,0,0.1,0.1,0.2,0.1c0,0,0.1,0.1,0.1,0.1c-0.1,0.1-0.2,0.1-0.3,0.2
		c-0.3,0.1-0.5,0.2-0.8,0.4c-0.3,0.1-0.5,0.2-0.8,0.3c-0.3,0.1-0.6,0.3-0.9,0.4c-0.1,0.1-0.2,0.1-0.4,0.2c-0.3,0.1-0.5,0.1-0.8,0
		c-0.2-0.1-0.5-0.2-0.8-0.3c-0.4-0.2-0.8-0.3-1.2-0.5c-0.3-0.1-0.6-0.2-0.8-0.4c-0.1,0-0.2-0.1-0.3-0.2c0,0,0,0,0-0.1
		c0,0,0.1-0.1,0.1-0.1C34.1,11.9,34.1,11.9,34.2,11.9z"/>
	<path opacity="0.5" fill="#18FFFF" d="M35.9,10.1c-0.2,0-0.4,0-0.6-0.1c-0.1,0-0.1-0.1-0.2-0.1c-0.1-0.1-0.1-0.2,0-0.3
		c0.1-0.1,0.2-0.1,0.2-0.1c0.4-0.1,0.8-0.1,1.2,0c0.1,0,0.1,0.1,0.2,0.1c0.1,0.1,0.1,0.2,0,0.2c-0.1,0.1-0.2,0.1-0.3,0.2
		C36.3,10,36.1,10.1,35.9,10.1z"/>
	<path opacity="0.5" fill="#18FFFF" d="M36.4,10.3c0.5-0.1,1.1-0.2,1.6-0.2c0,0,0,0,0,0c-0.1,0.2-0.3,0.4-0.4,0.6c0,0,0,0-0.1,0
		C37.1,10.6,36.8,10.5,36.4,10.3C36.4,10.3,36.4,10.3,36.4,10.3z"/>
	<path opacity="0.5" fill="#18FFFF" d="M37.9,8.7c0,0.1-0.1,0.2-0.1,0.2c0,0,0,0.1,0,0.1c0.1,0,0.2,0.1,0.3,0.1c0,0,0,0,0,0
		c-0.2,0-0.3,0-0.4,0c-0.1,0-0.2,0-0.2,0.1c0,0.1-0.1,0.1-0.1,0.2c-0.1-0.1-0.1-0.2-0.2-0.3c0-0.1-0.1-0.1-0.1-0.1
		c-0.2,0-0.4,0-0.6-0.1c0,0,0,0,0.1,0C36.8,9.1,37,9,37.1,9c0,0,0,0,0-0.1c0-0.1-0.1-0.2-0.1-0.2c0.1,0.1,0.3,0.1,0.4,0.1
		c0.1,0,0.1,0,0.2,0C37.7,8.8,37.8,8.8,37.9,8.7z"/>
	<path opacity="0.5" fill="#18FFFF" d="M39,10c-0.1,0-0.1,0-0.2,0c-0.3-0.1-0.5-0.2-0.8-0.3c0,0,0,0-0.1,0c0,0,0.1,0,0.1-0.1
		c0.3-0.1,0.6-0.2,0.8-0.3c0,0,0,0,0.1,0C39,9.6,39,9.8,39,10z"/>
	<path opacity="0.7" fill="#18FFFF" d="M39,10c0-0.2,0-0.5,0-0.7c0.3,0.1,0.6,0.2,0.9,0.4c0,0,0,0,0,0C39.6,9.8,39.3,9.9,39,10z"/>
</g>
<g>
	<g>
		<path opacity="0.59" fill="#18FFFF" d="M37.3,33C37.3,33,37.3,33,37.3,33c0.1,0.3,0.3,0.5,0.5,0.7c0.7,0.7,1.1,1.6,1.3,2.5
			c0,0.2,0.1,0.5,0,0.7c0,1-0.3,1.8-1,2.5c-0.2,0.2-0.3,0.3-0.5,0.4c-0.1,0-0.1-0.1-0.2-0.1c-0.1-0.2-0.1-0.4-0.1-0.7c0,0,0,0,0-0.1
			c0-0.4,0.1-0.8,0.1-1.2c0-0.2,0-0.5,0-0.7c0-0.3,0-0.6,0-0.9c0,0,0-0.1,0-0.1c0-0.1,0-0.1,0-0.2c0-0.4,0-0.8,0-1.1
			C37.3,34.2,37.3,33.6,37.3,33z"/>
		<path fill="#18FFFF" d="M37.4,37.8c0,0.4,0,0.8-0.1,1.2c0,0,0,0,0,0.1c0,0.2-0.1,0.4-0.1,0.7c0,0.1,0,0.2-0.1,0.2
			c-0.4-0.3-0.7-0.6-1-1c-0.4-0.6-0.7-1.3-0.7-2.1c0-0.8,0.2-1.6,0.6-2.4c0-0.1,0-0.1,0.1-0.2c0,0,0,0.1,0.1,0.1
			c0.2,0.5,0.3,0.9,0.5,1.4c0.2,0.6,0.4,1.3,0.6,1.9C37.3,37.8,37.3,37.8,37.4,37.8z"/>
		<path fill="#18FFFF" d="M37.4,37.8c-0.1,0-0.1-0.1-0.1-0.1c-0.2-0.6-0.4-1.3-0.6-1.9c-0.2-0.5-0.3-0.9-0.5-1.4c0,0,0-0.1-0.1-0.1
			c0.1-0.2,0.2-0.4,0.4-0.5c0.1,0,0.1,0.1,0.1,0.1c0.2,0.7,0.5,1.4,0.7,2c0,0,0,0.1,0.1,0.1c0,0,0,0.1,0,0.1c0,0.3,0,0.6,0,0.9
			C37.4,37.3,37.4,37.6,37.4,37.8z"/>
		<path fill="#18FFFF" d="M37.4,36.1c-0.1,0-0.1-0.1-0.1-0.1c-0.2-0.7-0.5-1.4-0.7-2c0,0,0-0.1-0.1-0.1c0.1-0.2,0.3-0.3,0.5-0.5
			c0.2-0.1,0.3-0.3,0.3-0.5c0,0,0,0,0,0.1c0,0,0,0,0,0c0,0,0,0,0,0c0,0,0,0,0,0c0,0.6,0,1.2,0,1.8c0,0.4,0,0.8,0,1.1
			C37.4,36,37.4,36.1,37.4,36.1z"/>
		<path opacity="0.5" fill="#18FFFF" d="M37.1,40c0.1-0.1,0.1-0.1,0.1-0.2c0-0.2,0.1-0.4,0.1-0.7c0,0.2,0,0.5,0.1,0.7
			c0,0.1,0.1,0.1,0.2,0.1c-0.1,0.2-0.1,0.4-0.1,0.6c0,0.1,0,0.3,0,0.4c0,0,0,0.1,0,0.1c-0.1,0-0.2,0-0.2-0.1c0-0.2,0-0.4-0.1-0.6
			C37.2,40.1,37.2,40,37.1,40z"/>
		<path fill="#18FFFF" d="M37.3,33C37.3,33,37.3,33,37.3,33C37.3,32.9,37.3,32.9,37.3,33C37.3,32.9,37.3,33,37.3,33z"/>
	</g>
</g>
</svg>
