<?xml version="1.0" encoding="utf-8"?>
<!-- Generator: Adobe Illustrator 18.1.1, SVG Export Plug-In . SVG Version: 6.00 Build 0)  -->
<svg version="1.1" id="Слой_1" xmlns="http://www.w3.org/2000/svg" xmlns:xlink="http://www.w3.org/1999/xlink" x="0px" y="0px"
	 viewBox="0 0 652 160" enable-background="new 0 0 652 160" xml:space="preserve">
<line fill="none" stroke="#18FFFF" stroke-width="2" stroke-miterlimit="10" x1="150" y1="81.5" x2="259.9" y2="81.5"/>
<g>
	<g>
		<path fill="#18FFFF" d="M147.7,91.1c-1-0.1-1.7-1-1.5-1.9c0.1-0.9,1-1.6,1.9-1.5c1,0.1,1.7,0.9,1.6,1.9
			C149.5,90.6,148.6,91.3,147.7,91.1z"/>
		<path fill="#18FFFF" d="M145.9,99.4c-0.9-0.3-1.5-1.2-1.3-2.1c0.2-0.9,1.1-1.4,2.1-1.2c1,0.2,1.5,1.1,1.3,2.1
			C147.8,99.2,146.8,99.7,145.9,99.4z"/>
		<path fill="#18FFFF" d="M143.1,107.4c-0.9-0.4-1.3-1.4-1-2.2c0.3-0.8,1.3-1.3,2.3-0.9c0.9,0.3,1.4,1.3,1,2.2
			C145,107.4,144,107.8,143.1,107.4z"/>
		<path fill="#18FFFF" d="M139.2,115c-0.8-0.5-1.1-1.5-0.7-2.3c0.5-0.8,1.5-1.1,2.3-0.6c0.9,0.4,1.2,1.5,0.7,2.4
			C141.1,115.2,140.1,115.5,139.2,115z"/>
		<path fill="#18FFFF" d="M134.4,122c-0.8-0.6-0.9-1.7-0.4-2.4c0.5-0.7,1.6-0.9,2.4-0.3c0.8,0.6,1,1.6,0.4,2.4
			C136.3,122.5,135.2,122.6,134.4,122z"/>
		<path fill="#18FFFF" d="M128.8,128.4c-0.7-0.7-0.7-1.8-0.1-2.4c0.6-0.7,1.7-0.7,2.4,0c0.7,0.7,0.8,1.7,0.1,2.4
			C130.6,129.1,129.5,129.1,128.8,128.4z"/>
		<path fill="#18FFFF" d="M122.4,133.9c-0.6-0.8-0.5-1.9,0.2-2.4c0.7-0.5,1.8-0.5,2.4,0.3c0.6,0.7,0.6,1.9-0.2,2.5
			C124.1,134.8,123,134.7,122.4,133.9z"/>
		<path fill="#18FFFF" d="M115.4,138.6c-0.5-0.9-0.2-1.9,0.5-2.4c0.8-0.5,1.8-0.2,2.4,0.6c0.5,0.8,0.3,1.9-0.5,2.4
			C116.9,139.8,115.8,139.5,115.4,138.6z"/>
	</g>
	<g>
		<path fill="#18FFFF" d="M106.7,142.8c-0.4-0.9,0-1.9,0.9-2.3c0.8-0.4,1.8,0,2.2,0.9c0.4,0.9,0,1.9-0.9,2.3
			C108,144.2,107,143.7,106.7,142.8z"/>
		<path fill="#18FFFF" d="M98.6,145.5c-0.2-0.9,0.3-1.9,1.2-2.1c0.9-0.2,1.8,0.3,2.1,1.2c0.3,0.9-0.2,1.9-1.2,2.2
			C99.8,147,98.8,146.4,98.6,145.5z"/>
		<path fill="#18FFFF" d="M90.2,147c-0.1-1,0.5-1.8,1.4-2c0.9-0.1,1.8,0.5,1.9,1.5c0.2,0.9-0.5,1.9-1.4,2
			C91.2,148.6,90.4,148,90.2,147z"/>
		<path fill="#18FFFF" d="M81.8,147.5c0-1,0.8-1.7,1.7-1.8c0.9,0,1.7,0.7,1.7,1.7c0,1-0.7,1.8-1.7,1.8
			C82.5,149.3,81.8,148.4,81.8,147.5z"/>
		<path fill="#18FFFF" d="M73.3,146.8c0.1-1,1-1.7,1.9-1.5c0.9,0.1,1.6,0.9,1.5,1.9c-0.1,1-0.9,1.7-1.9,1.6
			C73.8,148.7,73.2,147.8,73.3,146.8z"/>
		<path fill="#18FFFF" d="M65,145.2c0.3-0.9,1.2-1.5,2.1-1.3c0.9,0.2,1.4,1.1,1.2,2.1s-1.1,1.5-2.1,1.3
			C65.3,147.1,64.7,146.1,65,145.2z"/>
		<path fill="#18FFFF" d="M57,142.4c0.4-0.9,1.4-1.4,2.2-1c0.8,0.3,1.3,1.3,1,2.2c-0.3,0.9-1.3,1.4-2.2,1
			C57,144.3,56.6,143.3,57,142.4z"/>
		<path fill="#18FFFF" d="M49.4,138.6c0.5-0.8,1.5-1.2,2.3-0.7c0.8,0.4,1.1,1.5,0.7,2.3c-0.4,0.9-1.5,1.2-2.4,0.8
			C49.2,140.5,48.9,139.5,49.4,138.6z"/>
	</g>
	<g>
		<path fill="#18FFFF" d="M41.4,133.2c0.6-0.8,1.7-0.9,2.4-0.4c0.7,0.5,0.9,1.6,0.3,2.4c-0.6,0.8-1.7,1-2.4,0.4
			C40.9,135,40.8,133.9,41.4,133.2z"/>
		<path fill="#18FFFF" d="M35.1,127.5c0.7-0.7,1.8-0.7,2.4-0.1c0.7,0.6,0.7,1.7,0,2.4s-1.8,0.8-2.5,0.1
			C34.3,129.3,34.4,128.2,35.1,127.5z"/>
		<path fill="#18FFFF" d="M29.6,121.1c0.8-0.6,1.9-0.5,2.4,0.2c0.6,0.7,0.4,1.8-0.3,2.4c-0.8,0.6-1.9,0.5-2.4-0.2
			C28.6,122.7,28.8,121.6,29.6,121.1z"/>
		<path fill="#18FFFF" d="M24.9,114c0.8-0.5,1.9-0.2,2.4,0.6c0.5,0.8,0.2,1.8-0.6,2.3c-0.8,0.5-1.9,0.3-2.4-0.5
			C23.8,115.5,24.1,114.4,24.9,114z"/>
		<path fill="#18FFFF" d="M21.2,106.3c0.9-0.4,1.9,0,2.3,0.9c0.4,0.8,0,1.8-0.9,2.3s-1.9,0-2.3-0.8
			C19.8,107.7,20.3,106.7,21.2,106.3z"/>
		<path fill="#18FFFF" d="M18.5,98.3c0.9-0.2,1.9,0.3,2.2,1.1c0.2,0.9-0.3,1.8-1.2,2.1c-0.9,0.3-1.9-0.2-2.2-1.1
			C17,99.5,17.6,98.5,18.5,98.3z"/>
		<path fill="#18FFFF" d="M16.9,89.9c1-0.1,1.8,0.5,2,1.4c0.2,0.9-0.5,1.8-1.4,1.9c-1,0.2-1.9-0.5-2-1.4
			C15.3,90.9,16,90.1,16.9,89.9z"/>
		<path fill="#18FFFF" d="M16.4,81.5c1,0,1.8,0.7,1.8,1.7c0,0.9-0.7,1.7-1.7,1.7s-1.8-0.7-1.8-1.7C14.6,82.3,15.4,81.5,16.4,81.5z"
			/>
	</g>
	<g>
		<path fill="#18FFFF" d="M17.1,71.8c1,0.1,1.7,1,1.5,1.9c-0.1,0.9-1,1.6-1.9,1.5c-1-0.1-1.7-0.9-1.6-1.9
			C15.2,72.3,16.1,71.7,17.1,71.8z"/>
		<path fill="#18FFFF" d="M18.9,63.5c0.9,0.3,1.5,1.2,1.3,2.1C19.9,66.5,19,67,18,66.8s-1.5-1.1-1.3-2.1
			C16.9,63.8,17.9,63.3,18.9,63.5z"/>
		<path fill="#18FFFF" d="M21.7,55.5c0.9,0.4,1.3,1.4,1,2.2c-0.3,0.8-1.3,1.3-2.3,0.9s-1.4-1.3-1-2.2C19.7,55.6,20.8,55.1,21.7,55.5
			z"/>
		<path fill="#18FFFF" d="M25.5,48c0.8,0.5,1.1,1.5,0.7,2.3c-0.5,0.8-1.5,1.1-2.3,0.6c-0.9-0.4-1.2-1.5-0.7-2.4
			C23.6,47.7,24.7,47.5,25.5,48z"/>
		<path fill="#18FFFF" d="M30.3,41c0.8,0.6,0.9,1.7,0.4,2.4c-0.5,0.7-1.6,0.9-2.4,0.3c-0.8-0.6-1-1.6-0.4-2.4
			C28.4,40.5,29.5,40.4,30.3,41z"/>
		<path fill="#18FFFF" d="M35.9,34.6c0.7,0.7,0.7,1.8,0.1,2.4c-0.6,0.7-1.7,0.7-2.4,0c-0.7-0.7-0.8-1.7-0.1-2.4
			C34.1,33.9,35.2,33.9,35.9,34.6z"/>
		<path fill="#18FFFF" d="M42.3,29c0.6,0.8,0.5,1.9-0.2,2.4c-0.7,0.5-1.8,0.5-2.4-0.3c-0.6-0.7-0.6-1.9,0.2-2.5
			C40.6,28.1,41.7,28.3,42.3,29z"/>
		<path fill="#18FFFF" d="M49.4,24.3c0.5,0.9,0.2,1.9-0.5,2.4c-0.8,0.5-1.8,0.2-2.4-0.6c-0.5-0.8-0.3-1.9,0.5-2.4
			C47.8,23.2,48.9,23.5,49.4,24.3z"/>
	</g>
	<g>
		<path fill="#18FFFF" d="M58.1,20.1c0.4,0.9,0,1.9-0.9,2.3c-0.8,0.4-1.8,0-2.2-0.9c-0.4-0.9,0-1.9,0.9-2.3
			C56.7,18.7,57.7,19.2,58.1,20.1z"/>
		<path fill="#18FFFF" d="M66.1,17.5c0.2,0.9-0.3,1.9-1.2,2.1c-0.9,0.2-1.8-0.3-2.1-1.2c-0.3-0.9,0.2-1.9,1.2-2.2
			C65,16,65.9,16.5,66.1,17.5z"/>
		<path fill="#18FFFF" d="M74.5,16c0.1,1-0.5,1.8-1.4,2c-0.9,0.1-1.8-0.5-1.9-1.5c-0.2-0.9,0.5-1.9,1.4-2C73.5,14.3,74.4,15,74.5,16
			z"/>
		<path fill="#18FFFF" d="M83,15.5c0,1-0.8,1.7-1.7,1.8c-0.9,0-1.7-0.7-1.7-1.7c0-1,0.7-1.8,1.7-1.8C82.2,13.7,83,14.5,83,15.5z"/>
		<path fill="#18FFFF" d="M91.4,16.1c-0.1,1-1,1.7-1.9,1.5c-0.9-0.1-1.6-0.9-1.5-1.9c0.1-1,0.9-1.7,1.9-1.6
			C90.9,14.3,91.6,15.1,91.4,16.1z"/>
		<path fill="#18FFFF" d="M99.7,17.8c-0.3,0.9-1.2,1.5-2.1,1.3c-0.9-0.2-1.4-1.1-1.2-2.1s1.1-1.5,2.1-1.3
			C99.5,15.9,100,16.9,99.7,17.8z"/>
		<path fill="#18FFFF" d="M107.8,20.5c-0.4,0.9-1.4,1.4-2.2,1c-0.8-0.3-1.3-1.3-1-2.2c0.3-0.9,1.3-1.4,2.2-1
			C107.7,18.6,108.1,19.7,107.8,20.5z"/>
		<path fill="#18FFFF" d="M115.4,24.3c-0.5,0.8-1.5,1.2-2.3,0.7c-0.8-0.4-1.1-1.5-0.7-2.3c0.4-0.9,1.5-1.2,2.4-0.8
			C115.6,22.4,115.9,23.5,115.4,24.3z"/>
	</g>
	<g>
		<path fill="#18FFFF" d="M123.4,29.8c-0.6,0.8-1.7,0.9-2.4,0.4c-0.7-0.5-0.9-1.6-0.3-2.4c0.6-0.8,1.7-1,2.4-0.4
			C123.8,27.9,124,29,123.4,29.8z"/>
		<path fill="#18FFFF" d="M129.7,35.5c-0.7,0.7-1.8,0.7-2.4,0.1c-0.7-0.6-0.7-1.7,0-2.4c0.7-0.7,1.8-0.8,2.5-0.1
			C130.4,33.6,130.3,34.8,129.7,35.5z"/>
		<path fill="#18FFFF" d="M135.2,41.9c-0.8,0.6-1.9,0.5-2.4-0.2c-0.6-0.7-0.4-1.8,0.3-2.4c0.8-0.6,1.9-0.5,2.4,0.2
			C136.1,40.2,136,41.3,135.2,41.9z"/>
		<path fill="#18FFFF" d="M139.8,49c-0.8,0.5-1.9,0.2-2.4-0.6c-0.5-0.8-0.2-1.8,0.6-2.3c0.8-0.5,1.9-0.3,2.4,0.5
			C141,47.5,140.7,48.5,139.8,49z"/>
		<path fill="#18FFFF" d="M143.5,56.6c-0.9,0.4-1.9,0-2.3-0.9c-0.4-0.8,0-1.8,0.9-2.3c0.9-0.4,1.9,0,2.3,0.8
			C144.9,55.2,144.4,56.3,143.5,56.6z"/>
		<path fill="#18FFFF" d="M146.2,64.7c-0.9,0.2-1.9-0.3-2.2-1.1c-0.2-0.9,0.3-1.8,1.2-2.1c0.9-0.3,1.9,0.2,2.2,1.1
			C147.7,63.5,147.1,64.4,146.2,64.7z"/>
		<path fill="#18FFFF" d="M147.8,73c-1,0.1-1.8-0.5-2-1.4c-0.2-0.9,0.5-1.8,1.4-1.9c1-0.2,1.9,0.5,2,1.4
			C149.5,72,148.8,72.9,147.8,73z"/>
		<path fill="#18FFFF" d="M148.4,81.5c-1,0-1.8-0.7-1.8-1.7s0.7-1.7,1.7-1.7c1-0.1,1.8,0.7,1.8,1.7
			C150.1,80.7,149.3,81.5,148.4,81.5z"/>
	</g>
</g>
<circle fill="#18FFFF" cx="150" cy="81.5" r="6"/>
<g>
	<g>
		<path fill="#18FFFF" d="M392.1,91.1c-1-0.1-1.7-1-1.5-1.9c0.1-0.9,1-1.6,1.9-1.5c1,0.1,1.7,0.9,1.6,1.9
			C393.9,90.6,393.1,91.3,392.1,91.1z"/>
		<path fill="#18FFFF" d="M390.3,99.4c-0.9-0.3-1.5-1.2-1.3-2.1c0.2-0.9,1.1-1.4,2.1-1.2c1,0.2,1.5,1.1,1.3,2.1
			C392.2,99.2,391.2,99.7,390.3,99.4z"/>
		<path fill="#18FFFF" d="M387.5,107.4c-0.9-0.4-1.3-1.4-1-2.2c0.3-0.8,1.3-1.3,2.3-0.9s1.4,1.3,1,2.2
			C389.4,107.4,388.4,107.8,387.5,107.4z"/>
		<path fill="#18FFFF" d="M383.7,115c-0.8-0.5-1.1-1.5-0.7-2.3c0.5-0.8,1.5-1.1,2.3-0.6c0.9,0.4,1.2,1.5,0.7,2.4
			C385.6,115.2,384.5,115.5,383.7,115z"/>
		<path fill="#18FFFF" d="M378.9,122c-0.8-0.6-0.9-1.7-0.4-2.4c0.5-0.7,1.6-0.9,2.4-0.3c0.8,0.6,1,1.6,0.4,2.4
			C380.8,122.5,379.6,122.6,378.9,122z"/>
		<path fill="#18FFFF" d="M373.3,128.4c-0.7-0.7-0.7-1.8-0.1-2.4c0.6-0.7,1.7-0.7,2.4,0c0.7,0.7,0.8,1.7,0.1,2.4
			C375,129.1,373.9,129.1,373.3,128.4z"/>
		<path fill="#18FFFF" d="M366.9,133.9c-0.6-0.8-0.5-1.9,0.2-2.4c0.7-0.5,1.8-0.5,2.4,0.3c0.6,0.7,0.6,1.9-0.2,2.5
			C368.5,134.8,367.4,134.7,366.9,133.9z"/>
		<path fill="#18FFFF" d="M359.8,138.6c-0.5-0.9-0.2-1.9,0.5-2.4c0.8-0.5,1.8-0.2,2.4,0.6c0.5,0.8,0.3,1.9-0.5,2.4
			C361.4,139.8,360.3,139.5,359.8,138.6z"/>
	</g>
	<g>
		<path fill="#18FFFF" d="M351.1,142.8c-0.4-0.9,0-1.9,0.9-2.3c0.8-0.4,1.8,0,2.2,0.9c0.4,0.9,0,1.9-0.9,2.3
			C352.5,144.2,351.4,143.7,351.1,142.8z"/>
		<path fill="#18FFFF" d="M343,145.5c-0.2-0.9,0.3-1.9,1.2-2.1c0.9-0.2,1.8,0.3,2.1,1.2c0.3,0.9-0.2,1.9-1.2,2.2
			C344.2,147,343.3,146.4,343,145.5z"/>
		<path fill="#18FFFF" d="M334.7,147c-0.1-1,0.5-1.8,1.4-2c0.9-0.1,1.8,0.5,1.9,1.5c0.2,0.9-0.5,1.9-1.4,2
			C335.7,148.6,334.8,148,334.7,147z"/>
		<path fill="#18FFFF" d="M326.2,147.5c0-1,0.8-1.7,1.7-1.8c0.9,0,1.7,0.7,1.7,1.7c0,1-0.7,1.8-1.7,1.8
			C327,149.3,326.2,148.4,326.2,147.5z"/>
		<path fill="#18FFFF" d="M317.7,146.8c0.1-1,1-1.7,1.9-1.5c0.9,0.1,1.6,0.9,1.5,1.9c-0.1,1-0.9,1.7-1.9,1.6
			C318.3,148.7,317.6,147.8,317.7,146.8z"/>
		<path fill="#18FFFF" d="M309.4,145.2c0.3-0.9,1.2-1.5,2.1-1.3c0.9,0.2,1.4,1.1,1.2,2.1s-1.1,1.5-2.1,1.3
			C309.7,147.1,309.2,146.1,309.4,145.2z"/>
		<path fill="#18FFFF" d="M301.4,142.4c0.4-0.9,1.4-1.4,2.2-1c0.8,0.3,1.3,1.3,1,2.2c-0.3,0.9-1.3,1.4-2.2,1
			C301.4,144.3,301,143.3,301.4,142.4z"/>
		<path fill="#18FFFF" d="M293.8,138.6c0.5-0.8,1.5-1.2,2.3-0.7c0.8,0.4,1.1,1.5,0.7,2.3c-0.4,0.9-1.5,1.2-2.4,0.8
			C293.6,140.5,293.3,139.5,293.8,138.6z"/>
	</g>
	<g>
		<path fill="#18FFFF" d="M285.8,133.2c0.6-0.8,1.7-0.9,2.4-0.4c0.7,0.5,0.9,1.6,0.3,2.4c-0.6,0.8-1.7,1-2.4,0.4
			C285.3,135,285.2,133.9,285.8,133.2z"/>
		<path fill="#18FFFF" d="M279.5,127.5c0.7-0.7,1.8-0.7,2.4-0.1c0.7,0.6,0.7,1.7,0,2.4s-1.8,0.8-2.5,0.1
			C278.8,129.3,278.8,128.2,279.5,127.5z"/>
		<path fill="#18FFFF" d="M274,121.1c0.8-0.6,1.9-0.5,2.4,0.2c0.6,0.7,0.4,1.8-0.3,2.4c-0.8,0.6-1.9,0.5-2.4-0.2
			C273.1,122.7,273.2,121.6,274,121.1z"/>
		<path fill="#18FFFF" d="M269.3,114c0.8-0.5,1.9-0.2,2.4,0.6c0.5,0.8,0.2,1.8-0.6,2.3c-0.8,0.5-1.9,0.3-2.4-0.5
			C268.2,115.5,268.5,114.4,269.3,114z"/>
		<path fill="#18FFFF" d="M265.7,106.3c0.9-0.4,1.9,0,2.3,0.9c0.4,0.8,0,1.8-0.9,2.3c-0.9,0.4-1.9,0-2.3-0.8
			C264.3,107.7,264.8,106.7,265.7,106.3z"/>
		<path fill="#18FFFF" d="M263,98.3c0.9-0.2,1.9,0.3,2.2,1.1c0.2,0.9-0.3,1.8-1.2,2.1c-0.9,0.3-1.9-0.2-2.2-1.1
			C261.5,99.5,262,98.5,263,98.3z"/>
		<path fill="#18FFFF" d="M261.4,89.9c1-0.1,1.8,0.5,2,1.4c0.2,0.9-0.5,1.8-1.4,1.9c-1,0.2-1.9-0.5-2-1.4
			C259.7,90.9,260.4,90.1,261.4,89.9z"/>
		<path fill="#18FFFF" d="M260.8,81.5c1,0,1.8,0.7,1.8,1.7c0,0.9-0.7,1.7-1.7,1.7s-1.8-0.7-1.8-1.7
			C259.1,82.3,259.8,81.5,260.8,81.5z"/>
	</g>
	<g>
		<path fill="#18FFFF" d="M261.5,71.8c1,0.1,1.7,1,1.5,1.9c-0.1,0.9-1,1.6-1.9,1.5c-1-0.1-1.7-0.9-1.6-1.9
			C259.7,72.3,260.5,71.7,261.5,71.8z"/>
		<path fill="#18FFFF" d="M263.3,63.5c0.9,0.3,1.5,1.2,1.3,2.1c-0.2,0.9-1.1,1.4-2.1,1.2c-1-0.2-1.5-1.1-1.3-2.1
			C261.4,63.8,262.4,63.3,263.3,63.5z"/>
		<path fill="#18FFFF" d="M266.1,55.5c0.9,0.4,1.3,1.4,1,2.2c-0.3,0.8-1.3,1.3-2.3,0.9c-0.9-0.3-1.4-1.3-1-2.2
			C264.2,55.6,265.2,55.1,266.1,55.5z"/>
		<path fill="#18FFFF" d="M269.9,48c0.8,0.5,1.1,1.5,0.7,2.3c-0.5,0.8-1.5,1.1-2.3,0.6c-0.9-0.4-1.2-1.5-0.7-2.4
			C268,47.7,269.1,47.5,269.9,48z"/>
		<path fill="#18FFFF" d="M274.7,41c0.8,0.6,0.9,1.7,0.4,2.4c-0.5,0.7-1.6,0.9-2.4,0.3c-0.8-0.6-1-1.6-0.4-2.4
			C272.8,40.5,274,40.4,274.7,41z"/>
		<path fill="#18FFFF" d="M280.3,34.6c0.7,0.7,0.7,1.8,0.1,2.4c-0.6,0.7-1.7,0.7-2.4,0s-0.8-1.7-0.1-2.4
			C278.6,33.9,279.7,33.9,280.3,34.6z"/>
		<path fill="#18FFFF" d="M286.7,29c0.6,0.8,0.5,1.9-0.2,2.4c-0.7,0.5-1.8,0.5-2.4-0.3c-0.6-0.7-0.6-1.9,0.2-2.5
			C285.1,28.1,286.2,28.3,286.7,29z"/>
		<path fill="#18FFFF" d="M293.8,24.3c0.5,0.9,0.2,1.9-0.5,2.4c-0.8,0.5-1.8,0.2-2.4-0.6s-0.3-1.9,0.5-2.4
			C292.2,23.2,293.3,23.5,293.8,24.3z"/>
	</g>
	<g>
		<path fill="#18FFFF" d="M302.5,20.1c0.4,0.9,0,1.9-0.9,2.3c-0.8,0.4-1.8,0-2.2-0.9c-0.4-0.9,0-1.9,0.9-2.3
			C301.1,18.7,302.2,19.2,302.5,20.1z"/>
		<path fill="#18FFFF" d="M310.6,17.5c0.2,0.9-0.3,1.9-1.2,2.1c-0.9,0.2-1.8-0.3-2.1-1.2c-0.3-0.9,0.2-1.9,1.2-2.2
			C309.4,16,310.3,16.5,310.6,17.5z"/>
		<path fill="#18FFFF" d="M318.9,16c0.1,1-0.5,1.8-1.4,2c-0.9,0.1-1.8-0.5-1.9-1.5c-0.2-0.9,0.5-1.9,1.4-2
			C317.9,14.3,318.8,15,318.9,16z"/>
		<path fill="#18FFFF" d="M327.4,15.5c0,1-0.8,1.7-1.7,1.8c-0.9,0-1.7-0.7-1.7-1.7c0-1,0.7-1.8,1.7-1.8
			C326.6,13.7,327.4,14.5,327.4,15.5z"/>
		<path fill="#18FFFF" d="M335.9,16.1c-0.1,1-1,1.7-1.9,1.5c-0.9-0.1-1.6-0.9-1.5-1.9c0.1-1,0.9-1.7,1.9-1.6
			C335.3,14.3,336,15.1,335.9,16.1z"/>
		<path fill="#18FFFF" d="M344.2,17.8c-0.3,0.9-1.2,1.5-2.1,1.3c-0.9-0.2-1.4-1.1-1.2-2.1s1.1-1.5,2.1-1.3
			C343.9,15.9,344.4,16.9,344.2,17.8z"/>
		<path fill="#18FFFF" d="M352.2,20.5c-0.4,0.9-1.4,1.4-2.2,1c-0.8-0.3-1.3-1.3-1-2.2c0.3-0.9,1.3-1.4,2.2-1
			C352.2,18.6,352.6,19.7,352.2,20.5z"/>
		<path fill="#18FFFF" d="M359.8,24.3c-0.5,0.8-1.5,1.2-2.3,0.7c-0.8-0.4-1.1-1.5-0.7-2.3c0.4-0.9,1.5-1.2,2.4-0.8
			C360,22.4,360.3,23.5,359.8,24.3z"/>
	</g>
	<g>
		<path fill="#18FFFF" d="M367.8,29.8c-0.6,0.8-1.7,0.9-2.4,0.4c-0.7-0.5-0.9-1.6-0.3-2.4c0.6-0.8,1.7-1,2.4-0.4
			C368.3,27.9,368.4,29,367.8,29.8z"/>
		<path fill="#18FFFF" d="M374.1,35.5c-0.7,0.7-1.8,0.7-2.4,0.1c-0.7-0.6-0.7-1.7,0-2.4c0.7-0.7,1.8-0.8,2.5-0.1
			C374.8,33.6,374.8,34.8,374.1,35.5z"/>
		<path fill="#18FFFF" d="M379.6,41.9c-0.8,0.6-1.9,0.5-2.4-0.2c-0.6-0.7-0.4-1.8,0.3-2.4c0.8-0.6,1.9-0.5,2.4,0.2
			C380.5,40.2,380.4,41.3,379.6,41.9z"/>
		<path fill="#18FFFF" d="M384.2,49c-0.8,0.5-1.9,0.2-2.4-0.6c-0.5-0.8-0.2-1.8,0.6-2.3c0.8-0.5,1.9-0.3,2.4,0.5
			C385.4,47.5,385.1,48.5,384.2,49z"/>
		<path fill="#18FFFF" d="M387.9,56.6c-0.9,0.4-1.9,0-2.3-0.9c-0.4-0.8,0-1.8,0.9-2.3c0.9-0.4,1.9,0,2.3,0.8
			C389.3,55.2,388.8,56.3,387.9,56.6z"/>
		<path fill="#18FFFF" d="M390.6,64.7c-0.9,0.2-1.9-0.3-2.2-1.1c-0.2-0.9,0.3-1.8,1.2-2.1c0.9-0.3,1.9,0.2,2.2,1.1
			C392.1,63.5,391.6,64.4,390.6,64.7z"/>
		<path fill="#18FFFF" d="M392.2,73c-1,0.1-1.8-0.5-2-1.4c-0.2-0.9,0.5-1.8,1.4-1.9c1-0.2,1.9,0.5,2,1.4
			C393.9,72,393.2,72.9,392.2,73z"/>
		<path fill="#18FFFF" d="M392.8,81.5c-1,0-1.8-0.7-1.8-1.7c0-0.9,0.7-1.7,1.7-1.7s1.8,0.7,1.8,1.7
			C394.5,80.7,393.8,81.5,392.8,81.5z"/>
	</g>
</g>
<circle fill="#18FFFF" cx="259.9" cy="81.5" r="6"/>
<g>
	<path fill="#18FFFF" d="M96.1,81.8c5.4,0,10.8,0,16.3,0c1.5,0,1.8,0.3,1,1.7c-4.9,9-9.8,18-14.7,27c-0.5,1-1.1,1.3-2.2,1.3
		c-9.9,0-19.8,0-29.6,0c-1.2,0-1.8-0.4-2.4-1.5c-4.7-8.5-9.4-17-14.2-25.5c-0.6-1-0.6-1.8,0-2.8c4.4-8,8.7-16,13-24.1
		c0.9-1.6,1.8-2.3,3.8-2.3c9.8,0.1,19.6,0.1,29.4,0c1.4,0,2.2,0.4,3,1.7c3.4,5.8,6.9,11.6,10.4,17.4c0.8,1.3,1,2.1-1,2
		c-3.2-0.1-6.4-0.1-9.6,0c-1.2,0-1.9-0.4-2.5-1.4c-1.3-2.2-2.8-4.4-4.1-6.6c-0.6-1.1-1.4-1.5-2.7-1.5c-5.3,0.1-10.7,0.1-16,0
		c-1.4,0-2.1,0.5-2.7,1.7c-2.4,4.5-4.9,9-7.4,13.5c-0.7,1.2-0.7,2.3,0,3.5c2.7,4.8,5.4,9.6,8,14.4c0.6,1.1,1.3,1.8,2.7,1.7
		c4.8-0.1,9.5-0.1,14.3,0c1.3,0,2-0.4,2.6-1.5c1-1.8,2.1-3.6,3.2-5.3c1.1-1.6,0.5-1.9-1.2-1.9c-4.8,0.1-9.5,0-14.3,0
		c-1.6,0-3.1-0.3-4.4-1.3c-3.1-2.3-3.1-6.7,0.1-8.9c1.7-1.2,3.6-1.4,5.5-1.4c5.2,0,10.4,0,15.6,0C96.1,81.7,96.1,81.8,96.1,81.8z"/>
</g>
<line fill="none" stroke="#18FFFF" stroke-width="2" stroke-miterlimit="10" x1="392.4" y1="81.5" x2="502.3" y2="81.5"/>
<circle fill="#18FFFF" cx="392.4" cy="81.5" r="6"/>
<g>
	<g>
		<path fill="#18FFFF" d="M634.5,91.1c-1-0.1-1.7-1-1.5-1.9c0.1-0.9,1-1.6,1.9-1.5c1,0.1,1.7,0.9,1.6,1.9
			C636.3,90.6,635.4,91.3,634.5,91.1z"/>
		<path fill="#18FFFF" d="M632.7,99.4c-0.9-0.3-1.5-1.2-1.3-2.1c0.2-0.9,1.1-1.4,2.1-1.2c1,0.2,1.5,1.1,1.3,2.1
			C634.6,99.2,633.6,99.7,632.7,99.4z"/>
		<path fill="#18FFFF" d="M629.9,107.4c-0.9-0.4-1.3-1.4-1-2.2c0.3-0.8,1.3-1.3,2.3-0.9s1.4,1.3,1,2.2
			C631.8,107.4,630.8,107.8,629.9,107.4z"/>
		<path fill="#18FFFF" d="M626,115c-0.8-0.5-1.1-1.5-0.7-2.3c0.5-0.8,1.5-1.1,2.3-0.6c0.9,0.4,1.2,1.5,0.7,2.4
			C627.9,115.2,626.9,115.5,626,115z"/>
		<path fill="#18FFFF" d="M621.3,122c-0.8-0.6-0.9-1.7-0.4-2.4c0.5-0.7,1.6-0.9,2.4-0.3c0.8,0.6,1,1.6,0.4,2.4
			C623.1,122.5,622,122.6,621.3,122z"/>
		<path fill="#18FFFF" d="M615.6,128.4c-0.7-0.7-0.7-1.8-0.1-2.4c0.6-0.7,1.7-0.7,2.4,0c0.7,0.7,0.8,1.7,0.1,2.4
			C617.4,129.1,616.3,129.1,615.6,128.4z"/>
		<path fill="#18FFFF" d="M609.2,133.9c-0.6-0.8-0.5-1.9,0.2-2.4c0.7-0.5,1.8-0.5,2.4,0.3c0.6,0.7,0.6,1.9-0.2,2.5
			C610.9,134.8,609.8,134.7,609.2,133.9z"/>
		<path fill="#18FFFF" d="M602.2,138.6c-0.5-0.9-0.2-1.9,0.5-2.4c0.8-0.5,1.8-0.2,2.4,0.6c0.5,0.8,0.3,1.9-0.5,2.4
			C603.7,139.8,602.7,139.5,602.2,138.6z"/>
	</g>
	<g>
		<path fill="#18FFFF" d="M593.5,142.8c-0.4-0.9,0-1.9,0.9-2.3c0.8-0.4,1.8,0,2.2,0.9c0.4,0.9,0,1.9-0.9,2.3
			C594.8,144.2,593.8,143.7,593.5,142.8z"/>
		<path fill="#18FFFF" d="M585.4,145.5c-0.2-0.9,0.3-1.9,1.2-2.1c0.9-0.2,1.8,0.3,2.1,1.2c0.3,0.9-0.2,1.9-1.2,2.2
			C586.6,147,585.6,146.4,585.4,145.5z"/>
		<path fill="#18FFFF" d="M577.1,147c-0.1-1,0.5-1.8,1.4-2c0.9-0.1,1.8,0.5,1.9,1.5c0.2,0.9-0.5,1.9-1.4,2
			C578,148.6,577.2,148,577.1,147z"/>
		<path fill="#18FFFF" d="M568.6,147.5c0-1,0.8-1.7,1.7-1.8c0.9,0,1.7,0.7,1.7,1.7c0,1-0.7,1.8-1.7,1.8
			C569.3,149.3,568.6,148.4,568.6,147.5z"/>
		<path fill="#18FFFF" d="M560.1,146.8c0.1-1,1-1.7,1.9-1.5c0.9,0.1,1.6,0.9,1.5,1.9c-0.1,1-0.9,1.7-1.9,1.6
			C560.6,148.7,560,147.8,560.1,146.8z"/>
		<path fill="#18FFFF" d="M551.8,145.2c0.3-0.9,1.2-1.5,2.1-1.3c0.9,0.2,1.4,1.1,1.2,2.1s-1.1,1.5-2.1,1.3
			C552.1,147.1,551.5,146.1,551.8,145.2z"/>
		<path fill="#18FFFF" d="M543.8,142.4c0.4-0.9,1.4-1.4,2.2-1c0.8,0.3,1.3,1.3,1,2.2c-0.3,0.9-1.3,1.4-2.2,1
			C543.8,144.3,543.4,143.3,543.8,142.4z"/>
		<path fill="#18FFFF" d="M536.2,138.6c0.5-0.8,1.5-1.2,2.3-0.7c0.8,0.4,1.1,1.5,0.7,2.3c-0.4,0.9-1.5,1.2-2.4,0.8
			C536,140.5,535.7,139.5,536.2,138.6z"/>
	</g>
	<g>
		<path fill="#18FFFF" d="M528.2,133.2c0.6-0.8,1.7-0.9,2.4-0.4c0.7,0.5,0.9,1.6,0.3,2.4c-0.6,0.8-1.7,1-2.4,0.4
			C527.7,135,527.6,133.9,528.2,133.2z"/>
		<path fill="#18FFFF" d="M521.9,127.5c0.7-0.7,1.8-0.7,2.4-0.1c0.7,0.6,0.7,1.7,0,2.4s-1.8,0.8-2.5,0.1
			C521.1,129.3,521.2,128.2,521.9,127.5z"/>
		<path fill="#18FFFF" d="M516.4,121.1c0.8-0.6,1.9-0.5,2.4,0.2c0.6,0.7,0.4,1.8-0.3,2.4c-0.8,0.6-1.9,0.5-2.4-0.2
			C515.4,122.7,515.6,121.6,516.4,121.1z"/>
		<path fill="#18FFFF" d="M511.7,114c0.8-0.5,1.9-0.2,2.4,0.6c0.5,0.8,0.2,1.8-0.6,2.3c-0.8,0.5-1.9,0.3-2.4-0.5
			C510.6,115.5,510.9,114.4,511.7,114z"/>
		<path fill="#18FFFF" d="M508,106.3c0.9-0.4,1.9,0,2.3,0.9c0.4,0.8,0,1.8-0.9,2.3c-0.9,0.4-1.9,0-2.3-0.8
			C506.7,107.7,507.1,106.7,508,106.3z"/>
		<path fill="#18FFFF" d="M505.3,98.3c0.9-0.2,1.9,0.3,2.2,1.1c0.2,0.9-0.3,1.8-1.2,2.1c-0.9,0.3-1.9-0.2-2.2-1.1
			C503.8,99.5,504.4,98.5,505.3,98.3z"/>
		<path fill="#18FFFF" d="M503.7,89.9c1-0.1,1.8,0.5,2,1.4c0.2,0.9-0.5,1.8-1.4,1.9c-1,0.2-1.9-0.5-2-1.4
			C502.1,90.9,502.8,90.1,503.7,89.9z"/>
		<path fill="#18FFFF" d="M503.2,81.5c1,0,1.8,0.7,1.8,1.7c0,0.9-0.7,1.7-1.7,1.7s-1.8-0.7-1.8-1.7
			C501.4,82.3,502.2,81.5,503.2,81.5z"/>
	</g>
	<g>
		<path fill="#18FFFF" d="M503.9,71.8c1,0.1,1.7,1,1.5,1.9c-0.1,0.9-1,1.6-1.9,1.5c-1-0.1-1.7-0.9-1.6-1.9
			C502,72.3,502.9,71.7,503.9,71.8z"/>
		<path fill="#18FFFF" d="M505.7,63.5c0.9,0.3,1.5,1.2,1.3,2.1c-0.2,0.9-1.1,1.4-2.1,1.2c-1-0.2-1.5-1.1-1.3-2.1
			C503.7,63.8,504.7,63.3,505.7,63.5z"/>
		<path fill="#18FFFF" d="M508.5,55.5c0.9,0.4,1.3,1.4,1,2.2c-0.3,0.8-1.3,1.3-2.3,0.9c-0.9-0.3-1.4-1.3-1-2.2
			C506.6,55.6,507.6,55.1,508.5,55.5z"/>
		<path fill="#18FFFF" d="M512.3,48c0.8,0.5,1.1,1.5,0.7,2.3c-0.5,0.8-1.5,1.1-2.3,0.6c-0.9-0.4-1.2-1.5-0.7-2.4
			C510.4,47.7,511.5,47.5,512.3,48z"/>
		<path fill="#18FFFF" d="M517.1,41c0.8,0.6,0.9,1.7,0.4,2.4c-0.5,0.7-1.6,0.9-2.4,0.3c-0.8-0.6-1-1.6-0.4-2.4
			C515.2,40.5,516.3,40.4,517.1,41z"/>
		<path fill="#18FFFF" d="M522.7,34.6c0.7,0.7,0.7,1.8,0.1,2.4c-0.6,0.7-1.7,0.7-2.4,0s-0.8-1.7-0.1-2.4
			C520.9,33.9,522,33.9,522.7,34.6z"/>
		<path fill="#18FFFF" d="M529.1,29c0.6,0.8,0.5,1.9-0.2,2.4c-0.7,0.5-1.8,0.5-2.4-0.3c-0.6-0.7-0.6-1.9,0.2-2.5
			C527.4,28.1,528.5,28.3,529.1,29z"/>
		<path fill="#18FFFF" d="M536.2,24.3c0.5,0.9,0.2,1.9-0.5,2.4c-0.8,0.5-1.8,0.2-2.4-0.6s-0.3-1.9,0.5-2.4
			C534.6,23.2,535.7,23.5,536.2,24.3z"/>
	</g>
	<g>
		<path fill="#18FFFF" d="M544.9,20.1c0.4,0.9,0,1.9-0.9,2.3c-0.8,0.4-1.8,0-2.2-0.9c-0.4-0.9,0-1.9,0.9-2.3
			C543.5,18.7,544.5,19.2,544.9,20.1z"/>
		<path fill="#18FFFF" d="M553,17.5c0.2,0.9-0.3,1.9-1.2,2.1c-0.9,0.2-1.8-0.3-2.1-1.2c-0.3-0.9,0.2-1.9,1.2-2.2
			C551.8,16,552.7,16.5,553,17.5z"/>
		<path fill="#18FFFF" d="M561.3,16c0.1,1-0.5,1.8-1.4,2c-0.9,0.1-1.8-0.5-1.9-1.5c-0.2-0.9,0.5-1.9,1.4-2
			C560.3,14.3,561.2,15,561.3,16z"/>
		<path fill="#18FFFF" d="M569.8,15.5c0,1-0.8,1.7-1.7,1.8c-0.9,0-1.7-0.7-1.7-1.7c0-1,0.7-1.8,1.7-1.8
			C569,13.7,569.8,14.5,569.8,15.5z"/>
		<path fill="#18FFFF" d="M578.2,16.1c-0.1,1-1,1.7-1.9,1.5c-0.9-0.1-1.6-0.9-1.5-1.9c0.1-1,0.9-1.7,1.9-1.6
			C577.7,14.3,578.4,15.1,578.2,16.1z"/>
		<path fill="#18FFFF" d="M586.5,17.8c-0.3,0.9-1.2,1.5-2.1,1.3c-0.9-0.2-1.4-1.1-1.2-2.1s1.1-1.5,2.1-1.3
			C586.3,15.9,586.8,16.9,586.5,17.8z"/>
		<path fill="#18FFFF" d="M594.6,20.5c-0.4,0.9-1.4,1.4-2.2,1c-0.8-0.3-1.3-1.3-1-2.2c0.3-0.9,1.3-1.4,2.2-1
			C594.5,18.6,595,19.7,594.6,20.5z"/>
		<path fill="#18FFFF" d="M602.2,24.3c-0.5,0.8-1.5,1.2-2.3,0.7c-0.8-0.4-1.1-1.5-0.7-2.3c0.4-0.9,1.5-1.2,2.4-0.8
			C602.4,22.4,602.7,23.5,602.2,24.3z"/>
	</g>
	<g>
		<path fill="#18FFFF" d="M610.2,29.8c-0.6,0.8-1.7,0.9-2.4,0.4c-0.7-0.5-0.9-1.6-0.3-2.4c0.6-0.8,1.7-1,2.4-0.4
			C610.6,27.9,610.8,29,610.2,29.8z"/>
		<path fill="#18FFFF" d="M616.5,35.5c-0.7,0.7-1.8,0.7-2.4,0.1c-0.7-0.6-0.7-1.7,0-2.4c0.7-0.7,1.8-0.8,2.5-0.1
			C617.2,33.6,617.2,34.8,616.5,35.5z"/>
		<path fill="#18FFFF" d="M622,41.9c-0.8,0.6-1.9,0.5-2.4-0.2c-0.6-0.7-0.4-1.8,0.3-2.4c0.8-0.6,1.9-0.5,2.4,0.2
			C622.9,40.2,622.8,41.3,622,41.9z"/>
		<path fill="#18FFFF" d="M626.6,49c-0.8,0.5-1.9,0.2-2.4-0.6c-0.5-0.8-0.2-1.8,0.6-2.3c0.8-0.5,1.9-0.3,2.4,0.5
			C627.8,47.5,627.5,48.5,626.6,49z"/>
		<path fill="#18FFFF" d="M630.3,56.6c-0.9,0.4-1.9,0-2.3-0.9c-0.4-0.8,0-1.8,0.9-2.3c0.9-0.4,1.9,0,2.3,0.8
			C631.7,55.2,631.2,56.3,630.3,56.6z"/>
		<path fill="#18FFFF" d="M633,64.7c-0.9,0.2-1.9-0.3-2.2-1.1c-0.2-0.9,0.3-1.8,1.2-2.1c0.9-0.3,1.9,0.2,2.2,1.1
			C634.5,63.5,634,64.4,633,64.7z"/>
		<path fill="#18FFFF" d="M634.6,73c-1,0.1-1.8-0.5-2-1.4c-0.2-0.9,0.5-1.8,1.4-1.9c1-0.2,1.9,0.5,2,1.4
			C636.3,72,635.6,72.9,634.6,73z"/>
		<path fill="#18FFFF" d="M635.2,81.5c-1,0-1.8-0.7-1.8-1.7c0-0.9,0.7-1.7,1.7-1.7s1.8,0.7,1.8,1.7
			C636.9,80.7,636.1,81.5,635.2,81.5z"/>
	</g>
</g>
<circle fill="#18FFFF" cx="502.3" cy="81.5" r="6"/>
<g>
	<path opacity="0.79" fill="#18FFFF" d="M354.3,79.1c0.9-0.5,1.5-1.5,1.5-2.6v-7.1c0-1.1-0.6-2.1-1.5-2.6l-25-14.5
		c-0.9-0.5-2.1-0.5-3,0L301,66.8c-0.9,0.5-1.5,1.6-1.5,2.6v29.1c0,1.1,0.6,2.1,1.5,2.6l25,14.3c0.9,0.5,2.1,0.5,3,0l15.1-8.4
		c0.5-0.3,0.8-0.8,0.8-1.3c0-0.5-0.3-1.1-0.8-1.3l-25.4-14.6c-0.5-0.3-0.8-0.8-0.8-1.3v-9.1c0-0.5,0.3-1,0.8-1.3l7.9-4.5
		c0.5-0.3,1.1-0.3,1.5,0l7.9,4.5c0.5,0.3,0.8,0.8,0.8,1.3v7.2c0,0.5,0.3,1,0.8,1.3c0.5,0.3,1.1,0.3,1.5,0L354.3,79.1z"/>
	<path fill="#18FFFF" d="M327.3,77.8c0.2-0.1,0.4-0.1,0.6,0l4.8,2.8c0.2,0.1,0.3,0.3,0.3,0.5v5.6c0,0.2-0.1,0.4-0.3,0.5l-4.8,2.8
		c-0.2,0.1-0.4,0.1-0.6,0l-4.8-2.8c-0.2-0.1-0.3-0.3-0.3-0.5v-5.6c0-0.2,0.1-0.4,0.3-0.5L327.3,77.8z"/>
</g>
<g>
	<g>
		<path opacity="0.59" fill="#18FFFF" d="M570.6,52.9c0.1,0.1,0.2,0.2,0.3,0.4c0.7,1.7,1.9,3.2,3.2,4.6c5.4,5.4,8.5,12,9.9,19.4
			c0.3,1.8,0.4,3.6,0.4,5.4c-0.2,7.4-2.6,13.9-7.6,19.3c-1.1,1.2-2.4,2.4-3.8,3.4c-0.6-0.1-0.9-0.6-1.2-1c-0.8-1.6-1-3.3-1.1-5.1
			c0-0.2-0.1-0.4-0.1-0.5c0.2-3,0.5-6,0.4-9.1c0.1-1.8,0.1-3.7,0.1-5.5c0-2.2,0-4.5-0.1-6.7c0-0.2-0.1-0.4-0.1-0.6
			c0-0.6,0.1-1.1,0.1-1.7c-0.1-2.9,0-5.8-0.1-8.6C570.9,62,570.8,57.5,570.6,52.9z"/>
		<path fill="#18FFFF" d="M571.1,89.7c0.1,3-0.2,6-0.4,9.1c0,0.2,0.1,0.4,0.1,0.5c-0.2,1.7-0.5,3.4-0.8,5.1
			c-0.1,0.6-0.1,1.2-0.6,1.6c-2.8-2.2-5.3-4.7-7.3-7.7c-3.2-4.7-5.2-9.8-5.3-15.6c-0.1-6.4,1.3-12.4,4.3-18.1
			c0.2-0.4,0.3-0.9,0.7-1.2c0.1,0.3,0.3,0.5,0.4,0.8c1.2,3.5,2.4,6.9,3.5,10.4c1.6,4.7,3.2,9.5,4.8,14.3
			C570.6,89.2,570.6,89.7,571.1,89.7z"/>
		<path fill="#18FFFF" d="M571.1,89.7c-0.5-0.1-0.5-0.5-0.6-0.8c-1.6-4.7-3.2-9.5-4.8-14.3c-1.2-3.5-2.3-6.9-3.5-10.4
			c-0.1-0.3-0.3-0.6-0.4-0.8c0.7-1.4,1.6-2.7,2.7-3.9c0.5,0.1,0.5,0.6,0.6,1c1.7,5.1,3.4,10.3,5.2,15.4c0.1,0.4,0.2,0.8,0.7,1
			c0,0.2,0.1,0.4,0.1,0.6c0.1,2.2,0.1,4.5,0.1,6.7C571.2,86,571.1,87.9,571.1,89.7z"/>
		<path fill="#18FFFF" d="M570.9,76.9c-0.5-0.1-0.5-0.6-0.7-1c-1.7-5.1-3.4-10.3-5.2-15.4c-0.1-0.4-0.1-0.9-0.6-1
			c1-1.4,2.2-2.6,3.5-3.7c1.1-1,2.3-1.9,2.3-3.6c0.2,0.1,0.3,0.3,0.3,0.4c0,0,0,0,0,0c0,0,0,0.1,0.1,0.1c0,0,0,0.1,0,0.1
			c0.2,4.5,0.3,9.1,0.4,13.6c0.1,2.9,0,5.8,0.1,8.6C571.1,75.8,571,76.3,570.9,76.9z"/>
		<path opacity="0.5" fill="#18FFFF" d="M569.3,106c0.5-0.4,0.5-1,0.6-1.6c0.3-1.7,0.5-3.4,0.8-5.1c0.1,1.7,0.3,3.5,1.1,5.1
			c0.3,0.5,0.5,1,1.2,1c-1.1,1.2-1,2.7-1.1,4.2c-0.1,1,0,2-0.1,3c0,0.3,0.2,0.8-0.3,0.7c-0.4-0.1-1.2,0.1-1.2-0.8
			c0-1.6-0.1-3.2-0.5-4.8C569.7,107.1,569.5,106.6,569.3,106z"/>
		<path fill="#18FFFF" d="M570.6,52.8C570.6,52.8,570.5,52.7,570.6,52.8c-0.1-0.1,0-0.1,0-0.1C570.6,52.7,570.6,52.7,570.6,52.8z"/>
	</g>
</g>
</svg>
