<?xml version="1.0" encoding="utf-8"?>
<!-- Generator: Adobe Illustrator 19.2.1, SVG Export Plug-In . SVG Version: 6.00 Build 0)  -->
<svg version="1.1" id="Layer_1" xmlns="http://www.w3.org/2000/svg" xmlns:xlink="http://www.w3.org/1999/xlink" x="0px" y="0px"
	 viewBox="0 0 128 128" style="enable-background:new 0 0 128 128;" xml:space="preserve">
<style type="text/css">
	.st0{fill:#263239;}
	.st1{fill:#40C4FF;}
	.st2{fill:#43A8DF;}
	.st3{fill:#57D4FF;}
</style>
<g>
	<polygon class="st0" points="63.3,115.4 11.2,85.3 63.3,55.3 115.3,85.3 	"/>
	<path class="st1" d="M63.3,116.6L9.2,85.3l54.1-31.2l54.1,31.2L63.3,116.6z M13.3,85.3l50,28.9l50-28.9l-50-28.9L13.3,85.3z"/>
</g>
<g>
	<polygon class="st0" points="63.3,97.1 11.3,67.1 63.3,37 115.4,67.1 	"/>
	<path class="st1" d="M63.3,98.3L9.2,67.1l54.1-31.2l54.1,31.2L63.3,98.3z M13.3,67.1l50,28.9l50-28.9l-50-28.9L13.3,67.1z"/>
</g>
<g>
	<polygon class="st0" points="63.3,79.3 11.2,49.2 63.3,19.2 115.3,49.2 	"/>
	<path class="st1" d="M63.3,80.5L9.2,49.2L63.3,18l54.1,31.2L63.3,80.5z M13.3,49.2l50,28.9l50-28.9l-50-28.9L13.3,49.2z"/>
</g>
<g>
	<polygon class="st1" points="63.2,63.7 63.2,37 40.2,23.7 40.2,50.4 	"/>
	<polygon class="st2" points="63.2,37 86.4,23.8 86.4,50.3 63.2,63.7 	"/>
	<polygon class="st3" points="40.2,23.7 63.2,10.4 86.4,23.8 63.2,37 	"/>
</g>
</svg>
